<svg width="330" height="291" viewBox="0 0 330 291" fill="none" xmlns="http://www.w3.org/2000/svg">
<rect y="0.28125" width="330" height="290" rx="16" fill="white"/>
<path d="M24.696 25.8812V34.2812H30.948V32.7932H26.304V30.7772H30.228V29.2892H26.304V27.3692H30.888V25.8812H24.696ZM34.8207 27.8612C33.9567 27.8612 33.2367 28.1732 32.6487 28.8092C32.0727 29.4332 31.7847 30.2132 31.7847 31.1612C31.7847 32.1092 32.0727 32.8892 32.6487 33.5252C33.2367 34.1492 33.9567 34.4613 34.8207 34.4613C35.5287 34.4613 36.1647 34.2332 36.7167 33.7892V34.2812H38.2047V28.0412H36.7167V28.5332C36.1647 28.0892 35.5287 27.8612 34.8207 27.8612ZM36.2007 29.8772C36.5247 30.2252 36.6927 30.6452 36.6927 31.1612C36.6927 31.6772 36.5247 32.0972 36.2007 32.4452C35.8767 32.7932 35.4807 32.9612 35.0127 32.9612C34.5447 32.9612 34.1367 32.7932 33.8127 32.4452C33.4887 32.0972 33.3327 31.6772 33.3327 31.1612C33.3327 30.6452 33.4887 30.2252 33.8127 29.8772C34.1367 29.5292 34.5447 29.3612 35.0127 29.3612C35.4807 29.3612 35.8767 29.5292 36.2007 29.8772ZM41.2176 28.0412H39.7176V34.2812H41.2176V30.8492C41.2176 30.0212 41.8296 29.3972 42.6576 29.3972C42.8736 29.3972 43.0776 29.4452 43.2696 29.5292V27.8612C42.3336 27.8612 41.6496 28.1732 41.2176 28.8092V28.0412ZM44.3287 34.2812H45.8287V30.7172C45.8287 29.9012 46.4407 29.2892 47.2567 29.2892C48.0607 29.2892 48.6607 29.9012 48.6607 30.7172V34.2812H50.1607V30.2972C50.1607 29.6012 49.9207 29.0252 49.4527 28.5572C48.9847 28.0892 48.4087 27.8612 47.7007 27.8612C46.9087 27.8612 46.2847 28.1732 45.8287 28.7972V28.0412H44.3287V34.2812ZM53.1702 34.2812V28.0412H51.6702V34.2812H53.1702ZM52.4142 27.4892C52.9782 27.4892 53.3742 27.0692 53.3742 26.5292C53.3742 25.9892 52.9542 25.5812 52.4142 25.5812C51.8742 25.5812 51.4662 25.9892 51.4662 26.5292C51.4662 27.0692 51.8742 27.4892 52.4142 27.4892ZM54.6876 34.2812H56.1876V30.7172C56.1876 29.9012 56.7996 29.2892 57.6156 29.2892C58.4196 29.2892 59.0196 29.9012 59.0196 30.7172V34.2812H60.5196V30.2972C60.5196 29.6012 60.2796 29.0252 59.8116 28.5572C59.3436 28.0892 58.7676 27.8612 58.0596 27.8612C57.2676 27.8612 56.6436 28.1732 56.1876 28.7972V28.0412H54.6876V34.2812ZM64.8371 27.8612C63.9731 27.8612 63.2531 28.1732 62.6651 28.8092C62.0891 29.4332 61.8011 30.2132 61.8011 31.1612C61.8011 32.1092 62.0891 32.8892 62.6651 33.5252C63.2531 34.1492 63.9731 34.4613 64.8371 34.4613C65.5451 34.4613 66.1811 34.2332 66.7331 33.7892V34.1132C66.7331 34.5573 66.5771 34.9173 66.2531 35.2173C65.9291 35.5173 65.5451 35.6733 65.0771 35.6733C64.4171 35.6733 63.8051 35.3253 63.5771 34.8573L62.0771 35.2893C62.2931 35.8293 62.6891 36.2733 63.2531 36.6213C63.8171 36.9813 64.4411 37.1613 65.1251 37.1613C65.9891 37.1613 66.7211 36.8733 67.3211 36.2853C67.9211 35.6973 68.2211 34.9773 68.2211 34.1132V28.0412H66.7331V28.5332C66.1811 28.0892 65.5451 27.8612 64.8371 27.8612ZM66.2171 29.8772C66.5411 30.2252 66.7091 30.6452 66.7091 31.1612C66.7091 31.6772 66.5411 32.0972 66.2171 32.4452C65.8931 32.7932 65.4971 32.9612 65.0291 32.9612C64.5611 32.9612 64.1531 32.7932 63.8291 32.4452C63.5051 32.0972 63.3491 31.6772 63.3491 31.1612C63.3491 30.6452 63.5051 30.2252 63.8291 29.8772C64.1531 29.5292 64.5611 29.3612 65.0291 29.3612C65.4971 29.3612 65.8931 29.5292 66.2171 29.8772ZM74.354 29.5412C74.198 28.4972 73.322 27.8612 71.966 27.8612C70.538 27.8612 69.554 28.4972 69.554 29.8052C69.554 30.6812 69.986 31.1973 71.042 31.5452L72.326 31.9532C72.794 32.1092 73.022 32.3132 73.022 32.5532C73.022 32.9372 72.59 33.1652 72.014 33.1652C71.33 33.1652 70.898 32.8652 70.79 32.4212L69.386 32.6252C69.566 33.7652 70.478 34.4613 71.978 34.4613C73.418 34.4613 74.45 33.8012 74.45 32.5052C74.45 31.6052 73.97 31.0292 72.818 30.6332L71.534 30.2012C71.162 30.0692 70.982 29.9012 70.982 29.6972C70.982 29.3492 71.366 29.1572 71.858 29.1572C72.458 29.1572 72.818 29.3612 72.95 29.7692L74.354 29.5412ZM84.907 27.5852C84.739 27.0452 84.379 26.5892 83.839 26.2412C83.299 25.8812 82.651 25.7012 81.919 25.7012C81.079 25.7012 80.395 25.9412 79.855 26.4092C79.327 26.8772 79.063 27.4892 79.063 28.2452C79.063 29.0972 79.471 29.7452 80.275 30.1772C80.623 30.3572 81.295 30.5972 82.303 30.8972C82.627 31.0052 82.675 31.0052 82.975 31.1492C83.131 31.2212 83.251 31.2932 83.323 31.3532C83.467 31.4852 83.623 31.7012 83.623 31.9412C83.623 32.5173 82.963 32.9132 82.111 32.9132C81.235 32.9132 80.563 32.4692 80.431 31.9412L78.823 32.4212C79.003 33.0092 79.387 33.4893 79.975 33.8853C80.563 34.2692 81.283 34.4613 82.111 34.4613C83.035 34.4613 83.779 34.2212 84.355 33.7412C84.943 33.2492 85.231 32.6012 85.231 31.7972C85.231 31.1372 84.955 30.5732 84.667 30.2732C84.523 30.1172 84.319 29.9612 84.067 29.8292C83.551 29.5532 83.335 29.5052 82.819 29.3612C82.123 29.1572 81.667 29.0132 81.439 28.9172C80.923 28.7012 80.671 28.4372 80.671 28.1252C80.671 27.6332 81.235 27.2372 81.943 27.2372C82.615 27.2372 83.167 27.6092 83.299 28.0532L84.907 27.5852ZM86.4735 32.0252C86.4735 32.7212 86.7015 33.2972 87.1695 33.7652C87.6375 34.2332 88.2255 34.4613 88.9335 34.4613C89.7255 34.4613 90.3495 34.1492 90.8055 33.5252V34.2812H92.3055V28.0412H90.8055V31.5932C90.8055 32.4092 90.1935 33.0332 89.3895 33.0332C88.5735 33.0332 87.9735 32.4092 87.9735 31.5932V28.0412H86.4735V32.0252ZM95.3151 34.2812V30.6092C95.3151 29.8532 95.8911 29.2892 96.6231 29.2892C97.3551 29.2892 97.9191 29.8532 97.9191 30.6092V34.2812H99.4191V30.6092C99.4191 29.8532 99.9951 29.2892 100.727 29.2892C101.459 29.2892 102.023 29.8532 102.023 30.6092V34.2812H103.511V30.1772C103.511 29.5172 103.271 28.9652 102.803 28.5212C102.335 28.0772 101.747 27.8612 101.027 27.8612C100.151 27.8612 99.4791 28.1972 99.0351 28.8812C98.5911 28.1972 97.9311 27.8612 97.0671 27.8612C96.3351 27.8612 95.7471 28.1372 95.3151 28.7012V28.0412H93.8151V34.2812H95.3151ZM106.524 34.2812V30.6092C106.524 29.8532 107.1 29.2892 107.832 29.2892C108.564 29.2892 109.128 29.8532 109.128 30.6092V34.2812H110.628V30.6092C110.628 29.8532 111.204 29.2892 111.936 29.2892C112.668 29.2892 113.232 29.8532 113.232 30.6092V34.2812H114.72V30.1772C114.72 29.5172 114.48 28.9652 114.012 28.5212C113.544 28.0772 112.956 27.8612 112.236 27.8612C111.36 27.8612 110.688 28.1972 110.244 28.8812C109.8 28.1972 109.14 27.8612 108.276 27.8612C107.544 27.8612 106.956 28.1372 106.524 28.7012V28.0412H105.024V34.2812H106.524ZM119.041 27.8612C118.177 27.8612 117.457 28.1732 116.869 28.8092C116.293 29.4332 116.005 30.2132 116.005 31.1612C116.005 32.1092 116.293 32.8892 116.869 33.5252C117.457 34.1492 118.177 34.4613 119.041 34.4613C119.749 34.4613 120.385 34.2332 120.937 33.7892V34.2812H122.425V28.0412H120.937V28.5332C120.385 28.0892 119.749 27.8612 119.041 27.8612ZM120.421 29.8772C120.745 30.2252 120.913 30.6452 120.913 31.1612C120.913 31.6772 120.745 32.0972 120.421 32.4452C120.097 32.7932 119.701 32.9612 119.233 32.9612C118.765 32.9612 118.357 32.7932 118.033 32.4452C117.709 32.0972 117.553 31.6772 117.553 31.1612C117.553 30.6452 117.709 30.2252 118.033 29.8772C118.357 29.5292 118.765 29.3612 119.233 29.3612C119.701 29.3612 120.097 29.5292 120.421 29.8772ZM125.437 28.0412H123.937V34.2812H125.437V30.8492C125.437 30.0212 126.049 29.3972 126.877 29.3972C127.093 29.3972 127.297 29.4452 127.489 29.5292V27.8612C126.553 27.8612 125.869 28.1732 125.437 28.8092V28.0412ZM130.252 34.5933C130 35.2293 129.52 35.5533 128.8 35.5533H128.56V36.9813H128.8C130.18 36.9813 130.996 36.4053 131.524 35.0973L134.344 28.0412H132.796L131.164 32.2532L129.568 28.0412H128.02L130.42 34.1612L130.252 34.5933Z" fill="#A4A7B0"/>
<rect x="24" y="62.5727" width="64" height="64" rx="32" fill="#EFECFF"/>
<g filter="url(#filter0_d_524_3187)">
<g clip-path="url(#clip0_524_3187)">
<rect x="64" y="100.573" width="41" height="15" rx="4" fill="white"/>
<path d="M72.3333 106.682V110.739H71.6667V106.682L69.8787 108.47L69.4073 107.999L72 105.406L74.5927 107.999L74.1213 108.47L72.3333 106.682Z" fill="#2ED573"/>
<path d="M82.376 107.097C82.376 107.343 82.184 107.649 81.8 108.021L80.258 109.491V110.073H83.216V109.329H81.458L82.28 108.549C82.904 107.949 83.18 107.505 83.18 107.073C83.18 106.719 83.036 106.413 82.748 106.161C82.466 105.909 82.112 105.783 81.698 105.783C81.02 105.783 80.444 106.173 80.174 106.797L80.894 107.139C81.038 106.761 81.338 106.527 81.698 106.527C81.884 106.527 82.04 106.581 82.172 106.695C82.31 106.809 82.376 106.941 82.376 107.097ZM86.9845 108.735C86.9845 108.327 86.8285 107.985 86.5105 107.715C86.1985 107.445 85.8085 107.307 85.3345 107.307H84.9145L84.9805 106.587H86.6245V105.873H84.3385L84.1225 108.015H85.2925C85.5445 108.015 85.7545 108.081 85.9225 108.219C86.0965 108.357 86.1805 108.525 86.1805 108.735C86.1805 108.927 86.1025 109.089 85.9465 109.221C85.7965 109.353 85.6045 109.419 85.3825 109.419C85.0165 109.419 84.7165 109.209 84.5785 108.879L83.8045 109.089C84.0385 109.737 84.6325 110.163 85.3765 110.163C85.8385 110.163 86.2165 110.025 86.5225 109.755C86.8285 109.479 86.9845 109.137 86.9845 108.735ZM87.5397 109.689C87.5397 109.959 87.7377 110.163 88.0077 110.163C88.2777 110.163 88.4757 109.959 88.4757 109.689C88.4757 109.425 88.2777 109.221 88.0077 109.221C87.7377 109.221 87.5397 109.425 87.5397 109.689ZM89.0315 109.317C89.2955 109.839 89.8655 110.163 90.5375 110.163C91.0115 110.163 91.4015 110.019 91.7195 109.737C92.0375 109.449 92.1935 109.095 92.1935 108.669V107.211C92.1935 106.809 92.0435 106.467 91.7435 106.197C91.4495 105.921 91.0775 105.783 90.6275 105.783C90.1835 105.783 89.8115 105.921 89.5115 106.191C89.2115 106.461 89.0615 106.803 89.0615 107.205C89.0615 107.613 89.2115 107.955 89.5115 108.231C89.8115 108.501 90.1835 108.639 90.6215 108.639C90.9095 108.639 91.1735 108.573 91.4195 108.447V108.675C91.4195 108.885 91.3355 109.065 91.1675 109.209C90.9995 109.347 90.7895 109.419 90.5375 109.419C90.1775 109.419 89.8835 109.245 89.7455 108.975L89.0315 109.317ZM91.3895 107.217C91.3895 107.601 91.0595 107.895 90.6275 107.895C90.1955 107.895 89.8715 107.601 89.8715 107.199C89.8715 106.821 90.1955 106.527 90.6275 106.527C91.0595 106.527 91.3895 106.827 91.3895 107.217ZM93.6297 110.073L96.8817 106.197L96.4917 105.873L93.2457 109.755L93.6297 110.073ZM92.7477 106.845C92.7477 107.151 92.8497 107.403 93.0537 107.607C93.2577 107.805 93.5097 107.907 93.8097 107.907C94.1157 107.907 94.3677 107.805 94.5657 107.607C94.7697 107.403 94.8717 107.151 94.8717 106.845C94.8717 106.545 94.7697 106.293 94.5657 106.089C94.3677 105.885 94.1157 105.783 93.8097 105.783C93.5097 105.783 93.2577 105.885 93.0537 106.089C92.8497 106.293 92.7477 106.545 92.7477 106.845ZM93.5217 106.557C93.6837 106.395 93.9357 106.395 94.0977 106.557C94.2597 106.719 94.2597 106.971 94.0977 107.133C93.9357 107.295 93.6837 107.295 93.5217 107.133C93.3597 106.971 93.3597 106.719 93.5217 106.557ZM96.3057 108.033C96.0057 108.033 95.7537 108.135 95.5497 108.339C95.3457 108.543 95.2437 108.795 95.2437 109.101C95.2437 109.407 95.3457 109.659 95.5497 109.863C95.7537 110.061 96.0057 110.163 96.3057 110.163C96.6117 110.163 96.8637 110.061 97.0617 109.863C97.2657 109.659 97.3677 109.407 97.3677 109.101C97.3677 108.795 97.2657 108.543 97.0617 108.339C96.8637 108.135 96.6117 108.033 96.3057 108.033ZM95.8977 109.101C95.8977 108.867 96.0717 108.687 96.3057 108.687C96.5397 108.687 96.7137 108.867 96.7137 109.101C96.7137 109.323 96.5277 109.509 96.3057 109.509C96.0837 109.509 95.8977 109.323 95.8977 109.101Z" fill="#2ED573"/>
</g>
</g>
<path d="M24 108.631L24.8889 108.414C25.7778 108.196 27.5556 107.762 29.3333 106.81C31.1111 105.858 32.8889 104.389 34.6667 102.327C36.4444 100.266 38.2222 97.6121 40 95.5681C41.7778 93.5241 43.5556 92.0897 45.3333 92.1503C47.1111 92.2109 48.8889 93.7666 50.6667 94.698C52.4444 95.6294 54.2222 95.9366 56 95.136C57.7778 94.3353 59.5556 92.4269 61.3333 90.3509C63.1111 88.2749 64.8889 86.0313 66.6667 84.636C68.4444 83.2406 70.2222 82.6936 72 83.1594C73.7778 83.6252 75.5556 85.104 77.3333 86.5958C79.1111 88.0877 80.8889 89.5928 82.6667 88.5156C84.4444 87.4384 86.2222 83.7789 87.1111 81.9492L88 80.1195" stroke="#663AF5" stroke-width="1.5" stroke-linecap="round"/>
<path d="M123.04 95.0727V87.6627H121.3V85.4427H123.04V83.2827H121.3V81.0627H123.04V73.6527H127.75L130.09 81.0627H132.82V73.6527H136.15V81.0627H137.86V83.2827H136.15V85.4427H137.86V87.6627H136.15V95.0727H131.41L129.01 87.6627H126.37V95.0727H123.04ZM126.37 85.4427H128.35L127.69 83.2827H126.31L126.37 85.4427ZM132.91 90.3927H133.06L132.94 87.6627H132.13L132.91 90.3927ZM126.25 81.0627H127.09L126.22 78.1827H126.1L126.25 81.0627ZM131.5 85.4427H132.88L132.82 83.2827H130.81L131.5 85.4427ZM150.531 81.6254C147.894 81.6254 145.931 82.7973 144.891 84.6284L145.345 77.6704L148.216 77.6997H155.57V73.9497H141.771L140.921 86.3129H144.774C145.257 85.8002 145.77 85.4194 146.327 85.185C146.869 84.9653 147.616 84.8481 148.553 84.8481C151.234 84.8481 152.391 85.9174 152.391 88.437C152.391 90.8393 151.19 91.894 148.553 91.894C145.814 91.894 144.671 90.81 144.671 88.2905H140.262C140.262 90.4438 141.024 92.187 142.547 93.52C144.071 94.853 146.078 95.5268 148.553 95.5268C151.014 95.5268 153.006 94.8676 154.515 93.5493C156.024 92.2456 156.771 90.517 156.771 88.3784C156.771 86.3569 156.2 84.7309 155.072 83.4858C153.929 82.2407 152.42 81.6254 150.531 81.6254ZM176.341 92.4946C178.113 90.4731 178.992 87.8071 178.992 84.5112C178.992 81.2153 178.113 78.5493 176.341 76.5278C174.568 74.5063 172.254 73.4956 169.368 73.4956C166.482 73.4956 164.168 74.5063 162.395 76.5278C160.623 78.5493 159.729 81.2153 159.729 84.5112C159.729 87.8071 160.623 90.4731 162.395 92.4946C164.168 94.5161 166.482 95.5268 169.368 95.5268C172.254 95.5268 174.568 94.5161 176.341 92.4946ZM165.486 89.9751C164.68 88.8325 164.27 87.0161 164.27 84.5112C164.27 81.9917 164.68 80.1606 165.486 79.0327C166.292 77.9047 167.581 77.3481 169.368 77.3481C171.14 77.3481 172.444 77.9047 173.25 79.0327C174.055 80.1606 174.466 81.9917 174.466 84.5112C174.466 87.0161 174.055 88.8325 173.25 89.9751C172.444 91.1176 171.14 91.6889 169.368 91.6889C167.581 91.6889 166.292 91.1176 165.486 89.9751ZM199.089 92.4946C200.862 90.4731 201.74 87.8071 201.74 84.5112C201.74 81.2153 200.862 78.5493 199.089 76.5278C197.317 74.5063 195.002 73.4956 192.116 73.4956C189.231 73.4956 186.916 74.5063 185.144 76.5278C183.371 78.5493 182.478 81.2153 182.478 84.5112C182.478 87.8071 183.371 90.4731 185.144 92.4946C186.916 94.5161 189.231 95.5268 192.116 95.5268C195.002 95.5268 197.317 94.5161 199.089 92.4946ZM188.235 89.9751C187.429 88.8325 187.019 87.0161 187.019 84.5112C187.019 81.9917 187.429 80.1606 188.235 79.0327C189.04 77.9047 190.329 77.3481 192.116 77.3481C193.889 77.3481 195.193 77.9047 195.998 79.0327C196.804 80.1606 197.214 81.9917 197.214 84.5112C197.214 87.0161 196.804 88.8325 195.998 89.9751C195.193 91.1176 193.889 91.6889 192.116 91.6889C190.329 91.6889 189.04 91.1176 188.235 89.9751ZM204.157 94.1792L206.574 95.4096C206.574 97.4018 205.622 98.2807 203.556 98.2807V100.258C205.241 100.258 206.545 99.8042 207.497 98.896C208.449 97.9877 208.918 96.7133 208.918 95.0727V90.4292H204.157V94.1792ZM228.326 92.4946C230.099 90.4731 230.978 87.8071 230.978 84.5112C230.978 81.2153 230.099 78.5493 228.326 76.5278C226.554 74.5063 224.239 73.4956 221.354 73.4956C218.468 73.4956 216.153 74.5063 214.381 76.5278C212.608 78.5493 211.715 81.2153 211.715 84.5112C211.715 87.8071 212.608 90.4731 214.381 92.4946C216.153 94.5161 218.468 95.5268 221.354 95.5268C224.239 95.5268 226.554 94.5161 228.326 92.4946ZM217.472 89.9751C216.666 88.8325 216.256 87.0161 216.256 84.5112C216.256 81.9917 216.666 80.1606 217.472 79.0327C218.277 77.9047 219.566 77.3481 221.354 77.3481C223.126 77.3481 224.43 77.9047 225.235 79.0327C226.041 80.1606 226.451 81.9917 226.451 84.5112C226.451 87.0161 226.041 88.8325 225.235 89.9751C224.43 91.1176 223.126 91.6889 221.354 91.6889C219.566 91.6889 218.277 91.1176 217.472 89.9751ZM251.075 92.4946C252.847 90.4731 253.726 87.8071 253.726 84.5112C253.726 81.2153 252.847 78.5493 251.075 76.5278C249.302 74.5063 246.988 73.4956 244.102 73.4956C241.216 73.4956 238.902 74.5063 237.129 76.5278C235.357 78.5493 234.463 81.2153 234.463 84.5112C234.463 87.8071 235.357 90.4731 237.129 92.4946C238.902 94.5161 241.216 95.5268 244.102 95.5268C246.988 95.5268 249.302 94.5161 251.075 92.4946ZM240.22 89.9751C239.414 88.8325 239.004 87.0161 239.004 84.5112C239.004 81.9917 239.414 80.1606 240.22 79.0327C241.026 77.9047 242.315 77.3481 244.102 77.3481C245.874 77.3481 247.178 77.9047 247.984 79.0327C248.789 80.1606 249.2 81.9917 249.2 84.5112C249.2 87.0161 248.789 88.8325 247.984 89.9751C247.178 91.1176 245.874 91.6889 244.102 91.6889C242.315 91.6889 241.026 91.1176 240.22 89.9751ZM273.823 92.4946C275.596 90.4731 276.474 87.8071 276.474 84.5112C276.474 81.2153 275.596 78.5493 273.823 76.5278C272.051 74.5063 269.736 73.4956 266.85 73.4956C263.965 73.4956 261.65 74.5063 259.878 76.5278C258.105 78.5493 257.212 81.2153 257.212 84.5112C257.212 87.8071 258.105 90.4731 259.878 92.4946C261.65 94.5161 263.965 95.5268 266.85 95.5268C269.736 95.5268 272.051 94.5161 273.823 92.4946ZM262.969 89.9751C262.163 88.8325 261.753 87.0161 261.753 84.5112C261.753 81.9917 262.163 80.1606 262.969 79.0327C263.774 77.9047 265.063 77.3481 266.85 77.3481C268.623 77.3481 269.927 77.9047 270.732 79.0327C271.538 80.1606 271.948 81.9917 271.948 84.5112C271.948 87.0161 271.538 88.8325 270.732 89.9751C269.927 91.1176 268.623 91.6889 266.85 91.6889C265.063 91.6889 263.774 91.1176 262.969 89.9751Z" fill="black"/>
<path d="M125.905 109.06C125.788 108.655 125.536 108.322 125.131 108.061C124.726 107.791 124.249 107.656 123.7 107.656C123.079 107.656 122.566 107.827 122.17 108.169C121.774 108.511 121.576 108.961 121.576 109.51C121.576 110.122 121.873 110.59 122.458 110.905C122.719 111.04 123.223 111.211 123.97 111.427C124.402 111.544 124.645 111.616 124.906 111.877C125.041 112.003 125.113 112.156 125.113 112.327C125.113 112.858 124.546 113.218 123.817 113.218C123.07 113.218 122.512 112.84 122.404 112.372L121.405 112.687C121.531 113.119 121.81 113.479 122.242 113.767C122.674 114.046 123.196 114.19 123.817 114.19C124.492 114.19 125.05 114.01 125.482 113.659C125.914 113.299 126.13 112.831 126.13 112.246C126.13 111.643 125.896 111.202 125.464 110.941C125.032 110.68 124.771 110.59 124.258 110.455L123.781 110.32C123.682 110.293 123.556 110.248 123.394 110.194C123.232 110.14 123.115 110.095 123.043 110.05C122.791 109.897 122.539 109.699 122.584 109.438C122.584 108.97 123.07 108.628 123.718 108.628C124.321 108.628 124.798 108.952 124.906 109.357L125.905 109.06ZM128.211 114.073V109.393H127.275V114.073H128.211ZM127.302 108.7C127.545 108.943 127.941 108.943 128.184 108.7C128.427 108.457 128.427 108.061 128.184 107.818C127.941 107.575 127.545 107.575 127.302 107.818C127.077 108.061 127.077 108.457 127.302 108.7ZM129.503 114.073H130.439V111.391C130.439 111.04 130.556 110.752 130.799 110.518C131.042 110.284 131.348 110.167 131.699 110.167C132.392 110.167 132.905 110.689 132.905 111.382V114.073H133.841V111.112C133.841 110.581 133.661 110.149 133.31 109.798C132.959 109.447 132.509 109.276 131.978 109.276C131.294 109.276 130.781 109.546 130.439 110.077V109.393H129.503V114.073ZM139.659 110.752C139.29 109.852 138.426 109.276 137.382 109.276C136.68 109.276 136.095 109.51 135.627 109.978C135.159 110.446 134.925 111.031 134.925 111.733C134.925 112.435 135.159 113.02 135.627 113.488C136.095 113.956 136.68 114.19 137.382 114.19C138.426 114.19 139.29 113.614 139.659 112.714L138.714 112.435C138.471 112.939 137.985 113.254 137.382 113.254C136.959 113.254 136.608 113.11 136.32 112.822C136.041 112.525 135.897 112.165 135.897 111.733C135.897 111.301 136.041 110.941 136.32 110.653C136.608 110.356 136.959 110.212 137.382 110.212C137.985 110.212 138.471 110.527 138.714 111.031L139.659 110.752ZM145.3 112.075C145.309 111.922 145.318 111.805 145.318 111.733C145.318 111.031 145.084 110.446 144.616 109.978C144.157 109.51 143.581 109.276 142.888 109.276C142.195 109.276 141.61 109.51 141.142 109.978C140.683 110.446 140.449 111.031 140.449 111.733C140.449 112.435 140.692 113.02 141.169 113.488C141.646 113.956 142.249 114.19 142.96 114.19C143.896 114.19 144.688 113.74 145.12 113.011L144.202 112.732C143.905 113.119 143.491 113.317 142.96 113.317C142.177 113.317 141.556 112.804 141.412 112.075H145.3ZM141.421 111.328C141.592 110.635 142.177 110.149 142.861 110.149C143.59 110.149 144.184 110.635 144.355 111.328H141.421ZM149.836 114.073V107.323H148.9V114.073H149.836ZM153.225 109.276C152.568 109.276 152.019 109.51 151.578 109.978C151.137 110.446 150.921 111.031 150.921 111.733C150.921 112.435 151.137 113.02 151.578 113.488C152.019 113.956 152.568 114.19 153.225 114.19C153.828 114.19 154.35 113.983 154.782 113.569V114.073H155.718V109.393H154.782V109.897C154.35 109.483 153.828 109.276 153.225 109.276ZM153.324 110.212C153.729 110.212 154.071 110.356 154.35 110.653C154.629 110.941 154.764 111.301 154.764 111.733C154.764 112.165 154.629 112.525 154.35 112.822C154.071 113.11 153.729 113.254 153.324 113.254C152.919 113.254 152.586 113.11 152.307 112.822C152.028 112.525 151.893 112.165 151.893 111.733C151.893 111.301 152.028 110.941 152.307 110.653C152.586 110.356 152.919 110.212 153.324 110.212ZM160.333 110.464C160.198 109.735 159.568 109.276 158.605 109.276C157.588 109.276 156.859 109.744 156.859 110.671C156.859 111.283 157.174 111.661 157.903 111.913L158.947 112.264C159.325 112.399 159.514 112.579 159.514 112.804C159.514 113.155 159.136 113.371 158.632 113.371C158.065 113.371 157.696 113.119 157.615 112.75L156.733 112.885C156.868 113.686 157.543 114.19 158.614 114.19C159.658 114.19 160.414 113.704 160.414 112.777C160.414 112.138 160.063 111.724 159.262 111.427L158.209 111.067C157.912 110.959 157.759 110.806 157.759 110.599C157.759 110.284 158.092 110.095 158.533 110.095C159.028 110.095 159.352 110.302 159.451 110.617L160.333 110.464ZM161.013 110.212H161.724V112.642C161.724 113.047 161.868 113.389 162.156 113.668C162.444 113.938 162.795 114.073 163.218 114.073H163.902V113.173H163.29C162.93 113.173 162.66 112.885 162.66 112.516V110.212H163.902V109.393H162.66V108.466H161.724V109.393H161.013V110.212ZM168.078 114.073H169.14L171.399 108.718V107.773H167.115V108.673H170.364L168.078 114.073ZM174.524 109.276C173.867 109.276 173.318 109.51 172.877 109.978C172.436 110.446 172.22 111.031 172.22 111.733C172.22 112.435 172.436 113.02 172.877 113.488C173.318 113.956 173.867 114.19 174.524 114.19C175.127 114.19 175.649 113.983 176.081 113.569V114.073H177.017V107.323H176.081V109.897C175.649 109.483 175.127 109.276 174.524 109.276ZM174.623 110.212C175.028 110.212 175.37 110.356 175.649 110.653C175.928 110.941 176.063 111.301 176.063 111.733C176.063 112.165 175.928 112.525 175.649 112.822C175.37 113.11 175.028 113.254 174.623 113.254C174.218 113.254 173.885 113.11 173.606 112.822C173.327 112.525 173.192 112.165 173.192 111.733C173.192 111.301 173.327 110.941 173.606 110.653C173.885 110.356 174.218 110.212 174.623 110.212ZM180.408 109.276C179.751 109.276 179.202 109.51 178.761 109.978C178.32 110.446 178.104 111.031 178.104 111.733C178.104 112.435 178.32 113.02 178.761 113.488C179.202 113.956 179.751 114.19 180.408 114.19C181.011 114.19 181.533 113.983 181.965 113.569V114.073H182.901V109.393H181.965V109.897C181.533 109.483 181.011 109.276 180.408 109.276ZM180.507 110.212C180.912 110.212 181.254 110.356 181.533 110.653C181.812 110.941 181.947 111.301 181.947 111.733C181.947 112.165 181.812 112.525 181.533 112.822C181.254 113.11 180.912 113.254 180.507 113.254C180.102 113.254 179.769 113.11 179.49 112.822C179.211 112.525 179.076 112.165 179.076 111.733C179.076 111.301 179.211 110.941 179.49 110.653C179.769 110.356 180.102 110.212 180.507 110.212ZM185.365 114.469C185.158 114.982 184.843 115.198 184.294 115.198H184.096V116.098H184.294C185.23 116.098 185.806 115.693 186.175 114.784L188.38 109.393H187.417L186.04 112.795L184.708 109.393H183.745L185.572 113.956L185.365 114.469ZM192.477 110.464C192.342 109.735 191.712 109.276 190.749 109.276C189.732 109.276 189.003 109.744 189.003 110.671C189.003 111.283 189.318 111.661 190.047 111.913L191.091 112.264C191.469 112.399 191.658 112.579 191.658 112.804C191.658 113.155 191.28 113.371 190.776 113.371C190.209 113.371 189.84 113.119 189.759 112.75L188.877 112.885C189.012 113.686 189.687 114.19 190.758 114.19C191.802 114.19 192.558 113.704 192.558 112.777C192.558 112.138 192.207 111.724 191.406 111.427L190.353 111.067C190.056 110.959 189.903 110.806 189.903 110.599C189.903 110.284 190.236 110.095 190.677 110.095C191.172 110.095 191.496 110.302 191.595 110.617L192.477 110.464Z" fill="#A4A7B0"/>
<path d="M25.4786 151.864H288.521" stroke="#F1EBFB"/>
<rect x="89" y="215.281" width="200" height="6" rx="3" fill="#F4F6F8"/>
<rect x="89" y="184.281" width="172" height="6" rx="3" fill="#F4F6F8"/>
<rect x="89" y="246.281" width="119" height="6" rx="3" fill="#F4F6F8"/>
<rect x="25" y="215.281" width="39" height="6" rx="3" fill="#F4F6F8"/>
<rect x="25" y="184.281" width="27" height="6" rx="3" fill="#F4F6F8"/>
<rect x="25.4786" y="246.072" width="24" height="6" rx="3" fill="#F4F6F8"/>
<defs>
<filter id="filter0_d_524_3187" x="42" y="80.5727" width="85" height="59" filterUnits="userSpaceOnUse" color-interpolation-filters="sRGB">
<feFlood flood-opacity="0" result="BackgroundImageFix"/>
<feColorMatrix in="SourceAlpha" type="matrix" values="0 0 0 0 0 0 0 0 0 0 0 0 0 0 0 0 0 0 127 0" result="hardAlpha"/>
<feMorphology radius="4" operator="erode" in="SourceAlpha" result="effect1_dropShadow_524_3187"/>
<feOffset dy="2"/>
<feGaussianBlur stdDeviation="13"/>
<feComposite in2="hardAlpha" operator="out"/>
<feColorMatrix type="matrix" values="0 0 0 0 0 0 0 0 0 0 0 0 0 0 0 0 0 0 0.28 0"/>
<feBlend mode="normal" in2="BackgroundImageFix" result="effect1_dropShadow_524_3187"/>
<feBlend mode="normal" in="SourceGraphic" in2="effect1_dropShadow_524_3187" result="shape"/>
</filter>
<clipPath id="clip0_524_3187">
<rect x="64" y="100.573" width="41" height="15" rx="4" fill="white"/>
</clipPath>
</defs>
</svg>
