<svg width="364" height="400" viewBox="0 0 364 400" fill="none" xmlns="http://www.w3.org/2000/svg">
<rect width="364" height="400" rx="12" fill="#F4F7F4"/>
<path d="M50.2744 316.361H41.8545V329H44.1045V323.604H49.958V321.802H44.1045V318.233H50.2744V316.361ZM57.5602 319.517C56.9098 319.517 56.3297 319.736 55.8112 320.167C55.2926 320.606 54.8971 321.195 54.6246 321.942V319.78H52.612V329H54.7213V323.999C54.7213 322.443 55.6618 321.529 57.1471 321.529H58.3688V319.675C58.1491 319.569 57.8854 319.517 57.5602 319.517ZM68.3968 323.744C68.3968 322.47 67.9925 321.45 67.1927 320.677C66.3841 319.903 65.3294 319.517 64.0198 319.517C62.6223 319.517 61.4973 319.965 60.6448 320.853C59.7923 321.749 59.3616 322.927 59.3616 324.395C59.3616 325.862 59.7923 327.04 60.6448 327.928C61.4973 328.824 62.6223 329.272 64.0198 329.272C65.303 329.272 66.3401 328.974 67.1399 328.385C67.9397 327.796 68.3352 327.031 68.3352 326.082H66.2171C66.2171 327.137 65.5667 327.611 64.055 327.611C62.429 327.611 61.6819 326.768 61.5852 324.843H68.3968V323.744ZM61.6116 323.542C61.7786 321.89 62.5345 321.169 64.0198 321.169C65.4876 321.169 66.1555 321.881 66.2522 323.507H63.6243L61.6116 323.542ZM79.7079 323.744C79.7079 322.47 79.3036 321.45 78.5038 320.677C77.6952 319.903 76.6405 319.517 75.331 319.517C73.9335 319.517 72.8085 319.965 71.956 320.853C71.1034 321.749 70.6728 322.927 70.6728 324.395C70.6728 325.862 71.1034 327.04 71.956 327.928C72.8085 328.824 73.9335 329.272 75.331 329.272C76.6142 329.272 77.6513 328.974 78.4511 328.385C79.2509 327.796 79.6464 327.031 79.6464 326.082H77.5282C77.5282 327.137 76.8779 327.611 75.3661 327.611C73.7402 327.611 72.9931 326.768 72.8964 324.843H79.7079V323.744ZM72.9228 323.542C73.0898 321.89 73.8456 321.169 75.331 321.169C76.7987 321.169 77.4667 321.881 77.5634 323.507H74.9355L72.9228 323.542ZM89.2701 321.354C88.6461 320.149 87.4771 319.517 86.106 319.517C84.8404 319.517 83.8384 319.956 83.1002 320.844C82.3531 321.731 81.9839 322.918 81.9839 324.395C81.9839 325.871 82.3531 327.049 83.1002 327.937C83.8472 328.824 84.8492 329.272 86.106 329.272C87.6353 329.272 88.7164 328.543 89.358 327.075V329H91.397V315.377H89.2701V321.354ZM84.7877 326.838C84.3921 326.337 84.19 325.528 84.19 324.395C84.19 322.153 84.9371 321.187 86.7388 321.187C88.5318 321.187 89.2701 322.171 89.2701 324.395C89.2701 325.52 89.0767 326.337 88.6812 326.838C88.2857 327.339 87.6353 327.594 86.7388 327.594C85.8336 327.594 85.1832 327.339 84.7877 326.838ZM102.339 327.928C103.209 327.04 103.64 325.862 103.64 324.395C103.64 322.927 103.209 321.749 102.339 320.853C101.469 319.965 100.318 319.517 98.8937 319.517C97.4611 319.517 96.3186 319.965 95.4484 320.853C94.5783 321.749 94.1389 322.927 94.1389 324.395C94.1389 325.862 94.5783 327.04 95.4484 327.928C96.3186 328.824 97.4611 329.272 98.8937 329.272C100.318 329.272 101.469 328.824 102.339 327.928ZM96.9514 326.829C96.5471 326.319 96.3449 325.502 96.3449 324.386C96.3449 323.27 96.5471 322.461 96.9514 321.951C97.3557 321.441 98.0061 321.187 98.8937 321.187C99.7814 321.187 100.423 321.441 100.827 321.951C101.223 322.461 101.425 323.27 101.425 324.386C101.425 325.502 101.223 326.319 100.827 326.829C100.423 327.339 99.7814 327.594 98.8937 327.594C98.0061 327.594 97.3557 327.339 96.9514 326.829ZM118.572 319.517C116.999 319.517 115.848 320.281 115.1 321.819C114.714 320.378 113.554 319.517 111.901 319.517C110.389 319.517 109.15 320.334 108.456 321.749V319.78H106.443V329H108.553V323.797C108.553 323.015 108.781 322.408 109.247 321.96C109.704 321.512 110.319 321.292 111.101 321.292C111.848 321.292 112.367 321.468 112.666 321.828C112.956 322.188 113.105 322.821 113.105 323.727V329H115.223V323.797C115.223 323.015 115.452 322.408 115.909 321.96C116.366 321.512 116.99 321.292 117.781 321.292C118.528 321.292 119.047 321.468 119.346 321.828C119.636 322.188 119.785 322.821 119.785 323.727V329H121.903V322.883C121.903 321.863 121.604 321.046 120.998 320.431C120.391 319.824 119.583 319.517 118.572 319.517ZM133.17 327.471C132.634 327.471 132.256 327.356 132.045 327.128C131.834 326.899 131.729 326.495 131.729 325.906V321.441H135.183V319.78H131.729V317.064H129.672L129.619 319.78H127.765V321.441H129.619V326.249C129.619 327.119 129.918 327.831 130.525 328.367C131.122 328.903 131.913 329.176 132.898 329.176C133.486 329.176 134.26 329.114 135.218 329V327.471H133.17ZM144.736 327.928C145.606 327.04 146.037 325.862 146.037 324.395C146.037 322.927 145.606 321.749 144.736 320.853C143.866 319.965 142.715 319.517 141.291 319.517C139.858 319.517 138.716 319.965 137.845 320.853C136.975 321.749 136.536 322.927 136.536 324.395C136.536 325.862 136.975 327.04 137.845 327.928C138.716 328.824 139.858 329.272 141.291 329.272C142.715 329.272 143.866 328.824 144.736 327.928ZM139.348 326.829C138.944 326.319 138.742 325.502 138.742 324.386C138.742 323.27 138.944 322.461 139.348 321.951C139.753 321.441 140.403 321.187 141.291 321.187C142.178 321.187 142.82 321.441 143.224 321.951C143.62 322.461 143.822 323.27 143.822 324.386C143.822 325.502 143.62 326.319 143.224 326.829C142.82 327.339 142.178 327.594 141.291 327.594C140.403 327.594 139.753 327.339 139.348 326.829ZM164.933 319.517C163.359 319.517 162.208 320.281 161.461 321.819C161.074 320.378 159.914 319.517 158.262 319.517C156.75 319.517 155.511 320.334 154.816 321.749V319.78H152.804V329H154.913V323.797C154.913 323.015 155.142 322.408 155.607 321.96C156.064 321.512 156.68 321.292 157.462 321.292C158.209 321.292 158.728 321.468 159.026 321.828C159.316 322.188 159.466 322.821 159.466 323.727V329H161.584V323.797C161.584 323.015 161.813 322.408 162.27 321.96C162.727 321.512 163.351 321.292 164.142 321.292C164.889 321.292 165.407 321.468 165.706 321.828C165.996 322.188 166.146 322.821 166.146 323.727V329H168.264V322.883C168.264 321.863 167.965 321.046 167.358 320.431C166.752 319.824 165.943 319.517 164.933 319.517ZM179.179 327.928C180.049 327.04 180.48 325.862 180.48 324.395C180.48 322.927 180.049 321.749 179.179 320.853C178.309 319.965 177.158 319.517 175.734 319.517C174.301 319.517 173.159 319.965 172.289 320.853C171.419 321.749 170.979 322.927 170.979 324.395C170.979 325.862 171.419 327.04 172.289 327.928C173.159 328.824 174.301 329.272 175.734 329.272C177.158 329.272 178.309 328.824 179.179 327.928ZM173.792 326.829C173.387 326.319 173.185 325.502 173.185 324.386C173.185 323.27 173.387 322.461 173.792 321.951C174.196 321.441 174.846 321.187 175.734 321.187C176.622 321.187 177.263 321.441 177.668 321.951C178.063 322.461 178.265 323.27 178.265 324.386C178.265 325.502 178.063 326.319 177.668 326.829C177.263 327.339 176.622 327.594 175.734 327.594C174.846 327.594 174.196 327.339 173.792 326.829ZM187.318 326.249L186.773 328.121L186.254 326.249L184.092 319.78H181.895L185.033 329H188.487L191.598 319.78H189.497L187.318 326.249ZM201.986 323.744C201.986 322.47 201.582 321.45 200.782 320.677C199.974 319.903 198.919 319.517 197.609 319.517C196.212 319.517 195.087 319.965 194.234 320.853C193.382 321.749 192.951 322.927 192.951 324.395C192.951 325.862 193.382 327.04 194.234 327.928C195.087 328.824 196.212 329.272 197.609 329.272C198.893 329.272 199.93 328.974 200.729 328.385C201.529 327.796 201.925 327.031 201.925 326.082H199.807C199.807 327.137 199.156 327.611 197.644 327.611C196.019 327.611 195.271 326.768 195.175 324.843H201.986V323.744ZM195.201 323.542C195.368 321.89 196.124 321.169 197.609 321.169C199.077 321.169 199.745 321.881 199.842 323.507H197.214L195.201 323.542ZM212.866 326.249L212.322 328.139L211.803 326.249L209.641 319.78H207.444L210.581 329H211.944L211.627 329.958C211.425 330.547 210.933 330.837 210.151 330.837H208.656V332.366C209.21 332.48 209.834 332.542 210.546 332.542C211.24 332.542 211.864 332.349 212.401 331.962C212.937 331.575 213.323 331.048 213.552 330.389L217.147 319.78H215.046L212.866 326.249ZM226.7 327.928C227.57 327.04 228.001 325.862 228.001 324.395C228.001 322.927 227.57 321.749 226.7 320.853C225.83 319.965 224.679 319.517 223.255 319.517C221.822 319.517 220.68 319.965 219.809 320.853C218.939 321.749 218.5 322.927 218.5 324.395C218.5 325.862 218.939 327.04 219.809 327.928C220.68 328.824 221.822 329.272 223.255 329.272C224.679 329.272 225.83 328.824 226.7 327.928ZM221.312 326.829C220.908 326.319 220.706 325.502 220.706 324.386C220.706 323.27 220.908 322.461 221.312 321.951C221.717 321.441 222.367 321.187 223.255 321.187C224.142 321.187 224.784 321.441 225.188 321.951C225.584 322.461 225.786 323.27 225.786 324.386C225.786 325.502 225.584 326.319 225.188 326.829C224.784 327.339 224.142 327.594 223.255 327.594C222.367 327.594 221.717 327.339 221.312 326.829ZM237.396 325.133C237.396 326.618 236.464 327.488 234.979 327.488C234.214 327.488 233.678 327.304 233.371 326.943C233.063 326.583 232.914 325.959 232.914 325.054V319.78H230.804V325.906C230.804 326.935 231.103 327.752 231.692 328.358C232.281 328.965 233.063 329.272 234.047 329.272C235.621 329.264 236.763 328.587 237.484 327.233V329H239.514V319.78H237.396V325.133ZM247.784 319.517C247.134 319.517 246.554 319.736 246.035 320.167C245.517 320.606 245.121 321.195 244.849 321.942V319.78H242.836V329H244.945V323.999C244.945 322.443 245.886 321.529 247.371 321.529H248.593V319.675C248.373 319.569 248.11 319.517 247.784 319.517ZM266.794 319.517C265.221 319.517 264.07 320.281 263.323 321.819C262.936 320.378 261.776 319.517 260.123 319.517C258.612 319.517 257.372 320.334 256.678 321.749V319.78H254.665V329H256.775V323.797C256.775 323.015 257.003 322.408 257.469 321.96C257.926 321.512 258.541 321.292 259.324 321.292C260.071 321.292 260.589 321.468 260.888 321.828C261.178 322.188 261.328 322.821 261.328 323.727V329H263.446V323.797C263.446 323.015 263.674 322.408 264.131 321.96C264.588 321.512 265.212 321.292 266.003 321.292C266.75 321.292 267.269 321.468 267.568 321.828C267.858 322.188 268.007 322.821 268.007 323.727V329H270.125V322.883C270.125 321.863 269.827 321.046 269.22 320.431C268.614 319.824 267.805 319.517 266.794 319.517ZM281.041 327.928C281.911 327.04 282.342 325.862 282.342 324.395C282.342 322.927 281.911 321.749 281.041 320.853C280.171 319.965 279.02 319.517 277.596 319.517C276.163 319.517 275.021 319.965 274.15 320.853C273.28 321.749 272.841 322.927 272.841 324.395C272.841 325.862 273.28 327.04 274.15 327.928C275.021 328.824 276.163 329.272 277.596 329.272C279.02 329.272 280.171 328.824 281.041 327.928ZM275.653 326.829C275.249 326.319 275.047 325.502 275.047 324.386C275.047 323.27 275.249 322.461 275.653 321.951C276.058 321.441 276.708 321.187 277.596 321.187C278.483 321.187 279.125 321.441 279.529 321.951C279.925 322.461 280.127 323.27 280.127 324.386C280.127 325.502 279.925 326.319 279.529 326.829C279.125 327.339 278.483 327.594 277.596 327.594C276.708 327.594 276.058 327.339 275.653 326.829ZM290.603 319.517C289.056 319.517 287.914 320.246 287.176 321.714V319.78H285.145V329H287.255V323.797C287.255 323.015 287.483 322.408 287.949 321.96C288.406 321.512 289.03 321.292 289.821 321.292C290.594 321.292 291.131 321.468 291.438 321.828C291.746 322.188 291.895 322.821 291.895 323.727V329H294.022V322.883C294.022 321.854 293.715 321.028 293.099 320.422C292.475 319.815 291.649 319.517 290.603 319.517ZM305.782 323.744C305.782 322.47 305.377 321.45 304.577 320.677C303.769 319.903 302.714 319.517 301.405 319.517C300.007 319.517 298.882 319.965 298.03 320.853C297.177 321.749 296.746 322.927 296.746 324.395C296.746 325.862 297.177 327.04 298.03 327.928C298.882 328.824 300.007 329.272 301.405 329.272C302.688 329.272 303.725 328.974 304.525 328.385C305.325 327.796 305.72 327.031 305.72 326.082H303.602C303.602 327.137 302.952 327.611 301.44 327.611C299.814 327.611 299.067 326.768 298.97 324.843H305.782V323.744ZM298.996 323.542C299.163 321.89 299.919 321.169 301.405 321.169C302.872 321.169 303.54 321.881 303.637 323.507H301.009L298.996 323.542ZM312.628 326.249L312.083 328.139L311.564 326.249L309.402 319.78H307.205L310.343 329H311.705L311.389 329.958C311.187 330.547 310.694 330.837 309.912 330.837H308.418V332.366C308.972 332.48 309.596 332.542 310.308 332.542C311.002 332.542 311.626 332.349 312.162 331.962C312.698 331.575 313.085 331.048 313.313 330.389L316.908 319.78H314.808L312.628 326.249ZM50.292 351.523C49.7734 351.523 49.457 351.462 49.3252 351.33C49.1934 351.207 49.123 350.908 49.123 350.425V347.278C49.123 346.092 48.7803 345.16 48.0947 344.501C47.4004 343.842 46.4424 343.517 45.2031 343.517C43.999 343.517 43.0322 343.868 42.3027 344.562C41.5732 345.266 41.2041 346.197 41.2041 347.349H43.2783C43.2783 345.793 43.8496 345.116 45.168 345.116C46.4863 345.116 47.0576 345.854 47.0576 347.639V347.762C46.6973 347.876 45.5459 348.14 43.5859 348.553C42.6279 348.746 41.9512 349.045 41.5557 349.449C41.1602 349.854 40.958 350.363 40.958 350.987C40.958 351.664 41.2129 352.218 41.7139 352.64C42.2148 353.062 42.8916 353.272 43.7266 353.272C45.4053 353.272 46.6006 352.438 47.1279 351.163C47.1543 352.578 47.7432 353.176 48.9648 353.176C49.4307 353.176 49.8877 353.114 50.3184 353V351.523H50.292ZM44.3945 351.708C43.542 351.708 43.1201 351.374 43.1113 350.715C43.1113 350.39 43.1992 350.144 43.3838 349.977C43.5684 349.81 43.9375 349.66 44.5 349.511C45.9766 349.159 46.8291 348.939 47.0576 348.86V349.238C47.0576 350.891 46.0205 351.708 44.3945 351.708ZM57.9645 343.517C56.4176 343.517 55.275 344.246 54.5368 345.714V343.78H52.5065V353H54.6159V347.797C54.6159 347.015 54.8444 346.408 55.3102 345.96C55.7672 345.512 56.3912 345.292 57.1823 345.292C57.9557 345.292 58.4918 345.468 58.7995 345.828C59.1071 346.188 59.2565 346.821 59.2565 347.727V353H61.3834V346.883C61.3834 345.854 61.0758 345.028 60.4606 344.422C59.8366 343.815 59.0104 343.517 57.9645 343.517ZM68.4495 350.249L67.9046 352.139L67.386 350.249L65.2239 343.78H63.0266L66.1643 353H67.5266L67.2102 353.958C67.0081 354.547 66.5159 354.837 65.7337 354.837H64.2395V356.366C64.7932 356.48 65.4173 356.542 66.1292 356.542C66.8235 356.542 67.4475 356.349 67.9837 355.962C68.5198 355.575 68.9065 355.048 69.135 354.389L72.7298 343.78H70.6292L68.4495 350.249ZM78.8114 351.471C78.2753 351.471 77.8974 351.356 77.6864 351.128C77.4755 350.899 77.37 350.495 77.37 349.906V345.441H80.8241V343.78H77.37V341.064H75.3134L75.2607 343.78H73.4062V345.441H75.2607V350.249C75.2607 351.119 75.5595 351.831 76.1659 352.367C76.7636 352.903 77.5546 353.176 78.539 353.176C79.1279 353.176 79.9013 353.114 80.8593 353V351.471H78.8114ZM82.9244 341.891H85.2095V339.702H82.9244V341.891ZM83.0123 353H85.1216V343.78H83.0123V353ZM100.529 343.517C98.9553 343.517 97.8039 344.281 97.0568 345.819C96.6701 344.378 95.51 343.517 93.8576 343.517C92.3459 343.517 91.1066 344.334 90.4123 345.749V343.78H88.3996V353H90.509V347.797C90.509 347.015 90.7375 346.408 91.2033 345.96C91.6604 345.512 92.2756 345.292 93.0578 345.292C93.8049 345.292 94.3234 345.468 94.6223 345.828C94.9123 346.188 95.0617 346.821 95.0617 347.727V353H97.1799V347.797C97.1799 347.015 97.4084 346.408 97.8654 345.96C98.3225 345.512 98.9465 345.292 99.7375 345.292C100.485 345.292 101.003 345.468 101.302 345.828C101.592 346.188 101.741 346.821 101.741 347.727V353H103.86V346.883C103.86 345.863 103.561 345.046 102.954 344.431C102.348 343.824 101.539 343.517 100.529 343.517ZM115.61 347.744C115.61 346.47 115.206 345.45 114.406 344.677C113.598 343.903 112.543 343.517 111.233 343.517C109.836 343.517 108.711 343.965 107.858 344.853C107.006 345.749 106.575 346.927 106.575 348.395C106.575 349.862 107.006 351.04 107.858 351.928C108.711 352.824 109.836 353.272 111.233 353.272C112.516 353.272 113.554 352.974 114.353 352.385C115.153 351.796 115.549 351.031 115.549 350.082H113.431C113.431 351.137 112.78 351.611 111.268 351.611C109.642 351.611 108.895 350.768 108.799 348.843H115.61V347.744ZM108.825 347.542C108.992 345.89 109.748 345.169 111.233 345.169C112.701 345.169 113.369 345.881 113.466 347.507H110.838L108.825 347.542ZM131.184 351.523C130.665 351.523 130.349 351.462 130.217 351.33C130.085 351.207 130.015 350.908 130.015 350.425V347.278C130.015 346.092 129.672 345.16 128.986 344.501C128.292 343.842 127.334 343.517 126.095 343.517C124.891 343.517 123.924 343.868 123.194 344.562C122.465 345.266 122.096 346.197 122.096 347.349H124.17C124.17 345.793 124.741 345.116 126.06 345.116C127.378 345.116 127.949 345.854 127.949 347.639V347.762C127.589 347.876 126.438 348.14 124.478 348.553C123.52 348.746 122.843 349.045 122.447 349.449C122.052 349.854 121.85 350.363 121.85 350.987C121.85 351.664 122.105 352.218 122.606 352.64C123.107 353.062 123.783 353.272 124.618 353.272C126.297 353.272 127.492 352.438 128.02 351.163C128.046 352.578 128.635 353.176 129.857 353.176C130.322 353.176 130.779 353.114 131.21 353V351.523H131.184ZM125.286 351.708C124.434 351.708 124.012 351.374 124.003 350.715C124.003 350.39 124.091 350.144 124.276 349.977C124.46 349.81 124.829 349.66 125.392 349.511C126.868 349.159 127.721 348.939 127.949 348.86V349.238C127.949 350.891 126.912 351.708 125.286 351.708ZM138.856 343.517C137.309 343.517 136.167 344.246 135.428 345.714V343.78H133.398V353H135.508V347.797C135.508 347.015 135.736 346.408 136.202 345.96C136.659 345.512 137.283 345.292 138.074 345.292C138.847 345.292 139.384 345.468 139.691 345.828C139.999 346.188 140.148 346.821 140.148 347.727V353H142.275V346.883C142.275 345.854 141.968 345.028 141.352 344.422C140.728 343.815 139.902 343.517 138.856 343.517ZM152.286 345.354C151.662 344.149 150.493 343.517 149.121 343.517C147.856 343.517 146.854 343.956 146.116 344.844C145.369 345.731 144.999 346.918 144.999 348.395C144.999 349.871 145.369 351.049 146.116 351.937C146.863 352.824 147.865 353.272 149.121 353.272C150.651 353.272 151.732 352.543 152.373 351.075V353H154.412V339.377H152.286V345.354ZM147.803 350.838C147.408 350.337 147.205 349.528 147.205 348.395C147.205 346.153 147.953 345.187 149.754 345.187C151.547 345.187 152.286 346.171 152.286 348.395C152.286 349.52 152.092 350.337 151.697 350.838C151.301 351.339 150.651 351.594 149.754 351.594C148.849 351.594 148.199 351.339 147.803 350.838ZM170.452 351.523C169.933 351.523 169.617 351.462 169.485 351.33C169.353 351.207 169.283 350.908 169.283 350.425V347.278C169.283 346.092 168.94 345.16 168.255 344.501C167.56 343.842 166.602 343.517 165.363 343.517C164.159 343.517 163.192 343.868 162.463 344.562C161.733 345.266 161.364 346.197 161.364 347.349H163.438C163.438 345.793 164.009 345.116 165.328 345.116C166.646 345.116 167.217 345.854 167.217 347.639V347.762C166.857 347.876 165.706 348.14 163.746 348.553C162.788 348.746 162.111 349.045 161.716 349.449C161.32 349.854 161.118 350.363 161.118 350.987C161.118 351.664 161.373 352.218 161.874 352.64C162.375 353.062 163.051 353.272 163.886 353.272C165.565 353.272 166.76 352.438 167.288 351.163C167.314 352.578 167.903 353.176 169.125 353.176C169.591 353.176 170.048 353.114 170.478 353V351.523H170.452ZM164.554 351.708C163.702 351.708 163.28 351.374 163.271 350.715C163.271 350.39 163.359 350.144 163.544 349.977C163.728 349.81 164.097 349.66 164.66 349.511C166.136 349.159 166.989 348.939 167.217 348.86V349.238C167.217 350.891 166.18 351.708 164.554 351.708ZM178.124 343.517C176.577 343.517 175.435 344.246 174.697 345.714V343.78H172.666V353H174.776V347.797C174.776 347.015 175.004 346.408 175.47 345.96C175.927 345.512 176.551 345.292 177.342 345.292C178.116 345.292 178.652 345.468 178.959 345.828C179.267 346.188 179.416 346.821 179.416 347.727V353H181.543V346.883C181.543 345.854 181.236 345.028 180.62 344.422C179.996 343.815 179.17 343.517 178.124 343.517ZM188.609 350.249L188.064 352.139L187.546 350.249L185.384 343.78H183.186L186.324 353H187.686L187.37 353.958C187.168 354.547 186.676 354.837 185.894 354.837H184.399V356.366C184.953 356.48 185.577 356.542 186.289 356.542C186.983 356.542 187.607 356.349 188.144 355.962C188.68 355.575 189.066 355.048 189.295 354.389L192.89 343.78H190.789L188.609 350.249ZM205.361 350.249L204.965 352.244L204.605 350.249L203.093 343.78H199.956L198.444 350.249L198.066 352.297L197.653 350.249L195.983 343.78H193.733L196.308 353H199.639L201.107 346.848L201.511 344.844L201.889 346.848L203.357 353H206.6L209.175 343.78H207.013L205.361 350.249ZM216.611 343.517C215.108 343.517 213.991 344.211 213.262 345.6V339.377H211.153V353H213.262V347.797C213.262 347.015 213.49 346.408 213.956 345.96C214.413 345.512 215.037 345.292 215.828 345.292C216.602 345.292 217.138 345.468 217.446 345.828C217.753 346.188 217.903 346.821 217.903 347.727V353H220.03V346.883C220.03 345.854 219.722 345.028 219.107 344.422C218.483 343.815 217.656 343.517 216.611 343.517ZM231.789 347.744C231.789 346.47 231.385 345.45 230.585 344.677C229.776 343.903 228.722 343.517 227.412 343.517C226.015 343.517 224.89 343.965 224.037 344.853C223.184 345.749 222.754 346.927 222.754 348.395C222.754 349.862 223.184 351.04 224.037 351.928C224.89 352.824 226.015 353.272 227.412 353.272C228.695 353.272 229.732 352.974 230.532 352.385C231.332 351.796 231.727 351.031 231.727 350.082H229.609C229.609 351.137 228.959 351.611 227.447 351.611C225.821 351.611 225.074 350.768 224.977 348.843H231.789V347.744ZM225.004 347.542C225.171 345.89 225.927 345.169 227.412 345.169C228.88 345.169 229.548 345.881 229.644 347.507H227.016L225.004 347.542ZM239.549 343.517C238.899 343.517 238.319 343.736 237.8 344.167C237.282 344.606 236.886 345.195 236.614 345.942V343.78H234.601V353H236.71V347.999C236.71 346.443 237.651 345.529 239.136 345.529H240.358V343.675C240.138 343.569 239.875 343.517 239.549 343.517ZM250.386 347.744C250.386 346.47 249.982 345.45 249.182 344.677C248.373 343.903 247.319 343.517 246.009 343.517C244.611 343.517 243.486 343.965 242.634 344.853C241.781 345.749 241.351 346.927 241.351 348.395C241.351 349.862 241.781 351.04 242.634 351.928C243.486 352.824 244.611 353.272 246.009 353.272C247.292 353.272 248.329 352.974 249.129 352.385C249.929 351.796 250.324 351.031 250.324 350.082H248.206C248.206 351.137 247.556 351.611 246.044 351.611C244.418 351.611 243.671 350.768 243.574 348.843H250.386V347.744ZM243.601 347.542C243.768 345.89 244.524 345.169 246.009 345.169C247.477 345.169 248.145 345.881 248.241 347.507H245.613L243.601 347.542ZM252.873 353H255.43V350.478H252.873V353Z" fill="black"/>
<g filter="url(#filter0_d_482_2278)">
<rect x="40" y="56" width="284" height="117" rx="8" fill="white"/>
<path d="M64.1982 100.67V102.126H67.6846V110.5H69.4346V102.126H72.9209V100.67H64.1982ZM78.3415 103.124C77.8357 103.124 77.3845 103.295 76.9812 103.63C76.5779 103.972 76.2702 104.43 76.0583 105.011V103.329H74.4929V110.5H76.1335V106.61C76.1335 105.4 76.865 104.689 78.0202 104.689H78.9704V103.247C78.7995 103.165 78.5945 103.124 78.3415 103.124ZM87.1391 109.352C86.7358 109.352 86.4897 109.304 86.3871 109.201C86.2846 109.105 86.2299 108.873 86.2299 108.497V106.05C86.2299 105.127 85.9633 104.402 85.4301 103.89C84.8901 103.377 84.145 103.124 83.1811 103.124C82.2446 103.124 81.4926 103.397 80.9252 103.938C80.3579 104.484 80.0707 105.209 80.0707 106.104H81.684C81.684 104.895 82.1284 104.368 83.1538 104.368C84.1791 104.368 84.6235 104.942 84.6235 106.33V106.426C84.3432 106.515 83.4477 106.72 81.9233 107.041C81.1782 107.191 80.6518 107.424 80.3442 107.738C80.0366 108.053 79.8793 108.449 79.8793 108.935C79.8793 109.461 80.0776 109.892 80.4672 110.22C80.8569 110.548 81.3832 110.712 82.0327 110.712C83.3383 110.712 84.268 110.062 84.6782 109.071C84.6987 110.172 85.1567 110.637 86.1069 110.637C86.4692 110.637 86.8246 110.589 87.1596 110.5V109.352H87.1391ZM82.5522 109.495C81.8891 109.495 81.561 109.235 81.5541 108.723C81.5541 108.47 81.6225 108.278 81.7661 108.148C81.9096 108.019 82.1967 107.902 82.6342 107.786C83.7827 107.513 84.4457 107.342 84.6235 107.28V107.574C84.6235 108.859 83.8168 109.495 82.5522 109.495ZM93.1066 103.124C91.9035 103.124 91.0148 103.691 90.4406 104.833V103.329H88.8615V110.5H90.5021V106.453C90.5021 105.845 90.6798 105.373 91.0421 105.024C91.3976 104.676 91.883 104.505 92.4982 104.505C93.0998 104.505 93.5168 104.642 93.756 104.922C93.9953 105.202 94.1115 105.694 94.1115 106.398V110.5H95.7658V105.742C95.7658 104.942 95.5265 104.3 95.048 103.828C94.5627 103.356 93.9201 103.124 93.1066 103.124ZM101.091 110.712C102.041 110.712 102.813 110.514 103.394 110.104C103.975 109.7 104.263 109.174 104.263 108.511C104.263 107.902 104.044 107.424 103.599 107.068C103.155 106.72 102.444 106.453 101.453 106.275C100.64 106.132 100.106 105.988 99.8534 105.838C99.5936 105.688 99.4637 105.476 99.4637 105.195C99.4637 104.601 99.9491 104.3 100.92 104.3C101.986 104.3 102.458 104.703 102.458 105.612H104.112C104.112 104.867 103.825 104.266 103.244 103.808C102.663 103.35 101.897 103.124 100.933 103.124C100.017 103.124 99.2792 103.329 98.7255 103.732C98.1649 104.143 97.8846 104.689 97.8846 105.373C97.8846 105.981 98.1034 106.46 98.5477 106.795C98.9921 107.137 99.6962 107.39 100.667 107.561C101.467 107.704 102 107.854 102.26 108.025C102.513 108.196 102.642 108.415 102.642 108.682C102.642 109.249 102.13 109.536 101.104 109.536C99.8671 109.536 99.3202 109.126 99.3202 108.217H97.6727C97.6727 108.962 97.9872 109.563 98.6093 110.021C99.2313 110.479 100.058 110.712 101.091 110.712ZM111.037 101.094V99.8906C110.497 99.8018 109.895 99.7607 109.232 99.7607C108.466 99.7607 107.851 99.9795 107.386 100.417C106.915 100.854 106.682 101.436 106.682 102.153V103.329H105.26V104.621H106.682V110.5H108.323V104.621H110.941V103.329H108.323V102.311C108.323 101.853 108.405 101.538 108.562 101.36C108.719 101.183 109.006 101.094 109.417 101.094H111.037ZM118.597 106.412C118.597 105.421 118.283 104.628 117.66 104.026C117.032 103.425 116.211 103.124 115.193 103.124C114.106 103.124 113.231 103.473 112.568 104.163C111.905 104.86 111.57 105.776 111.57 106.918C111.57 108.06 111.905 108.976 112.568 109.666C113.231 110.363 114.106 110.712 115.193 110.712C116.191 110.712 116.997 110.479 117.619 110.021C118.242 109.563 118.549 108.969 118.549 108.23H116.902C116.902 109.051 116.396 109.42 115.22 109.42C113.955 109.42 113.374 108.764 113.299 107.267H118.597V106.412ZM113.32 106.255C113.45 104.97 114.037 104.409 115.193 104.409C116.334 104.409 116.854 104.963 116.929 106.228H114.885L113.32 106.255ZM124.633 103.124C124.127 103.124 123.676 103.295 123.272 103.63C122.869 103.972 122.562 104.43 122.35 105.011V103.329H120.784V110.5H122.425V106.61C122.425 105.4 123.156 104.689 124.312 104.689H125.262V103.247C125.091 103.165 124.886 103.124 124.633 103.124ZM138.106 108.36L137.798 109.912L137.518 108.36L136.342 103.329H133.902L132.726 108.36L132.432 109.953L132.111 108.36L130.812 103.329H129.062L131.065 110.5H133.656L134.797 105.715L135.112 104.156L135.406 105.715L136.547 110.5H139.07L141.073 103.329H139.391L138.106 108.36ZM149.385 109.352C148.982 109.352 148.736 109.304 148.633 109.201C148.53 109.105 148.476 108.873 148.476 108.497V106.05C148.476 105.127 148.209 104.402 147.676 103.89C147.136 103.377 146.391 103.124 145.427 103.124C144.49 103.124 143.738 103.397 143.171 103.938C142.604 104.484 142.317 105.209 142.317 106.104H143.93C143.93 104.895 144.374 104.368 145.4 104.368C146.425 104.368 146.869 104.942 146.869 106.33V106.426C146.589 106.515 145.694 106.72 144.169 107.041C143.424 107.191 142.898 107.424 142.59 107.738C142.282 108.053 142.125 108.449 142.125 108.935C142.125 109.461 142.323 109.892 142.713 110.22C143.103 110.548 143.629 110.712 144.279 110.712C145.584 110.712 146.514 110.062 146.924 109.071C146.945 110.172 147.403 110.637 148.353 110.637C148.715 110.637 149.071 110.589 149.405 110.5V109.352H149.385ZM144.798 109.495C144.135 109.495 143.807 109.235 143.8 108.723C143.8 108.47 143.868 108.278 144.012 108.148C144.155 108.019 144.443 107.902 144.88 107.786C146.029 107.513 146.692 107.342 146.869 107.28V107.574C146.869 108.859 146.063 109.495 144.798 109.495ZM153.896 110.712C154.847 110.712 155.619 110.514 156.2 110.104C156.781 109.7 157.068 109.174 157.068 108.511C157.068 107.902 156.85 107.424 156.405 107.068C155.961 106.72 155.25 106.453 154.259 106.275C153.445 106.132 152.912 105.988 152.659 105.838C152.399 105.688 152.269 105.476 152.269 105.195C152.269 104.601 152.755 104.3 153.726 104.3C154.792 104.3 155.264 104.703 155.264 105.612H156.918C156.918 104.867 156.631 104.266 156.05 103.808C155.469 103.35 154.703 103.124 153.739 103.124C152.823 103.124 152.085 103.329 151.531 103.732C150.971 104.143 150.69 104.689 150.69 105.373C150.69 105.981 150.909 106.46 151.353 106.795C151.798 107.137 152.502 107.39 153.473 107.561C154.272 107.704 154.806 107.854 155.065 108.025C155.318 108.196 155.448 108.415 155.448 108.682C155.448 109.249 154.935 109.536 153.91 109.536C152.673 109.536 152.126 109.126 152.126 108.217H150.478C150.478 108.962 150.793 109.563 151.415 110.021C152.037 110.479 152.864 110.712 153.896 110.712ZM67.9512 126.712C68.9014 126.712 69.6738 126.514 70.2549 126.104C70.8359 125.7 71.123 125.174 71.123 124.511C71.123 123.902 70.9043 123.424 70.46 123.068C70.0156 122.72 69.3047 122.453 68.3135 122.275C67.5 122.132 66.9668 121.988 66.7139 121.838C66.4541 121.688 66.3242 121.476 66.3242 121.195C66.3242 120.601 66.8096 120.3 67.7803 120.3C68.8467 120.3 69.3184 120.703 69.3184 121.612H70.9727C70.9727 120.867 70.6855 120.266 70.1045 119.808C69.5234 119.35 68.7578 119.124 67.7939 119.124C66.8779 119.124 66.1396 119.329 65.5859 119.732C65.0254 120.143 64.7451 120.689 64.7451 121.373C64.7451 121.981 64.9639 122.46 65.4082 122.795C65.8525 123.137 66.5566 123.39 67.5273 123.561C68.3271 123.704 68.8604 123.854 69.1201 124.025C69.373 124.196 69.5029 124.415 69.5029 124.682C69.5029 125.249 68.9902 125.536 67.9648 125.536C66.7275 125.536 66.1807 125.126 66.1807 124.217H64.5332C64.5332 124.962 64.8477 125.563 65.4697 126.021C66.0918 126.479 66.9189 126.712 67.9512 126.712ZM78.1159 123.492C78.1159 124.647 77.3913 125.324 76.2361 125.324C75.6413 125.324 75.2243 125.181 74.9851 124.9C74.7458 124.62 74.6296 124.135 74.6296 123.431V119.329H72.989V124.094C72.989 124.894 73.2214 125.529 73.6794 126.001C74.1374 126.473 74.7458 126.712 75.5114 126.712C76.7351 126.705 77.6238 126.179 78.1843 125.126V126.5H79.7634V119.329H78.1159V123.492ZM87.2075 124.025C87.2075 124.989 86.7221 125.406 85.5668 125.406C84.227 125.406 83.6459 124.647 83.6459 122.911C83.6459 121.175 84.227 120.423 85.5668 120.423C86.7084 120.423 87.1596 120.874 87.1596 121.961H88.8139C88.8139 121.113 88.52 120.43 87.9252 119.903C87.3305 119.384 86.5444 119.124 85.5668 119.124C84.4731 119.124 83.5912 119.473 82.9282 120.163C82.2651 120.86 81.9301 121.776 81.9301 122.918C81.9301 124.06 82.2651 124.976 82.9282 125.666C83.5912 126.363 84.4731 126.712 85.5668 126.712C86.558 126.712 87.351 126.466 87.9526 125.967C88.5541 125.475 88.8549 124.825 88.8549 124.025H87.2075ZM95.8273 124.025C95.8273 124.989 95.342 125.406 94.1867 125.406C92.8468 125.406 92.2658 124.647 92.2658 122.911C92.2658 121.175 92.8468 120.423 94.1867 120.423C95.3283 120.423 95.7795 120.874 95.7795 121.961H97.4338C97.4338 121.113 97.1398 120.43 96.5451 119.903C95.9504 119.384 95.1642 119.124 94.1867 119.124C93.0929 119.124 92.2111 119.473 91.548 120.163C90.8849 120.86 90.55 121.776 90.55 122.918C90.55 124.06 90.8849 124.976 91.548 125.666C92.2111 126.363 93.0929 126.712 94.1867 126.712C95.1779 126.712 95.9709 126.466 96.5724 125.967C97.174 125.475 97.4748 124.825 97.4748 124.025H95.8273ZM106.197 122.412C106.197 121.421 105.883 120.628 105.261 120.026C104.632 119.425 103.811 119.124 102.793 119.124C101.706 119.124 100.831 119.473 100.168 120.163C99.5048 120.86 99.1698 121.776 99.1698 122.918C99.1698 124.06 99.5048 124.976 100.168 125.666C100.831 126.363 101.706 126.712 102.793 126.712C103.791 126.712 104.598 126.479 105.22 126.021C105.842 125.563 106.149 124.969 106.149 124.23H104.502C104.502 125.051 103.996 125.42 102.82 125.42C101.556 125.42 100.974 124.764 100.899 123.267H106.197V122.412ZM100.92 122.255C101.05 120.97 101.638 120.409 102.793 120.409C103.934 120.409 104.454 120.963 104.529 122.228H102.485L100.92 122.255ZM111.173 126.712C112.124 126.712 112.896 126.514 113.477 126.104C114.058 125.7 114.345 125.174 114.345 124.511C114.345 123.902 114.127 123.424 113.682 123.068C113.238 122.72 112.527 122.453 111.536 122.275C110.722 122.132 110.189 121.988 109.936 121.838C109.676 121.688 109.546 121.476 109.546 121.195C109.546 120.601 110.032 120.3 111.003 120.3C112.069 120.3 112.541 120.703 112.541 121.612H114.195C114.195 120.867 113.908 120.266 113.327 119.808C112.746 119.35 111.98 119.124 111.016 119.124C110.1 119.124 109.362 119.329 108.808 119.732C108.248 120.143 107.967 120.689 107.967 121.373C107.967 121.981 108.186 122.46 108.63 122.795C109.075 123.137 109.779 123.39 110.75 123.561C111.549 123.704 112.083 123.854 112.342 124.025C112.595 124.196 112.725 124.415 112.725 124.682C112.725 125.249 112.213 125.536 111.187 125.536C109.95 125.536 109.403 125.126 109.403 124.217H107.755C107.755 124.962 108.07 125.563 108.692 126.021C109.314 126.479 110.141 126.712 111.173 126.712ZM119.123 126.712C120.074 126.712 120.846 126.514 121.427 126.104C122.008 125.7 122.295 125.174 122.295 124.511C122.295 123.902 122.076 123.424 121.632 123.068C121.188 122.72 120.477 122.453 119.486 122.275C118.672 122.132 118.139 121.988 117.886 121.838C117.626 121.688 117.496 121.476 117.496 121.195C117.496 120.601 117.982 120.3 118.952 120.3C120.019 120.3 120.491 120.703 120.491 121.612H122.145C122.145 120.867 121.858 120.266 121.277 119.808C120.696 119.35 119.93 119.124 118.966 119.124C118.05 119.124 117.312 119.329 116.758 119.732C116.198 120.143 115.917 120.689 115.917 121.373C115.917 121.981 116.136 122.46 116.58 122.795C117.025 123.137 117.729 123.39 118.7 123.561C119.499 123.704 120.033 123.854 120.292 124.025C120.545 124.196 120.675 124.415 120.675 124.682C120.675 125.249 120.162 125.536 119.137 125.536C117.9 125.536 117.353 125.126 117.353 124.217H115.705C115.705 124.962 116.02 125.563 116.642 126.021C117.264 126.479 118.091 126.712 119.123 126.712ZM129.069 117.094V115.891C128.529 115.802 127.928 115.761 127.265 115.761C126.499 115.761 125.884 115.979 125.419 116.417C124.947 116.854 124.715 117.436 124.715 118.153V119.329H123.293V120.621H124.715V126.5H126.356V120.621H128.974V119.329H126.356V118.311C126.356 117.853 126.438 117.538 126.595 117.36C126.752 117.183 127.039 117.094 127.449 117.094H129.069ZM135.461 123.492C135.461 124.647 134.736 125.324 133.581 125.324C132.986 125.324 132.569 125.181 132.33 124.9C132.091 124.62 131.974 124.135 131.974 123.431V119.329H130.334V124.094C130.334 124.894 130.566 125.529 131.024 126.001C131.482 126.473 132.091 126.712 132.856 126.712C134.08 126.705 134.969 126.179 135.529 125.126V126.5H137.108V119.329H135.461V123.492ZM142.139 125.311C141.538 125.311 141.332 125.064 141.332 124.333V115.904H139.692V124.538C139.692 125.174 139.876 125.687 140.252 126.062C140.628 126.445 141.114 126.637 141.722 126.637C142.057 126.637 142.372 126.589 142.672 126.5V125.311H142.139ZM144.737 116.67V119.008L145.03 123.39H146.083L146.391 119.008V116.67H144.737ZM144.566 126.5H146.555V124.538H144.566V126.5Z" fill="black"/>
<path d="M64.1982 100.67V102.126H67.6846V110.5H69.4346V102.126H72.9209V100.67H64.1982ZM78.3415 103.124C77.8357 103.124 77.3845 103.295 76.9812 103.63C76.5779 103.972 76.2702 104.43 76.0583 105.011V103.329H74.4929V110.5H76.1335V106.61C76.1335 105.4 76.865 104.689 78.0202 104.689H78.9704V103.247C78.7995 103.165 78.5945 103.124 78.3415 103.124ZM87.1391 109.352C86.7358 109.352 86.4897 109.304 86.3871 109.201C86.2846 109.105 86.2299 108.873 86.2299 108.497V106.05C86.2299 105.127 85.9633 104.402 85.4301 103.89C84.8901 103.377 84.145 103.124 83.1811 103.124C82.2446 103.124 81.4926 103.397 80.9252 103.938C80.3579 104.484 80.0707 105.209 80.0707 106.104H81.684C81.684 104.895 82.1284 104.368 83.1538 104.368C84.1791 104.368 84.6235 104.942 84.6235 106.33V106.426C84.3432 106.515 83.4477 106.72 81.9233 107.041C81.1782 107.191 80.6518 107.424 80.3442 107.738C80.0366 108.053 79.8793 108.449 79.8793 108.935C79.8793 109.461 80.0776 109.892 80.4672 110.22C80.8569 110.548 81.3832 110.712 82.0327 110.712C83.3383 110.712 84.268 110.062 84.6782 109.071C84.6987 110.172 85.1567 110.637 86.1069 110.637C86.4692 110.637 86.8246 110.589 87.1596 110.5V109.352H87.1391ZM82.5522 109.495C81.8891 109.495 81.561 109.235 81.5541 108.723C81.5541 108.47 81.6225 108.278 81.7661 108.148C81.9096 108.019 82.1967 107.902 82.6342 107.786C83.7827 107.513 84.4457 107.342 84.6235 107.28V107.574C84.6235 108.859 83.8168 109.495 82.5522 109.495ZM93.1066 103.124C91.9035 103.124 91.0148 103.691 90.4406 104.833V103.329H88.8615V110.5H90.5021V106.453C90.5021 105.845 90.6798 105.373 91.0421 105.024C91.3976 104.676 91.883 104.505 92.4982 104.505C93.0998 104.505 93.5168 104.642 93.756 104.922C93.9953 105.202 94.1115 105.694 94.1115 106.398V110.5H95.7658V105.742C95.7658 104.942 95.5265 104.3 95.048 103.828C94.5627 103.356 93.9201 103.124 93.1066 103.124ZM101.091 110.712C102.041 110.712 102.813 110.514 103.394 110.104C103.975 109.7 104.263 109.174 104.263 108.511C104.263 107.902 104.044 107.424 103.599 107.068C103.155 106.72 102.444 106.453 101.453 106.275C100.64 106.132 100.106 105.988 99.8534 105.838C99.5936 105.688 99.4637 105.476 99.4637 105.195C99.4637 104.601 99.9491 104.3 100.92 104.3C101.986 104.3 102.458 104.703 102.458 105.612H104.112C104.112 104.867 103.825 104.266 103.244 103.808C102.663 103.35 101.897 103.124 100.933 103.124C100.017 103.124 99.2792 103.329 98.7255 103.732C98.1649 104.143 97.8846 104.689 97.8846 105.373C97.8846 105.981 98.1034 106.46 98.5477 106.795C98.9921 107.137 99.6962 107.39 100.667 107.561C101.467 107.704 102 107.854 102.26 108.025C102.513 108.196 102.642 108.415 102.642 108.682C102.642 109.249 102.13 109.536 101.104 109.536C99.8671 109.536 99.3202 109.126 99.3202 108.217H97.6727C97.6727 108.962 97.9872 109.563 98.6093 110.021C99.2313 110.479 100.058 110.712 101.091 110.712ZM111.037 101.094V99.8906C110.497 99.8018 109.895 99.7607 109.232 99.7607C108.466 99.7607 107.851 99.9795 107.386 100.417C106.915 100.854 106.682 101.436 106.682 102.153V103.329H105.26V104.621H106.682V110.5H108.323V104.621H110.941V103.329H108.323V102.311C108.323 101.853 108.405 101.538 108.562 101.36C108.719 101.183 109.006 101.094 109.417 101.094H111.037ZM118.597 106.412C118.597 105.421 118.283 104.628 117.66 104.026C117.032 103.425 116.211 103.124 115.193 103.124C114.106 103.124 113.231 103.473 112.568 104.163C111.905 104.86 111.57 105.776 111.57 106.918C111.57 108.06 111.905 108.976 112.568 109.666C113.231 110.363 114.106 110.712 115.193 110.712C116.191 110.712 116.997 110.479 117.619 110.021C118.242 109.563 118.549 108.969 118.549 108.23H116.902C116.902 109.051 116.396 109.42 115.22 109.42C113.955 109.42 113.374 108.764 113.299 107.267H118.597V106.412ZM113.32 106.255C113.45 104.97 114.037 104.409 115.193 104.409C116.334 104.409 116.854 104.963 116.929 106.228H114.885L113.32 106.255ZM124.633 103.124C124.127 103.124 123.676 103.295 123.272 103.63C122.869 103.972 122.562 104.43 122.35 105.011V103.329H120.784V110.5H122.425V106.61C122.425 105.4 123.156 104.689 124.312 104.689H125.262V103.247C125.091 103.165 124.886 103.124 124.633 103.124ZM138.106 108.36L137.798 109.912L137.518 108.36L136.342 103.329H133.902L132.726 108.36L132.432 109.953L132.111 108.36L130.812 103.329H129.062L131.065 110.5H133.656L134.797 105.715L135.112 104.156L135.406 105.715L136.547 110.5H139.07L141.073 103.329H139.391L138.106 108.36ZM149.385 109.352C148.982 109.352 148.736 109.304 148.633 109.201C148.53 109.105 148.476 108.873 148.476 108.497V106.05C148.476 105.127 148.209 104.402 147.676 103.89C147.136 103.377 146.391 103.124 145.427 103.124C144.49 103.124 143.738 103.397 143.171 103.938C142.604 104.484 142.317 105.209 142.317 106.104H143.93C143.93 104.895 144.374 104.368 145.4 104.368C146.425 104.368 146.869 104.942 146.869 106.33V106.426C146.589 106.515 145.694 106.72 144.169 107.041C143.424 107.191 142.898 107.424 142.59 107.738C142.282 108.053 142.125 108.449 142.125 108.935C142.125 109.461 142.323 109.892 142.713 110.22C143.103 110.548 143.629 110.712 144.279 110.712C145.584 110.712 146.514 110.062 146.924 109.071C146.945 110.172 147.403 110.637 148.353 110.637C148.715 110.637 149.071 110.589 149.405 110.5V109.352H149.385ZM144.798 109.495C144.135 109.495 143.807 109.235 143.8 108.723C143.8 108.47 143.868 108.278 144.012 108.148C144.155 108.019 144.443 107.902 144.88 107.786C146.029 107.513 146.692 107.342 146.869 107.28V107.574C146.869 108.859 146.063 109.495 144.798 109.495ZM153.896 110.712C154.847 110.712 155.619 110.514 156.2 110.104C156.781 109.7 157.068 109.174 157.068 108.511C157.068 107.902 156.85 107.424 156.405 107.068C155.961 106.72 155.25 106.453 154.259 106.275C153.445 106.132 152.912 105.988 152.659 105.838C152.399 105.688 152.269 105.476 152.269 105.195C152.269 104.601 152.755 104.3 153.726 104.3C154.792 104.3 155.264 104.703 155.264 105.612H156.918C156.918 104.867 156.631 104.266 156.05 103.808C155.469 103.35 154.703 103.124 153.739 103.124C152.823 103.124 152.085 103.329 151.531 103.732C150.971 104.143 150.69 104.689 150.69 105.373C150.69 105.981 150.909 106.46 151.353 106.795C151.798 107.137 152.502 107.39 153.473 107.561C154.272 107.704 154.806 107.854 155.065 108.025C155.318 108.196 155.448 108.415 155.448 108.682C155.448 109.249 154.935 109.536 153.91 109.536C152.673 109.536 152.126 109.126 152.126 108.217H150.478C150.478 108.962 150.793 109.563 151.415 110.021C152.037 110.479 152.864 110.712 153.896 110.712ZM67.9512 126.712C68.9014 126.712 69.6738 126.514 70.2549 126.104C70.8359 125.7 71.123 125.174 71.123 124.511C71.123 123.902 70.9043 123.424 70.46 123.068C70.0156 122.72 69.3047 122.453 68.3135 122.275C67.5 122.132 66.9668 121.988 66.7139 121.838C66.4541 121.688 66.3242 121.476 66.3242 121.195C66.3242 120.601 66.8096 120.3 67.7803 120.3C68.8467 120.3 69.3184 120.703 69.3184 121.612H70.9727C70.9727 120.867 70.6855 120.266 70.1045 119.808C69.5234 119.35 68.7578 119.124 67.7939 119.124C66.8779 119.124 66.1396 119.329 65.5859 119.732C65.0254 120.143 64.7451 120.689 64.7451 121.373C64.7451 121.981 64.9639 122.46 65.4082 122.795C65.8525 123.137 66.5566 123.39 67.5273 123.561C68.3271 123.704 68.8604 123.854 69.1201 124.025C69.373 124.196 69.5029 124.415 69.5029 124.682C69.5029 125.249 68.9902 125.536 67.9648 125.536C66.7275 125.536 66.1807 125.126 66.1807 124.217H64.5332C64.5332 124.962 64.8477 125.563 65.4697 126.021C66.0918 126.479 66.9189 126.712 67.9512 126.712ZM78.1159 123.492C78.1159 124.647 77.3913 125.324 76.2361 125.324C75.6413 125.324 75.2243 125.181 74.9851 124.9C74.7458 124.62 74.6296 124.135 74.6296 123.431V119.329H72.989V124.094C72.989 124.894 73.2214 125.529 73.6794 126.001C74.1374 126.473 74.7458 126.712 75.5114 126.712C76.7351 126.705 77.6238 126.179 78.1843 125.126V126.5H79.7634V119.329H78.1159V123.492ZM87.2075 124.025C87.2075 124.989 86.7221 125.406 85.5668 125.406C84.227 125.406 83.6459 124.647 83.6459 122.911C83.6459 121.175 84.227 120.423 85.5668 120.423C86.7084 120.423 87.1596 120.874 87.1596 121.961H88.8139C88.8139 121.113 88.52 120.43 87.9252 119.903C87.3305 119.384 86.5444 119.124 85.5668 119.124C84.4731 119.124 83.5912 119.473 82.9282 120.163C82.2651 120.86 81.9301 121.776 81.9301 122.918C81.9301 124.06 82.2651 124.976 82.9282 125.666C83.5912 126.363 84.4731 126.712 85.5668 126.712C86.558 126.712 87.351 126.466 87.9526 125.967C88.5541 125.475 88.8549 124.825 88.8549 124.025H87.2075ZM95.8273 124.025C95.8273 124.989 95.342 125.406 94.1867 125.406C92.8468 125.406 92.2658 124.647 92.2658 122.911C92.2658 121.175 92.8468 120.423 94.1867 120.423C95.3283 120.423 95.7795 120.874 95.7795 121.961H97.4338C97.4338 121.113 97.1398 120.43 96.5451 119.903C95.9504 119.384 95.1642 119.124 94.1867 119.124C93.0929 119.124 92.2111 119.473 91.548 120.163C90.8849 120.86 90.55 121.776 90.55 122.918C90.55 124.06 90.8849 124.976 91.548 125.666C92.2111 126.363 93.0929 126.712 94.1867 126.712C95.1779 126.712 95.9709 126.466 96.5724 125.967C97.174 125.475 97.4748 124.825 97.4748 124.025H95.8273ZM106.197 122.412C106.197 121.421 105.883 120.628 105.261 120.026C104.632 119.425 103.811 119.124 102.793 119.124C101.706 119.124 100.831 119.473 100.168 120.163C99.5048 120.86 99.1698 121.776 99.1698 122.918C99.1698 124.06 99.5048 124.976 100.168 125.666C100.831 126.363 101.706 126.712 102.793 126.712C103.791 126.712 104.598 126.479 105.22 126.021C105.842 125.563 106.149 124.969 106.149 124.23H104.502C104.502 125.051 103.996 125.42 102.82 125.42C101.556 125.42 100.974 124.764 100.899 123.267H106.197V122.412ZM100.92 122.255C101.05 120.97 101.638 120.409 102.793 120.409C103.934 120.409 104.454 120.963 104.529 122.228H102.485L100.92 122.255ZM111.173 126.712C112.124 126.712 112.896 126.514 113.477 126.104C114.058 125.7 114.345 125.174 114.345 124.511C114.345 123.902 114.127 123.424 113.682 123.068C113.238 122.72 112.527 122.453 111.536 122.275C110.722 122.132 110.189 121.988 109.936 121.838C109.676 121.688 109.546 121.476 109.546 121.195C109.546 120.601 110.032 120.3 111.003 120.3C112.069 120.3 112.541 120.703 112.541 121.612H114.195C114.195 120.867 113.908 120.266 113.327 119.808C112.746 119.35 111.98 119.124 111.016 119.124C110.1 119.124 109.362 119.329 108.808 119.732C108.248 120.143 107.967 120.689 107.967 121.373C107.967 121.981 108.186 122.46 108.63 122.795C109.075 123.137 109.779 123.39 110.75 123.561C111.549 123.704 112.083 123.854 112.342 124.025C112.595 124.196 112.725 124.415 112.725 124.682C112.725 125.249 112.213 125.536 111.187 125.536C109.95 125.536 109.403 125.126 109.403 124.217H107.755C107.755 124.962 108.07 125.563 108.692 126.021C109.314 126.479 110.141 126.712 111.173 126.712ZM119.123 126.712C120.074 126.712 120.846 126.514 121.427 126.104C122.008 125.7 122.295 125.174 122.295 124.511C122.295 123.902 122.076 123.424 121.632 123.068C121.188 122.72 120.477 122.453 119.486 122.275C118.672 122.132 118.139 121.988 117.886 121.838C117.626 121.688 117.496 121.476 117.496 121.195C117.496 120.601 117.982 120.3 118.952 120.3C120.019 120.3 120.491 120.703 120.491 121.612H122.145C122.145 120.867 121.858 120.266 121.277 119.808C120.696 119.35 119.93 119.124 118.966 119.124C118.05 119.124 117.312 119.329 116.758 119.732C116.198 120.143 115.917 120.689 115.917 121.373C115.917 121.981 116.136 122.46 116.58 122.795C117.025 123.137 117.729 123.39 118.7 123.561C119.499 123.704 120.033 123.854 120.292 124.025C120.545 124.196 120.675 124.415 120.675 124.682C120.675 125.249 120.162 125.536 119.137 125.536C117.9 125.536 117.353 125.126 117.353 124.217H115.705C115.705 124.962 116.02 125.563 116.642 126.021C117.264 126.479 118.091 126.712 119.123 126.712ZM129.069 117.094V115.891C128.529 115.802 127.928 115.761 127.265 115.761C126.499 115.761 125.884 115.979 125.419 116.417C124.947 116.854 124.715 117.436 124.715 118.153V119.329H123.293V120.621H124.715V126.5H126.356V120.621H128.974V119.329H126.356V118.311C126.356 117.853 126.438 117.538 126.595 117.36C126.752 117.183 127.039 117.094 127.449 117.094H129.069ZM135.461 123.492C135.461 124.647 134.736 125.324 133.581 125.324C132.986 125.324 132.569 125.181 132.33 124.9C132.091 124.62 131.974 124.135 131.974 123.431V119.329H130.334V124.094C130.334 124.894 130.566 125.529 131.024 126.001C131.482 126.473 132.091 126.712 132.856 126.712C134.08 126.705 134.969 126.179 135.529 125.126V126.5H137.108V119.329H135.461V123.492ZM142.139 125.311C141.538 125.311 141.332 125.064 141.332 124.333V115.904H139.692V124.538C139.692 125.174 139.876 125.687 140.252 126.062C140.628 126.445 141.114 126.637 141.722 126.637C142.057 126.637 142.372 126.589 142.672 126.5V125.311H142.139ZM144.737 116.67V119.008L145.03 123.39H146.083L146.391 119.008V116.67H144.737ZM144.566 126.5H146.555V124.538H144.566V126.5Z" fill="black"/>
<rect width="137" height="117" transform="translate(187 56)" fill="#663AF5"/>
<path d="M226.216 116.011C226.216 115 225.864 114.209 225.161 113.62C224.449 113.04 223.271 112.592 221.61 112.284V108.54C223.078 108.751 223.702 109.524 223.702 111.036H225.97C225.97 109.85 225.574 108.865 224.792 108.074C224.001 107.283 222.938 106.809 221.61 106.65V105.42H219.958V106.633C218.631 106.747 217.576 107.151 216.794 107.846C216.012 108.54 215.616 109.41 215.616 110.465C215.616 111.423 215.959 112.179 216.645 112.732C217.33 113.286 218.438 113.717 219.958 114.024V117.848C218.297 117.672 217.559 116.916 217.559 115.448H215.291C215.291 116.626 215.713 117.602 216.565 118.366C217.409 119.131 218.543 119.588 219.958 119.737V120.941H221.61V119.737C223.017 119.623 224.133 119.236 224.968 118.56C225.803 117.892 226.216 117.039 226.216 116.011ZM217.849 110.175C217.849 109.19 218.552 108.637 219.958 108.522V111.906C219.114 111.678 218.552 111.432 218.271 111.177C217.989 110.922 217.849 110.588 217.849 110.175ZM221.61 114.367C222.568 114.622 223.21 114.886 223.518 115.176C223.825 115.466 223.983 115.809 223.983 116.222C223.983 117.197 223.192 117.751 221.61 117.865V114.367ZM229.749 117.681L230.882 117.18L235.189 114.587C237.079 113.506 238.028 112.152 238.028 110.535C238.028 109.349 237.606 108.391 236.771 107.67C235.936 106.958 234.811 106.598 233.405 106.598C231.99 106.598 230.847 107.046 229.986 107.942C229.125 108.848 228.694 110.034 228.694 111.511H230.962C230.962 109.366 231.709 108.47 233.405 108.47C235.101 108.47 235.839 109.103 235.839 110.57C235.839 111.194 235.708 111.695 235.444 112.056C235.172 112.425 234.618 112.864 233.783 113.383L228.615 116.406V119.5H238.388V117.61H232.148L229.749 117.681ZM248.337 115.035V106.861H244.628L240.093 113.216V116.819H246.105V119.5H248.337V116.819H250.93V115.035H248.337ZM240.919 115.088L246.175 107.67L246.105 110.324V115.035H242.791L240.919 115.088ZM262.215 117.962C263.252 116.758 263.77 115.158 263.77 113.181C263.77 111.203 263.252 109.604 262.215 108.399C261.169 107.195 259.807 106.598 258.119 106.598C256.423 106.598 255.06 107.195 254.023 108.399C252.986 109.604 252.468 111.203 252.468 113.181C252.468 115.158 252.986 116.758 254.023 117.962C255.06 119.166 256.423 119.772 258.119 119.772C259.807 119.772 261.169 119.166 262.215 117.962ZM255.561 116.705C255.034 115.976 254.77 114.807 254.77 113.181C254.77 111.563 255.034 110.386 255.561 109.656C256.089 108.927 256.941 108.558 258.119 108.558C259.288 108.558 260.141 108.927 260.677 109.656C261.204 110.386 261.468 111.563 261.468 113.181C261.468 114.807 261.204 115.976 260.677 116.705C260.141 117.435 259.288 117.804 258.119 117.804C256.941 117.804 256.089 117.435 255.561 116.705ZM265.449 119.5H268.006V116.978H265.449V119.5ZM279.493 117.962C280.53 116.758 281.049 115.158 281.049 113.181C281.049 111.203 280.53 109.604 279.493 108.399C278.447 107.195 277.085 106.598 275.398 106.598C273.701 106.598 272.339 107.195 271.302 108.399C270.265 109.604 269.746 111.203 269.746 113.181C269.746 115.158 270.265 116.758 271.302 117.962C272.339 119.166 273.701 119.772 275.398 119.772C277.085 119.772 278.447 119.166 279.493 117.962ZM272.84 116.705C272.313 115.976 272.049 114.807 272.049 113.181C272.049 111.563 272.313 110.386 272.84 109.656C273.367 108.927 274.22 108.558 275.398 108.558C276.567 108.558 277.419 108.927 277.955 109.656C278.483 110.386 278.746 111.563 278.746 113.181C278.746 114.807 278.483 115.976 277.955 116.705C277.419 117.435 276.567 117.804 275.398 117.804C274.22 117.804 273.367 117.435 272.84 116.705ZM293.107 117.962C294.144 116.758 294.663 115.158 294.663 113.181C294.663 111.203 294.144 109.604 293.107 108.399C292.061 107.195 290.699 106.598 289.012 106.598C287.315 106.598 285.953 107.195 284.916 108.399C283.879 109.604 283.36 111.203 283.36 113.181C283.36 115.158 283.879 116.758 284.916 117.962C285.953 119.166 287.315 119.772 289.012 119.772C290.699 119.772 292.061 119.166 293.107 117.962ZM286.454 116.705C285.927 115.976 285.663 114.807 285.663 113.181C285.663 111.563 285.927 110.386 286.454 109.656C286.981 108.927 287.834 108.558 289.012 108.558C290.181 108.558 291.033 108.927 291.569 109.656C292.097 110.386 292.36 111.563 292.36 113.181C292.36 114.807 292.097 115.976 291.569 116.705C291.033 117.435 290.181 117.804 289.012 117.804C287.834 117.804 286.981 117.435 286.454 116.705Z" fill="white"/>
<circle cx="187" cy="114.5" r="14.4109" fill="#F3EA77"/>
<g clip-path="url(#clip0_482_2278)">
<path d="M185.614 116.698L191.983 110.328L192.963 111.308L185.614 118.657L181.205 114.248L182.185 113.268L185.614 116.698Z" fill="#0A1B2B"/>
</g>
<path d="M187 121.816C182.959 121.816 179.684 118.541 179.684 114.5H177.688C177.688 119.643 181.857 123.812 187 123.812V121.816ZM194.316 114.5C194.316 118.541 191.041 121.816 187 121.816V123.812C192.143 123.812 196.312 119.643 196.312 114.5H194.316ZM187 107.184C191.041 107.184 194.316 110.459 194.316 114.5H196.312C196.312 109.357 192.143 105.188 187 105.188V107.184ZM187 105.188C181.857 105.188 177.688 109.357 177.688 114.5H179.684C179.684 110.459 182.959 107.184 187 107.184V105.188Z" fill="#0A1B2B"/>
</g>
<g filter="url(#filter1_d_482_2278)">
<rect x="40" y="197" width="284" height="72" rx="8" fill="white"/>
<path d="M74.8333 236.477L79.3033 232.007L80.4817 233.185L74 239.667L67.5183 233.185L68.6967 232.007L73.1667 236.477V226.333H74.8333V236.477Z" fill="#101010"/>
<path d="M74 241.5C69.3056 241.5 65.5 237.694 65.5 233H62.5C62.5 239.351 67.6487 244.5 74 244.5V241.5ZM82.5 233C82.5 237.694 78.6944 241.5 74 241.5V244.5C80.3513 244.5 85.5 239.351 85.5 233H82.5ZM74 224.5C78.6944 224.5 82.5 228.306 82.5 233H85.5C85.5 226.649 80.3513 221.5 74 221.5V224.5ZM74 221.5C67.6487 221.5 62.5 226.649 62.5 233H65.5C65.5 228.306 69.3056 224.5 74 224.5V221.5Z" fill="#101010"/>
<path d="M111.948 224.024V228H113.516V223.954L117.31 218.2H115.504L112.718 222.526L109.988 218.2H108.182L111.948 224.024ZM117.923 227.09C118.651 227.818 119.561 228.182 120.653 228.182C121.745 228.182 122.655 227.818 123.383 227.09C124.125 226.362 124.489 225.452 124.489 224.36C124.489 223.268 124.125 222.358 123.383 221.63C122.655 220.902 121.745 220.538 120.653 220.538C119.561 220.538 118.651 220.902 117.923 221.63C117.195 222.358 116.831 223.268 116.831 224.36C116.831 225.452 117.195 226.362 117.923 227.09ZM120.653 226.726C119.995 226.726 119.449 226.502 119.001 226.054C118.567 225.592 118.343 225.032 118.343 224.36C118.343 223.688 118.567 223.128 119.001 222.68C119.449 222.218 119.995 221.994 120.653 221.994C121.311 221.994 121.871 222.218 122.305 222.68C122.753 223.128 122.977 223.688 122.977 224.36C122.977 225.032 122.753 225.592 122.305 226.054C121.871 226.502 121.311 226.726 120.653 226.726ZM125.889 225.312C125.889 226.138 126.169 226.824 126.715 227.37C127.261 227.916 127.961 228.182 128.801 228.182C129.823 228.182 130.621 227.776 131.181 226.964V228H132.637V220.72H131.181V224.892C131.181 225.438 130.999 225.886 130.621 226.25C130.243 226.614 129.781 226.796 129.221 226.796C128.689 226.796 128.241 226.614 127.877 226.264C127.527 225.9 127.345 225.452 127.345 224.906V220.72H125.889V225.312ZM135.836 220.72H134.38V228H135.836V223.94C135.836 223.394 136.018 222.946 136.396 222.596C136.774 222.232 137.25 222.05 137.796 222.05C138.062 222.05 138.272 222.092 138.426 222.162V220.538C137.236 220.538 136.382 220.958 135.836 221.784V220.72ZM144.722 231.15V227.216C145.394 227.86 146.206 228.182 147.144 228.182C148.166 228.182 149.02 227.818 149.706 227.09C150.392 226.362 150.728 225.452 150.728 224.36C150.728 223.268 150.392 222.358 149.706 221.63C149.02 220.902 148.166 220.538 147.144 220.538C146.206 220.538 145.394 220.86 144.722 221.504V220.72H143.266V231.15H144.722ZM146.976 221.994C147.606 221.994 148.138 222.218 148.572 222.68C149.006 223.128 149.216 223.688 149.216 224.36C149.216 225.032 149.006 225.592 148.572 226.054C148.138 226.502 147.606 226.726 146.976 226.726C146.346 226.726 145.828 226.502 145.394 226.054C144.96 225.592 144.75 225.032 144.75 224.36C144.75 223.688 144.96 223.128 145.394 222.68C145.828 222.218 146.346 221.994 146.976 221.994ZM155.401 220.538C154.379 220.538 153.525 220.902 152.839 221.63C152.153 222.358 151.817 223.268 151.817 224.36C151.817 225.452 152.153 226.362 152.839 227.09C153.525 227.818 154.379 228.182 155.401 228.182C156.339 228.182 157.151 227.86 157.823 227.216V228H159.279V220.72H157.823V221.504C157.151 220.86 156.339 220.538 155.401 220.538ZM155.555 221.994C156.185 221.994 156.717 222.218 157.151 222.68C157.585 223.128 157.795 223.688 157.795 224.36C157.795 225.032 157.585 225.592 157.151 226.054C156.717 226.502 156.185 226.726 155.555 226.726C154.925 226.726 154.407 226.502 153.973 226.054C153.539 225.592 153.329 225.032 153.329 224.36C153.329 223.688 153.539 223.128 153.973 222.68C154.407 222.218 154.925 221.994 155.555 221.994ZM162.833 228.616C162.511 229.414 162.021 229.75 161.167 229.75H160.859V231.15H161.167C162.623 231.15 163.519 230.52 164.093 229.106L167.523 220.72H166.025L163.883 226.012L161.811 220.72H160.313L163.155 227.818L162.833 228.616ZM170.015 228V223.66C170.015 223.17 170.183 222.75 170.533 222.428C170.883 222.092 171.303 221.924 171.821 221.924C172.787 221.924 173.529 222.68 173.529 223.646V228H174.985V223.66C174.985 223.17 175.153 222.75 175.489 222.428C175.839 222.092 176.259 221.924 176.777 221.924C177.743 221.924 178.485 222.68 178.485 223.646V228H179.941V223.24C179.941 222.47 179.661 221.826 179.115 221.308C178.569 220.79 177.883 220.538 177.057 220.538C176.147 220.538 175.349 220.958 175.013 221.294C174.859 221.462 174.719 221.644 174.607 221.826C174.117 221.028 173.263 220.538 172.241 220.538C171.261 220.538 170.519 220.902 170.015 221.644V220.72H168.559V228H170.015ZM188.895 224.892C188.909 224.654 188.923 224.472 188.923 224.36C188.923 223.268 188.559 222.358 187.831 221.63C187.117 220.902 186.221 220.538 185.143 220.538C184.065 220.538 183.155 220.902 182.427 221.63C181.713 222.358 181.349 223.268 181.349 224.36C181.349 225.452 181.727 226.362 182.469 227.09C183.211 227.818 184.149 228.182 185.255 228.182C186.711 228.182 187.943 227.482 188.615 226.348L187.187 225.914C186.725 226.516 186.081 226.824 185.255 226.824C184.037 226.824 183.071 226.026 182.847 224.892H188.895ZM182.861 223.73C183.127 222.652 184.037 221.896 185.101 221.896C186.235 221.896 187.159 222.652 187.425 223.73H182.861ZM190.216 228H191.672V223.828C191.672 223.282 191.854 222.834 192.232 222.47C192.61 222.106 193.086 221.924 193.632 221.924C194.71 221.924 195.508 222.736 195.508 223.814V228H196.964V223.394C196.964 222.568 196.684 221.896 196.138 221.35C195.592 220.804 194.892 220.538 194.066 220.538C193.002 220.538 192.204 220.958 191.672 221.784V220.72H190.216V228ZM197.992 221.994H199.098V225.774C199.098 226.404 199.322 226.936 199.77 227.37C200.218 227.79 200.764 228 201.422 228H202.486V226.6H201.534C200.974 226.6 200.554 226.152 200.554 225.578V221.994H202.486V220.72H200.554V219.278H199.098V220.72H197.992V221.994ZM208.939 228V220.72H207.483V228H208.939ZM207.525 219.642C207.903 220.02 208.519 220.02 208.897 219.642C209.275 219.264 209.275 218.648 208.897 218.27C208.519 217.892 207.903 217.892 207.525 218.27C207.175 218.648 207.175 219.264 207.525 219.642ZM215.835 222.386C215.625 221.252 214.645 220.538 213.147 220.538C211.565 220.538 210.431 221.266 210.431 222.708C210.431 223.66 210.921 224.248 212.055 224.64L213.679 225.186C214.267 225.396 214.561 225.676 214.561 226.026C214.561 226.572 213.973 226.908 213.189 226.908C212.307 226.908 211.733 226.516 211.607 225.942L210.235 226.152C210.445 227.398 211.495 228.182 213.161 228.182C214.785 228.182 215.961 227.426 215.961 225.984C215.961 224.99 215.415 224.346 214.169 223.884L212.531 223.324C212.069 223.156 211.831 222.918 211.831 222.596C211.831 222.106 212.349 221.812 213.035 221.812C213.805 221.812 214.309 222.134 214.463 222.624L215.835 222.386ZM222.488 220.72H221.032V228H222.488V223.94C222.488 223.394 222.67 222.946 223.048 222.596C223.426 222.232 223.902 222.05 224.448 222.05C224.714 222.05 224.924 222.092 225.078 222.162V220.538C223.888 220.538 223.034 220.958 222.488 221.784V220.72ZM233.11 224.892C233.124 224.654 233.138 224.472 233.138 224.36C233.138 223.268 232.774 222.358 232.046 221.63C231.332 220.902 230.436 220.538 229.358 220.538C228.28 220.538 227.37 220.902 226.642 221.63C225.928 222.358 225.564 223.268 225.564 224.36C225.564 225.452 225.942 226.362 226.684 227.09C227.426 227.818 228.364 228.182 229.47 228.182C230.926 228.182 232.158 227.482 232.83 226.348L231.402 225.914C230.94 226.516 230.296 226.824 229.47 226.824C228.252 226.824 227.286 226.026 227.062 224.892H233.11ZM227.076 223.73C227.342 222.652 228.252 221.896 229.316 221.896C230.45 221.896 231.374 222.652 231.64 223.73H227.076ZM241.472 222.834C240.899 221.434 239.555 220.538 237.931 220.538C236.839 220.538 235.929 220.902 235.201 221.63C234.473 222.358 234.109 223.268 234.109 224.36C234.109 225.452 234.473 226.362 235.201 227.09C235.929 227.818 236.839 228.182 237.931 228.182C239.555 228.182 240.899 227.286 241.472 225.886L240.003 225.452C239.625 226.236 238.869 226.726 237.931 226.726C237.273 226.726 236.727 226.502 236.279 226.054C235.845 225.592 235.62 225.032 235.62 224.36C235.62 223.688 235.845 223.128 236.279 222.68C236.727 222.218 237.273 221.994 237.931 221.994C238.869 221.994 239.625 222.484 240.003 223.268L241.472 222.834ZM249.967 224.892C249.981 224.654 249.995 224.472 249.995 224.36C249.995 223.268 249.631 222.358 248.903 221.63C248.189 220.902 247.293 220.538 246.215 220.538C245.137 220.538 244.227 220.902 243.499 221.63C242.785 222.358 242.421 223.268 242.421 224.36C242.421 225.452 242.799 226.362 243.541 227.09C244.283 227.818 245.221 228.182 246.327 228.182C247.783 228.182 249.015 227.482 249.687 226.348L248.259 225.914C247.797 226.516 247.153 226.824 246.327 226.824C245.109 226.824 244.143 226.026 243.919 224.892H249.967ZM243.933 223.73C244.199 222.652 245.109 221.896 246.173 221.896C247.307 221.896 248.231 222.652 248.497 223.73H243.933ZM252.744 228V220.72H251.288V228H252.744ZM251.33 219.642C251.708 220.02 252.324 220.02 252.702 219.642C253.08 219.264 253.08 218.648 252.702 218.27C252.324 217.892 251.708 217.892 251.33 218.27C250.98 218.648 250.98 219.264 251.33 219.642ZM256.839 228H258.197L261.263 220.72H259.765L257.525 226.138L255.271 220.72H253.773L256.839 228ZM269.258 224.892C269.272 224.654 269.286 224.472 269.286 224.36C269.286 223.268 268.922 222.358 268.194 221.63C267.48 220.902 266.584 220.538 265.506 220.538C264.428 220.538 263.518 220.902 262.79 221.63C262.076 222.358 261.712 223.268 261.712 224.36C261.712 225.452 262.09 226.362 262.832 227.09C263.574 227.818 264.512 228.182 265.618 228.182C267.074 228.182 268.306 227.482 268.978 226.348L267.55 225.914C267.088 226.516 266.444 226.824 265.618 226.824C264.4 226.824 263.434 226.026 263.21 224.892H269.258ZM263.224 223.73C263.49 222.652 264.4 221.896 265.464 221.896C266.598 221.896 267.522 222.652 267.788 223.73H263.224ZM273.841 220.538C272.819 220.538 271.965 220.902 271.279 221.63C270.593 222.358 270.257 223.268 270.257 224.36C270.257 225.452 270.593 226.362 271.279 227.09C271.965 227.818 272.819 228.182 273.841 228.182C274.779 228.182 275.591 227.86 276.263 227.216V228H277.719V217.5H276.263V221.504C275.591 220.86 274.779 220.538 273.841 220.538ZM273.995 221.994C274.625 221.994 275.157 222.218 275.591 222.68C276.025 223.128 276.235 223.688 276.235 224.36C276.235 225.032 276.025 225.592 275.591 226.054C275.157 226.502 274.625 226.726 273.995 226.726C273.365 226.726 272.847 226.502 272.413 226.054C271.979 225.592 271.769 225.032 271.769 224.36C271.769 223.688 271.979 223.128 272.413 222.68C272.847 222.218 273.365 221.994 273.995 221.994ZM280.306 226.236C279.76 226.236 279.34 226.656 279.34 227.216C279.34 227.776 279.76 228.182 280.306 228.182C280.866 228.182 281.286 227.776 281.286 227.216C281.286 226.656 280.866 226.236 280.306 226.236ZM280.95 224.99L281.104 218.2H279.536L279.69 224.99H280.95Z" fill="black"/>
<path d="M109.056 245V241.916H108.12V241.148H109.056V240.164H108.12V239.396H109.056V236.432H110.304L111.444 239.396H112.86V236.432H113.808V239.396H114.744V240.164H113.808V241.148H114.744V241.916H113.808V245H112.548L111.408 241.916H109.992V245H109.056ZM109.992 241.148H111.12L110.76 240.164H109.968L109.992 241.148ZM112.86 243.308H112.908L112.872 241.916H112.368L112.86 243.308ZM109.968 239.396H110.472L109.968 237.908H109.92L109.968 239.396ZM112.08 241.148H112.884L112.86 240.164H111.72L112.08 241.148ZM118.407 245.156C119.307 245.156 120.063 244.892 120.663 244.352C121.275 243.812 121.575 243.152 121.575 242.348C121.575 241.544 121.263 240.884 120.639 240.344C120.015 239.804 119.235 239.54 118.311 239.54H117.303L117.471 237.8H120.867V236.6H116.391L115.971 240.74H118.263C118.827 240.74 119.283 240.896 119.655 241.196C120.027 241.496 120.219 241.88 120.219 242.348C120.219 242.792 120.039 243.164 119.691 243.464C119.343 243.764 118.923 243.908 118.407 243.908C117.603 243.908 116.943 243.476 116.643 242.792L115.347 243.152C115.815 244.364 116.979 245.156 118.407 245.156ZM122.71 242.168C122.71 243.02 123.01 243.74 123.622 244.304C124.234 244.868 125.002 245.156 125.926 245.156C126.838 245.156 127.594 244.868 128.206 244.304C128.818 243.728 129.13 243.02 129.13 242.168V239.432C129.13 238.58 128.818 237.872 128.206 237.308C127.594 236.732 126.838 236.444 125.926 236.444C125.002 236.444 124.234 236.732 123.622 237.296C123.01 237.86 122.71 238.58 122.71 239.432V242.168ZM124.006 239.408C124.006 238.916 124.186 238.508 124.558 238.184C124.93 237.86 125.386 237.692 125.926 237.692C126.466 237.692 126.922 237.86 127.282 238.184C127.654 238.508 127.834 238.916 127.834 239.408V242.18C127.834 242.672 127.654 243.08 127.282 243.416C126.922 243.74 126.466 243.908 125.926 243.908C125.386 243.908 124.93 243.74 124.558 243.416C124.186 243.08 124.006 242.672 124.006 242.18V239.408ZM130.35 242.168C130.35 243.02 130.65 243.74 131.262 244.304C131.874 244.868 132.642 245.156 133.566 245.156C134.478 245.156 135.234 244.868 135.846 244.304C136.458 243.728 136.77 243.02 136.77 242.168V239.432C136.77 238.58 136.458 237.872 135.846 237.308C135.234 236.732 134.478 236.444 133.566 236.444C132.642 236.444 131.874 236.732 131.262 237.296C130.65 237.86 130.35 238.58 130.35 239.432V242.168ZM131.646 239.408C131.646 238.916 131.826 238.508 132.198 238.184C132.57 237.86 133.026 237.692 133.566 237.692C134.106 237.692 134.562 237.86 134.922 238.184C135.294 238.508 135.474 238.916 135.474 239.408V242.18C135.474 242.672 135.294 243.08 134.922 243.416C134.562 243.74 134.106 243.908 133.566 243.908C133.026 243.908 132.57 243.74 132.198 243.416C131.826 243.08 131.646 242.672 131.646 242.18V239.408ZM139.623 244.652C139.623 243.968 139.239 243.5 138.699 243.5C138.219 243.5 137.871 243.836 137.871 244.304C137.871 244.736 138.171 245.096 138.567 245.156C138.567 245.276 138.507 245.432 138.387 245.612C138.279 245.804 138.183 245.936 138.111 246.02L137.931 246.212L138.339 246.632L138.387 246.608C138.627 246.428 139.623 245.78 139.623 244.652ZM140.698 242.168C140.698 243.02 140.998 243.74 141.61 244.304C142.222 244.868 142.99 245.156 143.914 245.156C144.826 245.156 145.582 244.868 146.194 244.304C146.806 243.728 147.118 243.02 147.118 242.168V239.432C147.118 238.58 146.806 237.872 146.194 237.308C145.582 236.732 144.826 236.444 143.914 236.444C142.99 236.444 142.222 236.732 141.61 237.296C140.998 237.86 140.698 238.58 140.698 239.432V242.168ZM141.994 239.408C141.994 238.916 142.174 238.508 142.546 238.184C142.918 237.86 143.374 237.692 143.914 237.692C144.454 237.692 144.91 237.86 145.27 238.184C145.642 238.508 145.822 238.916 145.822 239.408V242.18C145.822 242.672 145.642 243.08 145.27 243.416C144.91 243.74 144.454 243.908 143.914 243.908C143.374 243.908 142.918 243.74 142.546 243.416C142.174 243.08 141.994 242.672 141.994 242.18V239.408ZM148.339 242.168C148.339 243.02 148.639 243.74 149.251 244.304C149.863 244.868 150.631 245.156 151.555 245.156C152.467 245.156 153.223 244.868 153.835 244.304C154.447 243.728 154.759 243.02 154.759 242.168V239.432C154.759 238.58 154.447 237.872 153.835 237.308C153.223 236.732 152.467 236.444 151.555 236.444C150.631 236.444 149.863 236.732 149.251 237.296C148.639 237.86 148.339 238.58 148.339 239.432V242.168ZM149.635 239.408C149.635 238.916 149.815 238.508 150.187 238.184C150.559 237.86 151.015 237.692 151.555 237.692C152.095 237.692 152.551 237.86 152.911 238.184C153.283 238.508 153.463 238.916 153.463 239.408V242.18C153.463 242.672 153.283 243.08 152.911 243.416C152.551 243.74 152.095 243.908 151.555 243.908C151.015 243.908 150.559 243.74 150.187 243.416C149.815 243.08 149.635 242.672 149.635 242.18V239.408ZM155.979 242.168C155.979 243.02 156.279 243.74 156.891 244.304C157.503 244.868 158.271 245.156 159.195 245.156C160.107 245.156 160.863 244.868 161.475 244.304C162.087 243.728 162.399 243.02 162.399 242.168V239.432C162.399 238.58 162.087 237.872 161.475 237.308C160.863 236.732 160.107 236.444 159.195 236.444C158.271 236.444 157.503 236.732 156.891 237.296C156.279 237.86 155.979 238.58 155.979 239.432V242.168ZM157.275 239.408C157.275 238.916 157.455 238.508 157.827 238.184C158.199 237.86 158.655 237.692 159.195 237.692C159.735 237.692 160.191 237.86 160.551 238.184C160.923 238.508 161.103 238.916 161.103 239.408V242.18C161.103 242.672 160.923 243.08 160.551 243.416C160.191 243.74 159.735 243.908 159.195 243.908C158.655 243.908 158.199 243.74 157.827 243.416C157.455 243.08 157.275 242.672 157.275 242.18V239.408Z" fill="#663AF5"/>
</g>
<defs>
<filter id="filter0_d_482_2278" x="22" y="42" width="320" height="153" filterUnits="userSpaceOnUse" color-interpolation-filters="sRGB">
<feFlood flood-opacity="0" result="BackgroundImageFix"/>
<feColorMatrix in="SourceAlpha" type="matrix" values="0 0 0 0 0 0 0 0 0 0 0 0 0 0 0 0 0 0 127 0" result="hardAlpha"/>
<feMorphology radius="12" operator="erode" in="SourceAlpha" result="effect1_dropShadow_482_2278"/>
<feOffset dy="4"/>
<feGaussianBlur stdDeviation="15"/>
<feComposite in2="hardAlpha" operator="out"/>
<feColorMatrix type="matrix" values="0 0 0 0 0.0705882 0 0 0 0 0.0823529 0 0 0 0 0.203922 0 0 0 0.14 0"/>
<feBlend mode="normal" in2="BackgroundImageFix" result="effect1_dropShadow_482_2278"/>
<feBlend mode="normal" in="SourceGraphic" in2="effect1_dropShadow_482_2278" result="shape"/>
</filter>
<filter id="filter1_d_482_2278" x="22" y="183" width="320" height="108" filterUnits="userSpaceOnUse" color-interpolation-filters="sRGB">
<feFlood flood-opacity="0" result="BackgroundImageFix"/>
<feColorMatrix in="SourceAlpha" type="matrix" values="0 0 0 0 0 0 0 0 0 0 0 0 0 0 0 0 0 0 127 0" result="hardAlpha"/>
<feMorphology radius="12" operator="erode" in="SourceAlpha" result="effect1_dropShadow_482_2278"/>
<feOffset dy="4"/>
<feGaussianBlur stdDeviation="15"/>
<feComposite in2="hardAlpha" operator="out"/>
<feColorMatrix type="matrix" values="0 0 0 0 0.0705882 0 0 0 0 0.0823529 0 0 0 0 0.203922 0 0 0 0.14 0"/>
<feBlend mode="normal" in2="BackgroundImageFix" result="effect1_dropShadow_482_2278"/>
<feBlend mode="normal" in="SourceGraphic" in2="effect1_dropShadow_482_2278" result="shape"/>
</filter>
<clipPath id="clip0_482_2278">
<path d="M178.686 114.5C178.686 109.908 182.408 106.186 187 106.186V106.186C191.592 106.186 195.314 109.908 195.314 114.5V114.5C195.314 119.092 191.592 122.814 187 122.814V122.814C182.408 122.814 178.686 119.092 178.686 114.5V114.5Z" fill="white"/>
</clipPath>
</defs>
</svg>
