<svg width="364" height="400" viewBox="0 0 364 400" fill="none" xmlns="http://www.w3.org/2000/svg">
<g clip-path="url(#clip0_482_2283)">
<rect width="364" height="400" rx="12" fill="#F4F7F4"/>
<path d="M46.5479 323.946H50.8193C50.793 325.133 50.5029 325.994 49.9404 326.53C49.3691 327.075 48.4727 327.348 47.2334 327.348C45.8535 327.348 44.8516 326.979 44.2275 326.24C43.5947 325.502 43.2783 324.315 43.2783 322.681C43.2783 321.063 43.5859 319.886 44.21 319.156C44.834 318.427 45.8359 318.058 47.2334 318.058C49.6592 318.058 50.6699 318.875 50.6699 320.773H52.9463C52.9463 319.367 52.4277 318.233 51.3818 317.381C50.3359 316.528 48.9473 316.098 47.2334 316.098C45.3525 316.098 43.8408 316.704 42.6982 317.908C41.5469 319.121 40.9756 320.721 40.9756 322.716C40.9756 324.693 41.5117 326.284 42.584 327.479C43.6562 328.675 45.0713 329.272 46.8379 329.272C49.1582 329.272 50.582 328.165 51.1094 325.959V329H53.0166V322.285H46.5479V323.946ZM64.7672 323.744C64.7672 322.47 64.3629 321.45 63.5631 320.677C62.7545 319.903 61.6998 319.517 60.3903 319.517C58.9928 319.517 57.8678 319.965 57.0153 320.853C56.1627 321.749 55.7321 322.927 55.7321 324.395C55.7321 325.862 56.1627 327.04 57.0153 327.928C57.8678 328.824 58.9928 329.272 60.3903 329.272C61.6735 329.272 62.7106 328.974 63.5104 328.385C64.3102 327.796 64.7057 327.031 64.7057 326.082H62.5875C62.5875 327.137 61.9371 327.611 60.4254 327.611C58.7995 327.611 58.0524 326.768 57.9557 324.843H64.7672V323.744ZM57.9821 323.542C58.1491 321.89 58.9049 321.169 60.3903 321.169C61.858 321.169 62.526 321.881 62.6227 323.507H59.9948L57.9821 323.542ZM71.6311 327.471C71.095 327.471 70.7171 327.356 70.5061 327.128C70.2952 326.899 70.1897 326.495 70.1897 325.906V321.441H73.6438V319.78H70.1897V317.064H68.1331L68.0804 319.78H66.2259V321.441H68.0804V326.249C68.0804 327.119 68.3792 327.831 68.9856 328.367C69.5833 328.903 70.3743 329.176 71.3587 329.176C71.9475 329.176 72.721 329.114 73.679 329V327.471H71.6311ZM84.7437 319.517C84.0933 319.517 83.5132 319.736 82.9947 320.167C82.4761 320.606 82.0806 321.195 81.8082 321.942V319.78H79.7955V329H81.9048V323.999C81.9048 322.443 82.8453 321.529 84.3306 321.529H85.5523V319.675C85.3326 319.569 85.0689 319.517 84.7437 319.517ZM95.5803 323.744C95.5803 322.47 95.176 321.45 94.3762 320.677C93.5676 319.903 92.5129 319.517 91.2033 319.517C89.8059 319.517 88.6809 319.965 87.8283 320.853C86.9758 321.749 86.5451 322.927 86.5451 324.395C86.5451 325.862 86.9758 327.04 87.8283 327.928C88.6809 328.824 89.8059 329.272 91.2033 329.272C92.4865 329.272 93.5236 328.974 94.3234 328.385C95.1232 327.796 95.5187 327.031 95.5187 326.082H93.4006C93.4006 327.137 92.7502 327.611 91.2385 327.611C89.6125 327.611 88.8654 326.768 88.7687 324.843H95.5803V323.744ZM88.7951 323.542C88.9621 321.89 89.718 321.169 91.2033 321.169C92.6711 321.169 93.3391 321.881 93.4357 323.507H90.8078L88.7951 323.542ZM103.683 319.517C102.198 319.517 101.029 320.299 100.405 321.784V319.78H98.3924V332.366H100.502V327.453C101.17 328.666 102.233 329.272 103.683 329.272C104.931 329.272 105.933 328.824 106.681 327.937C107.428 327.049 107.806 325.871 107.806 324.395C107.806 322.918 107.428 321.731 106.681 320.844C105.933 319.956 104.931 319.517 103.683 319.517ZM103.051 327.594C101.249 327.594 100.502 326.618 100.502 324.395C100.502 322.136 101.249 321.187 103.051 321.187C104.835 321.187 105.591 322.136 105.591 324.395C105.591 326.618 104.835 327.594 103.051 327.594ZM118.282 327.928C119.152 327.04 119.582 325.862 119.582 324.395C119.582 322.927 119.152 321.749 118.282 320.853C117.412 319.965 116.26 319.517 114.836 319.517C113.404 319.517 112.261 319.965 111.391 320.853C110.521 321.749 110.082 322.927 110.082 324.395C110.082 325.862 110.521 327.04 111.391 327.928C112.261 328.824 113.404 329.272 114.836 329.272C116.26 329.272 117.412 328.824 118.282 327.928ZM112.894 326.829C112.49 326.319 112.288 325.502 112.288 324.386C112.288 323.27 112.49 322.461 112.894 321.951C113.298 321.441 113.949 321.187 114.836 321.187C115.724 321.187 116.366 321.441 116.77 321.951C117.166 322.461 117.368 323.27 117.368 324.386C117.368 325.502 117.166 326.319 116.77 326.829C116.366 327.339 115.724 327.594 114.836 327.594C113.949 327.594 113.298 327.339 112.894 326.829ZM127.334 319.517C126.684 319.517 126.104 319.736 125.585 320.167C125.067 320.606 124.671 321.195 124.399 321.942V319.78H122.386V329H124.495V323.999C124.495 322.443 125.436 321.529 126.921 321.529H128.143V319.675C127.923 319.569 127.659 319.517 127.334 319.517ZM134.303 327.471C133.767 327.471 133.389 327.356 133.178 327.128C132.968 326.899 132.862 326.495 132.862 325.906V321.441H136.316V319.78H132.862V317.064H130.805L130.753 319.78H128.898V321.441H130.753V326.249C130.753 327.119 131.052 327.831 131.658 328.367C132.256 328.903 133.047 329.176 134.031 329.176C134.62 329.176 135.393 329.114 136.351 329V327.471H134.303ZM142.09 329.272C143.312 329.272 144.305 329.018 145.052 328.49C145.799 327.972 146.168 327.295 146.168 326.442C146.168 325.66 145.887 325.045 145.316 324.588C144.745 324.14 143.83 323.797 142.556 323.568C141.51 323.384 140.825 323.199 140.499 323.006C140.165 322.812 139.998 322.54 139.998 322.18C139.998 321.415 140.622 321.028 141.871 321.028C143.242 321.028 143.848 321.547 143.848 322.716H145.975C145.975 321.758 145.606 320.984 144.859 320.396C144.112 319.807 143.127 319.517 141.888 319.517C140.71 319.517 139.761 319.78 139.049 320.299C138.329 320.826 137.968 321.529 137.968 322.408C137.968 323.19 138.249 323.806 138.821 324.236C139.392 324.676 140.297 325.001 141.545 325.221C142.574 325.405 143.259 325.599 143.593 325.818C143.918 326.038 144.085 326.319 144.085 326.662C144.085 327.392 143.426 327.761 142.108 327.761C140.517 327.761 139.814 327.233 139.814 326.064H137.696C137.696 327.022 138.1 327.796 138.9 328.385C139.7 328.974 140.763 329.272 142.09 329.272ZM160.353 327.928C161.223 327.04 161.654 325.862 161.654 324.395C161.654 322.927 161.223 321.749 160.353 320.853C159.483 319.965 158.332 319.517 156.908 319.517C155.475 319.517 154.333 319.965 153.463 320.853C152.592 321.749 152.153 322.927 152.153 324.395C152.153 325.862 152.592 327.04 153.463 327.928C154.333 328.824 155.475 329.272 156.908 329.272C158.332 329.272 159.483 328.824 160.353 327.928ZM154.966 326.829C154.561 326.319 154.359 325.502 154.359 324.386C154.359 323.27 154.561 322.461 154.966 321.951C155.37 321.441 156.02 321.187 156.908 321.187C157.796 321.187 158.437 321.441 158.841 321.951C159.237 322.461 159.439 323.27 159.439 324.386C159.439 325.502 159.237 326.319 158.841 326.829C158.437 327.339 157.796 327.594 156.908 327.594C156.02 327.594 155.37 327.339 154.966 326.829ZM169.915 319.517C168.368 319.517 167.226 320.246 166.488 321.714V319.78H164.457V329H166.567V323.797C166.567 323.015 166.795 322.408 167.261 321.96C167.718 321.512 168.342 321.292 169.133 321.292C169.907 321.292 170.443 321.468 170.75 321.828C171.058 322.188 171.207 322.821 171.207 323.727V329H173.334V322.883C173.334 321.854 173.027 321.028 172.411 320.422C171.787 319.815 170.961 319.517 169.915 319.517ZM184.663 326.249L184.118 328.139L183.599 326.249L181.437 319.78H179.24L182.378 329H183.74L183.423 329.958C183.221 330.547 182.729 330.837 181.947 330.837H180.453V332.366C181.006 332.48 181.63 332.542 182.342 332.542C183.037 332.542 183.661 332.349 184.197 331.962C184.733 331.575 185.12 331.048 185.348 330.389L188.943 319.78H186.842L184.663 326.249ZM198.496 327.928C199.366 327.04 199.797 325.862 199.797 324.395C199.797 322.927 199.366 321.749 198.496 320.853C197.626 319.965 196.475 319.517 195.051 319.517C193.618 319.517 192.476 319.965 191.606 320.853C190.736 321.749 190.296 322.927 190.296 324.395C190.296 325.862 190.736 327.04 191.606 327.928C192.476 328.824 193.618 329.272 195.051 329.272C196.475 329.272 197.626 328.824 198.496 327.928ZM193.109 326.829C192.704 326.319 192.502 325.502 192.502 324.386C192.502 323.27 192.704 322.461 193.109 321.951C193.513 321.441 194.163 321.187 195.051 321.187C195.939 321.187 196.58 321.441 196.985 321.951C197.38 322.461 197.582 323.27 197.582 324.386C197.582 325.502 197.38 326.319 196.985 326.829C196.58 327.339 195.939 327.594 195.051 327.594C194.163 327.594 193.513 327.339 193.109 326.829ZM209.192 325.133C209.192 326.618 208.261 327.488 206.775 327.488C206.011 327.488 205.474 327.304 205.167 326.943C204.859 326.583 204.71 325.959 204.71 325.054V319.78H202.6V325.906C202.6 326.935 202.899 327.752 203.488 328.358C204.077 328.965 204.859 329.272 205.844 329.272C207.417 329.264 208.559 328.587 209.28 327.233V329H211.31V319.78H209.192V325.133ZM219.581 319.517C218.93 319.517 218.35 319.736 217.832 320.167C217.313 320.606 216.917 321.195 216.645 321.942V319.78H214.632V329H216.742V323.999C216.742 322.443 217.682 321.529 219.167 321.529H220.389V319.675C220.169 319.569 219.906 319.517 219.581 319.517ZM232.711 325.818C232.711 327.058 232.087 327.594 230.601 327.594C228.879 327.594 228.132 326.618 228.132 324.386C228.132 322.153 228.879 321.187 230.601 321.187C232.069 321.187 232.649 321.767 232.649 323.164H234.776C234.776 322.074 234.398 321.195 233.634 320.519C232.869 319.851 231.858 319.517 230.601 319.517C229.195 319.517 228.061 319.965 227.209 320.853C226.356 321.749 225.926 322.927 225.926 324.395C225.926 325.862 226.356 327.04 227.209 327.928C228.061 328.824 229.195 329.272 230.601 329.272C231.876 329.272 232.895 328.956 233.669 328.314C234.442 327.682 234.829 326.847 234.829 325.818H232.711ZM246.342 327.523C245.824 327.523 245.507 327.462 245.375 327.33C245.244 327.207 245.173 326.908 245.173 326.425V323.278C245.173 322.092 244.831 321.16 244.145 320.501C243.451 319.842 242.493 319.517 241.253 319.517C240.049 319.517 239.082 319.868 238.353 320.562C237.623 321.266 237.254 322.197 237.254 323.349H239.329C239.329 321.793 239.9 321.116 241.218 321.116C242.537 321.116 243.108 321.854 243.108 323.639V323.762C242.747 323.876 241.596 324.14 239.636 324.553C238.678 324.746 238.001 325.045 237.606 325.449C237.21 325.854 237.008 326.363 237.008 326.987C237.008 327.664 237.263 328.218 237.764 328.64C238.265 329.062 238.942 329.272 239.777 329.272C241.456 329.272 242.651 328.438 243.178 327.163C243.205 328.578 243.793 329.176 245.015 329.176C245.481 329.176 245.938 329.114 246.369 329V327.523H246.342ZM240.445 327.708C239.592 327.708 239.17 327.374 239.162 326.715C239.162 326.39 239.249 326.144 239.434 325.977C239.619 325.81 239.988 325.66 240.55 325.511C242.027 325.159 242.879 324.939 243.108 324.86V325.238C243.108 326.891 242.071 327.708 240.445 327.708ZM252.143 329.272C253.364 329.272 254.357 329.018 255.105 328.49C255.852 327.972 256.221 327.295 256.221 326.442C256.221 325.66 255.94 325.045 255.368 324.588C254.797 324.14 253.883 323.797 252.608 323.568C251.563 323.384 250.877 323.199 250.552 323.006C250.218 322.812 250.051 322.54 250.051 322.18C250.051 321.415 250.675 321.028 251.923 321.028C253.294 321.028 253.9 321.547 253.9 322.716H256.027C256.027 321.758 255.658 320.984 254.911 320.396C254.164 319.807 253.18 319.517 251.941 319.517C250.763 319.517 249.814 319.78 249.102 320.299C248.381 320.826 248.021 321.529 248.021 322.408C248.021 323.19 248.302 323.806 248.873 324.236C249.444 324.676 250.35 325.001 251.598 325.221C252.626 325.405 253.312 325.599 253.646 325.818C253.971 326.038 254.138 326.319 254.138 326.662C254.138 327.392 253.479 327.761 252.16 327.761C250.569 327.761 249.866 327.233 249.866 326.064H247.748C247.748 327.022 248.152 327.796 248.952 328.385C249.752 328.974 250.816 329.272 252.143 329.272ZM264.078 319.517C262.575 319.517 261.459 320.211 260.729 321.6V315.377H258.62V329H260.729V323.797C260.729 323.015 260.958 322.408 261.424 321.96C261.881 321.512 262.505 321.292 263.296 321.292C264.069 321.292 264.605 321.468 264.913 321.828C265.22 322.188 265.37 322.821 265.37 323.727V329H267.497V322.883C267.497 321.854 267.189 321.028 266.574 320.422C265.95 319.815 265.124 319.517 264.078 319.517ZM271.311 319.78H269.483V321.441H271.311V329H273.42V321.441H276.496V319.78H273.42V318.471C273.42 317.882 273.526 317.478 273.728 317.249C273.93 317.021 274.299 316.906 274.827 316.906H276.628V315.377C276.092 315.254 275.415 315.192 274.589 315.192C273.605 315.192 272.814 315.474 272.216 316.036C271.61 316.599 271.311 317.346 271.311 318.269V319.78ZM280.838 327.471C280.065 327.471 279.792 327.154 279.792 326.214V315.377H277.683V326.478C277.683 327.295 277.92 327.954 278.404 328.438C278.887 328.93 279.511 329.176 280.293 329.176C280.715 329.176 281.128 329.114 281.524 329V327.471H280.838ZM291.455 327.928C292.325 327.04 292.756 325.862 292.756 324.395C292.756 322.927 292.325 321.749 291.455 320.853C290.585 319.965 289.434 319.517 288.01 319.517C286.577 319.517 285.435 319.965 284.564 320.853C283.694 321.749 283.255 322.927 283.255 324.395C283.255 325.862 283.694 327.04 284.564 327.928C285.435 328.824 286.577 329.272 288.01 329.272C289.434 329.272 290.585 328.824 291.455 327.928ZM286.067 326.829C285.663 326.319 285.461 325.502 285.461 324.386C285.461 323.27 285.663 322.461 286.067 321.951C286.472 321.441 287.122 321.187 288.01 321.187C288.897 321.187 289.539 321.441 289.943 321.951C290.339 322.461 290.541 323.27 290.541 324.386C290.541 325.502 290.339 326.319 289.943 326.829C289.539 327.339 288.897 327.594 288.01 327.594C287.122 327.594 286.472 327.339 286.067 326.829ZM305.93 326.249L305.535 328.244L305.174 326.249L303.663 319.78H300.525L299.013 326.249L298.635 328.297L298.222 326.249L296.552 319.78H294.302L296.878 329H300.209L301.676 322.848L302.081 320.844L302.459 322.848L303.926 329H307.17L309.745 319.78H307.583L305.93 326.249ZM50.292 351.523C49.7734 351.523 49.457 351.462 49.3252 351.33C49.1934 351.207 49.123 350.908 49.123 350.425V347.278C49.123 346.092 48.7803 345.16 48.0947 344.501C47.4004 343.842 46.4424 343.517 45.2031 343.517C43.999 343.517 43.0322 343.868 42.3027 344.562C41.5732 345.266 41.2041 346.197 41.2041 347.349H43.2783C43.2783 345.793 43.8496 345.116 45.168 345.116C46.4863 345.116 47.0576 345.854 47.0576 347.639V347.762C46.6973 347.876 45.5459 348.14 43.5859 348.553C42.6279 348.746 41.9512 349.045 41.5557 349.449C41.1602 349.854 40.958 350.363 40.958 350.987C40.958 351.664 41.2129 352.218 41.7139 352.64C42.2148 353.062 42.8916 353.272 43.7266 353.272C45.4053 353.272 46.6006 352.438 47.1279 351.163C47.1543 352.578 47.7432 353.176 48.9648 353.176C49.4307 353.176 49.8877 353.114 50.3184 353V351.523H50.292ZM44.3945 351.708C43.542 351.708 43.1201 351.374 43.1113 350.715C43.1113 350.39 43.1992 350.144 43.3838 349.977C43.5684 349.81 43.9375 349.66 44.5 349.511C45.9766 349.159 46.8291 348.939 47.0576 348.86V349.238C47.0576 350.891 46.0205 351.708 44.3945 351.708ZM57.9645 343.517C56.4176 343.517 55.275 344.246 54.5368 345.714V343.78H52.5065V353H54.6159V347.797C54.6159 347.015 54.8444 346.408 55.3102 345.96C55.7672 345.512 56.3912 345.292 57.1823 345.292C57.9557 345.292 58.4918 345.468 58.7995 345.828C59.1071 346.188 59.2565 346.821 59.2565 347.727V353H61.3834V346.883C61.3834 345.854 61.0758 345.028 60.4606 344.422C59.8366 343.815 59.0104 343.517 57.9645 343.517ZM71.3938 345.354C70.7698 344.149 69.6009 343.517 68.2298 343.517C66.9641 343.517 65.9622 343.956 65.2239 344.844C64.4768 345.731 64.1077 346.918 64.1077 348.395C64.1077 349.871 64.4768 351.049 65.2239 351.937C65.971 352.824 66.9729 353.272 68.2298 353.272C69.7591 353.272 70.8401 352.543 71.4817 351.075V353H73.5208V339.377H71.3938V345.354ZM66.9114 350.838C66.5159 350.337 66.3137 349.528 66.3137 348.395C66.3137 346.153 67.0608 345.187 68.8626 345.187C70.6555 345.187 71.3938 346.171 71.3938 348.395C71.3938 349.52 71.2005 350.337 70.805 350.838C70.4095 351.339 69.7591 351.594 68.8626 351.594C67.9573 351.594 67.3069 351.339 66.9114 350.838ZM92.8912 343.517C91.3179 343.517 90.1666 344.281 89.4195 345.819C89.0328 344.378 87.8726 343.517 86.2203 343.517C84.7086 343.517 83.4693 344.334 82.775 345.749V343.78H80.7623V353H82.8716V347.797C82.8716 347.015 83.1002 346.408 83.566 345.96C84.023 345.512 84.6382 345.292 85.4205 345.292C86.1675 345.292 86.6861 345.468 86.9849 345.828C87.275 346.188 87.4244 346.821 87.4244 347.727V353H89.5425V347.797C89.5425 347.015 89.7711 346.408 90.2281 345.96C90.6851 345.512 91.3091 345.292 92.1002 345.292C92.8472 345.292 93.3658 345.468 93.6646 345.828C93.9546 346.188 94.1041 346.821 94.1041 347.727V353H96.2222V346.883C96.2222 345.863 95.9234 345.046 95.317 344.431C94.7105 343.824 93.9019 343.517 92.8912 343.517ZM107.138 351.928C108.008 351.04 108.439 349.862 108.439 348.395C108.439 346.927 108.008 345.749 107.138 344.853C106.268 343.965 105.116 343.517 103.693 343.517C102.26 343.517 101.117 343.965 100.247 344.853C99.3771 345.749 98.9377 346.927 98.9377 348.395C98.9377 349.862 99.3771 351.04 100.247 351.928C101.117 352.824 102.26 353.272 103.693 353.272C105.116 353.272 106.268 352.824 107.138 351.928ZM101.75 350.829C101.346 350.319 101.144 349.502 101.144 348.386C101.144 347.27 101.346 346.461 101.75 345.951C102.154 345.441 102.805 345.187 103.693 345.187C104.58 345.187 105.222 345.441 105.626 345.951C106.022 346.461 106.224 347.27 106.224 348.386C106.224 349.502 106.022 350.319 105.626 350.829C105.222 351.339 104.58 351.594 103.693 351.594C102.805 351.594 102.154 351.339 101.75 350.829ZM116.7 343.517C115.153 343.517 114.011 344.246 113.272 345.714V343.78H111.242V353H113.351V347.797C113.351 347.015 113.58 346.408 114.046 345.96C114.503 345.512 115.127 345.292 115.918 345.292C116.691 345.292 117.227 345.468 117.535 345.828C117.843 346.188 117.992 346.821 117.992 347.727V353H120.119V346.883C120.119 345.854 119.811 345.028 119.196 344.422C118.572 343.815 117.746 343.517 116.7 343.517ZM123.291 341.891H125.577V339.702H123.291V341.891ZM123.379 353H125.489V343.78H123.379V353ZM132.818 351.471C132.282 351.471 131.904 351.356 131.693 351.128C131.483 350.899 131.377 350.495 131.377 349.906V345.441H134.831V343.78H131.377V341.064H129.32L129.268 343.78H127.413V345.441H129.268V350.249C129.268 351.119 129.567 351.831 130.173 352.367C130.771 352.903 131.562 353.176 132.546 353.176C133.135 353.176 133.908 353.114 134.866 353V351.471H132.818ZM144.385 351.928C145.255 351.04 145.685 349.862 145.685 348.395C145.685 346.927 145.255 345.749 144.385 344.853C143.514 343.965 142.363 343.517 140.939 343.517C139.507 343.517 138.364 343.965 137.494 344.853C136.624 345.749 136.184 346.927 136.184 348.395C136.184 349.862 136.624 351.04 137.494 351.928C138.364 352.824 139.507 353.272 140.939 353.272C142.363 353.272 143.514 352.824 144.385 351.928ZM138.997 350.829C138.593 350.319 138.39 349.502 138.39 348.386C138.39 347.27 138.593 346.461 138.997 345.951C139.401 345.441 140.052 345.187 140.939 345.187C141.827 345.187 142.469 345.441 142.873 345.951C143.268 346.461 143.47 347.27 143.47 348.386C143.47 349.502 143.268 350.319 142.873 350.829C142.469 351.339 141.827 351.594 140.939 351.594C140.052 351.594 139.401 351.339 138.997 350.829ZM153.437 343.517C152.787 343.517 152.206 343.736 151.688 344.167C151.169 344.606 150.774 345.195 150.501 345.942V343.78H148.489V353H150.598V347.999C150.598 346.443 151.538 345.529 153.024 345.529H154.246V343.675C154.026 343.569 153.762 343.517 153.437 343.517ZM168.817 347.744C168.817 346.47 168.413 345.45 167.613 344.677C166.804 343.903 165.75 343.517 164.44 343.517C163.043 343.517 161.918 343.965 161.065 344.853C160.213 345.749 159.782 346.927 159.782 348.395C159.782 349.862 160.213 351.04 161.065 351.928C161.918 352.824 163.043 353.272 164.44 353.272C165.723 353.272 166.76 352.974 167.56 352.385C168.36 351.796 168.756 351.031 168.756 350.082H166.637C166.637 351.137 165.987 351.611 164.475 351.611C162.849 351.611 162.102 350.768 162.006 348.843H168.817V347.744ZM162.032 347.542C162.199 345.89 162.955 345.169 164.44 345.169C165.908 345.169 166.576 345.881 166.673 347.507H164.045L162.032 347.542ZM180.735 343.78H178.397L176.727 346.232L175.804 347.639L174.943 346.232L173.264 343.78H170.891L173.932 348.175L170.478 353H172.816L174.723 350.231L175.786 348.588L176.762 350.231L178.634 353H181.007L177.659 348.263L180.735 343.78ZM188.354 343.517C186.869 343.517 185.7 344.299 185.076 345.784V343.78H183.063V356.366H185.173V351.453C185.841 352.666 186.904 353.272 188.354 353.272C189.602 353.272 190.604 352.824 191.352 351.937C192.099 351.049 192.477 349.871 192.477 348.395C192.477 346.918 192.099 345.731 191.352 344.844C190.604 343.956 189.602 343.517 188.354 343.517ZM187.722 351.594C185.92 351.594 185.173 350.618 185.173 348.395C185.173 346.136 185.92 345.187 187.722 345.187C189.506 345.187 190.262 346.136 190.262 348.395C190.262 350.618 189.506 351.594 187.722 351.594ZM203.788 347.744C203.788 346.47 203.383 345.45 202.584 344.677C201.775 343.903 200.72 343.517 199.411 343.517C198.013 343.517 196.888 343.965 196.036 344.853C195.183 345.749 194.753 346.927 194.753 348.395C194.753 349.862 195.183 351.04 196.036 351.928C196.888 352.824 198.013 353.272 199.411 353.272C200.694 353.272 201.731 352.974 202.531 352.385C203.331 351.796 203.726 351.031 203.726 350.082H201.608C201.608 351.137 200.958 351.611 199.446 351.611C197.82 351.611 197.073 350.768 196.976 348.843H203.788V347.744ZM197.003 347.542C197.17 345.89 197.925 345.169 199.411 345.169C200.879 345.169 201.546 345.881 201.643 347.507H199.015L197.003 347.542ZM212.058 343.517C210.511 343.517 209.368 344.246 208.63 345.714V343.78H206.6V353H208.709V347.797C208.709 347.015 208.938 346.408 209.404 345.96C209.861 345.512 210.485 345.292 211.276 345.292C212.049 345.292 212.585 345.468 212.893 345.828C213.2 346.188 213.35 346.821 213.35 347.727V353H215.477V346.883C215.477 345.854 215.169 345.028 214.554 344.422C213.93 343.815 213.104 343.517 212.058 343.517ZM222.323 353.272C223.545 353.272 224.538 353.018 225.285 352.49C226.032 351.972 226.401 351.295 226.401 350.442C226.401 349.66 226.12 349.045 225.549 348.588C224.977 348.14 224.063 347.797 222.789 347.568C221.743 347.384 221.057 347.199 220.732 347.006C220.398 346.812 220.231 346.54 220.231 346.18C220.231 345.415 220.855 345.028 222.103 345.028C223.474 345.028 224.081 345.547 224.081 346.716H226.208C226.208 345.758 225.839 344.984 225.092 344.396C224.345 343.807 223.36 343.517 222.121 343.517C220.943 343.517 219.994 343.78 219.282 344.299C218.561 344.826 218.201 345.529 218.201 346.408C218.201 347.19 218.482 347.806 219.054 348.236C219.625 348.676 220.53 349.001 221.778 349.221C222.807 349.405 223.492 349.599 223.826 349.818C224.151 350.038 224.318 350.319 224.318 350.662C224.318 351.392 223.659 351.761 222.341 351.761C220.75 351.761 220.047 351.233 220.047 350.064H217.929C217.929 351.022 218.333 351.796 219.133 352.385C219.932 352.974 220.996 353.272 222.323 353.272ZM237.458 347.744C237.458 346.47 237.053 345.45 236.253 344.677C235.445 343.903 234.39 343.517 233.081 343.517C231.683 343.517 230.558 343.965 229.706 344.853C228.853 345.749 228.422 346.927 228.422 348.395C228.422 349.862 228.853 351.04 229.706 351.928C230.558 352.824 231.683 353.272 233.081 353.272C234.364 353.272 235.401 352.974 236.201 352.385C237.001 351.796 237.396 351.031 237.396 350.082H235.278C235.278 351.137 234.627 351.611 233.116 351.611C231.49 351.611 230.743 350.768 230.646 348.843H237.458V347.744ZM230.672 347.542C230.839 345.89 231.595 345.169 233.081 345.169C234.548 345.169 235.216 345.881 235.313 347.507H232.685L230.672 347.542ZM243.856 353.272C245.077 353.272 246.07 353.018 246.818 352.49C247.565 351.972 247.934 351.295 247.934 350.442C247.934 349.66 247.652 349.045 247.081 348.588C246.51 348.14 245.596 347.797 244.321 347.568C243.276 347.384 242.59 347.199 242.265 347.006C241.931 346.812 241.764 346.54 241.764 346.18C241.764 345.415 242.388 345.028 243.636 345.028C245.007 345.028 245.613 345.547 245.613 346.716H247.74C247.74 345.758 247.371 344.984 246.624 344.396C245.877 343.807 244.893 343.517 243.653 343.517C242.476 343.517 241.527 343.78 240.815 344.299C240.094 344.826 239.734 345.529 239.734 346.408C239.734 347.19 240.015 347.806 240.586 348.236C241.157 348.676 242.063 349.001 243.311 349.221C244.339 349.405 245.025 349.599 245.359 349.818C245.684 350.038 245.851 350.319 245.851 350.662C245.851 351.392 245.192 351.761 243.873 351.761C242.282 351.761 241.579 351.233 241.579 350.064H239.461C239.461 351.022 239.865 351.796 240.665 352.385C241.465 352.974 242.528 353.272 243.856 353.272ZM250.166 353H252.723V350.478H250.166V353Z" fill="black"/>
<path d="M-8.63505 215.89L-12.6911 215.197V311.91H376.691V85L372.635 91.9122L372.634 91.9142C368.577 98.8271 360.466 112.65 352.355 127.031C344.243 141.414 336.13 156.355 328.018 154.285C319.906 152.215 311.794 133.135 303.682 125.33C295.57 117.525 287.458 120.996 279.346 126.47C271.233 131.945 263.121 139.424 255.009 146.975L254.763 147.204C246.733 154.68 238.703 162.156 230.673 162.693C222.561 163.235 214.449 156.697 206.336 153.037C198.224 149.377 190.112 148.595 182 163.453C173.888 178.31 165.776 208.807 157.664 211.332C149.551 213.857 141.439 188.411 133.327 187.914C125.215 187.417 117.103 211.868 108.991 215.784C100.879 219.7 92.7666 203.081 84.6544 198.933C76.5423 194.784 68.4302 203.107 60.3181 210.399C52.2059 217.69 44.0938 223.952 35.9817 225.273C27.8695 226.594 19.7574 222.975 11.6453 220.472C3.53326 217.969 -4.57876 216.583 -8.63488 215.89L-8.63505 215.89Z" fill="url(#paint0_linear_482_2283)"/>
<path d="M-12.6911 215.197L-8.63505 215.89C-4.57899 216.583 3.53314 217.969 11.6453 220.472C19.7574 222.975 27.8695 226.594 35.9817 225.273C44.0938 223.952 52.2059 217.69 60.3181 210.399C68.4302 203.107 76.5423 194.784 84.6544 198.933C92.7666 203.081 100.879 219.7 108.991 215.784C117.103 211.868 125.215 187.417 133.327 187.914C141.439 188.411 149.551 213.857 157.664 211.332C165.776 208.807 173.888 178.31 182 163.453C190.112 148.595 198.224 149.377 206.336 153.037C214.449 156.697 222.561 163.235 230.673 162.693C238.785 162.15 246.897 154.526 255.009 146.975C263.121 139.424 271.233 131.945 279.346 126.47C287.458 120.996 295.57 117.525 303.682 125.33C311.794 133.135 319.906 152.215 328.018 154.285C336.13 156.355 344.243 141.414 352.355 127.031C360.467 112.649 368.579 98.8244 372.635 91.9122L376.691 85" stroke="#663AF5" stroke-width="2"/>
<circle cx="90.6955" cy="203.711" r="3" fill="white" stroke="#663AF5" stroke-width="2"/>
<circle cx="142.951" cy="195.711" r="3" fill="white" stroke="#663AF5" stroke-width="2"/>
<circle cx="195.537" cy="149.277" r="5" fill="white" stroke="#663AF5" stroke-width="2"/>
<g filter="url(#filter0_d_482_2283)">
<rect x="224" y="199.711" width="102" height="40.7056" rx="4" fill="white"/>
<path d="M239.583 222.497L242.712 219.368L243.537 220.193L239 224.73L234.463 220.193L235.288 219.368L238.417 222.497V215.397H239.583V222.497Z" fill="#101010"/>
<path d="M239 226.064C235.686 226.064 233 223.377 233 220.064H231C231 224.482 234.582 228.064 239 228.064V226.064ZM245 220.064C245 223.377 242.314 226.064 239 226.064V228.064C243.418 228.064 247 224.482 247 220.064H245ZM239 214.064C242.314 214.064 245 216.75 245 220.064H247C247 215.645 243.418 212.064 239 212.064V214.064ZM239 212.064C234.582 212.064 231 215.645 231 220.064H233C233 216.75 235.686 214.064 239 214.064V212.064Z" fill="#101010"/>
<path d="M261.384 213.303V216.711H262.728V213.243L265.98 208.311H264.432L262.044 212.019L259.704 208.311H258.156L261.384 213.303ZM266.746 215.931C267.37 216.555 268.15 216.867 269.086 216.867C270.022 216.867 270.802 216.555 271.426 215.931C272.062 215.307 272.374 214.527 272.374 213.591C272.374 212.655 272.062 211.875 271.426 211.251C270.802 210.627 270.022 210.315 269.086 210.315C268.15 210.315 267.37 210.627 266.746 211.251C266.122 211.875 265.81 212.655 265.81 213.591C265.81 214.527 266.122 215.307 266.746 215.931ZM269.086 215.619C268.522 215.619 268.054 215.427 267.67 215.043C267.298 214.647 267.106 214.167 267.106 213.591C267.106 213.015 267.298 212.535 267.67 212.151C268.054 211.755 268.522 211.563 269.086 211.563C269.65 211.563 270.13 211.755 270.502 212.151C270.886 212.535 271.078 213.015 271.078 213.591C271.078 214.167 270.886 214.647 270.502 215.043C270.13 215.427 269.65 215.619 269.086 215.619ZM273.814 214.407C273.814 215.115 274.054 215.703 274.522 216.171C274.99 216.639 275.59 216.867 276.31 216.867C277.186 216.867 277.87 216.519 278.35 215.823V216.711H279.598V210.471H278.35V214.047C278.35 214.515 278.194 214.899 277.87 215.211C277.546 215.523 277.15 215.679 276.67 215.679C276.214 215.679 275.83 215.523 275.518 215.223C275.218 214.911 275.062 214.527 275.062 214.059V210.471H273.814V214.407ZM289.187 211.899C289.007 210.927 288.167 210.315 286.883 210.315C285.527 210.315 284.555 210.939 284.555 212.175C284.555 212.991 284.975 213.495 285.947 213.831L287.339 214.299C287.843 214.479 288.095 214.719 288.095 215.019C288.095 215.487 287.591 215.775 286.919 215.775C286.163 215.775 285.671 215.439 285.563 214.947L284.387 215.127C284.567 216.195 285.467 216.867 286.895 216.867C288.287 216.867 289.295 216.219 289.295 214.983C289.295 214.131 288.827 213.579 287.759 213.183L286.355 212.703C285.959 212.559 285.755 212.355 285.755 212.079C285.755 211.659 286.199 211.407 286.787 211.407C287.447 211.407 287.879 211.683 288.011 212.103L289.187 211.899ZM291.942 219.411V216.039C292.518 216.591 293.214 216.867 294.018 216.867C294.894 216.867 295.626 216.555 296.214 215.931C296.802 215.307 297.09 214.527 297.09 213.591C297.09 212.655 296.802 211.875 296.214 211.251C295.626 210.627 294.894 210.315 294.018 210.315C293.214 210.315 292.518 210.591 291.942 211.143V210.471H290.694V219.411H291.942ZM293.874 211.563C294.414 211.563 294.87 211.755 295.242 212.151C295.614 212.535 295.794 213.015 295.794 213.591C295.794 214.167 295.614 214.647 295.242 215.043C294.87 215.427 294.414 215.619 293.874 215.619C293.334 215.619 292.89 215.427 292.518 215.043C292.146 214.647 291.966 214.167 291.966 213.591C291.966 213.015 292.146 212.535 292.518 212.151C292.89 211.755 293.334 211.563 293.874 211.563ZM304.731 214.047C304.743 213.843 304.755 213.687 304.755 213.591C304.755 212.655 304.443 211.875 303.819 211.251C303.207 210.627 302.439 210.315 301.515 210.315C300.591 210.315 299.811 210.627 299.187 211.251C298.575 211.875 298.263 212.655 298.263 213.591C298.263 214.527 298.587 215.307 299.223 215.931C299.859 216.555 300.663 216.867 301.611 216.867C302.859 216.867 303.915 216.267 304.491 215.295L303.267 214.923C302.871 215.439 302.319 215.703 301.611 215.703C300.567 215.703 299.739 215.019 299.547 214.047H304.731ZM299.559 213.051C299.787 212.127 300.567 211.479 301.479 211.479C302.451 211.479 303.243 212.127 303.471 213.051H299.559ZM306.104 216.711H307.352V213.135C307.352 212.667 307.508 212.283 307.832 211.971C308.156 211.659 308.564 211.503 309.032 211.503C309.956 211.503 310.64 212.199 310.64 213.123V216.711H311.888V212.763C311.888 212.055 311.648 211.479 311.18 211.011C310.712 210.543 310.112 210.315 309.404 210.315C308.492 210.315 307.808 210.675 307.352 211.383V210.471H306.104V216.711ZM313.009 211.563H313.957V214.803C313.957 215.343 314.149 215.799 314.533 216.171C314.917 216.531 315.385 216.711 315.949 216.711H316.861V215.511H316.045C315.565 215.511 315.205 215.127 315.205 214.635V211.563H316.861V210.471H315.205V209.235H313.957V210.471H313.009V211.563Z" fill="black"/>
<path d="M260.68 231.611H261.47V230.441C262.14 230.381 262.67 230.161 263.08 229.771C263.49 229.381 263.7 228.891 263.7 228.301C263.7 227.631 263.44 227.141 262.96 226.851C262.48 226.561 262.19 226.461 261.62 226.311L261.09 226.161C260.98 226.131 260.84 226.081 260.66 226.021C260.48 225.961 260.35 225.911 260.27 225.861C259.99 225.691 259.71 225.471 259.76 225.181C259.76 224.661 260.3 224.281 261.02 224.281C261.69 224.281 262.22 224.641 262.34 225.091L263.45 224.761C263.22 223.971 262.47 223.361 261.44 223.231V222.051H260.65V223.221C260.05 223.291 259.56 223.511 259.19 223.881C258.82 224.251 258.64 224.711 258.64 225.261C258.64 225.941 258.97 226.461 259.62 226.811C259.91 226.961 260.47 227.151 261.3 227.391C261.78 227.521 262.05 227.601 262.34 227.891C262.49 228.031 262.57 228.201 262.57 228.391C262.57 228.981 261.94 229.381 261.13 229.381C260.3 229.381 259.68 228.961 259.56 228.441L258.45 228.791C258.69 229.641 259.53 230.301 260.68 230.431V231.611ZM267.302 230.461C268.052 230.461 268.682 230.241 269.182 229.791C269.692 229.341 269.942 228.791 269.942 228.121C269.942 227.451 269.682 226.901 269.162 226.451C268.642 226.001 267.992 225.781 267.222 225.781H266.382L266.522 224.331H269.352V223.331H265.622L265.272 226.781H267.182C267.652 226.781 268.032 226.911 268.342 227.161C268.652 227.411 268.812 227.731 268.812 228.121C268.812 228.491 268.662 228.801 268.372 229.051C268.082 229.301 267.732 229.421 267.302 229.421C266.632 229.421 266.082 229.061 265.832 228.491L264.752 228.791C265.142 229.801 266.112 230.461 267.302 230.461ZM271.088 227.971C271.088 228.681 271.338 229.281 271.848 229.751C272.358 230.221 272.998 230.461 273.768 230.461C274.528 230.461 275.158 230.221 275.668 229.751C276.178 229.271 276.438 228.681 276.438 227.971V225.691C276.438 224.981 276.178 224.391 275.668 223.921C275.158 223.441 274.528 223.201 273.768 223.201C272.998 223.201 272.358 223.441 271.848 223.911C271.338 224.381 271.088 224.981 271.088 225.691V227.971ZM272.168 225.671C272.168 225.261 272.318 224.921 272.628 224.651C272.938 224.381 273.318 224.241 273.768 224.241C274.218 224.241 274.598 224.381 274.898 224.651C275.208 224.921 275.358 225.261 275.358 225.671V227.981C275.358 228.391 275.208 228.731 274.898 229.011C274.598 229.281 274.218 229.421 273.768 229.421C273.318 229.421 272.938 229.281 272.628 229.011C272.318 228.731 272.168 228.391 272.168 227.981V225.671Z" fill="#663AF5"/>
</g>
<g filter="url(#filter1_d_482_2283)">
<rect x="167.537" y="90" width="56" height="40" rx="4" fill="white"/>
<path d="M184.649 111.286C184.649 110.5 184.376 109.885 183.829 109.427C183.275 108.976 182.359 108.627 181.067 108.388V105.476C182.209 105.64 182.694 106.241 182.694 107.417H184.458C184.458 106.494 184.15 105.729 183.542 105.113C182.927 104.498 182.1 104.129 181.067 104.006V103.049H179.782V103.992C178.75 104.081 177.93 104.396 177.321 104.936C176.713 105.476 176.405 106.152 176.405 106.973C176.405 107.718 176.672 108.306 177.205 108.736C177.738 109.167 178.6 109.502 179.782 109.741V112.715C178.49 112.578 177.916 111.99 177.916 110.849H176.152C176.152 111.765 176.48 112.523 177.144 113.118C177.8 113.713 178.682 114.068 179.782 114.185V115.121H181.067V114.185C182.161 114.096 183.029 113.795 183.679 113.269C184.328 112.749 184.649 112.086 184.649 111.286ZM178.142 106.747C178.142 105.981 178.688 105.551 179.782 105.462V108.094C179.126 107.916 178.688 107.725 178.47 107.526C178.251 107.328 178.142 107.068 178.142 106.747ZM181.067 110.008C181.812 110.206 182.312 110.411 182.551 110.637C182.79 110.862 182.913 111.129 182.913 111.45C182.913 112.209 182.298 112.64 181.067 112.729V110.008ZM190.925 107.786C189.701 107.786 188.812 108.217 188.252 109.085L188.491 105.626L189.762 105.64H193.31V104.17H187.076L186.686 109.871H188.197C188.436 109.591 188.703 109.393 188.99 109.276C189.27 109.167 189.66 109.112 190.159 109.112C191.533 109.112 192.162 109.673 192.162 110.979C192.162 112.209 191.547 112.742 190.159 112.742C188.758 112.742 188.156 112.182 188.156 110.917H186.392C186.392 111.908 186.734 112.708 187.425 113.31C188.108 113.911 189.017 114.212 190.145 114.212C191.266 114.212 192.169 113.911 192.859 113.316C193.543 112.722 193.884 111.936 193.884 110.965C193.884 110.015 193.611 109.242 193.071 108.661C192.531 108.08 191.813 107.786 190.925 107.786ZM200.248 107.772C199.51 107.772 198.868 107.93 198.321 108.237C197.767 108.545 197.384 108.955 197.172 109.461V109.099C197.172 107.813 197.377 106.884 197.788 106.303C198.198 105.722 198.861 105.435 199.777 105.435C201.082 105.435 201.664 105.947 201.664 107.123H203.4C203.4 106.173 203.072 105.414 202.409 104.833C201.746 104.252 200.877 103.965 199.79 103.965C198.464 103.965 197.398 104.437 196.591 105.373C195.785 106.316 195.381 107.561 195.381 109.099C195.381 110.719 195.778 111.97 196.564 112.865C197.35 113.761 198.43 114.212 199.79 114.212C200.898 114.212 201.793 113.897 202.477 113.275C203.154 112.653 203.496 111.84 203.496 110.835C203.496 109.912 203.202 109.167 202.607 108.606C202.012 108.053 201.226 107.772 200.248 107.772ZM199.749 112.742C198.075 112.742 197.35 112.141 197.35 110.753C197.35 109.611 198.061 109.112 199.702 109.112C201.144 109.112 201.759 109.646 201.759 110.876C201.759 112.188 201.171 112.742 199.749 112.742ZM213.004 112.804C213.811 111.867 214.214 110.623 214.214 109.085C214.214 107.547 213.811 106.303 213.004 105.366C212.191 104.43 211.131 103.965 209.819 103.965C208.499 103.965 207.44 104.43 206.633 105.366C205.826 106.303 205.423 107.547 205.423 109.085C205.423 110.623 205.826 111.867 206.633 112.804C207.44 113.74 208.499 114.212 209.819 114.212C211.131 114.212 212.191 113.74 213.004 112.804ZM207.829 111.826C207.419 111.259 207.214 110.35 207.214 109.085C207.214 107.827 207.419 106.911 207.829 106.344C208.239 105.776 208.903 105.489 209.819 105.489C210.728 105.489 211.391 105.776 211.808 106.344C212.218 106.911 212.423 107.827 212.423 109.085C212.423 110.35 212.218 111.259 211.808 111.826C211.391 112.394 210.728 112.681 209.819 112.681C208.903 112.681 208.239 112.394 207.829 111.826Z" fill="black"/>
</g>
<path d="M45.712 46.018C44.27 46.018 43.052 46.508 42.086 47.474C41.12 48.44 40.63 49.658 40.63 51.1C40.63 52.542 41.12 53.76 42.086 54.726C43.052 55.692 44.27 56.182 45.712 56.182C47.686 56.182 49.366 55.16 50.22 53.522L48.694 52.962C48.092 54.012 47 54.67 45.712 54.67C44.732 54.67 43.906 54.334 43.248 53.648C42.59 52.962 42.254 52.122 42.254 51.1C42.254 50.078 42.59 49.238 43.248 48.552C43.906 47.866 44.732 47.53 45.712 47.53C47 47.53 48.092 48.188 48.694 49.238L50.22 48.678C49.366 47.04 47.686 46.018 45.712 46.018ZM55.0467 48.538C54.0247 48.538 53.1707 48.902 52.4847 49.63C51.7987 50.358 51.4627 51.268 51.4627 52.36C51.4627 53.452 51.7987 54.362 52.4847 55.09C53.1707 55.818 54.0247 56.182 55.0467 56.182C55.9847 56.182 56.7967 55.86 57.4687 55.216V56H58.9247V48.72H57.4687V49.504C56.7967 48.86 55.9847 48.538 55.0467 48.538ZM55.2007 49.994C55.8307 49.994 56.3627 50.218 56.7967 50.68C57.2307 51.128 57.4407 51.688 57.4407 52.36C57.4407 53.032 57.2307 53.592 56.7967 54.054C56.3627 54.502 55.8307 54.726 55.2007 54.726C54.5707 54.726 54.0527 54.502 53.6187 54.054C53.1847 53.592 52.9747 53.032 52.9747 52.36C52.9747 51.688 53.1847 51.128 53.6187 50.68C54.0527 50.218 54.5707 49.994 55.2007 49.994ZM66.1038 50.386C65.8938 49.252 64.9138 48.538 63.4158 48.538C61.8338 48.538 60.6998 49.266 60.6998 50.708C60.6998 51.66 61.1898 52.248 62.3238 52.64L63.9478 53.186C64.5358 53.396 64.8298 53.676 64.8298 54.026C64.8298 54.572 64.2418 54.908 63.4578 54.908C62.5758 54.908 62.0018 54.516 61.8758 53.942L60.5038 54.152C60.7138 55.398 61.7638 56.182 63.4298 56.182C65.0538 56.182 66.2298 55.426 66.2298 53.984C66.2298 52.99 65.6838 52.346 64.4378 51.884L62.7998 51.324C62.3378 51.156 62.0998 50.918 62.0998 50.596C62.0998 50.106 62.6178 49.812 63.3038 49.812C64.0738 49.812 64.5778 50.134 64.7318 50.624L66.1038 50.386ZM67.8623 56H69.3183V51.828C69.3183 51.282 69.5143 50.834 69.8923 50.47C70.2843 50.106 70.7603 49.924 71.3343 49.924C71.8803 49.924 72.3423 50.106 72.7063 50.47C73.0703 50.82 73.2523 51.268 73.2523 51.814V56H74.7083V51.394C74.7083 50.568 74.4283 49.896 73.8683 49.35C73.3083 48.804 72.6083 48.538 71.7543 48.538C70.6763 48.538 69.8643 48.958 69.3183 49.784V45.5H67.8623V56ZM78.6466 47.922C78.6466 47.348 79.0666 46.9 79.6266 46.9H80.4946V45.5H79.5146C78.8566 45.5 78.3106 45.71 77.8626 46.144C77.4146 46.564 77.1906 47.096 77.1906 47.726V48.72H76.0286V49.994H77.1906V56H78.6466V49.994H80.4946V48.72H78.6466V47.922ZM83.0006 56V45.5H81.5446V56H83.0006ZM85.79 55.09C86.518 55.818 87.428 56.182 88.52 56.182C89.612 56.182 90.522 55.818 91.25 55.09C91.992 54.362 92.356 53.452 92.356 52.36C92.356 51.268 91.992 50.358 91.25 49.63C90.522 48.902 89.612 48.538 88.52 48.538C87.428 48.538 86.518 48.902 85.79 49.63C85.062 50.358 84.698 51.268 84.698 52.36C84.698 53.452 85.062 54.362 85.79 55.09ZM88.52 54.726C87.862 54.726 87.316 54.502 86.868 54.054C86.434 53.592 86.21 53.032 86.21 52.36C86.21 51.688 86.434 51.128 86.868 50.68C87.316 50.218 87.862 49.994 88.52 49.994C89.178 49.994 89.738 50.218 90.172 50.68C90.62 51.128 90.844 51.688 90.844 52.36C90.844 53.032 90.62 53.592 90.172 54.054C89.738 54.502 89.178 54.726 88.52 54.726ZM96.8002 56L98.3822 51.142L99.9502 56H101.252L103.674 48.72H102.204L100.608 53.746L99.0402 48.72H97.7242L96.1422 53.746L94.5602 48.72H93.0902L95.5122 56H96.8002Z" fill="#A4A7B0"/>
<path d="M243.667 56H246.333V54.6667H243.667V56ZM239 48V49.3333H251V48H239ZM241 52.6667H249V51.3333H241V52.6667Z" fill="#A4A7B0"/>
<path d="M257.816 46.6V55H263.552V53.752H259.16V46.6H257.816ZM267.471 48.604C266.595 48.604 265.863 48.916 265.275 49.54C264.687 50.164 264.399 50.944 264.399 51.88C264.399 52.816 264.687 53.596 265.275 54.22C265.863 54.844 266.595 55.156 267.471 55.156C268.275 55.156 268.971 54.88 269.547 54.328V55H270.795V48.76H269.547V49.432C268.971 48.88 268.275 48.604 267.471 48.604ZM267.603 49.852C268.143 49.852 268.599 50.044 268.971 50.44C269.343 50.824 269.523 51.304 269.523 51.88C269.523 52.456 269.343 52.936 268.971 53.332C268.599 53.716 268.143 53.908 267.603 53.908C267.063 53.908 266.619 53.716 266.247 53.332C265.875 52.936 265.695 52.456 265.695 51.88C265.695 51.304 265.875 50.824 266.247 50.44C266.619 50.044 267.063 49.852 267.603 49.852ZM276.949 50.188C276.769 49.216 275.929 48.604 274.645 48.604C273.289 48.604 272.317 49.228 272.317 50.464C272.317 51.28 272.737 51.784 273.709 52.12L275.101 52.588C275.605 52.768 275.857 53.008 275.857 53.308C275.857 53.776 275.353 54.064 274.681 54.064C273.925 54.064 273.433 53.728 273.325 53.236L272.149 53.416C272.329 54.484 273.229 55.156 274.657 55.156C276.049 55.156 277.057 54.508 277.057 53.272C277.057 52.42 276.589 51.868 275.521 51.472L274.117 50.992C273.721 50.848 273.517 50.644 273.517 50.368C273.517 49.948 273.961 49.696 274.549 49.696C275.209 49.696 275.641 49.972 275.773 50.392L276.949 50.188ZM277.856 49.852H278.804V53.092C278.804 53.632 278.996 54.088 279.38 54.46C279.764 54.82 280.232 55 280.796 55H281.708V53.8H280.892C280.412 53.8 280.052 53.416 280.052 52.924V49.852H281.708V48.76H280.052V47.524H278.804V48.76H277.856V49.852ZM287.275 55H288.691L291.703 47.86V46.6H285.991V47.8H290.323L287.275 55ZM299.298 48.604C298.422 48.604 297.69 48.916 297.102 49.54C296.514 50.164 296.226 50.944 296.226 51.88C296.226 52.816 296.514 53.596 297.102 54.22C297.69 54.844 298.422 55.156 299.298 55.156C300.102 55.156 300.798 54.88 301.374 54.328V55H302.622V46H301.374V49.432C300.798 48.88 300.102 48.604 299.298 48.604ZM299.43 49.852C299.97 49.852 300.426 50.044 300.798 50.44C301.17 50.824 301.35 51.304 301.35 51.88C301.35 52.456 301.17 52.936 300.798 53.332C300.426 53.716 299.97 53.908 299.43 53.908C298.89 53.908 298.446 53.716 298.074 53.332C297.702 52.936 297.522 52.456 297.522 51.88C297.522 51.304 297.702 50.824 298.074 50.44C298.446 50.044 298.89 49.852 299.43 49.852ZM307.144 48.604C306.268 48.604 305.536 48.916 304.948 49.54C304.36 50.164 304.072 50.944 304.072 51.88C304.072 52.816 304.36 53.596 304.948 54.22C305.536 54.844 306.268 55.156 307.144 55.156C307.948 55.156 308.644 54.88 309.22 54.328V55H310.468V48.76H309.22V49.432C308.644 48.88 307.948 48.604 307.144 48.604ZM307.276 49.852C307.816 49.852 308.272 50.044 308.644 50.44C309.016 50.824 309.196 51.304 309.196 51.88C309.196 52.456 309.016 52.936 308.644 53.332C308.272 53.716 307.816 53.908 307.276 53.908C306.736 53.908 306.292 53.716 305.92 53.332C305.548 52.936 305.368 52.456 305.368 51.88C305.368 51.304 305.548 50.824 305.92 50.44C306.292 50.044 306.736 49.852 307.276 49.852ZM313.753 55.528C313.477 56.212 313.057 56.5 312.325 56.5H312.061V57.7H312.325C313.573 57.7 314.341 57.16 314.833 55.948L317.773 48.76H316.489L314.653 53.296L312.877 48.76H311.593L314.029 54.844L313.753 55.528ZM323.236 50.188C323.056 49.216 322.216 48.604 320.932 48.604C319.576 48.604 318.604 49.228 318.604 50.464C318.604 51.28 319.024 51.784 319.996 52.12L321.388 52.588C321.892 52.768 322.144 53.008 322.144 53.308C322.144 53.776 321.64 54.064 320.968 54.064C320.212 54.064 319.72 53.728 319.612 53.236L318.436 53.416C318.616 54.484 319.516 55.156 320.944 55.156C322.336 55.156 323.344 54.508 323.344 53.272C323.344 52.42 322.876 51.868 321.808 51.472L320.404 50.992C320.008 50.848 319.804 50.644 319.804 50.368C319.804 49.948 320.248 49.696 320.836 49.696C321.496 49.696 321.928 49.972 322.06 50.392L323.236 50.188Z" fill="#A4A7B0"/>
<rect x="233.5" y="36.5" width="94" height="31" rx="3.5" stroke="#E5E5E5"/>
</g>
<defs>
<filter id="filter0_d_482_2283" x="212" y="189.711" width="126" height="64.7056" filterUnits="userSpaceOnUse" color-interpolation-filters="sRGB">
<feFlood flood-opacity="0" result="BackgroundImageFix"/>
<feColorMatrix in="SourceAlpha" type="matrix" values="0 0 0 0 0 0 0 0 0 0 0 0 0 0 0 0 0 0 127 0" result="hardAlpha"/>
<feOffset dy="2"/>
<feGaussianBlur stdDeviation="6"/>
<feComposite in2="hardAlpha" operator="out"/>
<feColorMatrix type="matrix" values="0 0 0 0 0.941176 0 0 0 0 0.92549 0 0 0 0 1 0 0 0 0.6 0"/>
<feBlend mode="normal" in2="BackgroundImageFix" result="effect1_dropShadow_482_2283"/>
<feBlend mode="normal" in="SourceGraphic" in2="effect1_dropShadow_482_2283" result="shape"/>
</filter>
<filter id="filter1_d_482_2283" x="155.537" y="80" width="80" height="64" filterUnits="userSpaceOnUse" color-interpolation-filters="sRGB">
<feFlood flood-opacity="0" result="BackgroundImageFix"/>
<feColorMatrix in="SourceAlpha" type="matrix" values="0 0 0 0 0 0 0 0 0 0 0 0 0 0 0 0 0 0 127 0" result="hardAlpha"/>
<feOffset dy="2"/>
<feGaussianBlur stdDeviation="6"/>
<feComposite in2="hardAlpha" operator="out"/>
<feColorMatrix type="matrix" values="0 0 0 0 0.941176 0 0 0 0 0.92549 0 0 0 0 1 0 0 0 0.6 0"/>
<feBlend mode="normal" in2="BackgroundImageFix" result="effect1_dropShadow_482_2283"/>
<feBlend mode="normal" in="SourceGraphic" in2="effect1_dropShadow_482_2283" result="shape"/>
</filter>
<linearGradient id="paint0_linear_482_2283" x1="182" y1="161.493" x2="182" y2="325.883" gradientUnits="userSpaceOnUse">
<stop stop-color="#F0ECFF"/>
<stop offset="1" stop-color="#EFECFF" stop-opacity="0"/>
</linearGradient>
<clipPath id="clip0_482_2283">
<rect width="364" height="400" rx="12" fill="white"/>
</clipPath>
</defs>
</svg>
