<svg width="320" height="108" viewBox="0 0 320 108" fill="none" xmlns="http://www.w3.org/2000/svg">
<g filter="url(#filter0_d_652_2489)">
<rect x="18" y="14" width="284" height="72" rx="8" fill="white"/>
<path d="M52.8333 53.4767L57.3033 49.0067L58.4817 50.185L52 56.6667L45.5183 50.185L46.6967 49.0067L51.1667 53.4767V43.3334H52.8333V53.4767Z" fill="#101010"/>
<path d="M52 58.5C47.3056 58.5 43.5 54.6944 43.5 50H40.5C40.5 56.3513 45.6487 61.5 52 61.5V58.5ZM60.5 50C60.5 54.6944 56.6944 58.5 52 58.5V61.5C58.3513 61.5 63.5 56.3513 63.5 50H60.5ZM52 41.5C56.6944 41.5 60.5 45.3056 60.5 50H63.5C63.5 43.6487 58.3513 38.5 52 38.5V41.5ZM52 38.5C45.6487 38.5 40.5 43.6487 40.5 50H43.5C43.5 45.3056 47.3056 41.5 52 41.5V38.5Z" fill="#101010"/>
<path d="M89.948 41.024V45H91.516V40.954L95.31 35.2H93.504L90.718 39.526L87.988 35.2H86.182L89.948 41.024ZM95.9232 44.09C96.6512 44.818 97.5612 45.182 98.6532 45.182C99.7452 45.182 100.655 44.818 101.383 44.09C102.125 43.362 102.489 42.452 102.489 41.36C102.489 40.268 102.125 39.358 101.383 38.63C100.655 37.902 99.7452 37.538 98.6532 37.538C97.5612 37.538 96.6512 37.902 95.9232 38.63C95.1952 39.358 94.8312 40.268 94.8312 41.36C94.8312 42.452 95.1952 43.362 95.9232 44.09ZM98.6532 43.726C97.9952 43.726 97.4492 43.502 97.0012 43.054C96.5672 42.592 96.3432 42.032 96.3432 41.36C96.3432 40.688 96.5672 40.128 97.0012 39.68C97.4492 39.218 97.9952 38.994 98.6532 38.994C99.3112 38.994 99.8712 39.218 100.305 39.68C100.753 40.128 100.977 40.688 100.977 41.36C100.977 42.032 100.753 42.592 100.305 43.054C99.8712 43.502 99.3112 43.726 98.6532 43.726ZM103.889 42.312C103.889 43.138 104.169 43.824 104.715 44.37C105.261 44.916 105.961 45.182 106.801 45.182C107.823 45.182 108.621 44.776 109.181 43.964V45H110.637V37.72H109.181V41.892C109.181 42.438 108.999 42.886 108.621 43.25C108.243 43.614 107.781 43.796 107.221 43.796C106.689 43.796 106.241 43.614 105.877 43.264C105.527 42.9 105.345 42.452 105.345 41.906V37.72H103.889V42.312ZM113.836 37.72H112.38V45H113.836V40.94C113.836 40.394 114.018 39.946 114.396 39.596C114.774 39.232 115.25 39.05 115.796 39.05C116.062 39.05 116.272 39.092 116.426 39.162V37.538C115.236 37.538 114.382 37.958 113.836 38.784V37.72ZM122.722 48.15V44.216C123.394 44.86 124.206 45.182 125.144 45.182C126.166 45.182 127.02 44.818 127.706 44.09C128.392 43.362 128.728 42.452 128.728 41.36C128.728 40.268 128.392 39.358 127.706 38.63C127.02 37.902 126.166 37.538 125.144 37.538C124.206 37.538 123.394 37.86 122.722 38.504V37.72H121.266V48.15H122.722ZM124.976 38.994C125.606 38.994 126.138 39.218 126.572 39.68C127.006 40.128 127.216 40.688 127.216 41.36C127.216 42.032 127.006 42.592 126.572 43.054C126.138 43.502 125.606 43.726 124.976 43.726C124.346 43.726 123.828 43.502 123.394 43.054C122.96 42.592 122.75 42.032 122.75 41.36C122.75 40.688 122.96 40.128 123.394 39.68C123.828 39.218 124.346 38.994 124.976 38.994ZM133.401 37.538C132.379 37.538 131.525 37.902 130.839 38.63C130.153 39.358 129.817 40.268 129.817 41.36C129.817 42.452 130.153 43.362 130.839 44.09C131.525 44.818 132.379 45.182 133.401 45.182C134.339 45.182 135.151 44.86 135.823 44.216V45H137.279V37.72H135.823V38.504C135.151 37.86 134.339 37.538 133.401 37.538ZM133.555 38.994C134.185 38.994 134.717 39.218 135.151 39.68C135.585 40.128 135.795 40.688 135.795 41.36C135.795 42.032 135.585 42.592 135.151 43.054C134.717 43.502 134.185 43.726 133.555 43.726C132.925 43.726 132.407 43.502 131.973 43.054C131.539 42.592 131.329 42.032 131.329 41.36C131.329 40.688 131.539 40.128 131.973 39.68C132.407 39.218 132.925 38.994 133.555 38.994ZM140.833 45.616C140.511 46.414 140.021 46.75 139.167 46.75H138.859V48.15H139.167C140.623 48.15 141.519 47.52 142.093 46.106L145.523 37.72H144.025L141.883 43.012L139.811 37.72H138.313L141.155 44.818L140.833 45.616ZM148.015 45V40.66C148.015 40.17 148.183 39.75 148.533 39.428C148.883 39.092 149.303 38.924 149.821 38.924C150.787 38.924 151.529 39.68 151.529 40.646V45H152.985V40.66C152.985 40.17 153.153 39.75 153.489 39.428C153.839 39.092 154.259 38.924 154.777 38.924C155.743 38.924 156.485 39.68 156.485 40.646V45H157.941V40.24C157.941 39.47 157.661 38.826 157.115 38.308C156.569 37.79 155.883 37.538 155.057 37.538C154.147 37.538 153.349 37.958 153.013 38.294C152.859 38.462 152.719 38.644 152.607 38.826C152.117 38.028 151.263 37.538 150.241 37.538C149.261 37.538 148.519 37.902 148.015 38.644V37.72H146.559V45H148.015ZM166.895 41.892C166.909 41.654 166.923 41.472 166.923 41.36C166.923 40.268 166.559 39.358 165.831 38.63C165.117 37.902 164.221 37.538 163.143 37.538C162.065 37.538 161.155 37.902 160.427 38.63C159.713 39.358 159.349 40.268 159.349 41.36C159.349 42.452 159.727 43.362 160.469 44.09C161.211 44.818 162.149 45.182 163.255 45.182C164.711 45.182 165.943 44.482 166.615 43.348L165.187 42.914C164.725 43.516 164.081 43.824 163.255 43.824C162.037 43.824 161.071 43.026 160.847 41.892H166.895ZM160.861 40.73C161.127 39.652 162.037 38.896 163.101 38.896C164.235 38.896 165.159 39.652 165.425 40.73H160.861ZM168.216 45H169.672V40.828C169.672 40.282 169.854 39.834 170.232 39.47C170.61 39.106 171.086 38.924 171.632 38.924C172.71 38.924 173.508 39.736 173.508 40.814V45H174.964V40.394C174.964 39.568 174.684 38.896 174.138 38.35C173.592 37.804 172.892 37.538 172.066 37.538C171.002 37.538 170.204 37.958 169.672 38.784V37.72H168.216V45ZM175.992 38.994H177.098V42.774C177.098 43.404 177.322 43.936 177.77 44.37C178.218 44.79 178.764 45 179.422 45H180.486V43.6H179.534C178.974 43.6 178.554 43.152 178.554 42.578V38.994H180.486V37.72H178.554V36.278H177.098V37.72H175.992V38.994ZM186.939 45V37.72H185.483V45H186.939ZM185.525 36.642C185.903 37.02 186.519 37.02 186.897 36.642C187.275 36.264 187.275 35.648 186.897 35.27C186.519 34.892 185.903 34.892 185.525 35.27C185.175 35.648 185.175 36.264 185.525 36.642ZM193.835 39.386C193.625 38.252 192.645 37.538 191.147 37.538C189.565 37.538 188.431 38.266 188.431 39.708C188.431 40.66 188.921 41.248 190.055 41.64L191.679 42.186C192.267 42.396 192.561 42.676 192.561 43.026C192.561 43.572 191.973 43.908 191.189 43.908C190.307 43.908 189.733 43.516 189.607 42.942L188.235 43.152C188.445 44.398 189.495 45.182 191.161 45.182C192.785 45.182 193.961 44.426 193.961 42.984C193.961 41.99 193.415 41.346 192.169 40.884L190.531 40.324C190.069 40.156 189.831 39.918 189.831 39.596C189.831 39.106 190.349 38.812 191.035 38.812C191.805 38.812 192.309 39.134 192.463 39.624L193.835 39.386ZM200.488 37.72H199.032V45H200.488V40.94C200.488 40.394 200.67 39.946 201.048 39.596C201.426 39.232 201.902 39.05 202.448 39.05C202.714 39.05 202.924 39.092 203.078 39.162V37.538C201.888 37.538 201.034 37.958 200.488 38.784V37.72ZM211.11 41.892C211.124 41.654 211.138 41.472 211.138 41.36C211.138 40.268 210.774 39.358 210.046 38.63C209.332 37.902 208.436 37.538 207.358 37.538C206.28 37.538 205.37 37.902 204.642 38.63C203.928 39.358 203.564 40.268 203.564 41.36C203.564 42.452 203.942 43.362 204.684 44.09C205.426 44.818 206.364 45.182 207.47 45.182C208.926 45.182 210.158 44.482 210.83 43.348L209.402 42.914C208.94 43.516 208.296 43.824 207.47 43.824C206.252 43.824 205.286 43.026 205.062 41.892H211.11ZM205.076 40.73C205.342 39.652 206.252 38.896 207.316 38.896C208.45 38.896 209.374 39.652 209.64 40.73H205.076ZM219.472 39.834C218.899 38.434 217.555 37.538 215.931 37.538C214.839 37.538 213.929 37.902 213.201 38.63C212.473 39.358 212.109 40.268 212.109 41.36C212.109 42.452 212.473 43.362 213.201 44.09C213.929 44.818 214.839 45.182 215.931 45.182C217.555 45.182 218.899 44.286 219.472 42.886L218.003 42.452C217.625 43.236 216.869 43.726 215.931 43.726C215.273 43.726 214.727 43.502 214.279 43.054C213.845 42.592 213.62 42.032 213.62 41.36C213.62 40.688 213.845 40.128 214.279 39.68C214.727 39.218 215.273 38.994 215.931 38.994C216.869 38.994 217.625 39.484 218.003 40.268L219.472 39.834ZM227.967 41.892C227.981 41.654 227.995 41.472 227.995 41.36C227.995 40.268 227.631 39.358 226.903 38.63C226.189 37.902 225.293 37.538 224.215 37.538C223.137 37.538 222.227 37.902 221.499 38.63C220.785 39.358 220.421 40.268 220.421 41.36C220.421 42.452 220.799 43.362 221.541 44.09C222.283 44.818 223.221 45.182 224.327 45.182C225.783 45.182 227.015 44.482 227.687 43.348L226.259 42.914C225.797 43.516 225.153 43.824 224.327 43.824C223.109 43.824 222.143 43.026 221.919 41.892H227.967ZM221.933 40.73C222.199 39.652 223.109 38.896 224.173 38.896C225.307 38.896 226.231 39.652 226.497 40.73H221.933ZM230.744 45V37.72H229.288V45H230.744ZM229.33 36.642C229.708 37.02 230.324 37.02 230.702 36.642C231.08 36.264 231.08 35.648 230.702 35.27C230.324 34.892 229.708 34.892 229.33 35.27C228.98 35.648 228.98 36.264 229.33 36.642ZM234.839 45H236.197L239.263 37.72H237.765L235.525 43.138L233.271 37.72H231.773L234.839 45ZM247.258 41.892C247.272 41.654 247.286 41.472 247.286 41.36C247.286 40.268 246.922 39.358 246.194 38.63C245.48 37.902 244.584 37.538 243.506 37.538C242.428 37.538 241.518 37.902 240.79 38.63C240.076 39.358 239.712 40.268 239.712 41.36C239.712 42.452 240.09 43.362 240.832 44.09C241.574 44.818 242.512 45.182 243.618 45.182C245.074 45.182 246.306 44.482 246.978 43.348L245.55 42.914C245.088 43.516 244.444 43.824 243.618 43.824C242.4 43.824 241.434 43.026 241.21 41.892H247.258ZM241.224 40.73C241.49 39.652 242.4 38.896 243.464 38.896C244.598 38.896 245.522 39.652 245.788 40.73H241.224ZM251.841 37.538C250.819 37.538 249.965 37.902 249.279 38.63C248.593 39.358 248.257 40.268 248.257 41.36C248.257 42.452 248.593 43.362 249.279 44.09C249.965 44.818 250.819 45.182 251.841 45.182C252.779 45.182 253.591 44.86 254.263 44.216V45H255.719V34.5H254.263V38.504C253.591 37.86 252.779 37.538 251.841 37.538ZM251.995 38.994C252.625 38.994 253.157 39.218 253.591 39.68C254.025 40.128 254.235 40.688 254.235 41.36C254.235 42.032 254.025 42.592 253.591 43.054C253.157 43.502 252.625 43.726 251.995 43.726C251.365 43.726 250.847 43.502 250.413 43.054C249.979 42.592 249.769 42.032 249.769 41.36C249.769 40.688 249.979 40.128 250.413 39.68C250.847 39.218 251.365 38.994 251.995 38.994ZM258.306 43.236C257.76 43.236 257.34 43.656 257.34 44.216C257.34 44.776 257.76 45.182 258.306 45.182C258.866 45.182 259.286 44.776 259.286 44.216C259.286 43.656 258.866 43.236 258.306 43.236ZM258.95 41.99L259.104 35.2H257.536L257.69 41.99H258.95Z" fill="black"/>
<path d="M87.056 62V58.916H86.12V58.148H87.056V57.164H86.12V56.396H87.056V53.432H88.304L89.444 56.396H90.86V53.432H91.808V56.396H92.744V57.164H91.808V58.148H92.744V58.916H91.808V62H90.548L89.408 58.916H87.992V62H87.056ZM87.992 58.148H89.12L88.76 57.164H87.968L87.992 58.148ZM90.86 60.308H90.908L90.872 58.916H90.368L90.86 60.308ZM87.968 56.396H88.472L87.968 54.908H87.92L87.968 56.396ZM90.08 58.148H90.884L90.86 57.164H89.72L90.08 58.148ZM96.4072 62.156C97.3072 62.156 98.0632 61.892 98.6632 61.352C99.2752 60.812 99.5752 60.152 99.5752 59.348C99.5752 58.544 99.2632 57.884 98.6392 57.344C98.0152 56.804 97.2352 56.54 96.3112 56.54H95.3032L95.4712 54.8H98.8672V53.6H94.3912L93.9712 57.74H96.2632C96.8272 57.74 97.2832 57.896 97.6552 58.196C98.0272 58.496 98.2192 58.88 98.2192 59.348C98.2192 59.792 98.0392 60.164 97.6912 60.464C97.3432 60.764 96.9232 60.908 96.4072 60.908C95.6032 60.908 94.9432 60.476 94.6432 59.792L93.3472 60.152C93.8152 61.364 94.9792 62.156 96.4072 62.156ZM100.71 59.168C100.71 60.02 101.01 60.74 101.622 61.304C102.234 61.868 103.002 62.156 103.926 62.156C104.838 62.156 105.594 61.868 106.206 61.304C106.818 60.728 107.13 60.02 107.13 59.168V56.432C107.13 55.58 106.818 54.872 106.206 54.308C105.594 53.732 104.838 53.444 103.926 53.444C103.002 53.444 102.234 53.732 101.622 54.296C101.01 54.86 100.71 55.58 100.71 56.432V59.168ZM102.006 56.408C102.006 55.916 102.186 55.508 102.558 55.184C102.93 54.86 103.386 54.692 103.926 54.692C104.466 54.692 104.922 54.86 105.282 55.184C105.654 55.508 105.834 55.916 105.834 56.408V59.18C105.834 59.672 105.654 60.08 105.282 60.416C104.922 60.74 104.466 60.908 103.926 60.908C103.386 60.908 102.93 60.74 102.558 60.416C102.186 60.08 102.006 59.672 102.006 59.18V56.408ZM108.35 59.168C108.35 60.02 108.65 60.74 109.262 61.304C109.874 61.868 110.642 62.156 111.566 62.156C112.478 62.156 113.234 61.868 113.846 61.304C114.458 60.728 114.77 60.02 114.77 59.168V56.432C114.77 55.58 114.458 54.872 113.846 54.308C113.234 53.732 112.478 53.444 111.566 53.444C110.642 53.444 109.874 53.732 109.262 54.296C108.65 54.86 108.35 55.58 108.35 56.432V59.168ZM109.646 56.408C109.646 55.916 109.826 55.508 110.198 55.184C110.57 54.86 111.026 54.692 111.566 54.692C112.106 54.692 112.562 54.86 112.922 55.184C113.294 55.508 113.474 55.916 113.474 56.408V59.18C113.474 59.672 113.294 60.08 112.922 60.416C112.562 60.74 112.106 60.908 111.566 60.908C111.026 60.908 110.57 60.74 110.198 60.416C109.826 60.08 109.646 59.672 109.646 59.18V56.408ZM117.623 61.652C117.623 60.968 117.239 60.5 116.699 60.5C116.219 60.5 115.871 60.836 115.871 61.304C115.871 61.736 116.171 62.096 116.567 62.156C116.567 62.276 116.507 62.432 116.387 62.612C116.279 62.804 116.183 62.936 116.111 63.02L115.931 63.212L116.339 63.632L116.387 63.608C116.627 63.428 117.623 62.78 117.623 61.652ZM118.698 59.168C118.698 60.02 118.998 60.74 119.61 61.304C120.222 61.868 120.99 62.156 121.914 62.156C122.826 62.156 123.582 61.868 124.194 61.304C124.806 60.728 125.118 60.02 125.118 59.168V56.432C125.118 55.58 124.806 54.872 124.194 54.308C123.582 53.732 122.826 53.444 121.914 53.444C120.99 53.444 120.222 53.732 119.61 54.296C118.998 54.86 118.698 55.58 118.698 56.432V59.168ZM119.994 56.408C119.994 55.916 120.174 55.508 120.546 55.184C120.918 54.86 121.374 54.692 121.914 54.692C122.454 54.692 122.91 54.86 123.27 55.184C123.642 55.508 123.822 55.916 123.822 56.408V59.18C123.822 59.672 123.642 60.08 123.27 60.416C122.91 60.74 122.454 60.908 121.914 60.908C121.374 60.908 120.918 60.74 120.546 60.416C120.174 60.08 119.994 59.672 119.994 59.18V56.408ZM126.339 59.168C126.339 60.02 126.639 60.74 127.251 61.304C127.863 61.868 128.631 62.156 129.555 62.156C130.467 62.156 131.223 61.868 131.835 61.304C132.447 60.728 132.759 60.02 132.759 59.168V56.432C132.759 55.58 132.447 54.872 131.835 54.308C131.223 53.732 130.467 53.444 129.555 53.444C128.631 53.444 127.863 53.732 127.251 54.296C126.639 54.86 126.339 55.58 126.339 56.432V59.168ZM127.635 56.408C127.635 55.916 127.815 55.508 128.187 55.184C128.559 54.86 129.015 54.692 129.555 54.692C130.095 54.692 130.551 54.86 130.911 55.184C131.283 55.508 131.463 55.916 131.463 56.408V59.18C131.463 59.672 131.283 60.08 130.911 60.416C130.551 60.74 130.095 60.908 129.555 60.908C129.015 60.908 128.559 60.74 128.187 60.416C127.815 60.08 127.635 59.672 127.635 59.18V56.408ZM133.979 59.168C133.979 60.02 134.279 60.74 134.891 61.304C135.503 61.868 136.271 62.156 137.195 62.156C138.107 62.156 138.863 61.868 139.475 61.304C140.087 60.728 140.399 60.02 140.399 59.168V56.432C140.399 55.58 140.087 54.872 139.475 54.308C138.863 53.732 138.107 53.444 137.195 53.444C136.271 53.444 135.503 53.732 134.891 54.296C134.279 54.86 133.979 55.58 133.979 56.432V59.168ZM135.275 56.408C135.275 55.916 135.455 55.508 135.827 55.184C136.199 54.86 136.655 54.692 137.195 54.692C137.735 54.692 138.191 54.86 138.551 55.184C138.923 55.508 139.103 55.916 139.103 56.408V59.18C139.103 59.672 138.923 60.08 138.551 60.416C138.191 60.74 137.735 60.908 137.195 60.908C136.655 60.908 136.199 60.74 135.827 60.416C135.455 60.08 135.275 59.672 135.275 59.18V56.408Z" fill="#663AF5"/>
</g>
<defs>
<filter id="filter0_d_652_2489" x="0" y="0" width="320" height="108" filterUnits="userSpaceOnUse" color-interpolation-filters="sRGB">
<feFlood flood-opacity="0" result="BackgroundImageFix"/>
<feColorMatrix in="SourceAlpha" type="matrix" values="0 0 0 0 0 0 0 0 0 0 0 0 0 0 0 0 0 0 127 0" result="hardAlpha"/>
<feMorphology radius="12" operator="erode" in="SourceAlpha" result="effect1_dropShadow_652_2489"/>
<feOffset dy="4"/>
<feGaussianBlur stdDeviation="15"/>
<feComposite in2="hardAlpha" operator="out"/>
<feColorMatrix type="matrix" values="0 0 0 0 0.0705882 0 0 0 0 0.0823529 0 0 0 0 0.203922 0 0 0 0.14 0"/>
<feBlend mode="normal" in2="BackgroundImageFix" result="effect1_dropShadow_652_2489"/>
<feBlend mode="normal" in="SourceGraphic" in2="effect1_dropShadow_652_2489" result="shape"/>
</filter>
</defs>
</svg>
