<svg width="130" height="124" viewBox="0 0 130 124" fill="none" xmlns="http://www.w3.org/2000/svg">
<rect x="0.710205" y="0.0103149" width="129.29" height="123.669" rx="8.99408" fill="white"/>
<path d="M14.5924 14.7796V19.5015H15.4963V17.8353H16.5958L17.5874 19.5015H18.5925L17.5132 17.6802C18.0596 17.4373 18.4104 16.9179 18.4104 16.3041C18.4104 15.8724 18.2553 15.5081 17.9382 15.218C17.6279 14.928 17.2434 14.7796 16.778 14.7796H14.5924ZM16.778 15.616C17.176 15.616 17.466 15.9061 17.466 16.3041C17.466 16.7021 17.176 16.9989 16.778 16.9989H15.4963V15.616H16.778ZM22.6285 18.0579C22.6488 17.923 22.6555 17.8218 22.6555 17.7476C22.6555 17.2215 22.4801 16.783 22.1226 16.4255C21.7719 16.068 21.3334 15.8926 20.814 15.8926C20.2946 15.8926 19.8561 16.068 19.4986 16.4255C19.1478 16.7763 18.9724 17.2147 18.9724 17.7476C18.9724 18.2805 19.1546 18.719 19.5121 19.0765C19.8764 19.4273 20.3283 19.6026 20.8679 19.6026C21.5762 19.6026 22.1833 19.2519 22.5071 18.692L21.6909 18.4559C21.4885 18.7055 21.212 18.8269 20.8679 18.8269C20.3755 18.8269 19.9708 18.5166 19.8426 18.0579H22.6285ZM19.8494 17.4036C19.9775 16.9651 20.362 16.6683 20.8005 16.6683C21.2592 16.6683 21.6504 16.9651 21.7853 17.4036H19.8494ZM26.767 17.0528C26.4972 16.3513 25.8362 15.8926 25.0334 15.8926C24.5005 15.8926 24.0621 16.068 23.7046 16.4255C23.3538 16.7763 23.1784 17.2147 23.1784 17.7476C23.1784 18.2805 23.3538 18.719 23.7046 19.0765C24.0621 19.4273 24.5005 19.6026 25.0334 19.6026C25.8362 19.6026 26.4972 19.144 26.767 18.4424L25.9239 18.1928C25.7687 18.5436 25.4314 18.7595 25.0334 18.7595C24.7569 18.7595 24.5208 18.665 24.3319 18.4694C24.143 18.2738 24.0486 18.0377 24.0486 17.7476C24.0486 17.4576 24.143 17.2215 24.3319 17.0258C24.5208 16.8302 24.7569 16.7358 25.0334 16.7358C25.4314 16.7358 25.7687 16.9516 25.9239 17.3024L26.767 17.0528ZM27.8183 19.0765C28.1758 19.4273 28.6143 19.6026 29.1472 19.6026C29.6801 19.6026 30.1185 19.4273 30.4761 19.0765C30.8336 18.719 31.009 18.2805 31.009 17.7476C31.009 17.2147 30.8336 16.7763 30.4761 16.4255C30.1185 16.068 29.6801 15.8926 29.1472 15.8926C28.6143 15.8926 28.1758 16.068 27.8183 16.4255C27.4675 16.7763 27.2921 17.2147 27.2921 17.7476C27.2921 18.2805 27.4675 18.719 27.8183 19.0765ZM28.4456 17.0258C28.6345 16.8302 28.8706 16.7358 29.1472 16.7358C29.4237 16.7358 29.6598 16.8302 29.8487 17.0258C30.0376 17.2215 30.132 17.4576 30.132 17.7476C30.132 18.0377 30.0376 18.2738 29.8487 18.4694C29.6598 18.665 29.4237 18.7595 29.1472 18.7595C28.8706 18.7595 28.6345 18.665 28.4456 18.4694C28.2568 18.2738 28.1623 18.0377 28.1623 17.7476C28.1623 17.4576 28.2568 17.2215 28.4456 17.0258ZM32.5683 19.5015V17.4373C32.5683 17.0124 32.8921 16.6953 33.3035 16.6953C33.715 16.6953 34.0321 17.0124 34.0321 17.4373V19.5015H34.8753V17.4373C34.8753 17.0124 35.1991 16.6953 35.6105 16.6953C36.022 16.6953 36.3391 17.0124 36.3391 17.4373V19.5015H37.1755V17.1945C37.1755 16.8235 37.0406 16.5132 36.7775 16.2636C36.5144 16.014 36.1839 15.8926 35.7792 15.8926C35.2867 15.8926 34.909 16.0815 34.6594 16.466C34.4098 16.0815 34.0388 15.8926 33.5531 15.8926C33.1417 15.8926 32.8111 16.0477 32.5683 16.3648V15.9938H31.7251V19.5015H32.5683ZM38.8691 19.5015V17.4373C38.8691 17.0124 39.1928 16.6953 39.6043 16.6953C40.0158 16.6953 40.3328 17.0124 40.3328 17.4373V19.5015H41.176V17.4373C41.176 17.0124 41.4998 16.6953 41.9113 16.6953C42.3228 16.6953 42.6398 17.0124 42.6398 17.4373V19.5015H43.4763V17.1945C43.4763 16.8235 43.3414 16.5132 43.0783 16.2636C42.8152 16.014 42.4847 15.8926 42.0799 15.8926C41.5875 15.8926 41.2098 16.0815 40.9602 16.466C40.7106 16.0815 40.3396 15.8926 39.8539 15.8926C39.4424 15.8926 39.1119 16.0477 38.8691 16.3648V15.9938H38.0259V19.5015H38.8691ZM47.8546 18.0579C47.8748 17.923 47.8816 17.8218 47.8816 17.7476C47.8816 17.2215 47.7062 16.783 47.3487 16.4255C46.9979 16.068 46.5594 15.8926 46.04 15.8926C45.5206 15.8926 45.0821 16.068 44.7246 16.4255C44.3739 16.7763 44.1985 17.2147 44.1985 17.7476C44.1985 18.2805 44.3806 18.719 44.7381 19.0765C45.1024 19.4273 45.5543 19.6026 46.094 19.6026C46.8023 19.6026 47.4094 19.2519 47.7332 18.692L46.9169 18.4559C46.7146 18.7055 46.438 18.8269 46.094 18.8269C45.6016 18.8269 45.1968 18.5166 45.0687 18.0579H47.8546ZM45.0754 17.4036C45.2036 16.9651 45.5881 16.6683 46.0265 16.6683C46.4852 16.6683 46.8765 16.9651 47.0114 17.4036H45.0754ZM48.5326 19.5015H49.3758V17.498C49.3758 17.0393 49.7198 16.6953 50.1785 16.6953C50.6305 16.6953 50.9678 17.0393 50.9678 17.498V19.5015H51.8109V17.2619C51.8109 16.8707 51.676 16.5469 51.413 16.2838C51.1499 16.0208 50.8261 15.8926 50.4281 15.8926C49.9829 15.8926 49.6321 16.068 49.3758 16.4187V15.9938H48.5326V19.5015ZM54.238 15.8926C53.7523 15.8926 53.3476 16.068 53.017 16.4255C52.6932 16.7763 52.5314 17.2147 52.5314 17.7476C52.5314 18.2805 52.6932 18.719 53.017 19.0765C53.3476 19.4273 53.7523 19.6026 54.238 19.6026C54.636 19.6026 54.9935 19.4745 55.3038 19.2249V19.5015H56.1402V14.4423H55.3038V16.2703C54.9935 16.0208 54.636 15.8926 54.238 15.8926ZM55.0137 17.0258C55.1959 17.2215 55.2903 17.4576 55.2903 17.7476C55.2903 18.0377 55.1959 18.2738 55.0137 18.4694C54.8316 18.665 54.609 18.7595 54.3459 18.7595C54.0828 18.7595 53.8535 18.665 53.6714 18.4694C53.4892 18.2738 53.4015 18.0377 53.4015 17.7476C53.4015 17.4576 53.4892 17.2215 53.6714 17.0258C53.8535 16.8302 54.0828 16.7358 54.3459 16.7358C54.609 16.7358 54.8316 16.8302 55.0137 17.0258ZM58.5691 15.8926C58.0834 15.8926 57.6787 16.068 57.3482 16.4255C57.0244 16.7763 56.8625 17.2147 56.8625 17.7476C56.8625 18.2805 57.0244 18.719 57.3482 19.0765C57.6787 19.4273 58.0834 19.6026 58.5691 19.6026C58.9671 19.6026 59.3246 19.4745 59.6349 19.2249V19.5015H60.4714V15.9938H59.6349V16.2703C59.3246 16.0208 58.9671 15.8926 58.5691 15.8926ZM59.3448 17.0258C59.527 17.2215 59.6214 17.4576 59.6214 17.7476C59.6214 18.0377 59.527 18.2738 59.3448 18.4694C59.1627 18.665 58.9401 18.7595 58.677 18.7595C58.414 18.7595 58.1846 18.665 58.0025 18.4694C57.8203 18.2738 57.7327 18.0377 57.7327 17.7476C57.7327 17.4576 57.8203 17.2215 58.0025 17.0258C58.1846 16.8302 58.414 16.7358 58.677 16.7358C58.9401 16.7358 59.1627 16.8302 59.3448 17.0258ZM61.0317 16.729H61.5309V18.3952C61.5309 18.7122 61.6456 18.9753 61.8749 19.1844C62.1043 19.3935 62.3876 19.5015 62.7248 19.5015H63.2443V18.6987H62.8058C62.5562 18.6987 62.3741 18.5166 62.3741 18.2738V16.729H63.2443V15.9938H62.3741V15.3057H61.5309V15.9938H61.0317V16.729ZM64.7438 19.5015V15.9938H63.9006V19.5015H64.7438ZM64.3189 15.6835C64.6359 15.6835 64.8585 15.4474 64.8585 15.1438C64.8585 14.8403 64.6224 14.6109 64.3189 14.6109C64.0153 14.6109 63.786 14.8403 63.786 15.1438C63.786 15.4474 64.0153 15.6835 64.3189 15.6835ZM65.9948 19.0765C66.3523 19.4273 66.7907 19.6026 67.3236 19.6026C67.8565 19.6026 68.295 19.4273 68.6525 19.0765C69.01 18.719 69.1854 18.2805 69.1854 17.7476C69.1854 17.2147 69.01 16.7763 68.6525 16.4255C68.295 16.068 67.8565 15.8926 67.3236 15.8926C66.7907 15.8926 66.3523 16.068 65.9948 16.4255C65.644 16.7763 65.4686 17.2147 65.4686 17.7476C65.4686 18.2805 65.644 18.719 65.9948 19.0765ZM66.6221 17.0258C66.811 16.8302 67.0471 16.7358 67.3236 16.7358C67.6002 16.7358 67.8363 16.8302 68.0252 17.0258C68.214 17.2215 68.3085 17.4576 68.3085 17.7476C68.3085 18.0377 68.214 18.2738 68.0252 18.4694C67.8363 18.665 67.6002 18.7595 67.3236 18.7595C67.0471 18.7595 66.811 18.665 66.6221 18.4694C66.4332 18.2738 66.3388 18.0377 66.3388 17.7476C66.3388 17.4576 66.4332 17.2215 66.6221 17.0258ZM69.9015 19.5015H70.7447V17.498C70.7447 17.0393 71.0888 16.6953 71.5475 16.6953C71.9994 16.6953 72.3367 17.0393 72.3367 17.498V19.5015H73.1799V17.2619C73.1799 16.8707 73.045 16.5469 72.7819 16.2838C72.5188 16.0208 72.195 15.8926 71.797 15.8926C71.3518 15.8926 71.0011 16.068 70.7447 16.4187V15.9938H69.9015V19.5015ZM76.6255 16.837C76.5378 16.2501 76.0454 15.8926 75.2831 15.8926C74.4804 15.8926 73.9273 16.2501 73.9273 16.9854C73.9273 17.4778 74.1701 17.7679 74.7637 17.9635L75.4855 18.1928C75.7486 18.2805 75.8767 18.3952 75.8767 18.5301C75.8767 18.746 75.6339 18.8741 75.3101 18.8741C74.9256 18.8741 74.6828 18.7055 74.6221 18.4559L73.8328 18.5706C73.934 19.2114 74.4467 19.6026 75.2899 19.6026C76.0993 19.6026 76.6795 19.2316 76.6795 18.5031C76.6795 17.9972 76.4096 17.6734 75.7621 17.4508L75.0403 17.208C74.8312 17.1338 74.73 17.0393 74.73 16.9247C74.73 16.729 74.9459 16.6211 75.2224 16.6211C75.5597 16.6211 75.7621 16.7358 75.8363 16.9651L76.6255 16.837Z" fill="#A4A7B0"/>
<path d="M17.6838 90.892L18.8677 87.1943L20.0515 90.892H20.7165L22.4631 85.7766H21.6227L20.4023 89.5839L19.2038 85.7766H18.5388L17.3404 89.5839L16.1127 85.7766H15.2723L17.0188 90.892H17.6838ZM26.384 89.2697C26.3913 89.1454 26.3986 89.0504 26.3986 88.992C26.3986 88.422 26.2086 87.947 25.8286 87.567C25.4559 87.187 24.9882 86.997 24.4255 86.997C23.8628 86.997 23.3878 87.187 23.0078 87.567C22.6351 87.947 22.4451 88.422 22.4451 88.992C22.4451 89.562 22.6424 90.037 23.0297 90.417C23.417 90.797 23.9067 90.987 24.484 90.987C25.244 90.987 25.887 90.6216 26.2378 90.0297L25.4924 89.8031C25.2513 90.1174 24.9151 90.2781 24.484 90.2781C23.8482 90.2781 23.344 89.8616 23.227 89.2697H26.384ZM23.2344 88.6631C23.3732 88.1004 23.8482 87.7058 24.4036 87.7058C24.9955 87.7058 25.4778 88.1004 25.6167 88.6631H23.2344ZM29.3069 90.892H30.0669V88.7143C30.0669 88.4293 30.1692 88.1954 30.3665 88.0054C30.5711 87.8154 30.8196 87.7204 31.1192 87.7204C31.4042 87.7204 31.6453 87.8154 31.8353 88.0054C32.0253 88.1881 32.1203 88.422 32.1203 88.707V90.892H32.8803V88.4877C32.8803 88.0566 32.7342 87.7058 32.4419 87.4208C32.1496 87.1358 31.7842 86.997 31.3384 86.997C30.7757 86.997 30.3519 87.2162 30.0669 87.6474V85.4112H29.3069V90.892ZM35.6303 86.997C35.0968 86.997 34.651 87.187 34.2929 87.567C33.9349 87.947 33.7595 88.422 33.7595 88.992C33.7595 89.562 33.9349 90.037 34.2929 90.417C34.651 90.797 35.0968 90.987 35.6303 90.987C36.1199 90.987 36.5437 90.8189 36.8945 90.4827V90.892H37.6545V87.092H36.8945V87.5012C36.5437 87.165 36.1199 86.997 35.6303 86.997ZM35.7106 87.757C36.0395 87.757 36.3172 87.8739 36.5437 88.115C36.7703 88.3489 36.8799 88.6412 36.8799 88.992C36.8799 89.3427 36.7703 89.635 36.5437 89.8762C36.3172 90.11 36.0395 90.227 35.7106 90.227C35.3818 90.227 35.1114 90.11 34.8849 89.8762C34.6583 89.635 34.5487 89.3427 34.5487 88.992C34.5487 88.6412 34.6583 88.3489 34.8849 88.115C35.1114 87.8739 35.3818 87.757 35.7106 87.757ZM39.9403 90.892H40.6491L42.2495 87.092H41.4676L40.2983 89.92L39.1218 87.092H38.3399L39.9403 90.892ZM46.5686 89.2697C46.5759 89.1454 46.5832 89.0504 46.5832 88.992C46.5832 88.422 46.3932 87.947 46.0132 87.567C45.6405 87.187 45.1728 86.997 44.6102 86.997C44.0475 86.997 43.5725 87.187 43.1925 87.567C42.8198 87.947 42.6298 88.422 42.6298 88.992C42.6298 89.562 42.8271 90.037 43.2144 90.417C43.6017 90.797 44.0913 90.987 44.6686 90.987C45.4286 90.987 46.0717 90.6216 46.4225 90.0297L45.6771 89.8031C45.4359 90.1174 45.0998 90.2781 44.6686 90.2781C44.0328 90.2781 43.5286 89.8616 43.4117 89.2697H46.5686ZM43.419 88.6631C43.5578 88.1004 44.0328 87.7058 44.5882 87.7058C45.1802 87.7058 45.6625 88.1004 45.8013 88.6631H43.419ZM88.6998 86.6754C88.6998 86.3758 88.919 86.142 89.2113 86.142H89.6644V85.4112H89.1529C88.8094 85.4112 88.5244 85.5208 88.2906 85.7474C88.0567 85.9666 87.9398 86.2443 87.9398 86.5731V87.092H87.3333V87.757H87.9398V90.892H88.6998V87.757H89.6644V87.092H88.6998V86.6754ZM90.6658 90.417C91.0458 90.797 91.5208 90.987 92.0908 90.987C92.6608 90.987 93.1358 90.797 93.5158 90.417C93.9031 90.037 94.0931 89.562 94.0931 88.992C94.0931 88.422 93.9031 87.947 93.5158 87.567C93.1358 87.187 92.6608 86.997 92.0908 86.997C91.5208 86.997 91.0458 87.187 90.6658 87.567C90.2858 87.947 90.0958 88.422 90.0958 88.992C90.0958 89.562 90.2858 90.037 90.6658 90.417ZM92.0908 90.227C91.7473 90.227 91.4623 90.11 91.2285 89.8762C91.002 89.635 90.885 89.3427 90.885 88.992C90.885 88.6412 91.002 88.3489 91.2285 88.115C91.4623 87.8739 91.7473 87.757 92.0908 87.757C92.4343 87.757 92.7266 87.8739 92.9531 88.115C93.187 88.3489 93.3039 88.6412 93.3039 88.992C93.3039 89.3427 93.187 89.635 92.9531 89.8762C92.7266 90.11 92.4343 90.227 92.0908 90.227ZM95.7373 87.092H94.9773V90.892H95.7373V88.7727C95.7373 88.4877 95.8323 88.2539 96.0296 88.0712C96.227 87.8812 96.4754 87.7862 96.7604 87.7862C96.8993 87.7862 97.0089 87.8081 97.0893 87.8447V86.997C96.4681 86.997 96.0223 87.2162 95.7373 87.6474V87.092ZM100.858 91.2135C100.69 91.63 100.434 91.8054 99.9887 91.8054H99.8279V92.5362H99.9887C100.749 92.5362 101.216 92.2074 101.516 91.4693L103.306 87.092H102.524L101.406 89.8543L100.325 87.092H99.5429L101.026 90.797L100.858 91.2135ZM104.26 90.417C104.64 90.797 105.115 90.987 105.685 90.987C106.255 90.987 106.73 90.797 107.11 90.417C107.497 90.037 107.687 89.562 107.687 88.992C107.687 88.422 107.497 87.947 107.11 87.567C106.73 87.187 106.255 86.997 105.685 86.997C105.115 86.997 104.64 87.187 104.26 87.567C103.88 87.947 103.69 88.422 103.69 88.992C103.69 89.562 103.88 90.037 104.26 90.417ZM105.685 90.227C105.342 90.227 105.057 90.11 104.823 89.8762C104.596 89.635 104.479 89.3427 104.479 88.992C104.479 88.6412 104.596 88.3489 104.823 88.115C105.057 87.8739 105.342 87.757 105.685 87.757C106.029 87.757 106.321 87.8739 106.547 88.115C106.781 88.3489 106.898 88.6412 106.898 88.992C106.898 89.3427 106.781 89.635 106.547 89.8762C106.321 90.11 106.029 90.227 105.685 90.227ZM108.564 89.4889C108.564 89.92 108.71 90.2781 108.995 90.5631C109.28 90.8481 109.646 90.987 110.084 90.987C110.618 90.987 111.034 90.775 111.327 90.3512V90.892H112.087V87.092H111.327V89.2697C111.327 89.5547 111.232 89.7885 111.034 89.9785C110.837 90.1685 110.596 90.2635 110.304 90.2635C110.026 90.2635 109.792 90.1685 109.602 89.9858C109.419 89.7958 109.324 89.562 109.324 89.277V87.092H108.564V89.4889ZM113.902 87.092H113.142V90.892H113.902V88.7727C113.902 88.4877 113.997 88.2539 114.195 88.0712C114.392 87.8812 114.64 87.7862 114.925 87.7862C115.064 87.7862 115.174 87.8081 115.254 87.8447V86.997C114.633 86.997 114.187 87.2162 113.902 87.6474V87.092ZM23.9537 95.997C23.4202 95.997 22.9744 96.187 22.6163 96.567C22.2583 96.947 22.0829 97.422 22.0829 97.992C22.0829 98.562 22.2583 99.037 22.6163 99.417C22.9744 99.797 23.4202 99.987 23.9537 99.987C24.4433 99.987 24.8671 99.8189 25.2179 99.4827V99.892H25.9779V96.092H25.2179V96.5012C24.8671 96.165 24.4433 95.997 23.9537 95.997ZM24.034 96.757C24.3629 96.757 24.6406 96.8739 24.8671 97.115C25.0937 97.3489 25.2033 97.6412 25.2033 97.992C25.2033 98.3427 25.0937 98.635 24.8671 98.8762C24.6406 99.11 24.3629 99.227 24.034 99.227C23.7052 99.227 23.4348 99.11 23.2083 98.8762C22.9817 98.635 22.8721 98.3427 22.8721 97.992C22.8721 97.6412 22.9817 97.3489 23.2083 97.115C23.4348 96.8739 23.7052 96.757 24.034 96.757ZM27.0213 98.4889C27.0213 98.92 27.1675 99.2781 27.4525 99.5631C27.7375 99.8481 28.1029 99.987 28.5413 99.987C29.0748 99.987 29.4913 99.775 29.7836 99.3512V99.892H30.5436V96.092H29.7836V98.2697C29.7836 98.5547 29.6886 98.7885 29.4913 98.9785C29.294 99.1685 29.0529 99.2635 28.7606 99.2635C28.4829 99.2635 28.249 99.1685 28.059 98.9858C27.8763 98.7958 27.7813 98.562 27.7813 98.277V96.092H27.0213V98.4889ZM31.234 96.757H31.8113V98.73C31.8113 99.0589 31.9282 99.3366 32.1621 99.5631C32.3959 99.7824 32.6809 99.892 33.0244 99.892H33.5798V99.1612H33.0828C32.7905 99.1612 32.5713 98.9274 32.5713 98.6277V96.757H33.5798V96.092H32.5713V95.3393H31.8113V96.092H31.234V96.757ZM34.7808 99.417C35.1608 99.797 35.6358 99.987 36.2058 99.987C36.7758 99.987 37.2508 99.797 37.6308 99.417C38.0181 99.037 38.2081 98.562 38.2081 97.992C38.2081 97.422 38.0181 96.947 37.6308 96.567C37.2508 96.187 36.7758 95.997 36.2058 95.997C35.6358 95.997 35.1608 96.187 34.7808 96.567C34.4008 96.947 34.2108 97.422 34.2108 97.992C34.2108 98.562 34.4008 99.037 34.7808 99.417ZM36.2058 99.227C35.8623 99.227 35.5773 99.11 35.3435 98.8762C35.117 98.635 35 98.3427 35 97.992C35 97.6412 35.117 97.3489 35.3435 97.115C35.5773 96.8739 35.8623 96.757 36.2058 96.757C36.5493 96.757 36.8416 96.8739 37.0681 97.115C37.302 97.3489 37.4189 97.6412 37.4189 97.992C37.4189 98.3427 37.302 98.635 37.0681 98.8762C36.8416 99.11 36.5493 99.227 36.2058 99.227ZM41.9396 99.892V96.092H41.1796V99.892H41.9396ZM41.2015 95.5293C41.3988 95.7266 41.7204 95.7266 41.9177 95.5293C42.115 95.332 42.115 95.0104 41.9177 94.8131C41.7204 94.6158 41.3988 94.6158 41.2015 94.8131C41.0188 95.0104 41.0188 95.332 41.2015 95.5293ZM42.9885 99.892H43.7485V97.7143C43.7485 97.4293 43.8435 97.1954 44.0408 97.0054C44.2382 96.8154 44.4866 96.7204 44.7716 96.7204C45.3343 96.7204 45.7508 97.1443 45.7508 97.707V99.892H46.5108V97.4877C46.5108 97.0566 46.3647 96.7058 46.0797 96.4208C45.7947 96.1358 45.4293 95.997 44.9982 95.997C44.4428 95.997 44.0262 96.2162 43.7485 96.6474V96.092H42.9885V99.892ZM50.2558 96.9616C50.1462 96.3697 49.6347 95.997 48.8527 95.997C48.027 95.997 47.435 96.377 47.435 97.1297C47.435 97.6266 47.6908 97.9335 48.2827 98.1381L49.1304 98.4231C49.4373 98.5327 49.5908 98.6789 49.5908 98.8616C49.5908 99.1466 49.2839 99.322 48.8747 99.322C48.4143 99.322 48.1147 99.1174 48.0489 98.8177L47.3327 98.9274C47.4423 99.5777 47.9904 99.987 48.86 99.987C49.7077 99.987 50.3216 99.5924 50.3216 98.8397C50.3216 98.3208 50.0366 97.9847 49.3862 97.7435L48.5312 97.4512C48.29 97.3635 48.1658 97.2393 48.1658 97.0712C48.1658 96.8154 48.4362 96.662 48.7943 96.662C49.1962 96.662 49.4593 96.83 49.5397 97.0858L50.2558 96.9616ZM51.1664 98.4889C51.1664 98.92 51.3126 99.2781 51.5976 99.5631C51.8826 99.8481 52.248 99.987 52.6864 99.987C53.2199 99.987 53.6364 99.775 53.9287 99.3512V99.892H54.6887V96.092H53.9287V98.2697C53.9287 98.5547 53.8337 98.7885 53.6364 98.9785C53.4391 99.1685 53.198 99.2635 52.9056 99.2635C52.628 99.2635 52.3941 99.1685 52.2041 98.9858C52.0214 98.7958 51.9264 98.562 51.9264 98.277V96.092H51.1664V98.4889ZM56.5045 96.092H55.7445V99.892H56.5045V97.7727C56.5045 97.4877 56.5995 97.2539 56.7968 97.0712C56.9941 96.8812 57.2425 96.7862 57.5275 96.7862C57.6664 96.7862 57.776 96.8081 57.8564 96.8447V95.997C57.2352 95.997 56.7895 96.2162 56.5045 96.6474V96.092ZM60.1267 95.997C59.5933 95.997 59.1475 96.187 58.7894 96.567C58.4313 96.947 58.256 97.422 58.256 97.992C58.256 98.562 58.4313 99.037 58.7894 99.417C59.1475 99.797 59.5933 99.987 60.1267 99.987C60.6163 99.987 61.0402 99.8189 61.391 99.4827V99.892H62.151V96.092H61.391V96.5012C61.0402 96.165 60.6163 95.997 60.1267 95.997ZM60.2071 96.757C60.536 96.757 60.8137 96.8739 61.0402 97.115C61.2667 97.3489 61.3763 97.6412 61.3763 97.992C61.3763 98.3427 61.2667 98.635 61.0402 98.8762C60.8137 99.11 60.536 99.227 60.2071 99.227C59.8783 99.227 59.6079 99.11 59.3813 98.8762C59.1548 98.635 59.0452 98.3427 59.0452 97.992C59.0452 97.6412 59.1548 97.3489 59.3813 97.115C59.6079 96.8739 59.8783 96.757 60.2071 96.757ZM63.2017 99.892H63.9617V97.7143C63.9617 97.4293 64.0567 97.1954 64.254 97.0054C64.4513 96.8154 64.6998 96.7204 64.9848 96.7204C65.5475 96.7204 65.964 97.1443 65.964 97.707V99.892H66.724V97.4877C66.724 97.0566 66.5779 96.7058 66.2929 96.4208C66.0079 96.1358 65.6425 95.997 65.2113 95.997C64.656 95.997 64.2394 96.2162 63.9617 96.6474V96.092H63.2017V99.892ZM71.4482 97.1954C71.1486 96.4647 70.4471 95.997 69.5994 95.997C69.0294 95.997 68.5544 96.187 68.1744 96.567C67.7944 96.947 67.6044 97.422 67.6044 97.992C67.6044 98.562 67.7944 99.037 68.1744 99.417C68.5544 99.797 69.0294 99.987 69.5994 99.987C70.4471 99.987 71.1486 99.5193 71.4482 98.7885L70.6809 98.562C70.4836 98.9712 70.089 99.227 69.5994 99.227C69.2559 99.227 68.9709 99.11 68.7371 98.8762C68.5105 98.635 68.3936 98.3427 68.3936 97.992C68.3936 97.6412 68.5105 97.3489 68.7371 97.115C68.9709 96.8739 69.2559 96.757 69.5994 96.757C70.089 96.757 70.4836 97.0127 70.6809 97.422L71.4482 97.1954ZM76.0283 98.2697C76.0356 98.1454 76.0429 98.0504 76.0429 97.992C76.0429 97.422 75.8529 96.947 75.4729 96.567C75.1003 96.187 74.6326 95.997 74.0699 95.997C73.5072 95.997 73.0322 96.187 72.6522 96.567C72.2795 96.947 72.0895 97.422 72.0895 97.992C72.0895 98.562 72.2868 99.037 72.6741 99.417C73.0614 99.797 73.551 99.987 74.1283 99.987C74.8883 99.987 75.5314 99.6216 75.8822 99.0297L75.1368 98.8031C74.8956 99.1174 74.5595 99.2781 74.1283 99.2781C73.4926 99.2781 72.9883 98.8616 72.8714 98.2697H76.0283ZM72.8787 97.6631C73.0176 97.1004 73.4926 96.7058 74.0479 96.7058C74.6399 96.7058 75.1222 97.1004 75.261 97.6631H72.8787ZM79.7112 96.092H78.9512V99.892H79.7112V97.7727C79.7112 97.4877 79.8062 97.2539 80.0035 97.0712C80.2008 96.8812 80.4493 96.7862 80.7343 96.7862C80.8732 96.7862 80.9828 96.8081 81.0632 96.8447V95.997C80.442 95.997 79.9962 96.2162 79.7112 96.6474V96.092ZM85.4016 98.2697C85.4089 98.1454 85.4162 98.0504 85.4162 97.992C85.4162 97.422 85.2262 96.947 84.8462 96.567C84.4735 96.187 84.0058 95.997 83.4431 95.997C82.8804 95.997 82.4054 96.187 82.0254 96.567C81.6527 96.947 81.4627 97.422 81.4627 97.992C81.4627 98.562 81.66 99.037 82.0473 99.417C82.4347 99.797 82.9243 99.987 83.5016 99.987C84.2616 99.987 84.9047 99.6216 85.2554 99.0297L84.51 98.8031C84.2689 99.1174 83.9327 99.2781 83.5016 99.2781C82.8658 99.2781 82.3616 98.8616 82.2447 98.2697H85.4016ZM82.252 97.6631C82.3908 97.1004 82.8658 96.7058 83.4212 96.7058C84.0131 96.7058 84.4954 97.1004 84.6343 97.6631H82.252ZM86.2372 99.892H86.9972V97.7143C86.9972 97.4293 87.0922 97.1954 87.2895 97.0054C87.4868 96.8154 87.7353 96.7204 88.0203 96.7204C88.583 96.7204 88.9995 97.1443 88.9995 97.707V99.892H89.7595V97.4877C89.7595 97.0566 89.6134 96.7058 89.3284 96.4208C89.0434 96.1358 88.678 95.997 88.2468 95.997C87.6915 95.997 87.2749 96.2162 86.9972 96.6474V96.092H86.2372V99.892ZM94.5787 98.2697C94.586 98.1454 94.5934 98.0504 94.5934 97.992C94.5934 97.422 94.4034 96.947 94.0234 96.567C93.6507 96.187 93.183 95.997 92.6203 95.997C92.0576 95.997 91.5826 96.187 91.2026 96.567C90.8299 96.947 90.6399 97.422 90.6399 97.992C90.6399 98.562 90.8372 99.037 91.2245 99.417C91.6118 99.797 92.1014 99.987 92.6787 99.987C93.4387 99.987 94.0818 99.6216 94.4326 99.0297L93.6872 98.8031C93.446 99.1174 93.1099 99.2781 92.6787 99.2781C92.043 99.2781 91.5387 98.8616 91.4218 98.2697H94.5787ZM91.4291 97.6631C91.568 97.1004 92.043 96.7058 92.5984 96.7058C93.1903 96.7058 93.6726 97.1004 93.8114 97.6631H91.4291ZM96.8499 99.892L97.6757 97.3562L98.4942 99.892H99.1738L100.438 96.092H99.6707L98.8376 98.7154L98.0192 96.092H97.3323L96.5065 98.7154L95.6807 96.092H94.9134L96.1776 99.892H96.8499ZM102.687 95.997C102.153 95.997 101.708 96.187 101.35 96.567C100.992 96.947 100.816 97.422 100.816 97.992C100.816 98.562 100.992 99.037 101.35 99.417C101.708 99.797 102.153 99.987 102.687 99.987C103.177 99.987 103.6 99.8189 103.951 99.4827V99.892H104.711V96.092H103.951V96.5012C103.6 96.165 103.177 95.997 102.687 95.997ZM102.767 96.757C103.096 96.757 103.374 96.8739 103.6 97.115C103.827 97.3489 103.937 97.6412 103.937 97.992C103.937 98.3427 103.827 98.635 103.6 98.8762C103.374 99.11 103.096 99.227 102.767 99.227C102.438 99.227 102.168 99.11 101.942 98.8762C101.715 98.635 101.605 98.3427 101.605 97.992C101.605 97.6412 101.715 97.3489 101.942 97.115C102.168 96.8739 102.438 96.757 102.767 96.757ZM106.522 99.892V94.4112H105.762V99.892H106.522ZM108.484 99.68C108.484 99.2635 108.25 98.9785 107.922 98.9785C107.629 98.9785 107.417 99.1831 107.417 99.4681C107.417 99.7312 107.6 99.9504 107.841 99.987C107.841 100.06 107.805 100.155 107.732 100.265C107.666 100.382 107.607 100.462 107.564 100.513L107.454 100.63L107.702 100.886L107.732 100.871C107.878 100.762 108.484 100.367 108.484 99.68ZM22.2462 106.195C21.9466 105.465 21.245 104.997 20.3973 104.997C19.8273 104.997 19.3523 105.187 18.9723 105.567C18.5923 105.947 18.4023 106.422 18.4023 106.992C18.4023 107.562 18.5923 108.037 18.9723 108.417C19.3523 108.797 19.8273 108.987 20.3973 108.987C21.245 108.987 21.9466 108.519 22.2462 107.789L21.4789 107.562C21.2816 107.971 20.887 108.227 20.3973 108.227C20.0539 108.227 19.7689 108.11 19.535 107.876C19.3085 107.635 19.1916 107.343 19.1916 106.992C19.1916 106.641 19.3085 106.349 19.535 106.115C19.7689 105.874 20.0539 105.757 20.3973 105.757C20.887 105.757 21.2816 106.013 21.4789 106.422L22.2462 106.195ZM23.4574 108.417C23.8374 108.797 24.3124 108.987 24.8824 108.987C25.4524 108.987 25.9274 108.797 26.3074 108.417C26.6947 108.037 26.8847 107.562 26.8847 106.992C26.8847 106.422 26.6947 105.947 26.3074 105.567C25.9274 105.187 25.4524 104.997 24.8824 104.997C24.3124 104.997 23.8374 105.187 23.4574 105.567C23.0774 105.947 22.8874 106.422 22.8874 106.992C22.8874 107.562 23.0774 108.037 23.4574 108.417ZM24.8824 108.227C24.539 108.227 24.254 108.11 24.0201 107.876C23.7936 107.635 23.6767 107.343 23.6767 106.992C23.6767 106.641 23.7936 106.349 24.0201 106.115C24.254 105.874 24.539 105.757 24.8824 105.757C25.2259 105.757 25.5182 105.874 25.7447 106.115C25.9786 106.349 26.0955 106.641 26.0955 106.992C26.0955 107.343 25.9786 107.635 25.7447 107.876C25.5182 108.11 25.2259 108.227 24.8824 108.227ZM28.529 108.892V106.627C28.529 106.371 28.6167 106.152 28.7994 105.984C28.9821 105.808 29.2013 105.72 29.4717 105.72C29.9759 105.72 30.3632 106.115 30.3632 106.619V108.892H31.1232V106.627C31.1232 106.371 31.2109 106.152 31.3863 105.984C31.569 105.808 31.7882 105.72 32.0586 105.72C32.5628 105.72 32.9501 106.115 32.9501 106.619V108.892H33.7101V106.407C33.7101 106.005 33.564 105.669 33.279 105.399C32.994 105.129 32.6359 104.997 32.2047 104.997C31.7297 104.997 31.3132 105.216 31.1378 105.392C31.0574 105.479 30.9844 105.574 30.9259 105.669C30.6701 105.253 30.2244 104.997 29.6909 104.997C29.1794 104.997 28.7921 105.187 28.529 105.574V105.092H27.769V108.892H28.529ZM35.519 110.536V108.483C35.8697 108.819 36.2936 108.987 36.7832 108.987C37.3167 108.987 37.7624 108.797 38.1205 108.417C38.4786 108.037 38.654 107.562 38.654 106.992C38.654 106.422 38.4786 105.947 38.1205 105.567C37.7624 105.187 37.3167 104.997 36.7832 104.997C36.2936 104.997 35.8697 105.165 35.519 105.501V105.092H34.759V110.536H35.519ZM36.6955 105.757C37.0243 105.757 37.302 105.874 37.5286 106.115C37.7551 106.349 37.8647 106.641 37.8647 106.992C37.8647 107.343 37.7551 107.635 37.5286 107.876C37.302 108.11 37.0243 108.227 36.6955 108.227C36.3667 108.227 36.0963 108.11 35.8697 107.876C35.6432 107.635 35.5336 107.343 35.5336 106.992C35.5336 106.641 35.6432 106.349 35.8697 106.115C36.0963 105.874 36.3667 105.757 36.6955 105.757ZM41.2393 104.997C40.7059 104.997 40.2601 105.187 39.902 105.567C39.544 105.947 39.3686 106.422 39.3686 106.992C39.3686 107.562 39.544 108.037 39.902 108.417C40.2601 108.797 40.7059 108.987 41.2393 108.987C41.729 108.987 42.1528 108.819 42.5036 108.483V108.892H43.2636V105.092H42.5036V105.501C42.1528 105.165 41.729 104.997 41.2393 104.997ZM41.3197 105.757C41.6486 105.757 41.9263 105.874 42.1528 106.115C42.3793 106.349 42.489 106.641 42.489 106.992C42.489 107.343 42.3793 107.635 42.1528 107.876C41.9263 108.11 41.6486 108.227 41.3197 108.227C40.9909 108.227 40.7205 108.11 40.494 107.876C40.2674 107.635 40.1578 107.343 40.1578 106.992C40.1578 106.641 40.2674 106.349 40.494 106.115C40.7205 105.874 40.9909 105.757 41.3197 105.757ZM45.0743 105.092H44.3143V108.892H45.0743V106.773C45.0743 106.488 45.1693 106.254 45.3666 106.071C45.564 105.881 45.8124 105.786 46.0974 105.786C46.2363 105.786 46.3459 105.808 46.4263 105.845V104.997C45.8051 104.997 45.3593 105.216 45.0743 105.647V105.092ZM50.7647 107.27C50.772 107.145 50.7793 107.05 50.7793 106.992C50.7793 106.422 50.5893 105.947 50.2093 105.567C49.8366 105.187 49.3689 104.997 48.8062 104.997C48.2435 104.997 47.7685 105.187 47.3885 105.567C47.0158 105.947 46.8258 106.422 46.8258 106.992C46.8258 107.562 47.0232 108.037 47.4105 108.417C47.7978 108.797 48.2874 108.987 48.8647 108.987C49.6247 108.987 50.2678 108.622 50.6185 108.03L49.8732 107.803C49.632 108.117 49.2958 108.278 48.8647 108.278C48.2289 108.278 47.7247 107.862 47.6078 107.27H50.7647ZM47.6151 106.663C47.7539 106.1 48.2289 105.706 48.7843 105.706C49.3762 105.706 49.8585 106.1 49.9974 106.663H47.6151ZM53.3222 105.757H53.8995V107.73C53.8995 108.059 54.0164 108.337 54.2503 108.563C54.4841 108.782 54.7691 108.892 55.1126 108.892H55.668V108.161H55.1711C54.8788 108.161 54.6595 107.927 54.6595 107.628V105.757H55.668V105.092H54.6595V104.339H53.8995V105.092H53.3222V105.757ZM56.4814 108.892H57.2414V106.714C57.2414 106.429 57.3437 106.195 57.541 106.005C57.7456 105.815 57.9941 105.72 58.2937 105.72C58.5787 105.72 58.8198 105.815 59.0098 106.005C59.1998 106.188 59.2948 106.422 59.2948 106.707V108.892H60.0548V106.488C60.0548 106.057 59.9087 105.706 59.6164 105.421C59.3241 105.136 58.9587 104.997 58.5129 104.997C57.9502 104.997 57.5264 105.216 57.2414 105.647V103.411H56.4814V108.892ZM64.8728 107.27C64.8801 107.145 64.8874 107.05 64.8874 106.992C64.8874 106.422 64.6974 105.947 64.3174 105.567C63.9447 105.187 63.477 104.997 62.9144 104.997C62.3517 104.997 61.8767 105.187 61.4967 105.567C61.124 105.947 60.934 106.422 60.934 106.992C60.934 107.562 61.1313 108.037 61.5186 108.417C61.9059 108.797 62.3955 108.987 62.9728 108.987C63.7328 108.987 64.3759 108.622 64.7267 108.03L63.9813 107.803C63.7401 108.117 63.404 108.278 62.9728 108.278C62.337 108.278 61.8328 107.862 61.7159 107.27H64.8728ZM61.7232 106.663C61.862 106.1 62.337 105.706 62.8924 105.706C63.4844 105.706 63.9667 106.1 64.1055 106.663H61.7232ZM66.4685 108.892V105.092H65.7085V108.892H66.4685ZM65.7304 104.529C65.9277 104.727 66.2492 104.727 66.4465 104.529C66.6439 104.332 66.6439 104.01 66.4465 103.813C66.2492 103.616 65.9277 103.616 65.7304 103.813C65.5477 104.01 65.5477 104.332 65.7304 104.529ZM68.2774 105.092H67.5174V108.892H68.2774V106.773C68.2774 106.488 68.3724 106.254 68.5697 106.071C68.767 105.881 69.0155 105.786 69.3005 105.786C69.4393 105.786 69.5489 105.808 69.6293 105.845V104.997C69.0082 104.997 68.5624 105.216 68.2774 105.647V105.092ZM72.8503 108.417C73.2303 108.797 73.7053 108.987 74.2753 108.987C74.8453 108.987 75.3203 108.797 75.7003 108.417C76.0876 108.037 76.2776 107.562 76.2776 106.992C76.2776 106.422 76.0876 105.947 75.7003 105.567C75.3203 105.187 74.8453 104.997 74.2753 104.997C73.7053 104.997 73.2303 105.187 72.8503 105.567C72.4703 105.947 72.2803 106.422 72.2803 106.992C72.2803 107.562 72.4703 108.037 72.8503 108.417ZM74.2753 108.227C73.9318 108.227 73.6468 108.11 73.413 107.876C73.1865 107.635 73.0695 107.343 73.0695 106.992C73.0695 106.641 73.1865 106.349 73.413 106.115C73.6468 105.874 73.9318 105.757 74.2753 105.757C74.6188 105.757 74.9111 105.874 75.1376 106.115C75.3715 106.349 75.4884 106.641 75.4884 106.992C75.4884 107.343 75.3715 107.635 75.1376 107.876C74.9111 108.11 74.6188 108.227 74.2753 108.227ZM77.396 105.757V108.892H78.156V105.757H79.698V108.892H80.458V105.757H81.4226V105.092H80.458V104.675C80.458 104.376 80.6772 104.142 80.9695 104.142H81.4226V103.411H80.911C80.5676 103.411 80.2826 103.521 80.0487 103.747C79.8149 103.967 79.698 104.244 79.698 104.573V105.092H78.156V104.675C78.156 104.376 78.3753 104.142 78.6676 104.142H79.1207V103.411H78.6091C78.2657 103.411 77.9807 103.521 77.7468 103.747C77.513 103.967 77.396 104.244 77.396 104.573V105.092H76.7895V105.757H77.396ZM85.7959 107.27C85.8033 107.145 85.8106 107.05 85.8106 106.992C85.8106 106.422 85.6206 105.947 85.2406 105.567C84.8679 105.187 84.4002 104.997 83.8375 104.997C83.2748 104.997 82.7998 105.187 82.4198 105.567C82.0471 105.947 81.8571 106.422 81.8571 106.992C81.8571 107.562 82.0544 108.037 82.4417 108.417C82.829 108.797 83.3186 108.987 83.8959 108.987C84.6559 108.987 85.299 108.622 85.6498 108.03L84.9044 107.803C84.6633 108.117 84.3271 108.278 83.8959 108.278C83.2602 108.278 82.7559 107.862 82.639 107.27H85.7959ZM82.6463 106.663C82.7852 106.1 83.2602 105.706 83.8156 105.706C84.4075 105.706 84.8898 106.1 85.0286 106.663H82.6463ZM87.3916 105.092H86.6316V108.892H87.3916V106.773C87.3916 106.488 87.4866 106.254 87.6839 106.071C87.8812 105.881 88.1297 105.786 88.4147 105.786C88.5535 105.786 88.6631 105.808 88.7435 105.845V104.997C88.1224 104.997 87.6766 105.216 87.3916 105.647V105.092ZM92.0862 105.962C91.9766 105.37 91.4651 104.997 90.6831 104.997C89.8574 104.997 89.2654 105.377 89.2654 106.13C89.2654 106.627 89.5212 106.934 90.1131 107.138L90.9608 107.423C91.2678 107.533 91.4212 107.679 91.4212 107.862C91.4212 108.147 91.1143 108.322 90.7051 108.322C90.2447 108.322 89.9451 108.117 89.8793 107.818L89.1631 107.927C89.2728 108.578 89.8208 108.987 90.6904 108.987C91.5381 108.987 92.152 108.592 92.152 107.84C92.152 107.321 91.867 106.985 91.2166 106.744L90.3616 106.451C90.1204 106.364 89.9962 106.239 89.9962 106.071C89.9962 105.815 90.2666 105.662 90.6247 105.662C91.0266 105.662 91.2897 105.83 91.3701 106.086L92.0862 105.962ZM95.0914 108.892H95.8514V106.714C95.8514 106.429 95.9537 106.195 96.151 106.005C96.3556 105.815 96.6041 105.72 96.9037 105.72C97.1887 105.72 97.4298 105.815 97.6198 106.005C97.8098 106.188 97.9048 106.422 97.9048 106.707V108.892H98.6648V106.488C98.6648 106.057 98.5187 105.706 98.2264 105.421C97.9341 105.136 97.5687 104.997 97.1229 104.997C96.5602 104.997 96.1364 105.216 95.8514 105.647V103.411H95.0914V108.892ZM103.483 107.27C103.49 107.145 103.497 107.05 103.497 106.992C103.497 106.422 103.307 105.947 102.927 105.567C102.555 105.187 102.087 104.997 101.524 104.997C100.962 104.997 100.487 105.187 100.107 105.567C99.734 105.947 99.544 106.422 99.544 106.992C99.544 107.562 99.7413 108.037 100.129 108.417C100.516 108.797 101.006 108.987 101.583 108.987C102.343 108.987 102.986 108.622 103.337 108.03L102.591 107.803C102.35 108.117 102.014 108.278 101.583 108.278C100.947 108.278 100.443 107.862 100.326 107.27H103.483ZM100.333 106.663C100.472 106.1 100.947 105.706 101.502 105.706C102.094 105.706 102.577 106.1 102.716 106.663H100.333ZM105.078 105.092H104.318V108.892H105.078V106.773C105.078 106.488 105.173 106.254 105.371 106.071C105.568 105.881 105.817 105.786 106.102 105.786C106.24 105.786 106.35 105.808 106.43 105.845V104.997C105.809 104.997 105.363 105.216 105.078 105.647V105.092ZM110.769 107.27C110.776 107.145 110.783 107.05 110.783 106.992C110.783 106.422 110.593 105.947 110.213 105.567C109.841 105.187 109.373 104.997 108.81 104.997C108.248 104.997 107.773 105.187 107.393 105.567C107.02 105.947 106.83 106.422 106.83 106.992C106.83 107.562 107.027 108.037 107.415 108.417C107.802 108.797 108.292 108.987 108.869 108.987C109.629 108.987 110.272 108.622 110.623 108.03L109.877 107.803C109.636 108.117 109.3 108.278 108.869 108.278C108.233 108.278 107.729 107.862 107.612 107.27H110.769ZM107.619 106.663C107.758 106.1 108.233 105.706 108.788 105.706C109.38 105.706 109.863 106.1 110.002 106.663H107.619ZM111.426 108.848C111.623 109.031 111.959 109.031 112.157 108.848C112.354 108.651 112.354 108.315 112.157 108.117C111.959 107.92 111.623 107.92 111.426 108.117C111.243 108.315 111.243 108.651 111.426 108.848Z" fill="#A4A7B0"/>
<path d="M52.0565 90.892H52.8458V89.8762H53.54V89.1162H52.8458V85.7766H52.0931L49.3161 89.1162V89.8762H52.0565V90.892ZM52.0565 86.9604V89.1162H50.2661L52.0565 86.9604ZM57.7057 90.892H58.4145L60.0149 87.092H59.233L58.0637 89.92L56.8872 87.092H56.1053L57.7057 90.892ZM64.334 89.2697C64.3413 89.1454 64.3486 89.0504 64.3486 88.992C64.3486 88.422 64.1586 87.947 63.7786 87.567C63.4059 87.187 62.9382 86.997 62.3756 86.997C61.8129 86.997 61.3379 87.187 60.9579 87.567C60.5852 87.947 60.3952 88.422 60.3952 88.992C60.3952 89.562 60.5925 90.037 60.9798 90.417C61.3671 90.797 61.8567 90.987 62.434 90.987C63.194 90.987 63.8371 90.6216 64.1879 90.0297L63.4425 89.8031C63.2013 90.1174 62.8652 90.2781 62.434 90.2781C61.7982 90.2781 61.294 89.8616 61.1771 89.2697H64.334ZM61.1844 88.6631C61.3232 88.1004 61.7982 87.7058 62.3536 87.7058C62.9456 87.7058 63.4279 88.1004 63.5667 88.6631H61.1844ZM65.1697 90.892H65.9297V88.7143C65.9297 88.4293 66.0247 88.1954 66.222 88.0054C66.4193 87.8154 66.6677 87.7204 66.9527 87.7204C67.5154 87.7204 67.932 88.1443 67.932 88.707V90.892H68.692V88.4877C68.692 88.0566 68.5458 87.7058 68.2608 87.4208C67.9758 87.1358 67.6104 86.997 67.1793 86.997C66.6239 86.997 66.2074 87.2162 65.9297 87.6474V87.092H65.1697V90.892ZM71.4431 86.997C70.9096 86.997 70.4639 87.187 70.1058 87.567C69.7477 87.947 69.5723 88.422 69.5723 88.992C69.5723 89.562 69.7477 90.037 70.1058 90.417C70.4639 90.797 70.9096 90.987 71.4431 90.987C71.9327 90.987 72.3566 90.8189 72.7073 90.4827V90.892H73.4673V85.4112H72.7073V87.5012C72.3566 87.165 71.9327 86.997 71.4431 86.997ZM71.5235 87.757C71.8523 87.757 72.13 87.8739 72.3566 88.115C72.5831 88.3489 72.6927 88.6412 72.6927 88.992C72.6927 89.3427 72.5831 89.635 72.3566 89.8762C72.13 90.11 71.8523 90.227 71.5235 90.227C71.1946 90.227 70.9242 90.11 70.6977 89.8762C70.4712 89.635 70.3616 89.3427 70.3616 88.992C70.3616 88.6412 70.4712 88.3489 70.6977 88.115C70.9242 87.8739 71.1946 87.757 71.5235 87.757ZM74.92 90.417C75.3 90.797 75.775 90.987 76.345 90.987C76.915 90.987 77.39 90.797 77.77 90.417C78.1573 90.037 78.3473 89.562 78.3473 88.992C78.3473 88.422 78.1573 87.947 77.77 87.567C77.39 87.187 76.915 86.997 76.345 86.997C75.775 86.997 75.3 87.187 74.92 87.567C74.54 87.947 74.35 88.422 74.35 88.992C74.35 89.562 74.54 90.037 74.92 90.417ZM76.345 90.227C76.0015 90.227 75.7165 90.11 75.4827 89.8762C75.2562 89.635 75.1392 89.3427 75.1392 88.992C75.1392 88.6412 75.2562 88.3489 75.4827 88.115C75.7165 87.8739 76.0015 87.757 76.345 87.757C76.6885 87.757 76.9808 87.8739 77.2073 88.115C77.4412 88.3489 77.5581 88.6412 77.5581 88.992C77.5581 89.3427 77.4412 89.635 77.2073 89.8762C76.9808 90.11 76.6885 90.227 76.345 90.227ZM79.9916 87.092H79.2315V90.892H79.9916V88.7727C79.9916 88.4877 80.0865 88.2539 80.2839 88.0712C80.4812 87.8812 80.7296 87.7862 81.0146 87.7862C81.1535 87.7862 81.2631 87.8081 81.3435 87.8447V86.997C80.7223 86.997 80.2766 87.2162 79.9916 87.6474V87.092ZM84.6862 87.9616C84.5766 87.3697 84.065 86.997 83.2831 86.997C82.4573 86.997 81.8654 87.377 81.8654 88.1297C81.8654 88.6266 82.1212 88.9335 82.7131 89.1381L83.5608 89.4231C83.8677 89.5327 84.0212 89.6789 84.0212 89.8616C84.0212 90.1466 83.7143 90.322 83.305 90.322C82.8446 90.322 82.545 90.1174 82.4793 89.8177L81.7631 89.9274C81.8727 90.5777 82.4208 90.987 83.2904 90.987C84.1381 90.987 84.7519 90.5924 84.7519 89.8397C84.7519 89.3208 84.4669 88.9847 83.8166 88.7435L82.9616 88.4512C82.7204 88.3635 82.5962 88.2393 82.5962 88.0712C82.5962 87.8154 82.8666 87.662 83.2246 87.662C83.6266 87.662 83.8896 87.83 83.97 88.0858L84.6862 87.9616Z" fill="#6E7177"/>
<g clip-path="url(#clip0_883_2616)">
<path d="M106.391 16.8742H114.261V17.9985H106.391V16.8742Z" fill="#F4F6F8"/>
</g>
<rect x="14.2012" y="36.0544" width="100.059" height="36.9651" rx="4.49704" fill="#FFF3EB"/>
<g clip-path="url(#clip1_883_2616)">
<path d="M29.3788 58.0559L25.4141 60.2751L26.2995 55.8186L22.9633 52.7336L27.4755 52.1985L29.3788 48.0724L31.2822 52.1985L35.7944 52.7336L32.4582 55.8186L33.3436 60.2751L29.3788 58.0559Z" fill="#FA8231"/>
</g>
<g clip-path="url(#clip2_883_2616)">
<path d="M46.8048 58.0559L42.84 60.2751L43.7254 55.8186L40.3892 52.7336L44.9014 52.1985L46.8048 48.0724L48.7081 52.1985L53.2203 52.7336L49.8841 55.8186L50.7695 60.2751L46.8048 58.0559Z" fill="#FA8231"/>
</g>
<g clip-path="url(#clip3_883_2616)">
<path d="M64.231 58.0559L60.2663 60.2751L61.1517 55.8186L57.8154 52.7336L62.3276 52.1985L64.231 48.0724L66.1344 52.1985L70.6466 52.7336L67.3104 55.8186L68.1957 60.2751L64.231 58.0559Z" fill="#FA8231"/>
</g>
<g clip-path="url(#clip4_883_2616)">
<path d="M81.6569 58.0559L77.6922 60.2751L78.5776 55.8186L75.2413 52.7336L79.7536 52.1985L81.6569 48.0724L83.5603 52.1985L88.0725 52.7336L84.7363 55.8186L85.6216 60.2751L81.6569 58.0559Z" fill="#FA8231"/>
</g>
<g clip-path="url(#clip5_883_2616)">
<path d="M99.0831 58.0559L95.1184 60.2751L96.0037 55.8186L92.6675 52.7336L97.1797 52.1985L99.0831 48.0724L100.986 52.1985L105.499 52.7336L102.162 55.8186L103.048 60.2751L99.0831 58.0559Z" fill="#FA8231"/>
</g>
<defs>
<clipPath id="clip0_883_2616">
<rect width="13.4911" height="13.4911" fill="white" transform="translate(103.58 10.6908)"/>
</clipPath>
<clipPath id="clip1_883_2616">
<rect width="13.4911" height="13.4911" fill="white" transform="translate(22.6333 47.7914)"/>
</clipPath>
<clipPath id="clip2_883_2616">
<rect width="13.4911" height="13.4911" fill="white" transform="translate(40.0592 47.7914)"/>
</clipPath>
<clipPath id="clip3_883_2616">
<rect width="13.4911" height="13.4911" fill="white" transform="translate(57.4855 47.7914)"/>
</clipPath>
<clipPath id="clip4_883_2616">
<rect width="13.4911" height="13.4911" fill="white" transform="translate(74.9114 47.7914)"/>
</clipPath>
<clipPath id="clip5_883_2616">
<rect width="13.4911" height="13.4911" fill="white" transform="translate(92.3375 47.7914)"/>
</clipPath>
</defs>
</svg>
