<svg width="320" height="153" viewBox="0 0 320 153" fill="none" xmlns="http://www.w3.org/2000/svg">
<g filter="url(#filter0_d_652_2478)">
<rect x="18" y="14" width="284" height="117" rx="8" fill="white"/>
<path d="M42.1982 58.6699V60.126H45.6846V68.5H47.4346V60.126H50.9209V58.6699H42.1982ZM56.3415 61.124C55.8357 61.124 55.3845 61.2949 54.9812 61.6299C54.5779 61.9717 54.2702 62.4297 54.0583 63.0107V61.3291H52.4929V68.5H54.1335V64.6104C54.1335 63.4004 54.865 62.6895 56.0202 62.6895H56.9704V61.2471C56.7995 61.165 56.5945 61.124 56.3415 61.124ZM65.1391 67.3516C64.7358 67.3516 64.4897 67.3037 64.3871 67.2012C64.2846 67.1055 64.2299 66.873 64.2299 66.4971V64.0498C64.2299 63.127 63.9633 62.4023 63.4301 61.8896C62.8901 61.377 62.145 61.124 61.1811 61.124C60.2446 61.124 59.4926 61.3975 58.9252 61.9375C58.3579 62.4844 58.0707 63.209 58.0707 64.1045H59.684C59.684 62.8945 60.1284 62.3682 61.1538 62.3682C62.1791 62.3682 62.6235 62.9424 62.6235 64.3301V64.4258C62.3432 64.5146 61.4477 64.7197 59.9233 65.041C59.1782 65.1914 58.6518 65.4238 58.3442 65.7383C58.0366 66.0527 57.8793 66.4492 57.8793 66.9346C57.8793 67.4609 58.0776 67.8916 58.4672 68.2197C58.8569 68.5479 59.3832 68.7119 60.0327 68.7119C61.3383 68.7119 62.268 68.0625 62.6782 67.0713C62.6987 68.1719 63.1567 68.6367 64.1069 68.6367C64.4692 68.6367 64.8246 68.5889 65.1596 68.5V67.3516H65.1391ZM60.5522 67.4951C59.8891 67.4951 59.561 67.2354 59.5541 66.7227C59.5541 66.4697 59.6225 66.2783 59.7661 66.1484C59.9096 66.0186 60.1967 65.9023 60.6342 65.7861C61.7827 65.5127 62.4457 65.3418 62.6235 65.2803V65.5742C62.6235 66.8594 61.8168 67.4951 60.5522 67.4951ZM71.1066 61.124C69.9035 61.124 69.0148 61.6914 68.4406 62.833V61.3291H66.8615V68.5H68.5021V64.4531C68.5021 63.8447 68.6798 63.373 69.0421 63.0244C69.3976 62.6758 69.883 62.5049 70.4982 62.5049C71.0998 62.5049 71.5168 62.6416 71.756 62.9219C71.9953 63.2021 72.1115 63.6943 72.1115 64.3984V68.5H73.7658V63.7422C73.7658 62.9424 73.5265 62.2998 73.048 61.8281C72.5627 61.3564 71.9201 61.124 71.1066 61.124ZM79.0907 68.7119C80.0409 68.7119 80.8134 68.5137 81.3944 68.1035C81.9755 67.7002 82.2626 67.1738 82.2626 66.5107C82.2626 65.9023 82.0438 65.4238 81.5995 65.0684C81.1552 64.7197 80.4442 64.4531 79.453 64.2754C78.6395 64.1318 78.1063 63.9883 77.8534 63.8379C77.5936 63.6875 77.4637 63.4756 77.4637 63.1953C77.4637 62.6006 77.9491 62.2998 78.9198 62.2998C79.9862 62.2998 80.4579 62.7031 80.4579 63.6123H82.1122C82.1122 62.8672 81.8251 62.2656 81.244 61.8076C80.663 61.3496 79.8973 61.124 78.9335 61.124C78.0175 61.124 77.2792 61.3291 76.7255 61.7324C76.1649 62.1426 75.8846 62.6895 75.8846 63.373C75.8846 63.9814 76.1034 64.46 76.5477 64.7949C76.9921 65.1367 77.6962 65.3896 78.6669 65.5605C79.4667 65.7041 79.9999 65.8545 80.2596 66.0254C80.5126 66.1963 80.6425 66.415 80.6425 66.6816C80.6425 67.249 80.1298 67.5361 79.1044 67.5361C77.8671 67.5361 77.3202 67.126 77.3202 66.2168H75.6727C75.6727 66.9619 75.9872 67.5635 76.6093 68.0215C77.2313 68.4795 78.0585 68.7119 79.0907 68.7119ZM89.0367 59.0938V57.8906C88.4967 57.8018 87.8951 57.7607 87.232 57.7607C86.4664 57.7607 85.8512 57.9795 85.3863 58.417C84.9146 58.8545 84.6822 59.4355 84.6822 60.1533V61.3291H83.2604V62.6211H84.6822V68.5H86.3229V62.6211H88.941V61.3291H86.3229V60.3105C86.3229 59.8525 86.4049 59.5381 86.5621 59.3604C86.7193 59.1826 87.0064 59.0938 87.4166 59.0938H89.0367ZM96.597 64.4121C96.597 63.4209 96.2825 62.6279 95.6605 62.0264C95.0316 61.4248 94.2113 61.124 93.1927 61.124C92.1058 61.124 91.2308 61.4727 90.5677 62.1631C89.9046 62.8604 89.5696 63.7764 89.5696 64.918C89.5696 66.0596 89.9046 66.9756 90.5677 67.666C91.2308 68.3633 92.1058 68.7119 93.1927 68.7119C94.1907 68.7119 94.9974 68.4795 95.6195 68.0215C96.2415 67.5635 96.5491 66.9688 96.5491 66.2305H94.9017C94.9017 67.0508 94.3958 67.4199 93.22 67.4199C91.9554 67.4199 91.3743 66.7637 91.2991 65.2666H96.597V64.4121ZM91.3196 64.2549C91.4495 62.9697 92.0374 62.4092 93.1927 62.4092C94.3343 62.4092 94.8538 62.9629 94.929 64.2275H92.8851L91.3196 64.2549ZM102.633 61.124C102.127 61.124 101.676 61.2949 101.272 61.6299C100.869 61.9717 100.562 62.4297 100.35 63.0107V61.3291H98.7842V68.5H100.425V64.6104C100.425 63.4004 101.156 62.6895 102.312 62.6895H103.262V61.2471C103.091 61.165 102.886 61.124 102.633 61.124ZM116.106 66.3604L115.798 67.9121L115.518 66.3604L114.342 61.3291H111.902L110.726 66.3604L110.432 67.9531L110.111 66.3604L108.812 61.3291H107.062L109.065 68.5H111.656L112.797 63.7148L113.112 62.1562L113.406 63.7148L114.547 68.5H117.07L119.073 61.3291H117.391L116.106 66.3604ZM127.385 67.3516C126.982 67.3516 126.736 67.3037 126.633 67.2012C126.53 67.1055 126.476 66.873 126.476 66.4971V64.0498C126.476 63.127 126.209 62.4023 125.676 61.8896C125.136 61.377 124.391 61.124 123.427 61.124C122.49 61.124 121.738 61.3975 121.171 61.9375C120.604 62.4844 120.317 63.209 120.317 64.1045H121.93C121.93 62.8945 122.374 62.3682 123.4 62.3682C124.425 62.3682 124.869 62.9424 124.869 64.3301V64.4258C124.589 64.5146 123.694 64.7197 122.169 65.041C121.424 65.1914 120.898 65.4238 120.59 65.7383C120.282 66.0527 120.125 66.4492 120.125 66.9346C120.125 67.4609 120.323 67.8916 120.713 68.2197C121.103 68.5479 121.629 68.7119 122.279 68.7119C123.584 68.7119 124.514 68.0625 124.924 67.0713C124.945 68.1719 125.403 68.6367 126.353 68.6367C126.715 68.6367 127.071 68.5889 127.405 68.5V67.3516H127.385ZM122.798 67.4951C122.135 67.4951 121.807 67.2354 121.8 66.7227C121.8 66.4697 121.868 66.2783 122.012 66.1484C122.155 66.0186 122.443 65.9023 122.88 65.7861C124.029 65.5127 124.692 65.3418 124.869 65.2803V65.5742C124.869 66.8594 124.063 67.4951 122.798 67.4951ZM131.896 68.7119C132.847 68.7119 133.619 68.5137 134.2 68.1035C134.781 67.7002 135.068 67.1738 135.068 66.5107C135.068 65.9023 134.85 65.4238 134.405 65.0684C133.961 64.7197 133.25 64.4531 132.259 64.2754C131.445 64.1318 130.912 63.9883 130.659 63.8379C130.399 63.6875 130.269 63.4756 130.269 63.1953C130.269 62.6006 130.755 62.2998 131.726 62.2998C132.792 62.2998 133.264 62.7031 133.264 63.6123H134.918C134.918 62.8672 134.631 62.2656 134.05 61.8076C133.469 61.3496 132.703 61.124 131.739 61.124C130.823 61.124 130.085 61.3291 129.531 61.7324C128.971 62.1426 128.69 62.6895 128.69 63.373C128.69 63.9814 128.909 64.46 129.353 64.7949C129.798 65.1367 130.502 65.3896 131.473 65.5605C132.272 65.7041 132.806 65.8545 133.065 66.0254C133.318 66.1963 133.448 66.415 133.448 66.6816C133.448 67.249 132.935 67.5361 131.91 67.5361C130.673 67.5361 130.126 67.126 130.126 66.2168H128.478C128.478 66.9619 128.793 67.5635 129.415 68.0215C130.037 68.4795 130.864 68.7119 131.896 68.7119ZM45.9512 84.7119C46.9014 84.7119 47.6738 84.5137 48.2549 84.1035C48.8359 83.7002 49.123 83.1738 49.123 82.5107C49.123 81.9023 48.9043 81.4238 48.46 81.0684C48.0156 80.7197 47.3047 80.4531 46.3135 80.2754C45.5 80.1318 44.9668 79.9883 44.7139 79.8379C44.4541 79.6875 44.3242 79.4756 44.3242 79.1953C44.3242 78.6006 44.8096 78.2998 45.7803 78.2998C46.8467 78.2998 47.3184 78.7031 47.3184 79.6123H48.9727C48.9727 78.8672 48.6855 78.2656 48.1045 77.8076C47.5234 77.3496 46.7578 77.124 45.7939 77.124C44.8779 77.124 44.1396 77.3291 43.5859 77.7324C43.0254 78.1426 42.7451 78.6895 42.7451 79.373C42.7451 79.9814 42.9639 80.46 43.4082 80.7949C43.8525 81.1367 44.5566 81.3896 45.5273 81.5605C46.3271 81.7041 46.8604 81.8545 47.1201 82.0254C47.373 82.1963 47.5029 82.415 47.5029 82.6816C47.5029 83.249 46.9902 83.5361 45.9648 83.5361C44.7275 83.5361 44.1807 83.126 44.1807 82.2168H42.5332C42.5332 82.9619 42.8477 83.5635 43.4697 84.0215C44.0918 84.4795 44.9189 84.7119 45.9512 84.7119ZM56.1159 81.4922C56.1159 82.6475 55.3913 83.3242 54.2361 83.3242C53.6413 83.3242 53.2243 83.1807 52.9851 82.9004C52.7458 82.6201 52.6296 82.1348 52.6296 81.4307V77.3291H50.989V82.0938C50.989 82.8936 51.2214 83.5293 51.6794 84.001C52.1374 84.4727 52.7458 84.7119 53.5114 84.7119C54.7351 84.7051 55.6238 84.1787 56.1843 83.126V84.5H57.7634V77.3291H56.1159V81.4922ZM65.2075 82.0254C65.2075 82.9893 64.7221 83.4062 63.5668 83.4062C62.227 83.4062 61.6459 82.6475 61.6459 80.9111C61.6459 79.1748 62.227 78.4229 63.5668 78.4229C64.7084 78.4229 65.1596 78.874 65.1596 79.9609H66.8139C66.8139 79.1133 66.52 78.4297 65.9252 77.9033C65.3305 77.3838 64.5444 77.124 63.5668 77.124C62.4731 77.124 61.5912 77.4727 60.9282 78.1631C60.2651 78.8604 59.9301 79.7764 59.9301 80.918C59.9301 82.0596 60.2651 82.9756 60.9282 83.666C61.5912 84.3633 62.4731 84.7119 63.5668 84.7119C64.558 84.7119 65.351 84.4658 65.9526 83.9668C66.5541 83.4746 66.8549 82.8252 66.8549 82.0254H65.2075ZM73.8273 82.0254C73.8273 82.9893 73.342 83.4062 72.1867 83.4062C70.8468 83.4062 70.2658 82.6475 70.2658 80.9111C70.2658 79.1748 70.8468 78.4229 72.1867 78.4229C73.3283 78.4229 73.7795 78.874 73.7795 79.9609H75.4338C75.4338 79.1133 75.1398 78.4297 74.5451 77.9033C73.9504 77.3838 73.1642 77.124 72.1867 77.124C71.0929 77.124 70.2111 77.4727 69.548 78.1631C68.8849 78.8604 68.55 79.7764 68.55 80.918C68.55 82.0596 68.8849 82.9756 69.548 83.666C70.2111 84.3633 71.0929 84.7119 72.1867 84.7119C73.1779 84.7119 73.9709 84.4658 74.5724 83.9668C75.174 83.4746 75.4748 82.8252 75.4748 82.0254H73.8273ZM84.1971 80.4121C84.1971 79.4209 83.8827 78.6279 83.2606 78.0264C82.6317 77.4248 81.8114 77.124 80.7929 77.124C79.7059 77.124 78.8309 77.4727 78.1679 78.1631C77.5048 78.8604 77.1698 79.7764 77.1698 80.918C77.1698 82.0596 77.5048 82.9756 78.1679 83.666C78.8309 84.3633 79.7059 84.7119 80.7929 84.7119C81.7909 84.7119 82.5975 84.4795 83.2196 84.0215C83.8417 83.5635 84.1493 82.9688 84.1493 82.2305H82.5018C82.5018 83.0508 81.996 83.4199 80.8202 83.4199C79.5555 83.4199 78.9745 82.7637 78.8993 81.2666H84.1971V80.4121ZM78.9198 80.2549C79.0497 78.9697 79.6376 78.4092 80.7929 78.4092C81.9345 78.4092 82.454 78.9629 82.5292 80.2275H80.4852L78.9198 80.2549ZM89.1734 84.7119C90.1236 84.7119 90.8961 84.5137 91.4771 84.1035C92.0582 83.7002 92.3453 83.1738 92.3453 82.5107C92.3453 81.9023 92.1266 81.4238 91.6822 81.0684C91.2379 80.7197 90.527 80.4531 89.5357 80.2754C88.7223 80.1318 88.1891 79.9883 87.9361 79.8379C87.6764 79.6875 87.5465 79.4756 87.5465 79.1953C87.5465 78.6006 88.0318 78.2998 89.0025 78.2998C90.0689 78.2998 90.5406 78.7031 90.5406 79.6123H92.1949C92.1949 78.8672 91.9078 78.2656 91.3268 77.8076C90.7457 77.3496 89.9801 77.124 89.0162 77.124C88.1002 77.124 87.3619 77.3291 86.8082 77.7324C86.2477 78.1426 85.9674 78.6895 85.9674 79.373C85.9674 79.9814 86.1861 80.46 86.6305 80.7949C87.0748 81.1367 87.7789 81.3896 88.7496 81.5605C89.5494 81.7041 90.0826 81.8545 90.3424 82.0254C90.5953 82.1963 90.7252 82.415 90.7252 82.6816C90.7252 83.249 90.2125 83.5361 89.1871 83.5361C87.9498 83.5361 87.4029 83.126 87.4029 82.2168H85.7555C85.7555 82.9619 86.0699 83.5635 86.692 84.0215C87.3141 84.4795 88.1412 84.7119 89.1734 84.7119ZM97.1234 84.7119C98.0736 84.7119 98.846 84.5137 99.4271 84.1035C100.008 83.7002 100.295 83.1738 100.295 82.5107C100.295 81.9023 100.076 81.4238 99.6321 81.0684C99.1878 80.7197 98.4769 80.4531 97.4857 80.2754C96.6722 80.1318 96.139 79.9883 95.8861 79.8379C95.6263 79.6875 95.4964 79.4756 95.4964 79.1953C95.4964 78.6006 95.9818 78.2998 96.9525 78.2998C98.0189 78.2998 98.4905 78.7031 98.4905 79.6123H100.145C100.145 78.8672 99.8577 78.2656 99.2767 77.8076C98.6956 77.3496 97.93 77.124 96.9661 77.124C96.0501 77.124 95.3118 77.3291 94.7581 77.7324C94.1976 78.1426 93.9173 78.6895 93.9173 79.373C93.9173 79.9814 94.1361 80.46 94.5804 80.7949C95.0247 81.1367 95.7288 81.3896 96.6995 81.5605C97.4993 81.7041 98.0325 81.8545 98.2923 82.0254C98.5452 82.1963 98.6751 82.415 98.6751 82.6816C98.6751 83.249 98.1624 83.5361 97.137 83.5361C95.8997 83.5361 95.3529 83.126 95.3529 82.2168H93.7054C93.7054 82.9619 94.0198 83.5635 94.6419 84.0215C95.264 84.4795 96.0911 84.7119 97.1234 84.7119ZM107.069 75.0938V73.8906C106.529 73.8018 105.928 73.7607 105.265 73.7607C104.499 73.7607 103.884 73.9795 103.419 74.417C102.947 74.8545 102.715 75.4355 102.715 76.1533V77.3291H101.293V78.6211H102.715V84.5H104.356V78.6211H106.974V77.3291H104.356V76.3105C104.356 75.8525 104.438 75.5381 104.595 75.3604C104.752 75.1826 105.039 75.0938 105.449 75.0938H107.069ZM113.461 81.4922C113.461 82.6475 112.736 83.3242 111.581 83.3242C110.986 83.3242 110.569 83.1807 110.33 82.9004C110.091 82.6201 109.974 82.1348 109.974 81.4307V77.3291H108.334V82.0938C108.334 82.8936 108.566 83.5293 109.024 84.001C109.482 84.4727 110.091 84.7119 110.856 84.7119C112.08 84.7051 112.969 84.1787 113.529 83.126V84.5H115.108V77.3291H113.461V81.4922ZM120.139 83.3105C119.538 83.3105 119.332 83.0645 119.332 82.333V73.9043H117.692V82.5381C117.692 83.1738 117.876 83.6865 118.252 84.0625C118.628 84.4453 119.114 84.6367 119.722 84.6367C120.057 84.6367 120.372 84.5889 120.672 84.5V83.3105H120.139ZM122.737 74.6699V77.0078L123.03 81.3896H124.083L124.391 77.0078V74.6699H122.737ZM122.566 84.5H124.555V82.5381H122.566V84.5Z" fill="black"/>
<path d="M42.1982 58.6699V60.126H45.6846V68.5H47.4346V60.126H50.9209V58.6699H42.1982ZM56.3415 61.124C55.8357 61.124 55.3845 61.2949 54.9812 61.6299C54.5779 61.9717 54.2702 62.4297 54.0583 63.0107V61.3291H52.4929V68.5H54.1335V64.6104C54.1335 63.4004 54.865 62.6895 56.0202 62.6895H56.9704V61.2471C56.7995 61.165 56.5945 61.124 56.3415 61.124ZM65.1391 67.3516C64.7358 67.3516 64.4897 67.3037 64.3871 67.2012C64.2846 67.1055 64.2299 66.873 64.2299 66.4971V64.0498C64.2299 63.127 63.9633 62.4023 63.4301 61.8896C62.8901 61.377 62.145 61.124 61.1811 61.124C60.2446 61.124 59.4926 61.3975 58.9252 61.9375C58.3579 62.4844 58.0707 63.209 58.0707 64.1045H59.684C59.684 62.8945 60.1284 62.3682 61.1538 62.3682C62.1791 62.3682 62.6235 62.9424 62.6235 64.3301V64.4258C62.3432 64.5146 61.4477 64.7197 59.9233 65.041C59.1782 65.1914 58.6518 65.4238 58.3442 65.7383C58.0366 66.0527 57.8793 66.4492 57.8793 66.9346C57.8793 67.4609 58.0776 67.8916 58.4672 68.2197C58.8569 68.5479 59.3832 68.7119 60.0327 68.7119C61.3383 68.7119 62.268 68.0625 62.6782 67.0713C62.6987 68.1719 63.1567 68.6367 64.1069 68.6367C64.4692 68.6367 64.8246 68.5889 65.1596 68.5V67.3516H65.1391ZM60.5522 67.4951C59.8891 67.4951 59.561 67.2354 59.5541 66.7227C59.5541 66.4697 59.6225 66.2783 59.7661 66.1484C59.9096 66.0186 60.1967 65.9023 60.6342 65.7861C61.7827 65.5127 62.4457 65.3418 62.6235 65.2803V65.5742C62.6235 66.8594 61.8168 67.4951 60.5522 67.4951ZM71.1066 61.124C69.9035 61.124 69.0148 61.6914 68.4406 62.833V61.3291H66.8615V68.5H68.5021V64.4531C68.5021 63.8447 68.6798 63.373 69.0421 63.0244C69.3976 62.6758 69.883 62.5049 70.4982 62.5049C71.0998 62.5049 71.5168 62.6416 71.756 62.9219C71.9953 63.2021 72.1115 63.6943 72.1115 64.3984V68.5H73.7658V63.7422C73.7658 62.9424 73.5265 62.2998 73.048 61.8281C72.5627 61.3564 71.9201 61.124 71.1066 61.124ZM79.0907 68.7119C80.0409 68.7119 80.8134 68.5137 81.3944 68.1035C81.9755 67.7002 82.2626 67.1738 82.2626 66.5107C82.2626 65.9023 82.0438 65.4238 81.5995 65.0684C81.1552 64.7197 80.4442 64.4531 79.453 64.2754C78.6395 64.1318 78.1063 63.9883 77.8534 63.8379C77.5936 63.6875 77.4637 63.4756 77.4637 63.1953C77.4637 62.6006 77.9491 62.2998 78.9198 62.2998C79.9862 62.2998 80.4579 62.7031 80.4579 63.6123H82.1122C82.1122 62.8672 81.8251 62.2656 81.244 61.8076C80.663 61.3496 79.8973 61.124 78.9335 61.124C78.0175 61.124 77.2792 61.3291 76.7255 61.7324C76.1649 62.1426 75.8846 62.6895 75.8846 63.373C75.8846 63.9814 76.1034 64.46 76.5477 64.7949C76.9921 65.1367 77.6962 65.3896 78.6669 65.5605C79.4667 65.7041 79.9999 65.8545 80.2596 66.0254C80.5126 66.1963 80.6425 66.415 80.6425 66.6816C80.6425 67.249 80.1298 67.5361 79.1044 67.5361C77.8671 67.5361 77.3202 67.126 77.3202 66.2168H75.6727C75.6727 66.9619 75.9872 67.5635 76.6093 68.0215C77.2313 68.4795 78.0585 68.7119 79.0907 68.7119ZM89.0367 59.0938V57.8906C88.4967 57.8018 87.8951 57.7607 87.232 57.7607C86.4664 57.7607 85.8512 57.9795 85.3863 58.417C84.9146 58.8545 84.6822 59.4355 84.6822 60.1533V61.3291H83.2604V62.6211H84.6822V68.5H86.3229V62.6211H88.941V61.3291H86.3229V60.3105C86.3229 59.8525 86.4049 59.5381 86.5621 59.3604C86.7193 59.1826 87.0064 59.0938 87.4166 59.0938H89.0367ZM96.597 64.4121C96.597 63.4209 96.2825 62.6279 95.6605 62.0264C95.0316 61.4248 94.2113 61.124 93.1927 61.124C92.1058 61.124 91.2308 61.4727 90.5677 62.1631C89.9046 62.8604 89.5696 63.7764 89.5696 64.918C89.5696 66.0596 89.9046 66.9756 90.5677 67.666C91.2308 68.3633 92.1058 68.7119 93.1927 68.7119C94.1907 68.7119 94.9974 68.4795 95.6195 68.0215C96.2415 67.5635 96.5491 66.9688 96.5491 66.2305H94.9017C94.9017 67.0508 94.3958 67.4199 93.22 67.4199C91.9554 67.4199 91.3743 66.7637 91.2991 65.2666H96.597V64.4121ZM91.3196 64.2549C91.4495 62.9697 92.0374 62.4092 93.1927 62.4092C94.3343 62.4092 94.8538 62.9629 94.929 64.2275H92.8851L91.3196 64.2549ZM102.633 61.124C102.127 61.124 101.676 61.2949 101.272 61.6299C100.869 61.9717 100.562 62.4297 100.35 63.0107V61.3291H98.7842V68.5H100.425V64.6104C100.425 63.4004 101.156 62.6895 102.312 62.6895H103.262V61.2471C103.091 61.165 102.886 61.124 102.633 61.124ZM116.106 66.3604L115.798 67.9121L115.518 66.3604L114.342 61.3291H111.902L110.726 66.3604L110.432 67.9531L110.111 66.3604L108.812 61.3291H107.062L109.065 68.5H111.656L112.797 63.7148L113.112 62.1562L113.406 63.7148L114.547 68.5H117.07L119.073 61.3291H117.391L116.106 66.3604ZM127.385 67.3516C126.982 67.3516 126.736 67.3037 126.633 67.2012C126.53 67.1055 126.476 66.873 126.476 66.4971V64.0498C126.476 63.127 126.209 62.4023 125.676 61.8896C125.136 61.377 124.391 61.124 123.427 61.124C122.49 61.124 121.738 61.3975 121.171 61.9375C120.604 62.4844 120.317 63.209 120.317 64.1045H121.93C121.93 62.8945 122.374 62.3682 123.4 62.3682C124.425 62.3682 124.869 62.9424 124.869 64.3301V64.4258C124.589 64.5146 123.694 64.7197 122.169 65.041C121.424 65.1914 120.898 65.4238 120.59 65.7383C120.282 66.0527 120.125 66.4492 120.125 66.9346C120.125 67.4609 120.323 67.8916 120.713 68.2197C121.103 68.5479 121.629 68.7119 122.279 68.7119C123.584 68.7119 124.514 68.0625 124.924 67.0713C124.945 68.1719 125.403 68.6367 126.353 68.6367C126.715 68.6367 127.071 68.5889 127.405 68.5V67.3516H127.385ZM122.798 67.4951C122.135 67.4951 121.807 67.2354 121.8 66.7227C121.8 66.4697 121.868 66.2783 122.012 66.1484C122.155 66.0186 122.443 65.9023 122.88 65.7861C124.029 65.5127 124.692 65.3418 124.869 65.2803V65.5742C124.869 66.8594 124.063 67.4951 122.798 67.4951ZM131.896 68.7119C132.847 68.7119 133.619 68.5137 134.2 68.1035C134.781 67.7002 135.068 67.1738 135.068 66.5107C135.068 65.9023 134.85 65.4238 134.405 65.0684C133.961 64.7197 133.25 64.4531 132.259 64.2754C131.445 64.1318 130.912 63.9883 130.659 63.8379C130.399 63.6875 130.269 63.4756 130.269 63.1953C130.269 62.6006 130.755 62.2998 131.726 62.2998C132.792 62.2998 133.264 62.7031 133.264 63.6123H134.918C134.918 62.8672 134.631 62.2656 134.05 61.8076C133.469 61.3496 132.703 61.124 131.739 61.124C130.823 61.124 130.085 61.3291 129.531 61.7324C128.971 62.1426 128.69 62.6895 128.69 63.373C128.69 63.9814 128.909 64.46 129.353 64.7949C129.798 65.1367 130.502 65.3896 131.473 65.5605C132.272 65.7041 132.806 65.8545 133.065 66.0254C133.318 66.1963 133.448 66.415 133.448 66.6816C133.448 67.249 132.935 67.5361 131.91 67.5361C130.673 67.5361 130.126 67.126 130.126 66.2168H128.478C128.478 66.9619 128.793 67.5635 129.415 68.0215C130.037 68.4795 130.864 68.7119 131.896 68.7119ZM45.9512 84.7119C46.9014 84.7119 47.6738 84.5137 48.2549 84.1035C48.8359 83.7002 49.123 83.1738 49.123 82.5107C49.123 81.9023 48.9043 81.4238 48.46 81.0684C48.0156 80.7197 47.3047 80.4531 46.3135 80.2754C45.5 80.1318 44.9668 79.9883 44.7139 79.8379C44.4541 79.6875 44.3242 79.4756 44.3242 79.1953C44.3242 78.6006 44.8096 78.2998 45.7803 78.2998C46.8467 78.2998 47.3184 78.7031 47.3184 79.6123H48.9727C48.9727 78.8672 48.6855 78.2656 48.1045 77.8076C47.5234 77.3496 46.7578 77.124 45.7939 77.124C44.8779 77.124 44.1396 77.3291 43.5859 77.7324C43.0254 78.1426 42.7451 78.6895 42.7451 79.373C42.7451 79.9814 42.9639 80.46 43.4082 80.7949C43.8525 81.1367 44.5566 81.3896 45.5273 81.5605C46.3271 81.7041 46.8604 81.8545 47.1201 82.0254C47.373 82.1963 47.5029 82.415 47.5029 82.6816C47.5029 83.249 46.9902 83.5361 45.9648 83.5361C44.7275 83.5361 44.1807 83.126 44.1807 82.2168H42.5332C42.5332 82.9619 42.8477 83.5635 43.4697 84.0215C44.0918 84.4795 44.9189 84.7119 45.9512 84.7119ZM56.1159 81.4922C56.1159 82.6475 55.3913 83.3242 54.2361 83.3242C53.6413 83.3242 53.2243 83.1807 52.9851 82.9004C52.7458 82.6201 52.6296 82.1348 52.6296 81.4307V77.3291H50.989V82.0938C50.989 82.8936 51.2214 83.5293 51.6794 84.001C52.1374 84.4727 52.7458 84.7119 53.5114 84.7119C54.7351 84.7051 55.6238 84.1787 56.1843 83.126V84.5H57.7634V77.3291H56.1159V81.4922ZM65.2075 82.0254C65.2075 82.9893 64.7221 83.4062 63.5668 83.4062C62.227 83.4062 61.6459 82.6475 61.6459 80.9111C61.6459 79.1748 62.227 78.4229 63.5668 78.4229C64.7084 78.4229 65.1596 78.874 65.1596 79.9609H66.8139C66.8139 79.1133 66.52 78.4297 65.9252 77.9033C65.3305 77.3838 64.5444 77.124 63.5668 77.124C62.4731 77.124 61.5912 77.4727 60.9282 78.1631C60.2651 78.8604 59.9301 79.7764 59.9301 80.918C59.9301 82.0596 60.2651 82.9756 60.9282 83.666C61.5912 84.3633 62.4731 84.7119 63.5668 84.7119C64.558 84.7119 65.351 84.4658 65.9526 83.9668C66.5541 83.4746 66.8549 82.8252 66.8549 82.0254H65.2075ZM73.8273 82.0254C73.8273 82.9893 73.342 83.4062 72.1867 83.4062C70.8468 83.4062 70.2658 82.6475 70.2658 80.9111C70.2658 79.1748 70.8468 78.4229 72.1867 78.4229C73.3283 78.4229 73.7795 78.874 73.7795 79.9609H75.4338C75.4338 79.1133 75.1398 78.4297 74.5451 77.9033C73.9504 77.3838 73.1642 77.124 72.1867 77.124C71.0929 77.124 70.2111 77.4727 69.548 78.1631C68.8849 78.8604 68.55 79.7764 68.55 80.918C68.55 82.0596 68.8849 82.9756 69.548 83.666C70.2111 84.3633 71.0929 84.7119 72.1867 84.7119C73.1779 84.7119 73.9709 84.4658 74.5724 83.9668C75.174 83.4746 75.4748 82.8252 75.4748 82.0254H73.8273ZM84.1971 80.4121C84.1971 79.4209 83.8827 78.6279 83.2606 78.0264C82.6317 77.4248 81.8114 77.124 80.7929 77.124C79.7059 77.124 78.8309 77.4727 78.1679 78.1631C77.5048 78.8604 77.1698 79.7764 77.1698 80.918C77.1698 82.0596 77.5048 82.9756 78.1679 83.666C78.8309 84.3633 79.7059 84.7119 80.7929 84.7119C81.7909 84.7119 82.5975 84.4795 83.2196 84.0215C83.8417 83.5635 84.1493 82.9688 84.1493 82.2305H82.5018C82.5018 83.0508 81.996 83.4199 80.8202 83.4199C79.5555 83.4199 78.9745 82.7637 78.8993 81.2666H84.1971V80.4121ZM78.9198 80.2549C79.0497 78.9697 79.6376 78.4092 80.7929 78.4092C81.9345 78.4092 82.454 78.9629 82.5292 80.2275H80.4852L78.9198 80.2549ZM89.1734 84.7119C90.1236 84.7119 90.8961 84.5137 91.4771 84.1035C92.0582 83.7002 92.3453 83.1738 92.3453 82.5107C92.3453 81.9023 92.1266 81.4238 91.6822 81.0684C91.2379 80.7197 90.527 80.4531 89.5357 80.2754C88.7223 80.1318 88.1891 79.9883 87.9361 79.8379C87.6764 79.6875 87.5465 79.4756 87.5465 79.1953C87.5465 78.6006 88.0318 78.2998 89.0025 78.2998C90.0689 78.2998 90.5406 78.7031 90.5406 79.6123H92.1949C92.1949 78.8672 91.9078 78.2656 91.3268 77.8076C90.7457 77.3496 89.9801 77.124 89.0162 77.124C88.1002 77.124 87.3619 77.3291 86.8082 77.7324C86.2477 78.1426 85.9674 78.6895 85.9674 79.373C85.9674 79.9814 86.1861 80.46 86.6305 80.7949C87.0748 81.1367 87.7789 81.3896 88.7496 81.5605C89.5494 81.7041 90.0826 81.8545 90.3424 82.0254C90.5953 82.1963 90.7252 82.415 90.7252 82.6816C90.7252 83.249 90.2125 83.5361 89.1871 83.5361C87.9498 83.5361 87.4029 83.126 87.4029 82.2168H85.7555C85.7555 82.9619 86.0699 83.5635 86.692 84.0215C87.3141 84.4795 88.1412 84.7119 89.1734 84.7119ZM97.1234 84.7119C98.0736 84.7119 98.846 84.5137 99.4271 84.1035C100.008 83.7002 100.295 83.1738 100.295 82.5107C100.295 81.9023 100.076 81.4238 99.6321 81.0684C99.1878 80.7197 98.4769 80.4531 97.4857 80.2754C96.6722 80.1318 96.139 79.9883 95.8861 79.8379C95.6263 79.6875 95.4964 79.4756 95.4964 79.1953C95.4964 78.6006 95.9818 78.2998 96.9525 78.2998C98.0189 78.2998 98.4905 78.7031 98.4905 79.6123H100.145C100.145 78.8672 99.8577 78.2656 99.2767 77.8076C98.6956 77.3496 97.93 77.124 96.9661 77.124C96.0501 77.124 95.3118 77.3291 94.7581 77.7324C94.1976 78.1426 93.9173 78.6895 93.9173 79.373C93.9173 79.9814 94.1361 80.46 94.5804 80.7949C95.0247 81.1367 95.7288 81.3896 96.6995 81.5605C97.4993 81.7041 98.0325 81.8545 98.2923 82.0254C98.5452 82.1963 98.6751 82.415 98.6751 82.6816C98.6751 83.249 98.1624 83.5361 97.137 83.5361C95.8997 83.5361 95.3529 83.126 95.3529 82.2168H93.7054C93.7054 82.9619 94.0198 83.5635 94.6419 84.0215C95.264 84.4795 96.0911 84.7119 97.1234 84.7119ZM107.069 75.0938V73.8906C106.529 73.8018 105.928 73.7607 105.265 73.7607C104.499 73.7607 103.884 73.9795 103.419 74.417C102.947 74.8545 102.715 75.4355 102.715 76.1533V77.3291H101.293V78.6211H102.715V84.5H104.356V78.6211H106.974V77.3291H104.356V76.3105C104.356 75.8525 104.438 75.5381 104.595 75.3604C104.752 75.1826 105.039 75.0938 105.449 75.0938H107.069ZM113.461 81.4922C113.461 82.6475 112.736 83.3242 111.581 83.3242C110.986 83.3242 110.569 83.1807 110.33 82.9004C110.091 82.6201 109.974 82.1348 109.974 81.4307V77.3291H108.334V82.0938C108.334 82.8936 108.566 83.5293 109.024 84.001C109.482 84.4727 110.091 84.7119 110.856 84.7119C112.08 84.7051 112.969 84.1787 113.529 83.126V84.5H115.108V77.3291H113.461V81.4922ZM120.139 83.3105C119.538 83.3105 119.332 83.0645 119.332 82.333V73.9043H117.692V82.5381C117.692 83.1738 117.876 83.6865 118.252 84.0625C118.628 84.4453 119.114 84.6367 119.722 84.6367C120.057 84.6367 120.372 84.5889 120.672 84.5V83.3105H120.139ZM122.737 74.6699V77.0078L123.03 81.3896H124.083L124.391 77.0078V74.6699H122.737ZM122.566 84.5H124.555V82.5381H122.566V84.5Z" fill="black"/>
<rect width="137" height="117" transform="translate(165 14)" fill="#663AF5"/>
<path d="M204.216 74.0107C204.216 73 203.864 72.209 203.161 71.6201C202.449 71.04 201.271 70.5918 199.61 70.2842V66.54C201.078 66.751 201.702 67.5244 201.702 69.0361H203.97C203.97 67.8496 203.574 66.8652 202.792 66.0742C202.001 65.2832 200.938 64.8086 199.61 64.6504V63.4199H197.958V64.6328C196.631 64.7471 195.576 65.1514 194.794 65.8457C194.012 66.54 193.616 67.4102 193.616 68.4648C193.616 69.4229 193.959 70.1787 194.645 70.7324C195.33 71.2861 196.438 71.7168 197.958 72.0244V75.8477C196.297 75.6719 195.559 74.916 195.559 73.4482H193.291C193.291 74.626 193.713 75.6016 194.565 76.3662C195.409 77.1309 196.543 77.5879 197.958 77.7373V78.9414H199.61V77.7373C201.017 77.623 202.133 77.2363 202.968 76.5596C203.803 75.8916 204.216 75.0391 204.216 74.0107ZM195.849 68.1748C195.849 67.1904 196.552 66.6367 197.958 66.5225V69.9062C197.114 69.6777 196.552 69.4316 196.271 69.1768C195.989 68.9219 195.849 68.5879 195.849 68.1748ZM199.61 72.3672C200.568 72.6221 201.21 72.8857 201.518 73.1758C201.825 73.4658 201.983 73.8086 201.983 74.2217C201.983 75.1973 201.192 75.751 199.61 75.8652V72.3672ZM207.749 75.6807L208.882 75.1797L213.189 72.5869C215.079 71.5059 216.028 70.1523 216.028 68.5352C216.028 67.3486 215.606 66.3906 214.771 65.6699C213.936 64.958 212.811 64.5977 211.405 64.5977C209.99 64.5977 208.847 65.0459 207.986 65.9424C207.125 66.8477 206.694 68.0342 206.694 69.5107H208.962C208.962 67.3662 209.709 66.4697 211.405 66.4697C213.101 66.4697 213.839 67.1025 213.839 68.5703C213.839 69.1943 213.708 69.6953 213.444 70.0557C213.172 70.4248 212.618 70.8643 211.783 71.3828L206.615 74.4062V77.5H216.388V75.6104H210.148L207.749 75.6807ZM226.337 73.0352V64.8613H222.628L218.093 71.2158V74.8193H224.105V77.5H226.337V74.8193H228.93V73.0352H226.337ZM218.919 73.0879L224.175 65.6699L224.105 68.3242V73.0352H220.791L218.919 73.0879ZM240.215 75.9619C241.252 74.7578 241.77 73.1582 241.77 71.1807C241.77 69.2031 241.252 67.6035 240.215 66.3994C239.169 65.1953 237.807 64.5977 236.119 64.5977C234.423 64.5977 233.06 65.1953 232.023 66.3994C230.986 67.6035 230.468 69.2031 230.468 71.1807C230.468 73.1582 230.986 74.7578 232.023 75.9619C233.06 77.166 234.423 77.7725 236.119 77.7725C237.807 77.7725 239.169 77.166 240.215 75.9619ZM233.561 74.7051C233.034 73.9756 232.77 72.8066 232.77 71.1807C232.77 69.5635 233.034 68.3857 233.561 67.6562C234.089 66.9268 234.941 66.5576 236.119 66.5576C237.288 66.5576 238.141 66.9268 238.677 67.6562C239.204 68.3857 239.468 69.5635 239.468 71.1807C239.468 72.8066 239.204 73.9756 238.677 74.7051C238.141 75.4346 237.288 75.8037 236.119 75.8037C234.941 75.8037 234.089 75.4346 233.561 74.7051ZM243.449 77.5H246.006V74.9775H243.449V77.5ZM257.493 75.9619C258.53 74.7578 259.049 73.1582 259.049 71.1807C259.049 69.2031 258.53 67.6035 257.493 66.3994C256.447 65.1953 255.085 64.5977 253.398 64.5977C251.701 64.5977 250.339 65.1953 249.302 66.3994C248.265 67.6035 247.746 69.2031 247.746 71.1807C247.746 73.1582 248.265 74.7578 249.302 75.9619C250.339 77.166 251.701 77.7725 253.398 77.7725C255.085 77.7725 256.447 77.166 257.493 75.9619ZM250.84 74.7051C250.313 73.9756 250.049 72.8066 250.049 71.1807C250.049 69.5635 250.313 68.3857 250.84 67.6562C251.367 66.9268 252.22 66.5576 253.398 66.5576C254.567 66.5576 255.419 66.9268 255.955 67.6562C256.483 68.3857 256.746 69.5635 256.746 71.1807C256.746 72.8066 256.483 73.9756 255.955 74.7051C255.419 75.4346 254.567 75.8037 253.398 75.8037C252.22 75.8037 251.367 75.4346 250.84 74.7051ZM271.107 75.9619C272.144 74.7578 272.663 73.1582 272.663 71.1807C272.663 69.2031 272.144 67.6035 271.107 66.3994C270.061 65.1953 268.699 64.5977 267.012 64.5977C265.315 64.5977 263.953 65.1953 262.916 66.3994C261.879 67.6035 261.36 69.2031 261.36 71.1807C261.36 73.1582 261.879 74.7578 262.916 75.9619C263.953 77.166 265.315 77.7725 267.012 77.7725C268.699 77.7725 270.061 77.166 271.107 75.9619ZM264.454 74.7051C263.927 73.9756 263.663 72.8066 263.663 71.1807C263.663 69.5635 263.927 68.3857 264.454 67.6562C264.981 66.9268 265.834 66.5576 267.012 66.5576C268.181 66.5576 269.033 66.9268 269.569 67.6562C270.097 68.3857 270.36 69.5635 270.36 71.1807C270.36 72.8066 270.097 73.9756 269.569 74.7051C269.033 75.4346 268.181 75.8037 267.012 75.8037C265.834 75.8037 264.981 75.4346 264.454 74.7051Z" fill="white"/>
<circle cx="165" cy="72.5" r="14.4109" fill="#F3EA77"/>
<g clip-path="url(#clip0_652_2478)">
<path d="M163.614 74.6976L169.983 68.3284L170.963 69.308L163.614 76.6569L159.205 72.2477L160.185 71.2681L163.614 74.6976Z" fill="#0A1B2B"/>
</g>
<path d="M165 79.8164C160.959 79.8164 157.684 76.5407 157.684 72.5H155.688C155.688 77.6427 159.857 81.8117 165 81.8117V79.8164ZM172.316 72.5C172.316 76.5407 169.041 79.8164 165 79.8164V81.8117C170.143 81.8117 174.312 77.6427 174.312 72.5H172.316ZM165 65.1837C169.041 65.1837 172.316 68.4593 172.316 72.5H174.312C174.312 67.3573 170.143 63.1884 165 63.1884V65.1837ZM165 63.1884C159.857 63.1884 155.688 67.3573 155.688 72.5H157.684C157.684 68.4593 160.959 65.1837 165 65.1837V63.1884Z" fill="#0A1B2B"/>
</g>
<defs>
<filter id="filter0_d_652_2478" x="0" y="0" width="320" height="153" filterUnits="userSpaceOnUse" color-interpolation-filters="sRGB">
<feFlood flood-opacity="0" result="BackgroundImageFix"/>
<feColorMatrix in="SourceAlpha" type="matrix" values="0 0 0 0 0 0 0 0 0 0 0 0 0 0 0 0 0 0 127 0" result="hardAlpha"/>
<feMorphology radius="12" operator="erode" in="SourceAlpha" result="effect1_dropShadow_652_2478"/>
<feOffset dy="4"/>
<feGaussianBlur stdDeviation="15"/>
<feComposite in2="hardAlpha" operator="out"/>
<feColorMatrix type="matrix" values="0 0 0 0 0.0705882 0 0 0 0 0.0823529 0 0 0 0 0.203922 0 0 0 0.14 0"/>
<feBlend mode="normal" in2="BackgroundImageFix" result="effect1_dropShadow_652_2478"/>
<feBlend mode="normal" in="SourceGraphic" in2="effect1_dropShadow_652_2478" result="shape"/>
</filter>
<clipPath id="clip0_652_2478">
<path d="M156.686 72.5C156.686 67.9083 160.408 64.186 165 64.186V64.186C169.592 64.186 173.314 67.9083 173.314 72.5V72.5C173.314 77.0917 169.592 80.814 165 80.814V80.814C160.408 80.814 156.686 77.0917 156.686 72.5V72.5Z" fill="white"/>
</clipPath>
</defs>
</svg>
