<svg width="364" height="228" viewBox="0 0 364 228" fill="none" xmlns="http://www.w3.org/2000/svg">
<path d="M-8.63505 131.89L-12.6911 131.197V227.91H376.691V1L372.635 7.91221L372.634 7.91421C368.577 14.8271 360.466 28.6502 352.355 43.0314C344.243 57.4139 336.13 72.3546 328.018 70.2849C319.906 68.2152 311.794 49.135 303.682 41.3301C295.57 33.5253 287.458 36.9957 279.346 42.4704C271.233 47.945 263.121 55.4239 255.009 62.9752L254.763 63.2044C246.733 70.68 238.703 78.1556 230.673 78.6926C222.561 79.2352 214.449 72.6966 206.336 69.0367C198.224 65.3767 190.112 64.5954 182 79.4528C173.888 94.3103 165.776 124.807 157.664 127.332C149.551 129.857 141.439 104.411 133.327 103.914C125.215 103.417 117.103 127.868 108.991 131.784C100.879 135.7 92.7666 119.081 84.6544 114.933C76.5423 110.784 68.4302 119.107 60.3181 126.399C52.2059 133.69 44.0938 139.952 35.9817 141.273C27.8695 142.594 19.7574 138.975 11.6453 136.472C3.53326 133.969 -4.57876 132.583 -8.63488 131.89L-8.63505 131.89Z" fill="url(#paint0_linear_652_2475)"/>
<path d="M-12.6911 131.197L-8.63505 131.89C-4.57899 132.583 3.53314 133.969 11.6453 136.472C19.7574 138.975 27.8695 142.594 35.9817 141.273C44.0938 139.952 52.2059 133.69 60.3181 126.399C68.4302 119.107 76.5423 110.784 84.6544 114.933C92.7666 119.081 100.879 135.7 108.991 131.784C117.103 127.868 125.215 103.417 133.327 103.914C141.439 104.411 149.551 129.857 157.664 127.332C165.776 124.807 173.888 94.3103 182 79.4528C190.112 64.5954 198.224 65.3767 206.336 69.0366C214.449 72.6966 222.561 79.2352 230.673 78.6926C238.785 78.1501 246.897 70.5264 255.009 62.9752C263.121 55.4239 271.233 47.945 279.346 42.4704C287.458 36.9957 295.57 33.5253 303.682 41.3301C311.794 49.135 319.906 68.2152 328.018 70.2849C336.13 72.3546 344.243 57.4139 352.355 43.0314C360.467 28.6488 368.579 14.8244 372.635 7.91221L376.691 1" stroke="#663AF5" stroke-width="2"/>
<circle cx="90.6955" cy="119.711" r="3" fill="white" stroke="#663AF5" stroke-width="2"/>
<circle cx="142.951" cy="111.711" r="3" fill="white" stroke="#663AF5" stroke-width="2"/>
<circle cx="195.537" cy="65.2771" r="5" fill="white" stroke="#663AF5" stroke-width="2"/>
<g filter="url(#filter0_d_652_2475)">
<rect x="224" y="115.711" width="102" height="40.7056" rx="4" fill="white"/>
<path d="M239.583 138.497L242.712 135.368L243.537 136.193L239 140.73L234.463 136.193L235.288 135.368L238.417 138.497V131.397H239.583V138.497Z" fill="#101010"/>
<path d="M239 142.064C235.686 142.064 233 139.377 233 136.064H231C231 140.482 234.582 144.064 239 144.064V142.064ZM245 136.064C245 139.377 242.314 142.064 239 142.064V144.064C243.418 144.064 247 140.482 247 136.064H245ZM239 130.064C242.314 130.064 245 132.75 245 136.064H247C247 131.645 243.418 128.064 239 128.064V130.064ZM239 128.064C234.582 128.064 231 131.645 231 136.064H233C233 132.75 235.686 130.064 239 130.064V128.064Z" fill="#101010"/>
<path d="M261.384 129.303V132.711H262.728V129.243L265.98 124.311H264.432L262.044 128.019L259.704 124.311H258.156L261.384 129.303ZM266.746 131.931C267.37 132.555 268.15 132.867 269.086 132.867C270.022 132.867 270.802 132.555 271.426 131.931C272.062 131.307 272.374 130.527 272.374 129.591C272.374 128.655 272.062 127.875 271.426 127.251C270.802 126.627 270.022 126.315 269.086 126.315C268.15 126.315 267.37 126.627 266.746 127.251C266.122 127.875 265.81 128.655 265.81 129.591C265.81 130.527 266.122 131.307 266.746 131.931ZM269.086 131.619C268.522 131.619 268.054 131.427 267.67 131.043C267.298 130.647 267.106 130.167 267.106 129.591C267.106 129.015 267.298 128.535 267.67 128.151C268.054 127.755 268.522 127.563 269.086 127.563C269.65 127.563 270.13 127.755 270.502 128.151C270.886 128.535 271.078 129.015 271.078 129.591C271.078 130.167 270.886 130.647 270.502 131.043C270.13 131.427 269.65 131.619 269.086 131.619ZM273.814 130.407C273.814 131.115 274.054 131.703 274.522 132.171C274.99 132.639 275.59 132.867 276.31 132.867C277.186 132.867 277.87 132.519 278.35 131.823V132.711H279.598V126.471H278.35V130.047C278.35 130.515 278.194 130.899 277.87 131.211C277.546 131.523 277.15 131.679 276.67 131.679C276.214 131.679 275.83 131.523 275.518 131.223C275.218 130.911 275.062 130.527 275.062 130.059V126.471H273.814V130.407ZM289.187 127.899C289.007 126.927 288.167 126.315 286.883 126.315C285.527 126.315 284.555 126.939 284.555 128.175C284.555 128.991 284.975 129.495 285.947 129.831L287.339 130.299C287.843 130.479 288.095 130.719 288.095 131.019C288.095 131.487 287.591 131.775 286.919 131.775C286.163 131.775 285.671 131.439 285.563 130.947L284.387 131.127C284.567 132.195 285.467 132.867 286.895 132.867C288.287 132.867 289.295 132.219 289.295 130.983C289.295 130.131 288.827 129.579 287.759 129.183L286.355 128.703C285.959 128.559 285.755 128.355 285.755 128.079C285.755 127.659 286.199 127.407 286.787 127.407C287.447 127.407 287.879 127.683 288.011 128.103L289.187 127.899ZM291.942 135.411V132.039C292.518 132.591 293.214 132.867 294.018 132.867C294.894 132.867 295.626 132.555 296.214 131.931C296.802 131.307 297.09 130.527 297.09 129.591C297.09 128.655 296.802 127.875 296.214 127.251C295.626 126.627 294.894 126.315 294.018 126.315C293.214 126.315 292.518 126.591 291.942 127.143V126.471H290.694V135.411H291.942ZM293.874 127.563C294.414 127.563 294.87 127.755 295.242 128.151C295.614 128.535 295.794 129.015 295.794 129.591C295.794 130.167 295.614 130.647 295.242 131.043C294.87 131.427 294.414 131.619 293.874 131.619C293.334 131.619 292.89 131.427 292.518 131.043C292.146 130.647 291.966 130.167 291.966 129.591C291.966 129.015 292.146 128.535 292.518 128.151C292.89 127.755 293.334 127.563 293.874 127.563ZM304.731 130.047C304.743 129.843 304.755 129.687 304.755 129.591C304.755 128.655 304.443 127.875 303.819 127.251C303.207 126.627 302.439 126.315 301.515 126.315C300.591 126.315 299.811 126.627 299.187 127.251C298.575 127.875 298.263 128.655 298.263 129.591C298.263 130.527 298.587 131.307 299.223 131.931C299.859 132.555 300.663 132.867 301.611 132.867C302.859 132.867 303.915 132.267 304.491 131.295L303.267 130.923C302.871 131.439 302.319 131.703 301.611 131.703C300.567 131.703 299.739 131.019 299.547 130.047H304.731ZM299.559 129.051C299.787 128.127 300.567 127.479 301.479 127.479C302.451 127.479 303.243 128.127 303.471 129.051H299.559ZM306.104 132.711H307.352V129.135C307.352 128.667 307.508 128.283 307.832 127.971C308.156 127.659 308.564 127.503 309.032 127.503C309.956 127.503 310.64 128.199 310.64 129.123V132.711H311.888V128.763C311.888 128.055 311.648 127.479 311.18 127.011C310.712 126.543 310.112 126.315 309.404 126.315C308.492 126.315 307.808 126.675 307.352 127.383V126.471H306.104V132.711ZM313.009 127.563H313.957V130.803C313.957 131.343 314.149 131.799 314.533 132.171C314.917 132.531 315.385 132.711 315.949 132.711H316.861V131.511H316.045C315.565 131.511 315.205 131.127 315.205 130.635V127.563H316.861V126.471H315.205V125.235H313.957V126.471H313.009V127.563Z" fill="black"/>
<path d="M260.68 147.611H261.47V146.441C262.14 146.381 262.67 146.161 263.08 145.771C263.49 145.381 263.7 144.891 263.7 144.301C263.7 143.631 263.44 143.141 262.96 142.851C262.48 142.561 262.19 142.461 261.62 142.311L261.09 142.161C260.98 142.131 260.84 142.081 260.66 142.021C260.48 141.961 260.35 141.911 260.27 141.861C259.99 141.691 259.71 141.471 259.76 141.181C259.76 140.661 260.3 140.281 261.02 140.281C261.69 140.281 262.22 140.641 262.34 141.091L263.45 140.761C263.22 139.971 262.47 139.361 261.44 139.231V138.051H260.65V139.221C260.05 139.291 259.56 139.511 259.19 139.881C258.82 140.251 258.64 140.711 258.64 141.261C258.64 141.941 258.97 142.461 259.62 142.811C259.91 142.961 260.47 143.151 261.3 143.391C261.78 143.521 262.05 143.601 262.34 143.891C262.49 144.031 262.57 144.201 262.57 144.391C262.57 144.981 261.94 145.381 261.13 145.381C260.3 145.381 259.68 144.961 259.56 144.441L258.45 144.791C258.69 145.641 259.53 146.301 260.68 146.431V147.611ZM267.302 146.461C268.052 146.461 268.682 146.241 269.182 145.791C269.692 145.341 269.942 144.791 269.942 144.121C269.942 143.451 269.682 142.901 269.162 142.451C268.642 142.001 267.992 141.781 267.222 141.781H266.382L266.522 140.331H269.352V139.331H265.622L265.272 142.781H267.182C267.652 142.781 268.032 142.911 268.342 143.161C268.652 143.411 268.812 143.731 268.812 144.121C268.812 144.491 268.662 144.801 268.372 145.051C268.082 145.301 267.732 145.421 267.302 145.421C266.632 145.421 266.082 145.061 265.832 144.491L264.752 144.791C265.142 145.801 266.112 146.461 267.302 146.461ZM271.088 143.971C271.088 144.681 271.338 145.281 271.848 145.751C272.358 146.221 272.998 146.461 273.768 146.461C274.528 146.461 275.158 146.221 275.668 145.751C276.178 145.271 276.438 144.681 276.438 143.971V141.691C276.438 140.981 276.178 140.391 275.668 139.921C275.158 139.441 274.528 139.201 273.768 139.201C272.998 139.201 272.358 139.441 271.848 139.911C271.338 140.381 271.088 140.981 271.088 141.691V143.971ZM272.168 141.671C272.168 141.261 272.318 140.921 272.628 140.651C272.938 140.381 273.318 140.241 273.768 140.241C274.218 140.241 274.598 140.381 274.898 140.651C275.208 140.921 275.358 141.261 275.358 141.671V143.981C275.358 144.391 275.208 144.731 274.898 145.011C274.598 145.281 274.218 145.421 273.768 145.421C273.318 145.421 272.938 145.281 272.628 145.011C272.318 144.731 272.168 144.391 272.168 143.981V141.671Z" fill="#663AF5"/>
</g>
<defs>
<filter id="filter0_d_652_2475" x="212" y="105.711" width="126" height="64.7056" filterUnits="userSpaceOnUse" color-interpolation-filters="sRGB">
<feFlood flood-opacity="0" result="BackgroundImageFix"/>
<feColorMatrix in="SourceAlpha" type="matrix" values="0 0 0 0 0 0 0 0 0 0 0 0 0 0 0 0 0 0 127 0" result="hardAlpha"/>
<feOffset dy="2"/>
<feGaussianBlur stdDeviation="6"/>
<feComposite in2="hardAlpha" operator="out"/>
<feColorMatrix type="matrix" values="0 0 0 0 0.941176 0 0 0 0 0.92549 0 0 0 0 1 0 0 0 0.6 0"/>
<feBlend mode="normal" in2="BackgroundImageFix" result="effect1_dropShadow_652_2475"/>
<feBlend mode="normal" in="SourceGraphic" in2="effect1_dropShadow_652_2475" result="shape"/>
</filter>
<linearGradient id="paint0_linear_652_2475" x1="182" y1="77.4933" x2="182" y2="241.883" gradientUnits="userSpaceOnUse">
<stop stop-color="#F0ECFF"/>
<stop offset="1" stop-color="#EFECFF" stop-opacity="0"/>
</linearGradient>
</defs>
</svg>
