<svg width="64" height="64" viewBox="0 0 64 64" fill="none" xmlns="http://www.w3.org/2000/svg">
<path d="M13.3334 24C14.0406 24 14.7189 24.281 15.219 24.7811C15.7191 25.2812 16 25.9594 16 26.6667C20.1897 26.6605 24.2586 28.0701 27.5467 30.6667H33.3334C36.8854 30.6667 40.08 32.2107 42.2747 34.664L50.6667 34.6667C53.1874 34.666 55.6566 35.3798 57.7881 36.7255C59.9196 38.0711 61.626 39.9934 62.7094 42.2694C56.4027 50.592 46.192 56 34.6667 56C27.2267 56 20.9334 54.392 15.84 51.5787C15.6535 52.0935 15.3127 52.5383 14.8641 52.8523C14.4155 53.1663 13.8809 53.3343 13.3334 53.3334H5.33335C4.62611 53.3334 3.94783 53.0524 3.44774 52.5523C2.94764 52.0522 2.66669 51.3739 2.66669 50.6667V26.6667C2.66669 25.9594 2.94764 25.2812 3.44774 24.7811C3.94783 24.281 4.62611 24 5.33335 24H13.3334ZM16.0027 32L16 45.3894L16.12 45.4774C20.9067 48.8374 27.1414 50.6667 34.6667 50.6667C42.6774 50.6667 50.1307 47.584 55.56 42.32L55.9147 41.9654L55.5947 41.6987C54.3355 40.7125 52.8091 40.1272 51.2134 40.0187L50.6667 40L45.0347 39.9974C45.2294 40.856 45.3334 41.7494 45.3334 42.6667V45.3334H21.3334V40L39.44 39.9974L39.3493 39.7894C38.8383 38.7215 38.0522 37.8089 37.0718 37.1453C36.0914 36.4816 34.952 36.091 33.7707 36.0134L33.3334 36H25.52C24.2809 34.7326 22.8007 33.7258 21.1667 33.0389C19.5327 32.352 17.7779 31.9987 16.0054 32H16.0027ZM10.6667 29.3334H8.00002V48H10.6667V29.3334ZM36.3894 9.53336L37.3334 10.48L38.2774 9.53602C38.8955 8.91261 39.6307 8.41743 40.4408 8.07891C41.2508 7.74039 42.1197 7.5652 42.9977 7.56341C43.8756 7.56161 44.7452 7.73324 45.5567 8.06843C46.3681 8.40363 47.1053 8.8958 47.726 9.51668C48.3467 10.1376 48.8387 10.8749 49.1737 11.6864C49.5086 12.498 49.68 13.3677 49.678 14.2456C49.6759 15.1235 49.5005 15.9924 49.1617 16.8024C48.823 17.6123 48.3276 18.3474 47.704 18.9654L37.3334 29.3334L26.96 18.96C26.3366 18.3419 25.8414 17.6067 25.5029 16.7966C25.1644 15.9866 24.9892 15.1176 24.9874 14.2397C24.9856 13.3618 25.1572 12.4921 25.4924 11.6807C25.8276 10.8693 26.3198 10.132 26.9407 9.51134C27.5616 8.89064 28.2989 8.39868 29.1104 8.06371C29.922 7.72874 30.7917 7.55736 31.6696 7.55941C32.5475 7.56145 33.4164 7.73688 34.2264 8.07563C35.0363 8.41438 35.7714 8.90977 36.3894 9.53336ZM30.736 13.3067C30.515 13.5265 30.378 13.8168 30.3487 14.1271C30.3195 14.4374 30.3999 14.7482 30.576 15.0054L30.7307 15.1894L37.3334 21.7867L43.936 15.1894C44.1569 14.9687 44.2934 14.6776 44.3216 14.3667C44.3499 14.0558 44.2682 13.7449 44.0907 13.488L43.936 13.3014C43.7151 13.0809 43.4238 12.9449 43.1129 12.9171C42.802 12.8894 42.4912 12.9715 42.2347 13.1494L42.048 13.304L37.3307 18.0187L32.6187 13.2987L32.4374 13.1494C32.1805 12.9719 31.8696 12.8902 31.5587 12.9184C31.2478 12.9467 30.9566 13.0831 30.736 13.304V13.3067Z" fill="#663AF5"/>
</svg>
