<svg width="29" height="29" viewBox="0 0 29 29" fill="none" xmlns="http://www.w3.org/2000/svg">
<path d="M7.95977 20.4716C7.95977 24.8673 4.39573 28.4288 0 28.4288V12.5144C4.39573 12.5118 7.95977 16.0759 7.95977 20.4716Z" fill="#F6FF54"/>
<path d="M28.2959 0.135406V16.0497C23.9002 16.0497 20.3387 12.4857 20.3387 8.09257C20.3387 3.69944 23.9002 0.135406 28.2959 0.135406Z" fill="#F6FF54"/>
<path d="M28.2959 20.1431V28.361C27.7875 28.4053 27.2713 28.4288 26.7498 28.4288C20.3075 28.4288 14.131 24.5884 11.4717 18.6857C10.5904 16.7303 10.0951 14.608 9.0913 12.7126C7.59476 9.88117 4.73206 8.28817 1.54346 8.28817C1.01681 8.28817 0.503189 8.3351 0 8.42114C0 8.42114 0 0.205863 0 0.203256C0 -0.120036 4.57824 0.427471 4.95367 0.508294C6.75003 0.891552 8.47861 1.57985 10.0586 2.51062C13.2185 4.37216 15.8179 7.23225 17.1814 10.6555C17.9584 12.6031 18.3755 14.7201 19.5201 16.48C21.0792 18.876 23.9106 20.2787 26.7472 20.2787C27.2765 20.2761 27.7953 20.2291 28.2959 20.1431Z" fill="#F6FF54"/>
</svg>
