<svg width="212" height="41" viewBox="0 0 212 41" fill="none" xmlns="http://www.w3.org/2000/svg">
<g clip-path="url(#clip0_869_2613)">
<path d="M67.6159 9.375V25.4242H67.5507L56.9817 9.375H52.2844V33.1225H56.9817V17.3996H57.047L67.4854 33.1225H72.3132V9.375H67.6159Z" fill="#181F27"/>
<path d="M84.9046 33.3843C89.9934 33.3843 93.5816 29.9918 93.5816 24.9683C93.5816 19.9447 89.9934 16.5522 84.9046 16.5522C79.6854 16.5522 76.2276 20.0752 76.2276 24.9683C76.2276 29.8613 79.6854 33.3843 84.9046 33.3843ZM84.9046 29.4699C82.4255 29.4699 80.664 27.5126 80.664 24.9683C80.664 22.3586 82.3602 20.4667 84.9046 20.4667C87.3185 20.4667 89.1453 22.2934 89.1453 24.9683C89.1453 27.5779 87.2533 29.4699 84.9046 29.4699Z" fill="#181F27"/>
<path d="M108.848 8.5271V18.6394H108.782C107.543 17.2693 105.847 16.5517 103.824 16.5517C99.4531 16.5517 96.191 20.0747 96.191 24.9677C96.191 30.0564 99.4531 33.3837 104.02 33.3837C106.173 33.3837 107.869 32.6008 108.978 31.1655H109.043V33.1227H113.219V8.5271H108.848ZM104.803 29.4693C102.324 29.4693 100.627 27.6426 100.627 25.0329C100.627 22.2276 102.454 20.4661 104.803 20.4661C107.282 20.4661 109.109 22.4233 109.109 25.0329C109.109 27.7078 107.217 29.4693 104.803 29.4693Z" fill="#181F27"/>
<path d="M129.203 33.3177C133.378 33.3177 136.575 31.4258 138.597 28.8814L135.205 25.8803C133.77 27.6418 131.617 28.8814 129.203 28.8814C124.962 28.8814 121.961 25.7498 121.961 21.3135C121.961 16.5509 125.093 13.5499 129.203 13.5499C131.617 13.5499 133.77 14.9199 135.205 16.5509L138.597 13.6151C135.988 10.4836 132.465 9.11353 129.203 9.11353C121.439 9.11353 117.068 14.5285 117.068 21.3135C117.068 29.1423 122.679 33.3177 129.203 33.3177Z" fill="#181F27"/>
<path d="M151.254 16.5522C149.297 16.5522 147.535 17.4656 146.296 19.2271V16.8132H141.925V33.1233H146.296V25.5554C146.296 23.1415 147.731 21.3148 150.471 21.3148C150.667 21.3148 151.124 21.3148 151.58 21.3148V16.5522C151.515 16.5522 151.385 16.5522 151.254 16.5522Z" fill="#181F27"/>
<path d="M169.195 24.7725C169.195 20.01 165.998 16.5522 161.236 16.5522C156.604 16.5522 153.146 20.01 153.146 24.903C153.146 30.057 156.734 33.3843 161.562 33.3843C164.824 33.3843 167.173 32.0795 168.608 30.318L165.737 27.6431C164.824 28.7522 163.585 29.5351 161.823 29.5351C159.735 29.5351 158.17 28.2955 157.648 26.3383H169.13C169.195 26.0774 169.195 25.3597 169.195 24.7725ZM161.366 20.4014C163.258 20.4014 164.433 21.5105 164.889 23.2068H157.713C158.17 21.38 159.605 20.4014 161.366 20.4014Z" fill="#181F27"/>
<path d="M184.527 8.5271V18.6394H184.396C183.222 17.2693 181.526 16.5517 179.503 16.5517C175.132 16.5517 171.805 20.0747 171.805 24.9677C171.805 30.0564 175.132 33.3837 179.634 33.3837C181.787 33.3837 183.483 32.6008 184.657 31.1655H184.723V33.1227H188.898V8.5271H184.527ZM180.417 29.4693C178.003 29.4693 176.241 27.6426 176.241 25.0329C176.241 22.2276 178.068 20.4661 180.417 20.4661C182.961 20.4661 184.723 22.4233 184.723 25.0329C184.723 27.7078 182.831 29.4693 180.417 29.4693Z" fill="#181F27"/>
<path d="M195.683 14.5287C197.183 14.5287 198.423 13.2891 198.423 11.8538C198.423 10.3533 197.183 9.17896 195.683 9.17896C194.248 9.17896 193.008 10.3533 193.008 11.8538C193.008 13.2891 194.248 14.5287 195.683 14.5287ZM193.465 33.1222H197.901V16.8121H193.465V33.1222Z" fill="#181F27"/>
<path d="M207.426 33.3831C209.644 33.3831 210.753 32.9264 211.797 32.4045L210.688 28.8815C209.905 29.2077 209.122 29.4687 208.6 29.4687C207.557 29.4687 207.165 28.751 207.165 27.381V20.4002H211.601V16.812H207.165V11.0056L202.794 11.4623V16.812H200.902V20.4002H202.794V27.9681C202.794 31.6216 204.621 33.3831 207.426 33.3831Z" fill="#181F27"/>
<path fill-rule="evenodd" clip-rule="evenodd" d="M40.9325 20.2704C40.9325 31.4265 31.8641 40.4949 20.7079 40.4949C9.55182 40.4949 0.548637 31.4265 0.548637 20.2704C0.548637 9.11427 9.55182 0.111084 20.7079 0.111084C31.8641 0.111084 40.9325 9.11427 40.9325 20.2704Z" fill="#0668E3"/>
<path fill-rule="evenodd" clip-rule="evenodd" d="M15.554 29.4037L25.9272 39.7769C34.5389 37.4935 40.9325 29.6646 40.9325 20.27V19.7481L32.7774 12.1802L15.554 29.4037Z" fill="#1455A7"/>
<path fill-rule="evenodd" clip-rule="evenodd" d="M28.2758 10.7456C29.1892 9.83221 30.6897 9.83221 31.6031 10.7456L33.4298 12.5723C34.3432 13.4857 34.3432 14.9862 33.4298 15.8996L21.4908 27.7733C21.4256 27.9038 21.3603 28.0343 21.2299 28.0995L19.4031 29.9915C18.4898 30.8396 16.9892 30.8396 16.0759 29.9915L7.98606 21.8364C7.07269 20.9231 7.07269 19.4226 7.98606 18.5092L9.81279 16.6825C10.7262 15.7691 12.2919 15.7691 13.1401 16.6825L17.7069 21.2493L28.2758 10.7456Z" fill="white"/>
</g>
<defs>
<clipPath id="clip0_869_2613">
<rect width="211.398" height="40.3838" fill="white" transform="translate(0.474121 0.111084)"/>
</clipPath>
</defs>
</svg>
