<svg width="168" height="57" viewBox="0 0 168 57" fill="none" xmlns="http://www.w3.org/2000/svg">
<path d="M24.2306 2.84255C19.1405 2.84255 15.587 3.26936 10.9424 5.8028C1.91951 10.7244 0.618725 22.1819 3.83776 31.1952C6.20586 37.8259 11.0111 41.6291 17.1918 44.5821C24.2267 47.9432 29.2961 48.1318 37.0583 47.4437C48.7599 46.4063 61.9889 46.0446 72.9432 41.3258C77.3714 39.4183 80.6664 37.0217 81.9884 32.2477C82.6871 29.7246 83.3424 26.6634 81.6595 24.4195C77.9119 19.4228 66.7957 18.9595 61.3324 18.9595C53.6691 18.9595 37.0024 20.7473 40.6435 32.5108C42.7395 39.2824 53.5163 43.5649 59.3918 45.4373C76.9558 51.0346 97.3517 52.338 115.341 47.9041C134.253 43.2426 150.463 33.5451 166.323 22.9723" stroke="#FFF3EB" stroke-width="3" stroke-linecap="round"/>
<path d="M106.689 34.912L87.1267 15.6653C86.2494 14.7866 85.0974 14.6706 83.9467 14.6706H70.5107C68.0387 14.6706 66.6667 16.0426 66.6667 18.5146V31.9573C66.6667 33.1053 66.7854 34.2546 67.6614 35.1306L87.0667 54.6933C88.8147 56.44 91.5707 56.44 93.3174 54.6933L106.729 41.2426C108.476 39.4933 108.436 36.6586 106.689 34.912ZM75.228 23.232C74.448 24.012 73.184 24.012 72.404 23.232C71.624 22.452 71.6227 21.188 72.404 20.408C73.184 19.6266 74.448 19.628 75.228 20.408C76.008 21.1893 76.0094 22.452 75.228 23.232Z" fill="#FFD983"/>
<path d="M115.341 47.9041C101.826 51.2352 86.9532 51.328 72.9432 48.7948" stroke="#FFF3EB" stroke-width="3" stroke-linecap="round"/>
<path d="M77.2693 18.3666C75.3626 16.4586 72.2707 16.4586 70.364 18.3666C68.456 20.2733 68.456 23.3653 70.364 25.2733C72.2707 27.18 75.3627 27.18 77.2707 25.2733C79.1773 23.3653 79.176 20.2746 77.2693 18.3666ZM75.2293 23.2333C74.4493 24.0133 73.184 24.0133 72.404 23.2333C71.624 22.4533 71.6227 21.188 72.404 20.408C73.184 19.6253 74.4493 19.628 75.2293 20.408C76.0093 21.188 76.0107 22.452 75.2293 23.2333Z" fill="#D99E82"/>
<path d="M75.3427 22.0053C74.8213 22.5267 73.9787 22.5267 73.456 22.0053C72.9347 21.484 72.936 20.6413 73.456 20.12L84.7693 8.80665C85.2907 8.28532 86.1333 8.28532 86.656 8.80665C87.1773 9.32798 87.176 10.1706 86.656 10.692L75.3427 22.0053Z" fill="#C1694F"/>
<g clip-path="url(#clip0_652_2556)">
<path d="M86.8137 33.9434L89.9746 30.5102L92.2866 40.7945L87.8725 36.7305L84.7116 40.1637L82.3996 29.8795L86.8137 33.9434Z" fill="#C1694F"/>
</g>
<defs>
<clipPath id="clip0_652_2556">
<rect width="16" height="16" fill="white" transform="translate(76.0391 35.8039) rotate(-47.3652)"/>
</clipPath>
</defs>
</svg>
