<svg width="64" height="64" viewBox="0 0 64 64" fill="none" xmlns="http://www.w3.org/2000/svg">
<path d="M29.3333 5.33331C40.1813 5.33331 49.136 13.4293 50.4907 23.9066L56.4907 33.344C56.8853 33.9653 56.8053 34.8906 55.8907 35.2853L50.6667 37.52V45.3333C50.6667 48.28 48.28 50.6666 45.3333 50.6666H40.0027L40 58.6666H16V48.816C16 45.6693 14.8373 42.6906 12.6827 40.0026C9.752 36.3493 8 31.712 8 26.6666C8 14.8853 17.552 5.33331 29.3333 5.33331ZM29.3333 10.6666C20.496 10.6666 13.3333 17.8293 13.3333 26.6666C13.3333 30.36 14.5813 33.848 16.8427 36.6666C19.76 40.304 21.3333 44.4453 21.3333 48.816V53.3333H34.6667L34.672 45.3333H45.3333V34.0053L49.4667 32.2346L45.352 25.768L45.2 24.5893C44.176 16.6693 37.3973 10.6666 29.3333 10.6666ZM29.3333 18.6666C30.8053 18.6666 32 19.8613 32 21.3333V24H34.6667C36.1387 24 37.3333 25.1946 37.3333 26.6666C37.3333 28.1386 36.1387 29.3333 34.6667 29.3333H32V32C32 33.472 30.8053 34.6666 29.3333 34.6666C27.8613 34.6666 26.6667 33.472 26.6667 32V29.3306L24 29.3333C22.528 29.3333 21.3333 28.1386 21.3333 26.6666C21.3333 25.1946 22.528 24 24 24L26.6667 23.9973V21.3333C26.6667 19.8613 27.8613 18.6666 29.3333 18.6666Z" fill="#663AF5"/>
</svg>
