<svg width="182" height="160" viewBox="0 0 182 160" fill="none" xmlns="http://www.w3.org/2000/svg">
<rect x="0.756836" y="0.774323" width="180.602" height="158.711" rx="8.75647" fill="white"/>
<path d="M14.2724 15.3118V19.9089H17.694V19.0946H15.1524V17.9913H17.2999V17.1769H15.1524V16.1261H17.6611V15.3118H14.2724ZM19.8134 16.3954C19.3406 16.3954 18.9465 16.5662 18.6247 16.9142C18.3095 17.2557 18.1519 17.6826 18.1519 18.2014C18.1519 18.7202 18.3095 19.1471 18.6247 19.4952C18.9465 19.8367 19.3406 20.0074 19.8134 20.0074C20.2009 20.0074 20.549 19.8827 20.8511 19.6397V19.9089H21.6654V16.4939H20.8511V16.7632C20.549 16.5202 20.2009 16.3954 19.8134 16.3954ZM20.5687 17.4987C20.746 17.6892 20.8379 17.919 20.8379 18.2014C20.8379 18.4838 20.746 18.7137 20.5687 18.9041C20.3914 19.0946 20.1746 19.1865 19.9185 19.1865C19.6624 19.1865 19.4391 19.0946 19.2618 18.9041C19.0845 18.7137 18.9991 18.4838 18.9991 18.2014C18.9991 17.919 19.0845 17.6892 19.2618 17.4987C19.4391 17.3083 19.6624 17.2163 19.9185 17.2163C20.1746 17.2163 20.3914 17.3083 20.5687 17.4987ZM23.3143 16.4939H22.4934V19.9089H23.3143V18.0307C23.3143 17.5775 23.6492 17.236 24.1024 17.236C24.2206 17.236 24.3322 17.2623 24.4373 17.3083V16.3954C23.9251 16.3954 23.5507 16.5662 23.3143 16.9142V16.4939ZM25.0169 19.9089H25.8379V17.9584C25.8379 17.5119 26.1728 17.1769 26.6194 17.1769C27.0594 17.1769 27.3878 17.5119 27.3878 17.9584V19.9089H28.2087V17.7286C28.2087 17.3477 28.0773 17.0324 27.8212 16.7763C27.5651 16.5202 27.2498 16.3954 26.8624 16.3954C26.4289 16.3954 26.0874 16.5662 25.8379 16.9077V16.4939H25.0169V19.9089ZM29.8557 19.9089V16.4939H29.0348V19.9089H29.8557ZM29.442 16.1918C29.7507 16.1918 29.9674 15.962 29.9674 15.6664C29.9674 15.3709 29.7375 15.1476 29.442 15.1476C29.1465 15.1476 28.9232 15.3709 28.9232 15.6664C28.9232 15.962 29.1465 16.1918 29.442 16.1918ZM30.6862 19.9089H31.5071V17.9584C31.5071 17.5119 31.842 17.1769 32.2886 17.1769C32.7286 17.1769 33.057 17.5119 33.057 17.9584V19.9089H33.8779V17.7286C33.8779 17.3477 33.7465 17.0324 33.4904 16.7763C33.2343 16.5202 32.9191 16.3954 32.5316 16.3954C32.0981 16.3954 31.7566 16.5662 31.5071 16.9077V16.4939H30.6862V19.9089ZM36.2408 16.3954C35.768 16.3954 35.3739 16.5662 35.0521 16.9142C34.7369 17.2557 34.5793 17.6826 34.5793 18.2014C34.5793 18.7202 34.7369 19.1471 35.0521 19.4952C35.3739 19.8367 35.768 20.0074 36.2408 20.0074C36.6283 20.0074 36.9763 19.8827 37.2784 19.6397V19.817C37.2784 20.06 37.1931 20.257 37.0158 20.4212C36.8384 20.5854 36.6283 20.6707 36.3722 20.6707C36.0109 20.6707 35.676 20.4803 35.5512 20.2242L34.7303 20.4606C34.8485 20.7561 35.0652 20.9991 35.3739 21.1896C35.6826 21.3866 36.0241 21.4851 36.3984 21.4851C36.8713 21.4851 37.2719 21.3275 37.6002 21.0057C37.9286 20.6839 38.0928 20.2898 38.0928 19.817V16.4939H37.2784V16.7632C36.9763 16.5202 36.6283 16.3954 36.2408 16.3954ZM36.996 17.4987C37.1734 17.6892 37.2653 17.919 37.2653 18.2014C37.2653 18.4838 37.1734 18.7137 36.996 18.9041C36.8187 19.0946 36.602 19.1865 36.3459 19.1865C36.0898 19.1865 35.8665 19.0946 35.6891 18.9041C35.5118 18.7137 35.4265 18.4838 35.4265 18.2014C35.4265 17.919 35.5118 17.6892 35.6891 17.4987C35.8665 17.3083 36.0898 17.2163 36.3459 17.2163C36.602 17.2163 36.8187 17.3083 36.996 17.4987ZM41.4492 17.3148C41.3638 16.7435 40.8844 16.3954 40.1423 16.3954C39.3608 16.3954 38.8222 16.7435 38.8222 17.4593C38.8222 17.9387 39.0587 18.2211 39.6366 18.4116L40.3393 18.6349C40.5954 18.7202 40.7202 18.8319 40.7202 18.9632C40.7202 19.1734 40.4838 19.2982 40.1685 19.2982C39.7942 19.2982 39.5578 19.134 39.4987 18.891L38.7303 19.0026C38.8288 19.6265 39.3279 20.0074 40.1488 20.0074C40.9369 20.0074 41.5017 19.6462 41.5017 18.937C41.5017 18.4444 41.239 18.1292 40.6086 17.9125L39.9058 17.676C39.7023 17.6038 39.6038 17.5119 39.6038 17.4002C39.6038 17.2098 39.8139 17.1047 40.0832 17.1047C40.4115 17.1047 40.6086 17.2163 40.6808 17.4396L41.4492 17.3148ZM47.2247 16.2444C47.1327 15.9488 46.9357 15.6993 46.6402 15.5088C46.3446 15.3118 45.99 15.2133 45.5894 15.2133C45.1297 15.2133 44.7553 15.3446 44.4598 15.6008C44.1708 15.8569 44.0263 16.1918 44.0263 16.6056C44.0263 17.0718 44.2496 17.4265 44.6897 17.6629C44.8801 17.7614 45.2479 17.8928 45.7995 18.0569C45.9769 18.116 46.0031 18.116 46.1673 18.1949C46.2527 18.2343 46.3184 18.2737 46.3578 18.3065C46.4366 18.3787 46.5219 18.497 46.5219 18.6283C46.5219 18.9435 46.1607 19.1603 45.6945 19.1603C45.215 19.1603 44.8473 18.9173 44.775 18.6283L43.895 18.891C43.9935 19.2128 44.2037 19.4755 44.5255 19.6922C44.8473 19.9024 45.2413 20.0074 45.6945 20.0074C46.2001 20.0074 46.6073 19.8761 46.9226 19.6134C47.2444 19.3441 47.402 18.9895 47.402 18.5495C47.402 18.1883 47.2509 17.8796 47.0933 17.7154C47.0145 17.6301 46.9029 17.5447 46.7649 17.4724C46.4825 17.3214 46.3643 17.2951 46.0819 17.2163C45.701 17.1047 45.4515 17.0259 45.3267 16.9733C45.0443 16.8551 44.9064 16.7106 44.9064 16.5399C44.9064 16.2706 45.215 16.0539 45.6025 16.0539C45.9703 16.0539 46.2724 16.2575 46.3446 16.5005L47.2247 16.2444ZM48.0819 18.6743C48.0819 19.0552 48.2067 19.3704 48.4629 19.6265C48.719 19.8827 49.0408 20.0074 49.4283 20.0074C49.8617 20.0074 50.2032 19.8367 50.4528 19.4952V19.9089H51.2737V16.4939H50.4528V18.4378C50.4528 18.8844 50.1178 19.2259 49.6778 19.2259C49.2312 19.2259 48.9029 18.8844 48.9029 18.4378V16.4939H48.0819V18.6743ZM52.9208 19.9089V17.8993C52.9208 17.4856 53.236 17.1769 53.6366 17.1769C54.0372 17.1769 54.3459 17.4856 54.3459 17.8993V19.9089H55.1668V17.8993C55.1668 17.4856 55.482 17.1769 55.8826 17.1769C56.2832 17.1769 56.5919 17.4856 56.5919 17.8993V19.9089H57.4063V17.6629C57.4063 17.3017 57.2749 16.9996 57.0188 16.7566C56.7627 16.5136 56.4409 16.3954 56.0468 16.3954C55.5674 16.3954 55.1996 16.5793 54.9566 16.9536C54.7136 16.5793 54.3524 16.3954 53.8796 16.3954C53.479 16.3954 53.1572 16.5464 52.9208 16.8551V16.4939H52.0998V19.9089H52.9208ZM59.0551 19.9089V17.8993C59.0551 17.4856 59.3703 17.1769 59.7709 17.1769C60.1715 17.1769 60.4802 17.4856 60.4802 17.8993V19.9089H61.3011V17.8993C61.3011 17.4856 61.6163 17.1769 62.017 17.1769C62.4176 17.1769 62.7262 17.4856 62.7262 17.8993V19.9089H63.5406V17.6629C63.5406 17.3017 63.4092 16.9996 63.1531 16.7566C62.897 16.5136 62.5752 16.3954 62.1811 16.3954C61.7017 16.3954 61.3339 16.5793 61.091 16.9536C60.848 16.5793 60.4868 16.3954 60.0139 16.3954C59.6133 16.3954 59.2915 16.5464 59.0551 16.8551V16.4939H58.2342V19.9089H59.0551ZM65.9052 16.3954C65.4324 16.3954 65.0383 16.5662 64.7165 16.9142C64.4013 17.2557 64.2437 17.6826 64.2437 18.2014C64.2437 18.7202 64.4013 19.1471 64.7165 19.4952C65.0383 19.8367 65.4324 20.0074 65.9052 20.0074C66.2927 20.0074 66.6408 19.8827 66.9429 19.6397V19.9089H67.7572V16.4939H66.9429V16.7632C66.6408 16.5202 66.2927 16.3954 65.9052 16.3954ZM66.6605 17.4987C66.8378 17.6892 66.9297 17.919 66.9297 18.2014C66.9297 18.4838 66.8378 18.7137 66.6605 18.9041C66.4832 19.0946 66.2664 19.1865 66.0103 19.1865C65.7542 19.1865 65.5309 19.0946 65.3536 18.9041C65.1763 18.7137 65.0909 18.4838 65.0909 18.2014C65.0909 17.919 65.1763 17.6892 65.3536 17.4987C65.5309 17.3083 65.7542 17.2163 66.0103 17.2163C66.2664 17.2163 66.4832 17.3083 66.6605 17.4987ZM69.4061 16.4939H68.5852V19.9089H69.4061V18.0307C69.4061 17.5775 69.741 17.236 70.1942 17.236C70.3124 17.236 70.424 17.2623 70.5291 17.3083V16.3954C70.0169 16.3954 69.6425 16.5662 69.4061 16.9142V16.4939ZM72.0413 20.0797C71.9034 20.4278 71.6407 20.6051 71.2467 20.6051H71.1153V21.3866H71.2467C72.0019 21.3866 72.4485 21.0714 72.7374 20.3555L74.2808 16.4939H73.4336L72.5404 18.7991L71.667 16.4939H70.8198L72.1332 19.8433L72.0413 20.0797Z" fill="#A4A7B0"/>
<rect x="13.8915" y="34.8651" width="35.0268" height="35.0268" rx="17.5134" fill="#EFECFF"/>
<g filter="url(#filter0_d_883_2589)">
<g clip-path="url(#clip0_883_2589)">
<rect x="35.7823" y="55.6617" width="22.439" height="8.2094" rx="2.18912" fill="white"/>
<g clip-path="url(#clip1_883_2589)">
<path d="M40.3431 59.0054V61.226H39.9782V59.0054L38.9997 59.984L38.7417 59.726L40.1606 58.3071L41.5796 59.726L41.3216 59.984L40.3431 59.0054Z" fill="#2ED573"/>
</g>
<path d="M45.8394 58.5703C45.8394 58.7049 45.7343 58.8724 45.5242 59.076L44.6803 59.8805V60.199H46.2991V59.7918H45.337L45.7869 59.365C46.1284 59.0366 46.2794 58.7936 46.2794 58.5572C46.2794 58.3634 46.2006 58.196 46.043 58.058C45.8887 57.9201 45.6949 57.8512 45.4683 57.8512C45.0973 57.8512 44.7821 58.0646 44.6343 58.4061L45.0283 58.5933C45.1071 58.3864 45.2713 58.2584 45.4683 58.2584C45.5701 58.2584 45.6555 58.2879 45.7278 58.3503C45.8033 58.4127 45.8394 58.4849 45.8394 58.5703ZM48.3615 59.4667C48.3615 59.2435 48.2761 59.0563 48.1021 58.9085C47.9314 58.7608 47.7179 58.6852 47.4585 58.6852H47.2287L47.2648 58.2912H48.1645V57.9004H46.9134L46.7952 59.0727H47.4355C47.5734 59.0727 47.6884 59.1088 47.7803 59.1843C47.8755 59.2599 47.9215 59.3518 47.9215 59.4667C47.9215 59.5718 47.8788 59.6605 47.7934 59.7327C47.7114 59.805 47.6063 59.8411 47.4848 59.8411C47.2845 59.8411 47.1203 59.7262 47.0448 59.5456L46.6212 59.6605C46.7492 60.0151 47.0743 60.2483 47.4815 60.2483C47.7343 60.2483 47.9412 60.1727 48.1087 60.025C48.2761 59.8739 48.3615 59.6868 48.3615 59.4667ZM48.6654 59.9888C48.6654 60.1366 48.7737 60.2483 48.9215 60.2483C49.0693 60.2483 49.1776 60.1366 49.1776 59.9888C49.1776 59.8444 49.0693 59.7327 48.9215 59.7327C48.7737 59.7327 48.6654 59.8444 48.6654 59.9888ZM49.4818 59.7853C49.6263 60.0709 49.9382 60.2483 50.306 60.2483C50.5654 60.2483 50.7789 60.1695 50.9529 60.0151C51.1269 59.8575 51.2123 59.6638 51.2123 59.4306V58.6327C51.2123 58.4127 51.1302 58.2255 50.966 58.0777C50.8051 57.9267 50.6016 57.8512 50.3553 57.8512C50.1123 57.8512 49.9087 57.9267 49.7445 58.0745C49.5803 58.2222 49.4982 58.4094 49.4982 58.6294C49.4982 58.8527 49.5803 59.0399 49.7445 59.1909C49.9087 59.3387 50.1123 59.4142 50.352 59.4142C50.5096 59.4142 50.6541 59.3781 50.7887 59.3091V59.4339C50.7887 59.5488 50.7428 59.6473 50.6508 59.7262C50.5589 59.8017 50.4439 59.8411 50.306 59.8411C50.109 59.8411 49.9481 59.7459 49.8726 59.5981L49.4818 59.7853ZM50.7723 58.636C50.7723 58.8461 50.5917 59.007 50.3553 59.007C50.1189 59.007 49.9415 58.8461 49.9415 58.6261C49.9415 58.4193 50.1189 58.2584 50.3553 58.2584C50.5917 58.2584 50.7723 58.4225 50.7723 58.636ZM51.9983 60.199L53.7781 58.0777L53.5647 57.9004L51.7882 60.025L51.9983 60.199ZM51.5156 58.4324C51.5156 58.5999 51.5715 58.7378 51.6831 58.8494C51.7948 58.9578 51.9327 59.0136 52.0969 59.0136C52.2643 59.0136 52.4022 58.9578 52.5106 58.8494C52.6222 58.7378 52.6781 58.5999 52.6781 58.4324C52.6781 58.2682 52.6222 58.1303 52.5106 58.0186C52.4022 57.907 52.2643 57.8512 52.0969 57.8512C51.9327 57.8512 51.7948 57.907 51.6831 58.0186C51.5715 58.1303 51.5156 58.2682 51.5156 58.4324ZM51.9392 58.2748C52.0279 58.1861 52.1658 58.1861 52.2545 58.2748C52.3431 58.3634 52.3431 58.5013 52.2545 58.59C52.1658 58.6787 52.0279 58.6787 51.9392 58.59C51.8506 58.5013 51.8506 58.3634 51.9392 58.2748ZM53.4629 59.0826C53.2987 59.0826 53.1608 59.1384 53.0491 59.25C52.9375 59.3617 52.8817 59.4996 52.8817 59.667C52.8817 59.8345 52.9375 59.9724 53.0491 60.0841C53.1608 60.1924 53.2987 60.2483 53.4629 60.2483C53.6303 60.2483 53.7682 60.1924 53.8766 60.0841C53.9883 59.9724 54.0441 59.8345 54.0441 59.667C54.0441 59.4996 53.9883 59.3617 53.8766 59.25C53.7682 59.1384 53.6303 59.0826 53.4629 59.0826ZM53.2396 59.667C53.2396 59.539 53.3348 59.4405 53.4629 59.4405C53.5909 59.4405 53.6862 59.539 53.6862 59.667C53.6862 59.7885 53.5844 59.8903 53.4629 59.8903C53.3414 59.8903 53.2396 59.7885 53.2396 59.667Z" fill="#2ED573"/>
</g>
</g>
<path d="M13.8915 60.0724L14.378 59.9534C14.8644 59.8345 15.8374 59.5965 16.8104 59.0755C17.7833 58.5545 18.7563 57.7504 19.7293 56.6222C20.7022 55.494 21.6752 54.0417 22.6482 52.923C23.6211 51.8043 24.5941 51.0193 25.5671 51.0525C26.54 51.0857 27.513 51.9371 28.486 52.4468C29.4589 52.9566 30.4319 53.1247 31.4049 52.6865C32.3778 52.2483 33.3508 51.2039 34.3238 50.0677C35.2967 48.9315 36.2697 47.7036 37.2427 46.9399C38.2156 46.1763 39.1886 45.8769 40.1615 46.1318C41.1345 46.3868 42.1075 47.1961 43.0804 48.0126C44.0534 48.8291 45.0264 49.6528 45.9993 49.0632C46.9723 48.4737 47.9453 46.4709 48.4318 45.4695L48.9182 44.4681" stroke="#663AF5" stroke-width="0.820919" stroke-linecap="round"/>
<path d="M68.0941 53.0642V49.0089H67.1418V47.7939H68.0941V46.6118H67.1418V45.3968H68.0941V41.3415H70.6718L71.9524 45.3968H73.4465V41.3415H75.2689V45.3968H76.2048V46.6118H75.2689V47.7939H76.2048V49.0089H75.2689V53.0642H72.6748L71.3614 49.0089H69.9166V53.0642H68.0941ZM69.9166 47.7939H71.0002L70.639 46.6118H69.8837L69.9166 47.7939ZM73.4958 50.5029H73.5779L73.5122 49.0089H73.0689L73.4958 50.5029ZM69.8509 45.3968H70.3106L69.8345 43.8207H69.7688L69.8509 45.3968ZM72.7241 47.7939H73.4793L73.4465 46.6118H72.3465L72.7241 47.7939ZM83.1392 45.7048C81.6962 45.7048 80.6219 46.3461 80.0527 47.3482L80.3012 43.5403L81.8725 43.5563H85.897V41.504H78.3451L77.8802 48.2702H79.9886C80.2531 47.9896 80.5337 47.7811 80.8384 47.6529C81.135 47.5326 81.5438 47.4685 82.0569 47.4685C83.524 47.4685 84.1573 48.0537 84.1573 49.4326C84.1573 50.7474 83.4999 51.3246 82.0569 51.3246C80.5578 51.3246 79.9325 50.7313 79.9325 49.3524H77.5194C77.5194 50.5309 77.9363 51.4849 78.77 52.2144C79.6038 52.944 80.7021 53.3127 82.0569 53.3127C83.4037 53.3127 84.494 52.952 85.3198 52.2305C86.1455 51.517 86.5543 50.571 86.5543 49.4005C86.5543 48.2942 86.2417 47.4044 85.6244 46.7229C84.9991 46.0415 84.1734 45.7048 83.1392 45.7048ZM97.2645 51.6533C98.2345 50.5469 98.7155 49.0879 98.7155 47.2841C98.7155 45.4803 98.2345 44.0213 97.2645 42.915C96.2944 41.8086 95.0278 41.2555 93.4485 41.2555C91.8692 41.2555 90.6025 41.8086 89.6325 42.915C88.6624 44.0213 88.1734 45.4803 88.1734 47.2841C88.1734 49.0879 88.6624 50.5469 89.6325 51.6533C90.6025 52.7596 91.8692 53.3127 93.4485 53.3127C95.0278 53.3127 96.2944 52.7596 97.2645 51.6533ZM91.324 50.2744C90.8831 49.6491 90.6586 48.655 90.6586 47.2841C90.6586 45.9052 90.8831 44.9031 91.324 44.2858C91.7649 43.6685 92.4704 43.3639 93.4485 43.3639C94.4185 43.3639 95.132 43.6685 95.5729 44.2858C96.0138 44.9031 96.2383 45.9052 96.2383 47.2841C96.2383 48.655 96.0138 49.6491 95.5729 50.2744C95.132 50.8997 94.4185 51.2123 93.4485 51.2123C92.4704 51.2123 91.7649 50.8997 91.324 50.2744ZM109.714 51.6533C110.684 50.5469 111.165 49.0879 111.165 47.2841C111.165 45.4803 110.684 44.0213 109.714 42.915C108.744 41.8086 107.478 41.2555 105.898 41.2555C104.319 41.2555 103.052 41.8086 102.082 42.915C101.112 44.0213 100.623 45.4803 100.623 47.2841C100.623 49.0879 101.112 50.5469 102.082 51.6533C103.052 52.7596 104.319 53.3127 105.898 53.3127C107.478 53.3127 108.744 52.7596 109.714 51.6533ZM103.774 50.2744C103.333 49.6491 103.108 48.655 103.108 47.2841C103.108 45.9052 103.333 44.9031 103.774 44.2858C104.215 43.6685 104.92 43.3639 105.898 43.3639C106.868 43.3639 107.582 43.6685 108.023 44.2858C108.464 44.9031 108.688 45.9052 108.688 47.2841C108.688 48.655 108.464 49.6491 108.023 50.2744C107.582 50.8997 106.868 51.2123 105.898 51.2123C104.92 51.2123 104.215 50.8997 103.774 50.2744ZM112.488 52.5752L113.81 53.2486C113.81 54.3389 113.289 54.8199 112.159 54.8199V55.9022C113.081 55.9022 113.794 55.6536 114.316 55.1566C114.837 54.6596 115.093 53.9621 115.093 53.0642V50.5229H112.488V52.5752ZM125.715 51.6533C126.685 50.5469 127.166 49.0879 127.166 47.2841C127.166 45.4803 126.685 44.0213 125.715 42.915C124.745 41.8086 123.478 41.2555 121.899 41.2555C120.32 41.2555 119.053 41.8086 118.083 42.915C117.113 44.0213 116.624 45.4803 116.624 47.2841C116.624 49.0879 117.113 50.5469 118.083 51.6533C119.053 52.7596 120.32 53.3127 121.899 53.3127C123.478 53.3127 124.745 52.7596 125.715 51.6533ZM119.775 50.2744C119.334 49.6491 119.109 48.655 119.109 47.2841C119.109 45.9052 119.334 44.9031 119.775 44.2858C120.216 43.6685 120.921 43.3639 121.899 43.3639C122.869 43.3639 123.583 43.6685 124.024 44.2858C124.464 44.9031 124.689 45.9052 124.689 47.2841C124.689 48.655 124.464 49.6491 124.024 50.2744C123.583 50.8997 122.869 51.2123 121.899 51.2123C120.921 51.2123 120.216 50.8997 119.775 50.2744ZM138.165 51.6533C139.135 50.5469 139.616 49.0879 139.616 47.2841C139.616 45.4803 139.135 44.0213 138.165 42.915C137.195 41.8086 135.928 41.2555 134.349 41.2555C132.77 41.2555 131.503 41.8086 130.533 42.915C129.563 44.0213 129.074 45.4803 129.074 47.2841C129.074 49.0879 129.563 50.5469 130.533 51.6533C131.503 52.7596 132.77 53.3127 134.349 53.3127C135.928 53.3127 137.195 52.7596 138.165 51.6533ZM132.224 50.2744C131.783 49.6491 131.559 48.655 131.559 47.2841C131.559 45.9052 131.783 44.9031 132.224 44.2858C132.665 43.6685 133.371 43.3639 134.349 43.3639C135.319 43.3639 136.032 43.6685 136.473 44.2858C136.914 44.9031 137.139 45.9052 137.139 47.2841C137.139 48.655 136.914 49.6491 136.473 50.2744C136.032 50.8997 135.319 51.2123 134.349 51.2123C133.371 51.2123 132.665 50.8997 132.224 50.2744ZM150.615 51.6533C151.585 50.5469 152.066 49.0879 152.066 47.2841C152.066 45.4803 151.585 44.0213 150.615 42.915C149.645 41.8086 148.378 41.2555 146.799 41.2555C145.219 41.2555 143.953 41.8086 142.983 42.915C142.013 44.0213 141.524 45.4803 141.524 47.2841C141.524 49.0879 142.013 50.5469 142.983 51.6533C143.953 52.7596 145.219 53.3127 146.799 53.3127C148.378 53.3127 149.645 52.7596 150.615 51.6533ZM144.674 50.2744C144.233 49.6491 144.009 48.655 144.009 47.2841C144.009 45.9052 144.233 44.9031 144.674 44.2858C145.115 43.6685 145.821 43.3639 146.799 43.3639C147.769 43.3639 148.482 43.6685 148.923 44.2858C149.364 44.9031 149.588 45.9052 149.588 47.2841C149.588 48.655 149.364 49.6491 148.923 50.2744C148.482 50.8997 147.769 51.2123 146.799 51.2123C145.821 51.2123 145.115 50.8997 144.674 50.2744Z" fill="black"/>
<path d="M69.6621 60.5098C69.598 60.2882 69.4601 60.1059 69.2385 59.9631C69.0168 59.8153 68.7558 59.7414 68.4553 59.7414C68.1155 59.7414 67.8347 59.835 67.618 60.0222C67.4013 60.2094 67.2929 60.4556 67.2929 60.7561C67.2929 61.091 67.4554 61.3472 67.7756 61.5195C67.9184 61.5934 68.1943 61.687 68.6031 61.8052C68.8395 61.8693 68.9725 61.9087 69.1153 62.0515C69.1892 62.1205 69.2286 62.2042 69.2286 62.2978C69.2286 62.5884 68.9183 62.7854 68.5193 62.7854C68.1105 62.7854 67.8051 62.5785 67.746 62.3224L67.1993 62.4948C67.2683 62.7312 67.421 62.9282 67.6574 63.0859C67.8938 63.2385 68.1795 63.3174 68.5193 63.3174C68.8888 63.3174 69.1941 63.2188 69.4306 63.0268C69.667 62.8297 69.7852 62.5736 69.7852 62.2534C69.7852 61.9234 69.6571 61.6821 69.4207 61.5392C69.1843 61.3964 69.0415 61.3472 68.7607 61.2733L68.4996 61.1994C68.4455 61.1846 68.3765 61.16 68.2878 61.1304C68.1992 61.1009 68.1352 61.0762 68.0958 61.0516C67.9578 60.9679 67.8199 60.8595 67.8446 60.7167C67.8446 60.4606 68.1105 60.2734 68.4652 60.2734C68.7952 60.2734 69.0562 60.4507 69.1153 60.6724L69.6621 60.5098ZM70.9242 63.2533V60.6921H70.4119V63.2533H70.9242ZM70.4267 60.3128C70.5597 60.4458 70.7764 60.4458 70.9094 60.3128C71.0424 60.1798 71.0424 59.9631 70.9094 59.8301C70.7764 59.6971 70.5597 59.6971 70.4267 59.8301C70.3035 59.9631 70.3035 60.1798 70.4267 60.3128ZM71.6312 63.2533H72.1434V61.7855C72.1434 61.5934 72.2074 61.4358 72.3404 61.3077C72.4734 61.1797 72.6409 61.1157 72.833 61.1157C73.2122 61.1157 73.493 61.4013 73.493 61.7806V63.2533H74.0053V61.6328C74.0053 61.3422 73.9067 61.1058 73.7146 60.9137C73.5226 60.7216 73.2763 60.628 72.9857 60.628C72.6113 60.628 72.3306 60.7758 72.1434 61.0664V60.6921H71.6312V63.2533ZM77.1894 61.4358C76.9875 60.9433 76.5147 60.628 75.9433 60.628C75.5591 60.628 75.2389 60.7561 74.9828 61.0122C74.7267 61.2683 74.5986 61.5885 74.5986 61.9727C74.5986 62.3569 74.7267 62.677 74.9828 62.9332C75.2389 63.1893 75.5591 63.3174 75.9433 63.3174C76.5147 63.3174 76.9875 63.0021 77.1894 62.5096L76.6723 62.3569C76.5393 62.6327 76.2733 62.8051 75.9433 62.8051C75.7118 62.8051 75.5197 62.7263 75.3621 62.5687C75.2094 62.4061 75.1306 62.2091 75.1306 61.9727C75.1306 61.7363 75.2094 61.5392 75.3621 61.3816C75.5197 61.2191 75.7118 61.1403 75.9433 61.1403C76.2733 61.1403 76.5393 61.3127 76.6723 61.5885L77.1894 61.4358ZM80.2765 62.1599C80.2814 62.0761 80.2864 62.0121 80.2864 61.9727C80.2864 61.5885 80.1583 61.2683 79.9022 61.0122C79.651 60.7561 79.3357 60.628 78.9565 60.628C78.5772 60.628 78.2571 60.7561 78.0009 61.0122C77.7497 61.2683 77.6217 61.5885 77.6217 61.9727C77.6217 62.3569 77.7546 62.677 78.0157 62.9332C78.2768 63.1893 78.6068 63.3174 78.9959 63.3174C79.5081 63.3174 79.9416 63.0711 80.178 62.6721L79.6756 62.5194C79.5131 62.7312 79.2865 62.8396 78.9959 62.8396C78.5674 62.8396 78.2275 62.5588 78.1487 62.1599H80.2765ZM78.1536 61.751C78.2472 61.3718 78.5674 61.1058 78.9417 61.1058C79.3407 61.1058 79.6657 61.3718 79.7593 61.751H78.1536ZM82.7589 63.2533V59.5592H82.2466V63.2533H82.7589ZM84.6135 60.628C84.2539 60.628 83.9535 60.7561 83.7121 61.0122C83.4708 61.2683 83.3526 61.5885 83.3526 61.9727C83.3526 62.3569 83.4708 62.677 83.7121 62.9332C83.9535 63.1893 84.2539 63.3174 84.6135 63.3174C84.9435 63.3174 85.2292 63.2041 85.4656 62.9775V63.2533H85.9779V60.6921H85.4656V60.9679C85.2292 60.7413 84.9435 60.628 84.6135 60.628ZM84.6677 61.1403C84.8893 61.1403 85.0765 61.2191 85.2292 61.3816C85.3819 61.5392 85.4558 61.7363 85.4558 61.9727C85.4558 62.2091 85.3819 62.4061 85.2292 62.5687C85.0765 62.7263 84.8893 62.8051 84.6677 62.8051C84.446 62.8051 84.2638 62.7263 84.1111 62.5687C83.9584 62.4061 83.8845 62.2091 83.8845 61.9727C83.8845 61.7363 83.9584 61.5392 84.1111 61.3816C84.2638 61.2191 84.446 61.1403 84.6677 61.1403ZM88.5036 61.2782C88.4297 60.8792 88.085 60.628 87.5579 60.628C87.0013 60.628 86.6024 60.8842 86.6024 61.3915C86.6024 61.7264 86.7748 61.9333 87.1737 62.0712L87.7451 62.2633C87.952 62.3372 88.0554 62.4357 88.0554 62.5588C88.0554 62.7509 87.8485 62.8691 87.5727 62.8691C87.2624 62.8691 87.0604 62.7312 87.0161 62.5293L86.5334 62.6032C86.6073 63.0415 86.9767 63.3174 87.5628 63.3174C88.1342 63.3174 88.548 63.0514 88.548 62.5441C88.548 62.1943 88.3559 61.9678 87.9175 61.8052L87.3412 61.6082C87.1787 61.5491 87.0949 61.4654 87.0949 61.3521C87.0949 61.1797 87.2772 61.0762 87.5185 61.0762C87.7894 61.0762 87.9667 61.1895 88.0209 61.3619L88.5036 61.2782ZM88.876 61.1403H89.2652V62.4702C89.2652 62.6918 89.344 62.879 89.5016 63.0317C89.6592 63.1794 89.8513 63.2533 90.0828 63.2533H90.4571V62.7608H90.1222C89.9252 62.7608 89.7774 62.6032 89.7774 62.4012V61.1403H90.4571V60.6921H89.7774V60.1847H89.2652V60.6921H88.876V61.1403ZM92.7422 63.2533H93.3234L94.5597 60.3226V59.8055H92.2152V60.298H93.9933L92.7422 63.2533ZM96.2702 60.628C95.9107 60.628 95.6102 60.7561 95.3689 61.0122C95.1275 61.2683 95.0093 61.5885 95.0093 61.9727C95.0093 62.3569 95.1275 62.677 95.3689 62.9332C95.6102 63.1893 95.9107 63.3174 96.2702 63.3174C96.6002 63.3174 96.8859 63.2041 97.1224 62.9775V63.2533H97.6346V59.5592H97.1224V60.9679C96.8859 60.7413 96.6002 60.628 96.2702 60.628ZM96.3244 61.1403C96.5461 61.1403 96.7332 61.2191 96.8859 61.3816C97.0386 61.5392 97.1125 61.7363 97.1125 61.9727C97.1125 62.2091 97.0386 62.4061 96.8859 62.5687C96.7332 62.7263 96.5461 62.8051 96.3244 62.8051C96.1028 62.8051 95.9205 62.7263 95.7678 62.5687C95.6151 62.4061 95.5413 62.2091 95.5413 61.9727C95.5413 61.7363 95.6151 61.5392 95.7678 61.3816C95.9205 61.2191 96.1028 61.1403 96.3244 61.1403ZM99.4905 60.628C99.1309 60.628 98.8305 60.7561 98.5891 61.0122C98.3478 61.2683 98.2296 61.5885 98.2296 61.9727C98.2296 62.3569 98.3478 62.677 98.5891 62.9332C98.8305 63.1893 99.1309 63.3174 99.4905 63.3174C99.8205 63.3174 100.106 63.2041 100.343 62.9775V63.2533H100.855V60.6921H100.343V60.9679C100.106 60.7413 99.8205 60.628 99.4905 60.628ZM99.5447 61.1403C99.7663 61.1403 99.9535 61.2191 100.106 61.3816C100.259 61.5392 100.333 61.7363 100.333 61.9727C100.333 62.2091 100.259 62.4061 100.106 62.5687C99.9535 62.7263 99.7663 62.8051 99.5447 62.8051C99.323 62.8051 99.1408 62.7263 98.9881 62.5687C98.8354 62.4061 98.7615 62.2091 98.7615 61.9727C98.7615 61.7363 98.8354 61.5392 98.9881 61.3816C99.1408 61.2191 99.323 61.1403 99.5447 61.1403ZM102.203 63.47C102.09 63.7508 101.918 63.869 101.617 63.869H101.509V64.3616H101.617C102.13 64.3616 102.445 64.1399 102.647 63.6424L103.853 60.6921H103.326L102.573 62.5539L101.844 60.6921H101.317L102.317 63.1893L102.203 63.47ZM106.096 61.2782C106.022 60.8792 105.677 60.628 105.15 60.628C104.594 60.628 104.195 60.8842 104.195 61.3915C104.195 61.7264 104.367 61.9333 104.766 62.0712L105.337 62.2633C105.544 62.3372 105.648 62.4357 105.648 62.5588C105.648 62.7509 105.441 62.8691 105.165 62.8691C104.855 62.8691 104.653 62.7312 104.608 62.5293L104.126 62.6032C104.199 63.0415 104.569 63.3174 105.155 63.3174C105.726 63.3174 106.14 63.0514 106.14 62.5441C106.14 62.1943 105.948 61.9678 105.51 61.8052L104.933 61.6082C104.771 61.5491 104.687 61.4654 104.687 61.3521C104.687 61.1797 104.869 61.0762 105.111 61.0762C105.382 61.0762 105.559 61.1895 105.613 61.3619L106.096 61.2782Z" fill="#A4A7B0"/>
<path d="M14.7006 83.7325H158.659" stroke="#F1EBFB" stroke-width="0.547279"/>
<rect x="49.4645" y="118.439" width="109.456" height="3.28368" rx="1.64184" fill="#F4F6F8"/>
<rect x="49.4645" y="101.474" width="94.1321" height="3.28368" rx="1.64184" fill="#F4F6F8"/>
<rect x="49.4645" y="135.405" width="65.1263" height="3.28368" rx="1.64184" fill="#F4F6F8"/>
<rect x="14.4386" y="118.439" width="21.3444" height="3.28376" rx="1.64188" fill="#F4F6F8"/>
<rect x="14.4386" y="101.474" width="14.7769" height="3.28376" rx="1.64188" fill="#F4F6F8"/>
<rect x="14.7006" y="135.291" width="13.135" height="3.28376" rx="1.64188" fill="#F4F6F8"/>
<defs>
<filter id="filter0_d_883_2589" x="23.7422" y="44.7162" width="46.5193" height="32.2897" filterUnits="userSpaceOnUse" color-interpolation-filters="sRGB">
<feFlood flood-opacity="0" result="BackgroundImageFix"/>
<feColorMatrix in="SourceAlpha" type="matrix" values="0 0 0 0 0 0 0 0 0 0 0 0 0 0 0 0 0 0 127 0" result="hardAlpha"/>
<feMorphology radius="2.18912" operator="erode" in="SourceAlpha" result="effect1_dropShadow_883_2589"/>
<feOffset dy="1.09456"/>
<feGaussianBlur stdDeviation="7.11463"/>
<feComposite in2="hardAlpha" operator="out"/>
<feColorMatrix type="matrix" values="0 0 0 0 0 0 0 0 0 0 0 0 0 0 0 0 0 0 0.28 0"/>
<feBlend mode="normal" in2="BackgroundImageFix" result="effect1_dropShadow_883_2589"/>
<feBlend mode="normal" in="SourceGraphic" in2="effect1_dropShadow_883_2589" result="shape"/>
</filter>
<clipPath id="clip0_883_2589">
<rect x="35.7823" y="55.6617" width="22.439" height="8.2094" rx="2.18912" fill="white"/>
</clipPath>
<clipPath id="clip1_883_2589">
<rect width="4.37835" height="4.37835" fill="white" transform="translate(37.9714 57.5774)"/>
</clipPath>
</defs>
</svg>
