<svg width="190" height="29" viewBox="0 0 190 29" fill="none" xmlns="http://www.w3.org/2000/svg">
<path d="M7.19547 20.5142C7.19547 24.4878 3.97365 27.7073 0 27.7073V13.321C3.97365 13.3187 7.19547 16.5405 7.19547 20.5142Z" fill="#663AF5"/>
<path d="M25.5789 2.13062V16.5168C21.6053 16.5168 18.3858 13.295 18.3858 9.32373C18.3858 5.35243 21.6053 2.13062 25.5789 2.13062Z" fill="#663AF5"/>
<path d="M25.5789 20.2173V27.6461C25.1193 27.6861 24.6527 27.7074 24.1813 27.7074C18.3575 27.7074 12.7741 24.2357 10.3702 18.8998C9.57353 17.1322 9.12573 15.2137 8.21834 13.5002C6.86551 10.9407 4.27769 9.50067 1.39526 9.50067C0.919172 9.50067 0.454873 9.54309 0 9.62087C0 9.62087 0 2.19443 0 2.19207C0 1.89982 4.13863 2.39476 4.47802 2.46782C6.10189 2.81428 7.66448 3.43649 9.09274 4.27788C11.9492 5.96067 14.299 8.54614 15.5317 11.6407C16.234 13.4013 16.6111 15.315 17.6458 16.9059C19.0552 19.0718 21.6147 20.3398 24.1789 20.3398C24.6574 20.3375 25.1264 20.2951 25.5789 20.2173Z" fill="#663AF5"/>
<path d="M33.3659 27.7286V2.0813H37.7261L51.245 19.3005V2.0813H55.9705V27.7286H51.6103L38.0914 10.5448V27.7286H33.3659Z" fill="white"/>
<path d="M59.3431 18.2023C59.3431 15.308 60.2953 12.9253 62.202 11.0209C64.144 9.07887 66.5245 8.12671 69.4187 8.12671C72.3129 8.12671 74.6957 9.07887 76.6354 11.0209C78.5774 12.9253 79.5296 15.308 79.5296 18.2023C79.5296 21.0965 78.5774 23.4792 76.6354 25.4189C74.6933 27.3233 72.3129 28.2778 69.4187 28.2778C66.5245 28.2778 64.1417 27.3256 62.202 25.4189C60.2953 23.4792 59.3431 21.0965 59.3431 18.2023ZM64.0686 18.2023C64.0686 19.779 64.5824 21.0611 65.6077 22.1217C66.6329 23.1846 67.915 23.6961 69.4187 23.6961C70.92 23.6961 72.2021 23.1823 73.2297 22.1217C74.2549 21.0588 74.7687 19.7766 74.7687 18.2023C74.7687 16.6279 74.2549 15.3457 73.2297 14.2828C72.2045 13.2199 70.9224 12.7084 69.4187 12.7084C67.9174 12.7084 66.6352 13.2222 65.6077 14.2828C64.5824 15.3434 64.0686 16.6279 64.0686 18.2023Z" fill="white"/>
<path d="M97.0457 10.1794V0.25H101.59V27.7285H97.0457V26.2272C95.3606 27.5824 93.4185 28.2801 91.2573 28.2801C88.62 28.2801 86.421 27.3279 84.6251 25.4212C82.8669 23.4791 81.9878 21.0987 81.9878 18.2045C81.9878 15.3103 82.8669 12.9275 84.6251 11.0232C86.421 9.08112 88.6176 8.12896 91.2573 8.12896C93.4162 8.12661 95.3582 8.82187 97.0457 10.1794ZM91.8418 12.706C90.4135 12.706 89.1668 13.2198 88.1769 14.2803C87.187 15.3433 86.7109 16.6254 86.7109 18.1998C86.7109 19.7765 87.187 21.0587 88.1769 22.1192C89.1668 23.1822 90.4112 23.6936 91.8418 23.6936C93.2701 23.6936 94.4791 23.1798 95.469 22.1192C96.4589 21.0563 96.9703 19.7742 96.9703 18.1998C96.9703 16.6254 96.4565 15.3433 95.469 14.2803C94.4791 13.2198 93.2701 12.706 91.8418 12.706Z" fill="white"/>
<path d="M105.471 0.25H110.051V10.1794C111.736 8.82423 113.64 8.1266 115.804 8.1266C118.441 8.1266 120.64 9.07876 122.436 11.0208C124.232 12.9251 125.111 15.3079 125.111 18.2021C125.111 21.0964 124.232 23.4791 122.436 25.4188C120.64 27.3232 118.444 28.2777 115.804 28.2777C113.643 28.2777 111.736 27.5824 110.051 26.2249V27.7262H105.471V0.25ZM115.217 12.706C113.789 12.706 112.58 13.2198 111.59 14.2803C110.6 15.3433 110.124 16.6254 110.124 18.1998C110.124 19.7765 110.6 21.0587 111.59 22.1192C112.58 23.1822 113.789 23.6936 115.217 23.6936C116.645 23.6936 117.854 23.1798 118.844 22.1192C119.834 21.0563 120.346 19.7742 120.346 18.1998C120.346 16.6254 119.832 15.3433 118.844 14.2803C117.857 13.2198 116.648 12.706 115.217 12.706Z" fill="white"/>
<path d="M142.625 10.1795V8.67816H147.169V27.731H142.625V26.2296C140.94 27.5848 138.998 28.2825 136.836 28.2825C134.199 28.2825 132 27.3303 130.204 25.4236C128.446 23.4816 127.567 21.1011 127.567 18.2069C127.567 15.3127 128.446 12.9299 130.204 11.0256C132 9.08354 134.199 8.13137 136.836 8.13137C138.998 8.12666 140.94 8.82193 142.625 10.1795ZM137.421 12.706C135.993 12.706 134.746 13.2198 133.756 14.2804C132.766 15.3433 132.29 16.6255 132.29 18.1998C132.29 19.7766 132.766 21.0587 133.756 22.1193C134.746 23.1822 135.99 23.6937 137.421 23.6937C138.852 23.6937 140.058 23.1799 141.048 22.1193C142.038 21.0564 142.549 19.7742 142.549 18.1998C142.549 16.6255 142.036 15.3433 141.048 14.2804C140.061 13.2198 138.852 12.706 137.421 12.706Z" fill="white"/>
<path d="M151.051 8.67577H155.63V10.9831C157.023 9.07879 158.927 8.12427 161.345 8.12427C163.507 8.12427 165.265 8.81954 166.695 10.2502C168.124 11.6784 168.857 13.4366 168.857 15.5625V27.7262H164.277V16.8446C164.277 14.3534 162.446 12.4844 159.99 12.4844C157.499 12.4844 155.63 14.3534 155.63 16.8446V27.7262H151.051V8.67577Z" fill="white"/>
<path d="M172.743 0.25H177.322V16.847L183.698 8.67575H189.229L182.086 17.8722L190 27.7285H184.393L177.322 18.8998V27.7285H172.743V0.25Z" fill="white"/>
</svg>
