<svg width="124" height="22" viewBox="0 0 124 22" fill="none" xmlns="http://www.w3.org/2000/svg">
<path d="M28.5217 19.1242V3.64819H31.1527L39.3102 14.0385V3.64819H42.1617V19.1242H39.5307L31.3732 8.75518V19.1242H28.5217Z" fill="white"/>
<path d="M44.1968 13.3757C44.1968 11.6293 44.7713 10.1915 45.9219 9.04237C47.0937 7.87051 48.5301 7.29596 50.2765 7.29596C52.0229 7.29596 53.4607 7.87051 54.6312 9.04237C55.803 10.1915 56.3776 11.6293 56.3776 13.3757C56.3776 15.1221 55.803 16.5599 54.6312 17.7304C53.4593 18.8795 52.0229 19.4554 50.2765 19.4554C48.5301 19.4554 47.0923 18.8809 45.9219 17.7304C44.7713 16.5599 44.1968 15.1221 44.1968 13.3757ZM47.0482 13.3757C47.0482 14.3271 47.3582 15.1008 47.9769 15.7408C48.5955 16.3822 49.3692 16.6908 50.2765 16.6908C51.1824 16.6908 51.9561 16.3807 52.5762 15.7408C53.1948 15.0994 53.5048 14.3257 53.5048 13.3757C53.5048 12.4257 53.1948 11.652 52.5762 11.0106C51.9575 10.3693 51.1839 10.0606 50.2765 10.0606C49.3706 10.0606 48.5969 10.3707 47.9769 11.0106C47.3582 11.6506 47.0482 12.4257 47.0482 13.3757Z" fill="white"/>
<path d="M66.947 8.53469V2.54312H69.689V19.1241H66.947V18.2182C65.9302 19.0359 64.7583 19.4569 63.4542 19.4569C61.8628 19.4569 60.5359 18.8823 59.4522 17.7318C58.3913 16.56 57.8608 15.1236 57.8608 13.3772C57.8608 11.6307 58.3913 10.1929 59.4522 9.04382C60.5359 7.87196 61.8614 7.29741 63.4542 7.29741C64.7569 7.29599 65.9288 7.71552 66.947 8.53469ZM63.8069 10.0592C62.9451 10.0592 62.1927 10.3693 61.5954 11.0093C60.9981 11.6506 60.7109 12.4243 60.7109 13.3743C60.7109 14.3257 60.9981 15.0994 61.5954 15.7394C62.1927 16.3808 62.9436 16.6894 63.8069 16.6894C64.6687 16.6894 65.3983 16.3793 65.9956 15.7394C66.5929 15.098 66.9015 14.3243 66.9015 13.3743C66.9015 12.4243 66.5915 11.6506 65.9956 11.0093C65.3983 10.3693 64.6687 10.0592 63.8069 10.0592Z" fill="white"/>
<path d="M72.0314 2.54312H74.7946V8.53469C75.8115 7.71695 76.9606 7.29599 78.2661 7.29599C79.8575 7.29599 81.1844 7.87054 82.2681 9.0424C83.3518 10.1915 83.8822 11.6293 83.8822 13.3757C83.8822 15.1221 83.3518 16.56 82.2681 17.7304C81.1844 18.8795 79.859 19.4555 78.2661 19.4555C76.962 19.4555 75.8115 19.0359 74.7946 18.2168V19.1227H72.0314V2.54312ZM77.912 10.0592C77.0502 10.0592 76.3206 10.3693 75.7233 11.0093C75.126 11.6506 74.8387 12.4243 74.8387 13.3743C74.8387 14.3257 75.126 15.0994 75.7233 15.7394C76.3206 16.3808 77.0502 16.6894 77.912 16.6894C78.7738 16.6894 79.5034 16.3793 80.1007 15.7394C80.698 15.098 81.0066 14.3243 81.0066 13.3743C81.0066 12.4243 80.6966 11.6506 80.1007 11.0093C79.5048 10.3693 78.7753 10.0592 77.912 10.0592Z" fill="white"/>
<path d="M94.4503 8.5347V7.62879H97.1923V19.1255H94.4503V18.2196C93.4335 19.0374 92.2616 19.4583 90.9575 19.4583C89.3661 19.4583 88.0392 18.8838 86.9555 17.7332C85.8946 16.5614 85.3641 15.125 85.3641 13.3786C85.3641 11.6322 85.8946 10.1944 86.9555 9.04526C88.0392 7.8734 89.3661 7.29884 90.9575 7.29884C92.2616 7.296 93.4335 7.71554 94.4503 8.5347ZM91.3102 10.0593C90.4484 10.0593 89.696 10.3693 89.0987 11.0093C88.5014 11.6507 88.2142 12.4243 88.2142 13.3743C88.2142 14.3257 88.5014 15.0994 89.0987 15.7394C89.696 16.3808 90.4469 16.6894 91.3102 16.6894C92.1734 16.6894 92.9016 16.3793 93.4989 15.7394C94.0962 15.098 94.4048 14.3243 94.4048 13.3743C94.4048 12.4243 94.0948 11.6507 93.4989 11.0093C92.903 10.3693 92.1734 10.0593 91.3102 10.0593Z" fill="white"/>
<path d="M99.5345 7.6274H102.298V9.0197C103.138 7.87059 104.287 7.29462 105.747 7.29462C107.051 7.29462 108.112 7.71416 108.975 8.57741C109.837 9.43924 110.279 10.5002 110.279 11.783V19.1227H107.516V12.5566C107.516 11.0534 106.411 9.92562 104.929 9.92562C103.426 9.92562 102.298 11.0534 102.298 12.5566V19.1227H99.5345V7.6274Z" fill="white"/>
<path d="M112.624 2.54312H115.387V12.558L119.234 7.62735H122.572L118.261 13.1766L123.037 19.1241H119.654L115.387 13.7967V19.1241H112.624V2.54312Z" fill="white"/>
<path d="M6.18197 15.8201C6.18197 19.234 3.41395 22 0 22V9.64011C3.41395 9.63808 6.18197 12.4061 6.18197 15.8201Z" fill="#F3EA77"/>
<path d="M21.9761 0.0259094V12.3858C18.5621 12.3858 15.7961 9.61778 15.7961 6.20585C15.7961 2.79392 18.5621 0.0259094 21.9761 0.0259094Z" fill="#F3EA77"/>
<path d="M21.9761 15.5649V21.9474C21.5812 21.9818 21.1803 22 20.7753 22C15.7718 22 10.9749 19.0173 8.90949 14.433C8.22508 12.9143 7.84035 11.2661 7.06077 9.79399C5.89849 7.59497 3.67516 6.35776 1.19873 6.35776C0.789704 6.35776 0.390803 6.39421 0 6.46103C0 6.46103 0 0.0806263 0 0.0786014C0 -0.172484 3.5557 0.252738 3.84728 0.315509C5.24242 0.613167 6.58492 1.14774 7.812 1.87062C10.2662 3.31639 12.285 5.53768 13.344 8.19635C13.9474 9.70894 14.2714 11.3532 15.1603 12.72C16.3712 14.5808 18.5702 15.6702 20.7733 15.6702C21.1843 15.6682 21.5873 15.6317 21.9761 15.5649Z" fill="#F3EA77"/>
</svg>
