<svg width="243" height="32" viewBox="0 0 243 32" fill="none" xmlns="http://www.w3.org/2000/svg">
<path fill-rule="evenodd" clip-rule="evenodd" d="M3.86147e-07 28.976C-0.000833656 30.6464 1.34953 32.0008 3.01508 32L25.1336 31.99C26.7975 31.9893 28.1459 30.6363 28.1459 28.9675L28.1458 3.03528C28.1458 1.36668 26.7976 0.013746 25.1338 0.0127838L3.02842 5.13448e-07C1.3639 -0.000962061 0.0137933 1.35162 0.0129598 3.021L3.86147e-07 28.976Z" fill="#0068EB"/>
<path fill-rule="evenodd" clip-rule="evenodd" d="M13.9535 13.9924C19.5834 13.9924 23.9279 9.76913 24.1291 3.99786L20.102 4.0092C19.7435 12.052 8.19825 11.8238 8.04205 3.99786L4.01517 3.99756C4.07819 9.43645 8.4309 13.9925 13.9536 13.9925L13.9535 13.9924Z" fill="#FFFEFE"/>
<path d="M51.9953 9.01892C51.9953 13.3354 52.0406 17.0562 52.1314 20.1812C51.3137 18.5624 50.0532 16.3595 48.3498 13.5716L42.4219 3.99429H36.2218V28.0047H41.7065V22.9801C41.7065 18.6636 41.6611 14.9655 41.5704 11.8855C42.2746 13.2569 43.5348 15.4375 45.352 18.4277L51.2798 28.0051H57.48V3.9946H51.9953V9.01924V9.01892ZM68.156 28.4093C70.9497 28.4093 73.1867 27.5774 74.8674 25.9137C76.5254 24.2725 77.3543 22.0692 77.3543 19.3041C77.3543 16.5163 76.5254 14.302 74.8674 12.6607C73.2094 11.0195 70.9724 10.199 68.156 10.199C65.3397 10.199 63.1027 11.0195 61.4447 12.6607C59.764 14.3244 58.9236 16.5388 58.9236 19.3041C58.9236 22.047 59.764 24.25 61.4447 25.9137C63.1254 27.5774 65.3624 28.4093 68.156 28.4093ZM68.156 24.1937C66.907 24.1937 65.9532 23.7778 65.2943 22.9459C64.6358 22.1141 64.3064 20.9002 64.3064 19.3038C64.3064 17.7078 64.6358 16.4936 65.2943 15.6617C65.9529 14.8299 66.9067 14.4139 68.156 14.4139C69.3824 14.4139 70.325 14.8299 70.9835 15.6617C71.6421 16.4936 71.9715 17.7075 71.9715 19.3038C71.9715 20.8998 71.6421 22.1141 70.9835 22.9459C70.325 23.7778 69.3824 24.1937 68.156 24.1937ZM90.7214 12.6942C89.5178 11.0305 87.8032 10.1987 85.5773 10.1987C83.2154 10.1987 81.3529 11.0192 79.9904 12.6604C78.6049 14.3016 77.9122 16.516 77.9122 19.3038C77.9122 22.0916 78.6049 24.306 79.9904 25.9472C81.3532 27.5885 83.2154 28.409 85.5773 28.409C87.9166 28.409 89.6769 27.5208 90.8579 25.7448V28.0041H96.0361V3.99365H90.7217V12.6939L90.7214 12.6942ZM87.0421 24.1937C84.5437 24.1937 83.2946 22.6088 83.2946 19.4389C83.2946 17.8201 83.6241 16.5783 84.2826 15.7126C84.9412 14.8469 85.8611 14.4143 87.0421 14.4143C89.5628 14.4143 90.8234 16.0441 90.8234 19.3038C90.8234 22.5635 89.5628 24.1934 87.0421 24.1934V24.1937Z" fill="#0068EB"/>
<path d="M109.404 28.5444C112.492 28.5444 115.104 27.6901 117.239 25.9815C119.351 24.2729 120.589 21.8675 120.953 18.7649H115.195C114.923 20.2936 114.264 21.4851 113.219 22.3397C112.174 23.194 110.903 23.6213 109.404 23.6213C107.451 23.6213 105.946 22.958 104.89 21.6315C103.834 20.305 103.306 18.4278 103.306 15.9999C103.306 13.5717 103.834 11.6945 104.89 10.368C105.946 9.04177 107.451 8.3785 109.404 8.3785C110.835 8.3785 112.044 8.74382 113.032 9.47445C114.02 10.2051 114.696 11.2448 115.059 12.5937H120.885C120.453 9.67119 119.17 7.41159 117.035 5.81558C114.946 4.2417 112.402 3.45508 109.404 3.45508C105.702 3.45508 102.761 4.57919 100.581 6.8274C98.4003 9.07561 97.3104 12.1332 97.3104 15.9999C97.3104 19.8217 98.4233 22.8682 100.649 25.1386C102.875 27.4092 105.793 28.5444 109.405 28.5444H109.404ZM132.889 10.1994C130.64 10.1994 128.846 11.0986 127.506 12.8974V3.99468H122.191V28.0051H127.506V18.293C127.506 17.1465 127.824 16.2583 128.46 15.6289C129.096 14.9995 129.891 14.6848 130.845 14.6848C132.73 14.6848 133.672 15.6741 133.672 17.6522V28.0051H138.987V16.6069C138.987 14.5611 138.436 12.9818 137.334 11.8688C136.233 10.7561 134.751 10.1994 132.889 10.1994ZM158.384 19.8103C158.384 16.8877 157.566 14.5497 155.931 12.7962C154.251 11.0651 152.048 10.1994 149.322 10.1994C146.574 10.1994 144.382 11.0313 142.747 12.695C141.089 14.3362 140.26 16.5395 140.26 19.3045C140.26 22.0474 141.101 24.2504 142.781 25.9141C144.462 27.5778 146.665 28.4097 149.391 28.4097C151.548 28.4097 153.399 27.8868 154.944 26.8415C156.488 25.7961 157.499 24.3741 157.976 22.5756H152.933C152.298 23.8794 151.117 24.5316 149.391 24.5316C148.3 24.5316 147.403 24.2169 146.699 23.5875C145.995 22.958 145.552 22.0474 145.371 20.8559H158.384V19.8106L158.384 19.8103ZM149.254 14.0775C150.321 14.0775 151.196 14.3811 151.877 14.9881C152.558 15.595 152.99 16.4383 153.172 17.5172H145.404C145.79 15.224 147.073 14.0775 149.254 14.0775ZM168.106 28.4097C170.559 28.4097 172.58 27.7578 174.17 26.4537C175.76 25.1272 176.634 23.3623 176.793 21.1593H171.513C171.286 23.1152 170.15 24.0932 168.106 24.0932C165.676 24.0932 164.461 22.4972 164.461 19.3045C164.461 16.0897 165.676 14.4823 168.106 14.4823C170.014 14.4823 171.115 15.3705 171.411 17.1465H176.691C176.441 15.0109 175.55 13.319 174.017 12.0712C172.484 10.8234 170.514 10.1997 168.106 10.1997C165.358 10.1997 163.167 11.0202 161.531 12.6614C159.896 14.3027 159.078 16.517 159.078 19.3048C159.078 22.0477 159.896 24.2507 161.531 25.9144C163.167 27.5781 165.358 28.41 168.106 28.41L168.106 28.4097ZM195.918 28.0048L188.934 17.3486L195.543 10.6039H189.445L182.938 17.4833V3.99436H177.725V28.0048H182.938V23.25L185.322 20.8218L189.853 28.0048H195.917H195.918ZM203.493 28.4097C206.287 28.4097 208.524 27.5778 210.205 25.9141C211.863 24.2729 212.692 22.0696 212.692 19.3045C212.692 16.5167 211.863 14.3024 210.205 12.6611C208.547 11.0199 206.31 10.1994 203.493 10.1994C200.677 10.1994 198.44 11.0199 196.782 12.6611C195.101 14.3248 194.261 16.5392 194.261 19.3045C194.261 22.0474 195.101 24.2504 196.782 25.9141C198.463 27.5778 200.7 28.4097 203.493 28.4097ZM203.493 24.1941C202.244 24.1941 201.291 23.7782 200.632 22.9463C199.973 22.1145 199.644 20.9005 199.644 19.3042C199.644 17.7082 199.973 16.494 200.632 15.6621C201.29 14.8302 202.244 14.4143 203.493 14.4143C204.72 14.4143 205.662 14.8302 206.321 15.6621C206.979 16.494 207.309 17.7079 207.309 19.3042C207.309 20.9002 206.979 22.1145 206.321 22.9463C205.662 23.7782 204.72 24.1941 203.493 24.1941ZM225.071 20.316C225.071 21.4626 224.753 22.3507 224.117 22.9802C223.481 23.6096 222.686 23.9243 221.732 23.9243C219.847 23.9243 218.905 22.9349 218.905 20.9568V10.6039H213.59V22.0022C213.59 24.048 214.141 25.6272 215.242 26.7403C216.344 27.853 217.826 28.4097 219.688 28.4097C222.005 28.4097 223.844 27.4541 225.207 25.5431V28.0048H230.385V10.6039H225.07V20.316H225.071ZM242.526 10.6039H239.154V5.44425H233.839V10.6039H231.216V14.4482H233.839V23.1484C233.839 24.9244 234.327 26.2004 235.304 26.9759C236.28 27.7515 237.87 28.1392 240.074 28.1392C241.073 28.1392 241.89 28.0943 242.526 28.0045V24.0926H241.163C240.414 24.0926 239.892 23.9857 239.597 23.7722C239.301 23.5587 239.154 23.1595 239.154 22.575V14.4478H242.526V10.6036V10.6039Z" fill="#32394C"/>
</svg>
