<svg width="216" height="43" viewBox="0 0 216 43" fill="none" xmlns="http://www.w3.org/2000/svg">
<g clip-path="url(#clip0_869_2593)">
<path fill-rule="evenodd" clip-rule="evenodd" d="M213.012 12.4003C211.992 12.6357 211.089 13.0673 210.148 13.4204C207.754 14.3228 190.923 21.0319 189.981 21.228C189.118 21.0711 184.41 19.1094 183.194 18.6386C179.623 17.2654 179.82 16.6769 179.82 12.4395C179.82 9.26155 179.82 6.08356 179.82 2.90558C179.78 -1.33174 183.272 0.708452 185.587 1.65008C187.235 2.27783 212.423 11.9295 213.012 12.4003Z" fill="#29C9EC"/>
<path fill-rule="evenodd" clip-rule="evenodd" d="M213.208 30.0989L182.292 42.2223C180.683 42.6539 179.82 41.5161 179.82 40.0252C179.781 36.808 179.82 33.5907 179.82 30.3343C179.82 26.4108 179.349 25.3908 183.037 23.9783L189.981 21.3496C193.944 22.8405 197.75 24.3314 201.595 25.8223C203.243 26.4501 212.149 30.1381 213.208 30.0989Z" fill="#E73E89"/>
<path fill-rule="evenodd" clip-rule="evenodd" d="M213.208 30.0978C212.149 30.137 203.243 26.449 201.595 25.8212C197.75 24.3303 193.944 22.8394 189.982 21.3485V21.2308C190.923 21.0346 207.755 14.3256 210.148 13.4232C211.09 13.0701 211.992 12.6385 213.012 12.4031C215.249 12.717 215.052 14.3648 215.052 15.6203V26.4882C215.052 28.6069 215.17 29.6662 213.208 30.0978Z" fill="#3A2E91"/>
<path d="M15.9769 31.0732C16.2908 31.5832 16.8008 31.8186 17.4678 31.8186H20.9204C21.3128 31.8186 21.7051 31.5048 21.7051 31.0732V8.1603C21.7051 7.80719 21.3128 7.45408 20.9204 7.45408H17.7424C17.3501 7.45408 17.0362 7.80719 17.0362 8.1603V24.0502L6.83527 8.04259C6.56063 7.57178 6.16829 7.45408 5.73671 7.45408H1.6171C1.18552 7.45408 0.871643 7.80719 0.871643 8.1603V31.0732C0.871643 31.5048 1.18552 31.8186 1.6171 31.8186H4.79508C5.22666 31.8186 5.54054 31.5048 5.54054 31.0732V14.8301L15.9769 31.0732ZM23.2745 23.4617C23.2745 28.4445 27.2764 32.2894 32.2984 32.2894C37.3204 32.2894 41.3223 28.4445 41.3223 23.4617C41.3223 18.4005 37.3204 14.5555 32.2984 14.5555C27.2764 14.5555 23.2745 18.4005 23.2745 23.4617ZM27.7864 23.4225C27.7864 20.833 29.7089 18.7143 32.2984 18.7143C34.8879 18.7143 36.7711 20.833 36.7711 23.4225C36.7711 26.0512 34.8879 28.1306 32.2984 28.1306C29.7089 28.1306 27.7864 26.0512 27.7864 23.4225ZM46.0304 23.4225C46.0304 20.833 47.9529 18.7143 50.5424 18.7143C53.1711 18.7143 55.0543 20.833 55.0543 23.4225C55.0543 26.0904 53.1711 28.1698 50.5424 28.1698C47.9529 28.1698 46.0304 26.0904 46.0304 23.4225ZM41.4792 23.3832C41.4792 28.8368 45.4419 32.2894 49.8754 32.2894C52.2687 32.2894 54.0735 31.2694 55.0543 29.7784V31.1124C55.0543 31.5048 55.3682 31.8186 55.7213 31.8186H58.7816C59.174 31.8186 59.4878 31.5048 59.4878 31.1124V8.1603C59.4878 7.76795 59.174 7.45408 58.7816 7.45408H55.7213C55.3682 7.45408 55.0151 7.76795 55.0151 8.1603V17.0273C54.1519 15.6148 52.2295 14.5555 49.7969 14.5555C45.4811 14.5555 41.4792 18.0081 41.4792 23.3832ZM62.9012 26.8751C62.9012 30.6416 65.7261 32.1717 68.4725 32.1717C70.4342 32.1717 72.1605 31.5832 73.2199 30.4847C73.573 30.1316 73.6122 29.7784 73.3376 29.3469L72.2782 27.6598C71.9644 27.189 71.4543 27.189 70.905 27.5029C70.3165 27.8952 69.728 28.0129 69.3357 28.0129C68.5117 28.0129 67.4132 27.5421 67.4132 25.855V18.7928H72.2782C72.6706 18.7928 73.0237 18.4397 73.0237 18.0474V15.7718C73.0237 15.3402 72.6706 15.0263 72.2782 15.0263H67.4132V10.3574C67.4132 9.96508 67.0993 9.6512 66.707 9.6512H63.6467C63.2151 9.6512 62.9012 9.96508 62.9012 10.3574V15.0263H60.6256C60.2333 15.0263 59.9194 15.3402 59.9194 15.7718V18.0474C59.9194 18.4397 60.2333 18.7928 60.6256 18.7928H62.9012V26.8751ZM82.2045 14.8301C80.439 14.8301 78.9873 15.811 78.0849 17.3019V15.6933C78.0849 15.301 77.771 15.0263 77.4179 15.0263H74.5146C74.1223 15.0263 73.8084 15.3402 73.8084 15.7718V31.1124C73.8084 31.5048 74.1223 31.8186 74.5146 31.8186H77.5749C77.9672 31.8186 78.3203 31.544 78.3203 31.1516V23.6186C78.3203 20.6761 79.6151 19.5775 81.8122 19.5775H82.6754C82.95 19.5775 83.4993 19.3813 83.4993 18.6751V15.6933C83.4993 14.9871 83.0677 14.8301 82.7146 14.8301H82.2045ZM87.305 23.4225C87.305 20.833 89.2667 18.7143 91.817 18.7143C94.4457 18.7143 96.3289 20.833 96.3289 23.4225C96.3289 26.0904 94.4457 28.1698 91.817 28.1698C89.2667 28.1698 87.305 26.0904 87.305 23.4225ZM82.7931 23.3832C82.7931 28.8368 86.8342 32.2894 91.15 32.2894C93.5433 32.2894 95.4658 31.2694 96.3289 29.7784V31.1124C96.3289 31.5048 96.6428 31.8186 97.0351 31.8186H100.095C100.449 31.8186 100.762 31.5048 100.762 31.1124V15.7718C100.762 15.3402 100.449 15.0263 100.095 15.0263H97.0351C96.6428 15.0263 96.3289 15.3402 96.3289 15.7718V17.1057C95.505 15.5756 93.5825 14.5555 91.1892 14.5555C86.795 14.5555 82.7931 18.0081 82.7931 23.3832ZM115.436 31.1516C115.436 31.544 115.789 31.8186 116.182 31.8186H119.203C119.595 31.8186 119.948 31.544 119.948 31.1516V21.8139C119.948 17.6943 117.202 14.5555 112.729 14.5555C110.061 14.5555 108.138 15.6541 107.158 17.0273V15.6933C107.158 15.301 106.805 15.0263 106.412 15.0263H103.352C102.999 15.0263 102.685 15.3402 102.685 15.7718V31.1124C102.685 31.5048 102.999 31.8186 103.352 31.8186H106.412C106.805 31.8186 107.158 31.544 107.158 31.1516V23.0301C107.158 20.4407 108.845 18.6751 111.356 18.6751C113.984 18.6751 115.436 20.4014 115.436 23.0301V31.1516ZM128.187 14.5555C123.871 14.5555 121.086 16.8703 121.086 19.9306C121.086 22.677 122.891 24.3249 125.637 24.8741L128.305 25.4627C130.07 25.8158 130.973 26.1296 130.973 27.1105C130.973 27.9737 130.11 28.7976 128.305 28.7976C126.539 28.7976 125.127 28.0129 124.028 27.032C123.597 26.6789 123.126 26.4043 122.459 26.9536L121.164 27.9737C120.458 28.5622 120.419 29.3469 121.674 30.3277C123.048 31.3478 125.166 32.2894 128.109 32.2894C132.542 32.2894 135.603 29.9354 135.603 26.7182C135.603 23.6579 133.405 22.2454 130.463 21.6962L127.716 21.1469C126.186 20.8722 125.598 20.3622 125.598 19.5775C125.598 18.7536 126.579 18.0474 128.109 18.0474C129.6 18.0474 130.973 18.6751 132.071 19.499C132.738 19.8914 133.248 19.8521 133.641 19.3813L134.739 18.0474C135.132 17.6158 135.249 17.1057 134.7 16.6742C133.641 15.7325 131.404 14.5555 128.187 14.5555ZM135.995 15.0263C135.603 15.0263 135.289 15.3402 135.289 15.7718V18.0474C135.289 18.4397 135.603 18.7928 135.995 18.7928H138.27V31.0732C138.27 31.4655 138.624 31.8186 139.016 31.8186H142.076C142.469 31.8186 142.782 31.4655 142.782 31.0732V18.7928H146.078C146.47 18.7928 146.824 18.4397 146.824 18.0474V15.7718C146.824 15.3402 146.47 15.0263 146.078 15.0263H142.782V12.79C142.782 11.2598 143.685 10.6321 144.626 10.6321C145.058 10.6321 145.607 10.7498 146.274 11.1813C146.667 11.4168 147.216 11.6914 147.608 11.1029L148.942 9.29809C149.256 8.82728 149.217 8.43494 148.864 8.12106C147.726 7.0225 145.764 6.51245 144.234 6.51245C141.292 6.51245 138.27 8.31723 138.27 12.3976V15.0263H135.995ZM154.827 14.5555C149.648 14.5555 145.96 18.5182 145.96 23.5009C145.96 28.4837 149.648 32.2894 154.906 32.2894C158.633 32.2894 160.791 30.8378 162.164 29.0722C162.4 28.7976 162.4 28.3268 162.047 28.0521L159.849 26.522C159.457 26.2474 159.182 26.4043 158.947 26.7182C157.927 27.856 156.789 28.4837 154.984 28.4837C152.748 28.4837 150.865 26.9143 150.59 24.5603H162.596C163.263 24.5603 163.38 24.2072 163.38 23.7756V22.9517C163.38 18.4789 160.006 14.5555 154.827 14.5555ZM150.708 21.6962C151.179 19.5775 152.787 18.1651 154.867 18.1651C156.789 18.1651 158.555 19.3421 158.947 21.6962H150.708ZM172.561 14.8301C170.796 14.8301 169.305 15.811 168.442 17.3019V15.6933C168.442 15.301 168.128 15.0263 167.736 15.0263H164.871C164.479 15.0263 164.165 15.3402 164.165 15.7718V31.1124C164.165 31.5048 164.479 31.8186 164.871 31.8186H167.932C168.285 31.8186 168.638 31.544 168.638 31.1516V23.6186C168.638 20.6761 169.933 19.5775 172.169 19.5775H172.993C173.268 19.5775 173.856 19.3813 173.856 18.6751V15.6933C173.856 14.9871 173.424 14.8301 173.032 14.8301H172.561Z" fill="#3B2F92"/>
</g>
<defs>
<clipPath id="clip0_869_2593">
<rect width="214.181" height="41.9949" fill="white" transform="translate(0.871643 0.305664)"/>
</clipPath>
</defs>
</svg>
