<svg width="230" height="221" viewBox="0 0 230 221" fill="none" xmlns="http://www.w3.org/2000/svg">
<rect y="0.28125" width="230" height="220" rx="16" fill="white"/>
<path d="M24.696 25.8812V34.2812H26.304V31.3172H28.26L30.024 34.2812H31.812L29.892 31.0412C30.864 30.6092 31.488 29.6852 31.488 28.5932C31.488 27.8252 31.212 27.1772 30.648 26.6612C30.096 26.1452 29.412 25.8812 28.584 25.8812H24.696ZM28.584 27.3692C29.292 27.3692 29.808 27.8852 29.808 28.5932C29.808 29.3012 29.292 29.8292 28.584 29.8292H26.304V27.3692H28.584ZM38.9918 31.7132C39.0278 31.4732 39.0398 31.2932 39.0398 31.1612C39.0398 30.2252 38.7278 29.4452 38.0918 28.8092C37.4678 28.1732 36.6878 27.8612 35.7638 27.8612C34.8398 27.8612 34.0598 28.1732 33.4238 28.8092C32.7998 29.4332 32.4878 30.2132 32.4878 31.1612C32.4878 32.1092 32.8118 32.8892 33.4478 33.5252C34.0958 34.1492 34.8998 34.4613 35.8598 34.4613C37.1198 34.4613 38.1998 33.8372 38.7758 32.8412L37.3238 32.4212C36.9638 32.8652 36.4718 33.0812 35.8598 33.0812C34.9838 33.0812 34.2638 32.5292 34.0358 31.7132H38.9918ZM34.0478 30.5492C34.2758 29.7692 34.9598 29.2412 35.7398 29.2412C36.5558 29.2412 37.2518 29.7692 37.4918 30.5492H34.0478ZM46.354 29.9252C45.874 28.6772 44.698 27.8612 43.27 27.8612C42.322 27.8612 41.542 28.1732 40.906 28.8092C40.282 29.4332 39.97 30.2132 39.97 31.1612C39.97 32.1092 40.282 32.8892 40.906 33.5252C41.542 34.1492 42.322 34.4613 43.27 34.4613C44.698 34.4613 45.874 33.6452 46.354 32.3972L44.854 31.9532C44.578 32.5772 43.978 32.9612 43.27 32.9612C42.778 32.9612 42.358 32.7932 42.022 32.4452C41.686 32.0972 41.518 31.6772 41.518 31.1612C41.518 30.6452 41.686 30.2252 42.022 29.8772C42.358 29.5292 42.778 29.3612 43.27 29.3612C43.978 29.3612 44.578 29.7452 44.854 30.3692L46.354 29.9252ZM48.2242 33.5252C48.8602 34.1492 49.6402 34.4613 50.5882 34.4613C51.5362 34.4613 52.3162 34.1492 52.9522 33.5252C53.5882 32.8892 53.9002 32.1092 53.9002 31.1612C53.9002 30.2132 53.5882 29.4332 52.9522 28.8092C52.3162 28.1732 51.5362 27.8612 50.5882 27.8612C49.6402 27.8612 48.8602 28.1732 48.2242 28.8092C47.6002 29.4332 47.2882 30.2132 47.2882 31.1612C47.2882 32.1092 47.6002 32.8892 48.2242 33.5252ZM49.3402 29.8772C49.6762 29.5292 50.0962 29.3612 50.5882 29.3612C51.0802 29.3612 51.5002 29.5292 51.8362 29.8772C52.1722 30.2252 52.3402 30.6452 52.3402 31.1612C52.3402 31.6772 52.1722 32.0972 51.8362 32.4452C51.5002 32.7932 51.0802 32.9612 50.5882 32.9612C50.0962 32.9612 49.6762 32.7932 49.3402 32.4452C49.0042 32.0972 48.8362 31.6772 48.8362 31.1612C48.8362 30.6452 49.0042 30.2252 49.3402 29.8772ZM56.6741 34.2812V30.6092C56.6741 29.8532 57.2501 29.2892 57.9821 29.2892C58.7141 29.2892 59.2781 29.8532 59.2781 30.6092V34.2812H60.7781V30.6092C60.7781 29.8532 61.3541 29.2892 62.0861 29.2892C62.8181 29.2892 63.3821 29.8532 63.3821 30.6092V34.2812H64.8701V30.1772C64.8701 29.5172 64.6301 28.9652 64.1621 28.5212C63.6941 28.0772 63.1061 27.8612 62.3861 27.8612C61.5101 27.8612 60.8381 28.1972 60.3941 28.8812C59.9501 28.1972 59.2901 27.8612 58.4261 27.8612C57.6941 27.8612 57.1061 28.1372 56.6741 28.7012V28.0412H55.1741V34.2812H56.6741ZM67.8829 34.2812V30.6092C67.8829 29.8532 68.4589 29.2892 69.1909 29.2892C69.9229 29.2892 70.4869 29.8532 70.4869 30.6092V34.2812H71.9869V30.6092C71.9869 29.8532 72.5629 29.2892 73.2949 29.2892C74.0269 29.2892 74.5909 29.8532 74.5909 30.6092V34.2812H76.0789V30.1772C76.0789 29.5172 75.8389 28.9652 75.3709 28.5212C74.9029 28.0772 74.3149 27.8612 73.5949 27.8612C72.7189 27.8612 72.0469 28.1972 71.6029 28.8812C71.1589 28.1972 70.4989 27.8612 69.6349 27.8612C68.9029 27.8612 68.3149 28.1372 67.8829 28.7012V28.0412H66.3829V34.2812H67.8829ZM83.8676 31.7132C83.9036 31.4732 83.9156 31.2932 83.9156 31.1612C83.9156 30.2252 83.6036 29.4452 82.9676 28.8092C82.3436 28.1732 81.5636 27.8612 80.6396 27.8612C79.7156 27.8612 78.9356 28.1732 78.2996 28.8092C77.6756 29.4332 77.3636 30.2132 77.3636 31.1612C77.3636 32.1092 77.6876 32.8892 78.3236 33.5252C78.9716 34.1492 79.7756 34.4613 80.7356 34.4613C81.9956 34.4613 83.0756 33.8372 83.6516 32.8412L82.1996 32.4212C81.8396 32.8652 81.3476 33.0812 80.7356 33.0812C79.8596 33.0812 79.1396 32.5292 78.9116 31.7132H83.8676ZM78.9236 30.5492C79.1516 29.7692 79.8356 29.2412 80.6156 29.2412C81.4316 29.2412 82.1276 29.7692 82.3676 30.5492H78.9236ZM85.0738 34.2812H86.5738V30.7172C86.5738 29.9012 87.1858 29.2892 88.0018 29.2892C88.8058 29.2892 89.4058 29.9012 89.4058 30.7172V34.2812H90.9058V30.2972C90.9058 29.6012 90.6658 29.0252 90.1978 28.5572C89.7298 28.0892 89.1538 27.8612 88.4458 27.8612C87.6538 27.8612 87.0298 28.1732 86.5738 28.7972V28.0412H85.0738V34.2812ZM95.2234 27.8612C94.3594 27.8612 93.6394 28.1732 93.0514 28.8092C92.4754 29.4332 92.1874 30.2132 92.1874 31.1612C92.1874 32.1092 92.4754 32.8892 93.0514 33.5252C93.6394 34.1492 94.3594 34.4613 95.2234 34.4613C95.9314 34.4613 96.5674 34.2332 97.1194 33.7892V34.2812H98.6074V25.2812H97.1194V28.5332C96.5674 28.0892 95.9314 27.8612 95.2234 27.8612ZM96.6034 29.8772C96.9274 30.2252 97.0954 30.6452 97.0954 31.1612C97.0954 31.6772 96.9274 32.0972 96.6034 32.4452C96.2794 32.7932 95.8834 32.9612 95.4154 32.9612C94.9474 32.9612 94.5394 32.7932 94.2154 32.4452C93.8914 32.0972 93.7354 31.6772 93.7354 31.1612C93.7354 30.6452 93.8914 30.2252 94.2154 29.8772C94.5394 29.5292 94.9474 29.3612 95.4154 29.3612C95.8834 29.3612 96.2794 29.5292 96.6034 29.8772ZM102.928 27.8612C102.064 27.8612 101.344 28.1732 100.756 28.8092C100.18 29.4332 99.8922 30.2132 99.8922 31.1612C99.8922 32.1092 100.18 32.8892 100.756 33.5252C101.344 34.1492 102.064 34.4613 102.928 34.4613C103.636 34.4613 104.272 34.2332 104.824 33.7892V34.2812H106.312V28.0412H104.824V28.5332C104.272 28.0892 103.636 27.8612 102.928 27.8612ZM104.308 29.8772C104.632 30.2252 104.8 30.6452 104.8 31.1612C104.8 31.6772 104.632 32.0972 104.308 32.4452C103.984 32.7932 103.588 32.9612 103.12 32.9612C102.652 32.9612 102.244 32.7932 101.92 32.4452C101.596 32.0972 101.44 31.6772 101.44 31.1612C101.44 30.6452 101.596 30.2252 101.92 29.8772C102.244 29.5292 102.652 29.3612 103.12 29.3612C103.588 29.3612 103.984 29.5292 104.308 29.8772ZM107.309 29.3492H108.197V32.3132C108.197 32.8772 108.401 33.3452 108.809 33.7172C109.217 34.0892 109.721 34.2812 110.321 34.2812H111.245V32.8532H110.465C110.021 32.8532 109.697 32.5292 109.697 32.0972V29.3492H111.245V28.0412H109.697V26.8172H108.197V28.0412H107.309V29.3492ZM113.913 34.2812V28.0412H112.413V34.2812H113.913ZM113.157 27.4892C113.721 27.4892 114.117 27.0692 114.117 26.5292C114.117 25.9892 113.697 25.5812 113.157 25.5812C112.617 25.5812 112.209 25.9892 112.209 26.5292C112.209 27.0692 112.617 27.4892 113.157 27.4892ZM116.138 33.5252C116.774 34.1492 117.554 34.4613 118.502 34.4613C119.45 34.4613 120.23 34.1492 120.866 33.5252C121.502 32.8892 121.814 32.1092 121.814 31.1612C121.814 30.2132 121.502 29.4332 120.866 28.8092C120.23 28.1732 119.45 27.8612 118.502 27.8612C117.554 27.8612 116.774 28.1732 116.138 28.8092C115.514 29.4332 115.202 30.2132 115.202 31.1612C115.202 32.1092 115.514 32.8892 116.138 33.5252ZM117.254 29.8772C117.59 29.5292 118.01 29.3612 118.502 29.3612C118.994 29.3612 119.414 29.5292 119.75 29.8772C120.086 30.2252 120.254 30.6452 120.254 31.1612C120.254 31.6772 120.086 32.0972 119.75 32.4452C119.414 32.7932 118.994 32.9612 118.502 32.9612C118.01 32.9612 117.59 32.7932 117.254 32.4452C116.918 32.0972 116.75 31.6772 116.75 31.1612C116.75 30.6452 116.918 30.2252 117.254 29.8772ZM123.088 34.2812H124.588V30.7172C124.588 29.9012 125.2 29.2892 126.016 29.2892C126.82 29.2892 127.42 29.9012 127.42 30.7172V34.2812H128.92V30.2972C128.92 29.6012 128.68 29.0252 128.212 28.5572C127.744 28.0892 127.168 27.8612 126.46 27.8612C125.668 27.8612 125.044 28.1732 124.588 28.7972V28.0412H123.088V34.2812ZM135.05 29.5412C134.894 28.4972 134.018 27.8612 132.662 27.8612C131.234 27.8612 130.25 28.4972 130.25 29.8052C130.25 30.6812 130.682 31.1973 131.738 31.5452L133.022 31.9532C133.49 32.1092 133.718 32.3132 133.718 32.5532C133.718 32.9372 133.286 33.1652 132.71 33.1652C132.026 33.1652 131.594 32.8652 131.486 32.4212L130.082 32.6252C130.262 33.7652 131.174 34.4613 132.674 34.4613C134.114 34.4613 135.146 33.8012 135.146 32.5052C135.146 31.6052 134.666 31.0292 133.514 30.6332L132.23 30.2012C131.858 30.0692 131.678 29.9012 131.678 29.6972C131.678 29.3492 132.062 29.1572 132.554 29.1572C133.154 29.1572 133.514 29.3612 133.646 29.7692L135.05 29.5412Z" fill="#A4A7B0"/>
<path d="M30.1952 162.281L32.3012 155.703L34.4072 162.281H35.5902L38.6972 153.181H37.2022L35.0312 159.954L32.8992 153.181H31.7162L29.5842 159.954L27.4002 153.181H25.9052L29.0122 162.281H30.1952ZM45.6723 159.395C45.6853 159.174 45.6983 159.005 45.6983 158.901C45.6983 157.887 45.3603 157.042 44.6843 156.366C44.0213 155.69 43.1893 155.352 42.1883 155.352C41.1873 155.352 40.3423 155.69 39.6663 156.366C39.0033 157.042 38.6653 157.887 38.6653 158.901C38.6653 159.915 39.0163 160.76 39.7053 161.436C40.3943 162.112 41.2653 162.45 42.2923 162.45C43.6443 162.45 44.7883 161.8 45.4123 160.747L44.0863 160.344C43.6573 160.903 43.0593 161.189 42.2923 161.189C41.1613 161.189 40.2643 160.448 40.0563 159.395H45.6723ZM40.0693 158.316C40.3163 157.315 41.1613 156.613 42.1493 156.613C43.2023 156.613 44.0603 157.315 44.3073 158.316H40.0693ZM50.872 162.281H52.224V158.407C52.224 157.9 52.406 157.484 52.757 157.146C53.121 156.808 53.563 156.639 54.096 156.639C54.603 156.639 55.032 156.808 55.37 157.146C55.708 157.471 55.877 157.887 55.877 158.394V162.281H57.229V158.004C57.229 157.237 56.969 156.613 56.449 156.106C55.929 155.599 55.279 155.352 54.486 155.352C53.485 155.352 52.731 155.742 52.224 156.509V152.531H50.872V162.281ZM62.121 155.352C61.172 155.352 60.379 155.69 59.742 156.366C59.105 157.042 58.793 157.887 58.793 158.901C58.793 159.915 59.105 160.76 59.742 161.436C60.379 162.112 61.172 162.45 62.121 162.45C62.992 162.45 63.746 162.151 64.37 161.553V162.281H65.722V155.521H64.37V156.249C63.746 155.651 62.992 155.352 62.121 155.352ZM62.264 156.704C62.849 156.704 63.343 156.912 63.746 157.341C64.149 157.757 64.344 158.277 64.344 158.901C64.344 159.525 64.149 160.045 63.746 160.474C63.343 160.89 62.849 161.098 62.264 161.098C61.679 161.098 61.198 160.89 60.795 160.474C60.392 160.045 60.197 159.525 60.197 158.901C60.197 158.277 60.392 157.757 60.795 157.341C61.198 156.912 61.679 156.704 62.264 156.704ZM69.7882 162.281H71.0492L73.8962 155.521H72.5052L70.4252 160.552L68.3322 155.521H66.9412L69.7882 162.281ZM81.5797 159.395C81.5927 159.174 81.6057 159.005 81.6057 158.901C81.6057 157.887 81.2677 157.042 80.5917 156.366C79.9287 155.69 79.0967 155.352 78.0957 155.352C77.0947 155.352 76.2497 155.69 75.5737 156.366C74.9107 157.042 74.5727 157.887 74.5727 158.901C74.5727 159.915 74.9237 160.76 75.6127 161.436C76.3017 162.112 77.1727 162.45 78.1997 162.45C79.5517 162.45 80.6957 161.8 81.3197 160.747L79.9937 160.344C79.5647 160.903 78.9667 161.189 78.1997 161.189C77.0687 161.189 76.1717 160.448 75.9637 159.395H81.5797ZM75.9767 158.316C76.2237 157.315 77.0687 156.613 78.0567 156.613C79.1097 156.613 79.9677 157.315 80.2147 158.316H75.9767ZM156.529 154.78C156.529 154.247 156.919 153.831 157.439 153.831H158.245V152.531H157.335C156.724 152.531 156.217 152.726 155.801 153.129C155.385 153.519 155.177 154.013 155.177 154.598V155.521H154.098V156.704H155.177V162.281H156.529V156.704H158.245V155.521H156.529V154.78ZM160.026 161.436C160.702 162.112 161.547 162.45 162.561 162.45C163.575 162.45 164.42 162.112 165.096 161.436C165.785 160.76 166.123 159.915 166.123 158.901C166.123 157.887 165.785 157.042 165.096 156.366C164.42 155.69 163.575 155.352 162.561 155.352C161.547 155.352 160.702 155.69 160.026 156.366C159.35 157.042 159.012 157.887 159.012 158.901C159.012 159.915 159.35 160.76 160.026 161.436ZM162.561 161.098C161.95 161.098 161.443 160.89 161.027 160.474C160.624 160.045 160.416 159.525 160.416 158.901C160.416 158.277 160.624 157.757 161.027 157.341C161.443 156.912 161.95 156.704 162.561 156.704C163.172 156.704 163.692 156.912 164.095 157.341C164.511 157.757 164.719 158.277 164.719 158.901C164.719 159.525 164.511 160.045 164.095 160.474C163.692 160.89 163.172 161.098 162.561 161.098ZM169.048 155.521H167.696V162.281H169.048V158.511C169.048 158.004 169.217 157.588 169.568 157.263C169.919 156.925 170.361 156.756 170.868 156.756C171.115 156.756 171.31 156.795 171.453 156.86V155.352C170.348 155.352 169.555 155.742 169.048 156.509V155.521ZM178.158 162.853C177.859 163.594 177.404 163.906 176.611 163.906H176.325V165.206H176.611C177.963 165.206 178.795 164.621 179.328 163.308L182.513 155.521H181.122L179.133 160.435L177.209 155.521H175.818L178.457 162.112L178.158 162.853ZM184.21 161.436C184.886 162.112 185.731 162.45 186.745 162.45C187.759 162.45 188.604 162.112 189.28 161.436C189.969 160.76 190.307 159.915 190.307 158.901C190.307 157.887 189.969 157.042 189.28 156.366C188.604 155.69 187.759 155.352 186.745 155.352C185.731 155.352 184.886 155.69 184.21 156.366C183.534 157.042 183.196 157.887 183.196 158.901C183.196 159.915 183.534 160.76 184.21 161.436ZM186.745 161.098C186.134 161.098 185.627 160.89 185.211 160.474C184.808 160.045 184.6 159.525 184.6 158.901C184.6 158.277 184.808 157.757 185.211 157.341C185.627 156.912 186.134 156.704 186.745 156.704C187.356 156.704 187.876 156.912 188.279 157.341C188.695 157.757 188.903 158.277 188.903 158.901C188.903 159.525 188.695 160.045 188.279 160.474C187.876 160.89 187.356 161.098 186.745 161.098ZM191.867 159.785C191.867 160.552 192.127 161.189 192.634 161.696C193.141 162.203 193.791 162.45 194.571 162.45C195.52 162.45 196.261 162.073 196.781 161.319V162.281H198.133V155.521H196.781V159.395C196.781 159.902 196.612 160.318 196.261 160.656C195.91 160.994 195.481 161.163 194.961 161.163C194.467 161.163 194.051 160.994 193.713 160.669C193.388 160.331 193.219 159.915 193.219 159.408V155.521H191.867V159.785ZM201.363 155.521H200.011V162.281H201.363V158.511C201.363 158.004 201.532 157.588 201.883 157.263C202.234 156.925 202.676 156.756 203.183 156.756C203.43 156.756 203.625 156.795 203.768 156.86V155.352C202.663 155.352 201.87 155.742 201.363 156.509V155.521ZM41.3489 170.352C40.3999 170.352 39.6069 170.69 38.9699 171.366C38.3329 172.042 38.0209 172.887 38.0209 173.901C38.0209 174.915 38.3329 175.76 38.9699 176.436C39.6069 177.112 40.3999 177.45 41.3489 177.45C42.2199 177.45 42.9739 177.151 43.5979 176.553V177.281H44.9499V170.521H43.5979V171.249C42.9739 170.651 42.2199 170.352 41.3489 170.352ZM41.4919 171.704C42.0769 171.704 42.5709 171.912 42.9739 172.341C43.3769 172.757 43.5719 173.277 43.5719 173.901C43.5719 174.525 43.3769 175.045 42.9739 175.474C42.5709 175.89 42.0769 176.098 41.4919 176.098C40.9069 176.098 40.4259 175.89 40.0229 175.474C39.6199 175.045 39.4249 174.525 39.4249 173.901C39.4249 173.277 39.6199 172.757 40.0229 172.341C40.4259 171.912 40.9069 171.704 41.4919 171.704ZM46.8062 174.785C46.8062 175.552 47.0662 176.189 47.5732 176.696C48.0802 177.203 48.7302 177.45 49.5102 177.45C50.4592 177.45 51.2002 177.073 51.7202 176.319V177.281H53.0722V170.521H51.7202V174.395C51.7202 174.902 51.5512 175.318 51.2002 175.656C50.8492 175.994 50.4202 176.163 49.9002 176.163C49.4062 176.163 48.9902 175.994 48.6522 175.669C48.3272 175.331 48.1582 174.915 48.1582 174.408V170.521H46.8062V174.785ZM54.3003 171.704H55.3273V175.214C55.3273 175.799 55.5353 176.293 55.9513 176.696C56.3673 177.086 56.8743 177.281 57.4853 177.281H58.4733V175.981H57.5893C57.0693 175.981 56.6793 175.565 56.6793 175.032V171.704H58.4733V170.521H56.6793V169.182H55.3273V170.521H54.3003V171.704ZM60.6098 176.436C61.2858 177.112 62.1308 177.45 63.1448 177.45C64.1588 177.45 65.0038 177.112 65.6798 176.436C66.3688 175.76 66.7068 174.915 66.7068 173.901C66.7068 172.887 66.3688 172.042 65.6798 171.366C65.0038 170.69 64.1588 170.352 63.1448 170.352C62.1308 170.352 61.2858 170.69 60.6098 171.366C59.9338 172.042 59.5958 172.887 59.5958 173.901C59.5958 174.915 59.9338 175.76 60.6098 176.436ZM63.1448 176.098C62.5338 176.098 62.0268 175.89 61.6108 175.474C61.2078 175.045 60.9998 174.525 60.9998 173.901C60.9998 173.277 61.2078 172.757 61.6108 172.341C62.0268 171.912 62.5338 171.704 63.1448 171.704C63.7558 171.704 64.2758 171.912 64.6788 172.341C65.0948 172.757 65.3028 173.277 65.3028 173.901C65.3028 174.525 65.0948 175.045 64.6788 175.474C64.2758 175.89 63.7558 176.098 63.1448 176.098ZM73.345 177.281V170.521H71.993V177.281H73.345ZM72.032 169.52C72.383 169.871 72.955 169.871 73.306 169.52C73.657 169.169 73.657 168.597 73.306 168.246C72.955 167.895 72.383 167.895 72.032 168.246C71.707 168.597 71.707 169.169 72.032 169.52ZM75.211 177.281H76.563V173.407C76.563 172.9 76.732 172.484 77.083 172.146C77.434 171.808 77.876 171.639 78.383 171.639C79.384 171.639 80.125 172.393 80.125 173.394V177.281H81.477V173.004C81.477 172.237 81.217 171.613 80.71 171.106C80.203 170.599 79.553 170.352 78.786 170.352C77.798 170.352 77.057 170.742 76.563 171.509V170.521H75.211V177.281ZM88.1391 172.068C87.9441 171.015 87.0341 170.352 85.6431 170.352C84.1741 170.352 83.1211 171.028 83.1211 172.367C83.1211 173.251 83.5761 173.797 84.6291 174.161L86.1371 174.668C86.6831 174.863 86.9561 175.123 86.9561 175.448C86.9561 175.955 86.4101 176.267 85.6821 176.267C84.8631 176.267 84.3301 175.903 84.2131 175.37L82.9391 175.565C83.1341 176.722 84.1091 177.45 85.6561 177.45C87.1641 177.45 88.2561 176.748 88.2561 175.409C88.2561 174.486 87.7491 173.888 86.5921 173.459L85.0711 172.939C84.6421 172.783 84.4211 172.562 84.4211 172.263C84.4211 171.808 84.9021 171.535 85.5391 171.535C86.2541 171.535 86.7221 171.834 86.8651 172.289L88.1391 172.068ZM89.759 174.785C89.759 175.552 90.019 176.189 90.526 176.696C91.033 177.203 91.683 177.45 92.463 177.45C93.412 177.45 94.153 177.073 94.673 176.319V177.281H96.025V170.521H94.673V174.395C94.673 174.902 94.504 175.318 94.153 175.656C93.802 175.994 93.373 176.163 92.853 176.163C92.359 176.163 91.943 175.994 91.605 175.669C91.28 175.331 91.111 174.915 91.111 174.408V170.521H89.759V174.785ZM99.2551 170.521H97.9031V177.281H99.2551V173.511C99.2551 173.004 99.4241 172.588 99.7751 172.263C100.126 171.925 100.568 171.756 101.075 171.756C101.322 171.756 101.517 171.795 101.66 171.86V170.352C100.555 170.352 99.7621 170.742 99.2551 171.509V170.521ZM105.699 170.352C104.75 170.352 103.957 170.69 103.32 171.366C102.683 172.042 102.371 172.887 102.371 173.901C102.371 174.915 102.683 175.76 103.32 176.436C103.957 177.112 104.75 177.45 105.699 177.45C106.57 177.45 107.324 177.151 107.948 176.553V177.281H109.3V170.521H107.948V171.249C107.324 170.651 106.57 170.352 105.699 170.352ZM105.842 171.704C106.427 171.704 106.921 171.912 107.324 172.341C107.727 172.757 107.922 173.277 107.922 173.901C107.922 174.525 107.727 175.045 107.324 175.474C106.921 175.89 106.427 176.098 105.842 176.098C105.257 176.098 104.776 175.89 104.373 175.474C103.97 175.045 103.775 174.525 103.775 173.901C103.775 173.277 103.97 172.757 104.373 172.341C104.776 171.912 105.257 171.704 105.842 171.704ZM111.169 177.281H112.521V173.407C112.521 172.9 112.69 172.484 113.041 172.146C113.392 171.808 113.834 171.639 114.341 171.639C115.342 171.639 116.083 172.393 116.083 173.394V177.281H117.435V173.004C117.435 172.237 117.175 171.613 116.668 171.106C116.161 170.599 115.511 170.352 114.744 170.352C113.756 170.352 113.015 170.742 112.521 171.509V170.521H111.169V177.281ZM125.839 172.484C125.306 171.184 124.058 170.352 122.55 170.352C121.536 170.352 120.691 170.69 120.015 171.366C119.339 172.042 119.001 172.887 119.001 173.901C119.001 174.915 119.339 175.76 120.015 176.436C120.691 177.112 121.536 177.45 122.55 177.45C124.058 177.45 125.306 176.618 125.839 175.318L124.474 174.915C124.123 175.643 123.421 176.098 122.55 176.098C121.939 176.098 121.432 175.89 121.016 175.474C120.613 175.045 120.405 174.525 120.405 173.901C120.405 173.277 120.613 172.757 121.016 172.341C121.432 171.912 121.939 171.704 122.55 171.704C123.421 171.704 124.123 172.159 124.474 172.887L125.839 172.484ZM133.987 174.395C134 174.174 134.013 174.005 134.013 173.901C134.013 172.887 133.675 172.042 132.999 171.366C132.336 170.69 131.504 170.352 130.503 170.352C129.502 170.352 128.657 170.69 127.981 171.366C127.318 172.042 126.98 172.887 126.98 173.901C126.98 174.915 127.331 175.76 128.02 176.436C128.709 177.112 129.58 177.45 130.607 177.45C131.959 177.45 133.103 176.8 133.727 175.747L132.401 175.344C131.972 175.903 131.374 176.189 130.607 176.189C129.476 176.189 128.579 175.448 128.371 174.395H133.987ZM128.384 173.316C128.631 172.315 129.476 171.613 130.464 171.613C131.517 171.613 132.375 172.315 132.622 173.316H128.384ZM140.539 170.521H139.187V177.281H140.539V173.511C140.539 173.004 140.708 172.588 141.059 172.263C141.41 171.925 141.852 171.756 142.359 171.756C142.606 171.756 142.801 171.795 142.944 171.86V170.352C141.839 170.352 141.046 170.742 140.539 171.509V170.521ZM150.662 174.395C150.675 174.174 150.688 174.005 150.688 173.901C150.688 172.887 150.35 172.042 149.674 171.366C149.011 170.69 148.179 170.352 147.178 170.352C146.177 170.352 145.332 170.69 144.656 171.366C143.993 172.042 143.655 172.887 143.655 173.901C143.655 174.915 144.006 175.76 144.695 176.436C145.384 177.112 146.255 177.45 147.282 177.45C148.634 177.45 149.778 176.8 150.402 175.747L149.076 175.344C148.647 175.903 148.049 176.189 147.282 176.189C146.151 176.189 145.254 175.448 145.046 174.395H150.662ZM145.059 173.316C145.306 172.315 146.151 171.613 147.139 171.613C148.192 171.613 149.05 172.315 149.297 173.316H145.059ZM152.148 177.281H153.5V173.407C153.5 172.9 153.669 172.484 154.02 172.146C154.371 171.808 154.813 171.639 155.32 171.639C156.321 171.639 157.062 172.393 157.062 173.394V177.281H158.414V173.004C158.414 172.237 158.154 171.613 157.647 171.106C157.14 170.599 156.49 170.352 155.723 170.352C154.735 170.352 153.994 170.742 153.5 171.509V170.521H152.148V177.281ZM166.987 174.395C167 174.174 167.013 174.005 167.013 173.901C167.013 172.887 166.675 172.042 165.999 171.366C165.336 170.69 164.504 170.352 163.503 170.352C162.502 170.352 161.657 170.69 160.981 171.366C160.318 172.042 159.98 172.887 159.98 173.901C159.98 174.915 160.331 175.76 161.02 176.436C161.709 177.112 162.58 177.45 163.607 177.45C164.959 177.45 166.103 176.8 166.727 175.747L165.401 175.344C164.972 175.903 164.374 176.189 163.607 176.189C162.476 176.189 161.579 175.448 161.371 174.395H166.987ZM161.384 173.316C161.631 172.315 162.476 171.613 163.464 171.613C164.517 171.613 165.375 172.315 165.622 173.316H161.384ZM171.028 177.281L172.497 172.77L173.953 177.281H175.162L177.411 170.521H176.046L174.564 175.188L173.108 170.521H171.886L170.417 175.188L168.948 170.521H167.583L169.832 177.281H171.028ZM181.411 170.352C180.462 170.352 179.669 170.69 179.032 171.366C178.395 172.042 178.083 172.887 178.083 173.901C178.083 174.915 178.395 175.76 179.032 176.436C179.669 177.112 180.462 177.45 181.411 177.45C182.282 177.45 183.036 177.151 183.66 176.553V177.281H185.012V170.521H183.66V171.249C183.036 170.651 182.282 170.352 181.411 170.352ZM181.554 171.704C182.139 171.704 182.633 171.912 183.036 172.341C183.439 172.757 183.634 173.277 183.634 173.901C183.634 174.525 183.439 175.045 183.036 175.474C182.633 175.89 182.139 176.098 181.554 176.098C180.969 176.098 180.488 175.89 180.085 175.474C179.682 175.045 179.487 174.525 179.487 173.901C179.487 173.277 179.682 172.757 180.085 172.341C180.488 171.912 180.969 171.704 181.554 171.704ZM188.233 177.281V167.531H186.881V177.281H188.233ZM191.724 176.904C191.724 176.163 191.308 175.656 190.723 175.656C190.203 175.656 189.826 176.02 189.826 176.527C189.826 176.995 190.151 177.385 190.58 177.45C190.58 177.58 190.515 177.749 190.385 177.944C190.268 178.152 190.164 178.295 190.086 178.386L189.891 178.594L190.333 179.049L190.385 179.023C190.645 178.828 191.724 178.126 191.724 176.904ZM38.3114 187.484C37.7784 186.184 36.5304 185.352 35.0224 185.352C34.0084 185.352 33.1634 185.69 32.4874 186.366C31.8114 187.042 31.4734 187.887 31.4734 188.901C31.4734 189.915 31.8114 190.76 32.4874 191.436C33.1634 192.112 34.0084 192.45 35.0224 192.45C36.5304 192.45 37.7784 191.618 38.3114 190.318L36.9464 189.915C36.5954 190.643 35.8934 191.098 35.0224 191.098C34.4114 191.098 33.9044 190.89 33.4884 190.474C33.0854 190.045 32.8774 189.525 32.8774 188.901C32.8774 188.277 33.0854 187.757 33.4884 187.341C33.9044 186.912 34.4114 186.704 35.0224 186.704C35.8934 186.704 36.5954 187.159 36.9464 187.887L38.3114 187.484ZM40.4662 191.436C41.1422 192.112 41.9872 192.45 43.0012 192.45C44.0152 192.45 44.8602 192.112 45.5362 191.436C46.2252 190.76 46.5632 189.915 46.5632 188.901C46.5632 187.887 46.2252 187.042 45.5362 186.366C44.8602 185.69 44.0152 185.352 43.0012 185.352C41.9872 185.352 41.1422 185.69 40.4662 186.366C39.7902 187.042 39.4522 187.887 39.4522 188.901C39.4522 189.915 39.7902 190.76 40.4662 191.436ZM43.0012 191.098C42.3902 191.098 41.8832 190.89 41.4672 190.474C41.0642 190.045 40.8562 189.525 40.8562 188.901C40.8562 188.277 41.0642 187.757 41.4672 187.341C41.8832 186.912 42.3902 186.704 43.0012 186.704C43.6122 186.704 44.1322 186.912 44.5352 187.341C44.9512 187.757 45.1592 188.277 45.1592 188.901C45.1592 189.525 44.9512 190.045 44.5352 190.474C44.1322 190.89 43.6122 191.098 43.0012 191.098ZM49.4882 192.281V188.251C49.4882 187.796 49.6442 187.406 49.9692 187.107C50.2942 186.795 50.6842 186.639 51.1652 186.639C52.0622 186.639 52.7512 187.341 52.7512 188.238V192.281H54.1032V188.251C54.1032 187.796 54.2592 187.406 54.5712 187.107C54.8962 186.795 55.2862 186.639 55.7672 186.639C56.6642 186.639 57.3532 187.341 57.3532 188.238V192.281H58.7052V187.861C58.7052 187.146 58.4452 186.548 57.9382 186.067C57.4312 185.586 56.7942 185.352 56.0272 185.352C55.1822 185.352 54.4412 185.742 54.1292 186.054C53.9862 186.21 53.8562 186.379 53.7522 186.548C53.2972 185.807 52.5042 185.352 51.5552 185.352C50.6452 185.352 49.9562 185.69 49.4882 186.379V185.521H48.1362V192.281H49.4882ZM61.923 195.206V191.553C62.547 192.151 63.301 192.45 64.172 192.45C65.121 192.45 65.914 192.112 66.551 191.436C67.188 190.76 67.5 189.915 67.5 188.901C67.5 187.887 67.188 187.042 66.551 186.366C65.914 185.69 65.121 185.352 64.172 185.352C63.301 185.352 62.547 185.651 61.923 186.249V185.521H60.571V195.206H61.923ZM64.016 186.704C64.601 186.704 65.095 186.912 65.498 187.341C65.901 187.757 66.096 188.277 66.096 188.901C66.096 189.525 65.901 190.045 65.498 190.474C65.095 190.89 64.601 191.098 64.016 191.098C63.431 191.098 62.95 190.89 62.547 190.474C62.144 190.045 61.949 189.525 61.949 188.901C61.949 188.277 62.144 187.757 62.547 187.341C62.95 186.912 63.431 186.704 64.016 186.704ZM72.0992 185.352C71.1502 185.352 70.3572 185.69 69.7202 186.366C69.0832 187.042 68.7712 187.887 68.7712 188.901C68.7712 189.915 69.0832 190.76 69.7202 191.436C70.3572 192.112 71.1502 192.45 72.0992 192.45C72.9702 192.45 73.7242 192.151 74.3482 191.553V192.281H75.7002V185.521H74.3482V186.249C73.7242 185.651 72.9702 185.352 72.0992 185.352ZM72.2422 186.704C72.8272 186.704 73.3212 186.912 73.7242 187.341C74.1272 187.757 74.3222 188.277 74.3222 188.901C74.3222 189.525 74.1272 190.045 73.7242 190.474C73.3212 190.89 72.8272 191.098 72.2422 191.098C71.6572 191.098 71.1762 190.89 70.7732 190.474C70.3702 190.045 70.1752 189.525 70.1752 188.901C70.1752 188.277 70.3702 187.757 70.7732 187.341C71.1762 186.912 71.6572 186.704 72.2422 186.704ZM78.9215 185.521H77.5695V192.281H78.9215V188.511C78.9215 188.004 79.0905 187.588 79.4415 187.263C79.7925 186.925 80.2345 186.756 80.7415 186.756C80.9885 186.756 81.1835 186.795 81.3265 186.86V185.352C80.2215 185.352 79.4285 185.742 78.9215 186.509V185.521ZM89.0443 189.395C89.0573 189.174 89.0703 189.005 89.0703 188.901C89.0703 187.887 88.7323 187.042 88.0563 186.366C87.3933 185.69 86.5613 185.352 85.5603 185.352C84.5593 185.352 83.7143 185.69 83.0383 186.366C82.3753 187.042 82.0373 187.887 82.0373 188.901C82.0373 189.915 82.3883 190.76 83.0773 191.436C83.7663 192.112 84.6373 192.45 85.6643 192.45C87.0163 192.45 88.1603 191.8 88.7843 190.747L87.4583 190.344C87.0293 190.903 86.4313 191.189 85.6643 191.189C84.5333 191.189 83.6363 190.448 83.4283 189.395H89.0443ZM83.4413 188.316C83.6883 187.315 84.5333 186.613 85.5213 186.613C86.5743 186.613 87.4323 187.315 87.6793 188.316H83.4413ZM93.594 186.704H94.621V190.214C94.621 190.799 94.829 191.293 95.245 191.696C95.661 192.086 96.168 192.281 96.779 192.281H97.767V190.981H96.883C96.363 190.981 95.973 190.565 95.973 190.032V186.704H97.767V185.521H95.973V184.182H94.621V185.521H93.594V186.704ZM99.214 192.281H100.566V188.407C100.566 187.9 100.748 187.484 101.099 187.146C101.463 186.808 101.905 186.639 102.438 186.639C102.945 186.639 103.374 186.808 103.712 187.146C104.05 187.471 104.219 187.887 104.219 188.394V192.281H105.571V188.004C105.571 187.237 105.311 186.613 104.791 186.106C104.271 185.599 103.621 185.352 102.828 185.352C101.827 185.352 101.073 185.742 100.566 186.509V182.531H99.214V192.281ZM114.142 189.395C114.155 189.174 114.168 189.005 114.168 188.901C114.168 187.887 113.83 187.042 113.154 186.366C112.491 185.69 111.659 185.352 110.658 185.352C109.657 185.352 108.812 185.69 108.136 186.366C107.473 187.042 107.135 187.887 107.135 188.901C107.135 189.915 107.486 190.76 108.175 191.436C108.864 192.112 109.735 192.45 110.762 192.45C112.114 192.45 113.258 191.8 113.882 190.747L112.556 190.344C112.127 190.903 111.529 191.189 110.762 191.189C109.631 191.189 108.734 190.448 108.526 189.395H114.142ZM108.539 188.316C108.786 187.315 109.631 186.613 110.619 186.613C111.672 186.613 112.53 187.315 112.777 188.316H108.539ZM116.981 192.281V185.521H115.629V192.281H116.981ZM115.668 184.52C116.019 184.871 116.591 184.871 116.942 184.52C117.293 184.169 117.293 183.597 116.942 183.246C116.591 182.895 116.019 182.895 115.668 183.246C115.343 183.597 115.343 184.169 115.668 184.52ZM120.199 185.521H118.847V192.281H120.199V188.511C120.199 188.004 120.368 187.588 120.719 187.263C121.07 186.925 121.512 186.756 122.019 186.756C122.266 186.756 122.461 186.795 122.604 186.86V185.352C121.499 185.352 120.706 185.742 120.199 186.509V185.521ZM128.333 191.436C129.009 192.112 129.854 192.45 130.868 192.45C131.882 192.45 132.727 192.112 133.403 191.436C134.092 190.76 134.43 189.915 134.43 188.901C134.43 187.887 134.092 187.042 133.403 186.366C132.727 185.69 131.882 185.352 130.868 185.352C129.854 185.352 129.009 185.69 128.333 186.366C127.657 187.042 127.319 187.887 127.319 188.901C127.319 189.915 127.657 190.76 128.333 191.436ZM130.868 191.098C130.257 191.098 129.75 190.89 129.334 190.474C128.931 190.045 128.723 189.525 128.723 188.901C128.723 188.277 128.931 187.757 129.334 187.341C129.75 186.912 130.257 186.704 130.868 186.704C131.479 186.704 131.999 186.912 132.402 187.341C132.818 187.757 133.026 188.277 133.026 188.901C133.026 189.525 132.818 190.045 132.402 190.474C131.999 190.89 131.479 191.098 130.868 191.098ZM136.42 186.704V192.281H137.772V186.704H140.515V192.281H141.867V186.704H143.583V185.521H141.867V184.78C141.867 184.247 142.257 183.831 142.777 183.831H143.583V182.531H142.673C142.062 182.531 141.555 182.726 141.139 183.129C140.723 183.519 140.515 184.013 140.515 184.598V185.521H137.772V184.78C137.772 184.247 138.162 183.831 138.682 183.831H139.488V182.531H138.578C137.967 182.531 137.46 182.726 137.044 183.129C136.628 183.519 136.42 184.013 136.42 184.598V185.521H135.341V186.704H136.42ZM151.363 189.395C151.376 189.174 151.389 189.005 151.389 188.901C151.389 187.887 151.051 187.042 150.375 186.366C149.712 185.69 148.88 185.352 147.879 185.352C146.878 185.352 146.033 185.69 145.357 186.366C144.694 187.042 144.356 187.887 144.356 188.901C144.356 189.915 144.707 190.76 145.396 191.436C146.085 192.112 146.956 192.45 147.983 192.45C149.335 192.45 150.479 191.8 151.103 190.747L149.777 190.344C149.348 190.903 148.75 191.189 147.983 191.189C146.852 191.189 145.955 190.448 145.747 189.395H151.363ZM145.76 188.316C146.007 187.315 146.852 186.613 147.84 186.613C148.893 186.613 149.751 187.315 149.998 188.316H145.76ZM154.202 185.521H152.85V192.281H154.202V188.511C154.202 188.004 154.371 187.588 154.722 187.263C155.073 186.925 155.515 186.756 156.022 186.756C156.269 186.756 156.464 186.795 156.607 186.86V185.352C155.502 185.352 154.709 185.742 154.202 186.509V185.521ZM162.553 187.068C162.358 186.015 161.448 185.352 160.057 185.352C158.588 185.352 157.535 186.028 157.535 187.367C157.535 188.251 157.99 188.797 159.043 189.161L160.551 189.668C161.097 189.863 161.37 190.123 161.37 190.448C161.37 190.955 160.824 191.267 160.096 191.267C159.277 191.267 158.744 190.903 158.627 190.37L157.353 190.565C157.548 191.722 158.523 192.45 160.07 192.45C161.578 192.45 162.67 191.748 162.67 190.409C162.67 189.486 162.163 188.888 161.006 188.459L159.485 187.939C159.056 187.783 158.835 187.562 158.835 187.263C158.835 186.808 159.316 186.535 159.953 186.535C160.668 186.535 161.136 186.834 161.279 187.289L162.553 187.068ZM167.899 192.281H169.251V188.407C169.251 187.9 169.433 187.484 169.784 187.146C170.148 186.808 170.59 186.639 171.123 186.639C171.63 186.639 172.059 186.808 172.397 187.146C172.735 187.471 172.904 187.887 172.904 188.394V192.281H174.256V188.004C174.256 187.237 173.996 186.613 173.476 186.106C172.956 185.599 172.306 185.352 171.513 185.352C170.512 185.352 169.758 185.742 169.251 186.509V182.531H167.899V192.281ZM182.827 189.395C182.84 189.174 182.853 189.005 182.853 188.901C182.853 187.887 182.515 187.042 181.839 186.366C181.176 185.69 180.344 185.352 179.343 185.352C178.342 185.352 177.497 185.69 176.821 186.366C176.158 187.042 175.82 187.887 175.82 188.901C175.82 189.915 176.171 190.76 176.86 191.436C177.549 192.112 178.42 192.45 179.447 192.45C180.799 192.45 181.943 191.8 182.567 190.747L181.241 190.344C180.812 190.903 180.214 191.189 179.447 191.189C178.316 191.189 177.419 190.448 177.211 189.395H182.827ZM177.224 188.316C177.471 187.315 178.316 186.613 179.304 186.613C180.357 186.613 181.215 187.315 181.462 188.316H177.224ZM185.666 185.521H184.314V192.281H185.666V188.511C185.666 188.004 185.835 187.588 186.186 187.263C186.537 186.925 186.979 186.756 187.486 186.756C187.733 186.756 187.928 186.795 188.071 186.86V185.352C186.966 185.352 186.173 185.742 185.666 186.509V185.521ZM195.789 189.395C195.802 189.174 195.815 189.005 195.815 188.901C195.815 187.887 195.477 187.042 194.801 186.366C194.138 185.69 193.306 185.352 192.305 185.352C191.304 185.352 190.459 185.69 189.783 186.366C189.12 187.042 188.782 187.887 188.782 188.901C188.782 189.915 189.133 190.76 189.822 191.436C190.511 192.112 191.382 192.45 192.409 192.45C193.761 192.45 194.905 191.8 195.529 190.747L194.203 190.344C193.774 190.903 193.176 191.189 192.409 191.189C191.278 191.189 190.381 190.448 190.173 189.395H195.789ZM190.186 188.316C190.433 187.315 191.278 186.613 192.266 186.613C193.319 186.613 194.177 187.315 194.424 188.316H190.186ZM196.957 192.203C197.308 192.528 197.906 192.528 198.257 192.203C198.608 191.852 198.608 191.254 198.257 190.903C197.906 190.552 197.308 190.552 196.957 190.903C196.632 191.254 196.632 191.852 196.957 192.203Z" fill="#A4A7B0"/>
<path d="M91.3424 162.281H92.7464V160.474H93.9814V159.122H92.7464V153.181H91.4074L86.4674 159.122V160.474H91.3424V162.281ZM91.3424 155.287V159.122H88.1574L91.3424 155.287ZM101.392 162.281H102.653L105.5 155.521H104.109L102.029 160.552L99.9359 155.521H98.5449L101.392 162.281ZM113.183 159.395C113.196 159.174 113.209 159.005 113.209 158.901C113.209 157.887 112.871 157.042 112.195 156.366C111.532 155.69 110.7 155.352 109.699 155.352C108.698 155.352 107.853 155.69 107.177 156.366C106.514 157.042 106.176 157.887 106.176 158.901C106.176 159.915 106.527 160.76 107.216 161.436C107.905 162.112 108.776 162.45 109.803 162.45C111.155 162.45 112.299 161.8 112.923 160.747L111.597 160.344C111.168 160.903 110.57 161.189 109.803 161.189C108.672 161.189 107.775 160.448 107.567 159.395H113.183ZM107.58 158.316C107.827 157.315 108.672 156.613 109.66 156.613C110.713 156.613 111.571 157.315 111.818 158.316H107.58ZM114.67 162.281H116.022V158.407C116.022 157.9 116.191 157.484 116.542 157.146C116.893 156.808 117.335 156.639 117.842 156.639C118.843 156.639 119.584 157.393 119.584 158.394V162.281H120.936V158.004C120.936 157.237 120.676 156.613 120.169 156.106C119.662 155.599 119.012 155.352 118.245 155.352C117.257 155.352 116.516 155.742 116.022 156.509V155.521H114.67V162.281ZM125.83 155.352C124.881 155.352 124.088 155.69 123.451 156.366C122.814 157.042 122.502 157.887 122.502 158.901C122.502 159.915 122.814 160.76 123.451 161.436C124.088 162.112 124.881 162.45 125.83 162.45C126.701 162.45 127.455 162.151 128.079 161.553V162.281H129.431V152.531H128.079V156.249C127.455 155.651 126.701 155.352 125.83 155.352ZM125.973 156.704C126.558 156.704 127.052 156.912 127.455 157.341C127.858 157.757 128.053 158.277 128.053 158.901C128.053 159.525 127.858 160.045 127.455 160.474C127.052 160.89 126.558 161.098 125.973 161.098C125.388 161.098 124.907 160.89 124.504 160.474C124.101 160.045 123.906 159.525 123.906 158.901C123.906 158.277 124.101 157.757 124.504 157.341C124.907 156.912 125.388 156.704 125.973 156.704ZM132.015 161.436C132.691 162.112 133.536 162.45 134.55 162.45C135.564 162.45 136.409 162.112 137.085 161.436C137.774 160.76 138.112 159.915 138.112 158.901C138.112 157.887 137.774 157.042 137.085 156.366C136.409 155.69 135.564 155.352 134.55 155.352C133.536 155.352 132.691 155.69 132.015 156.366C131.339 157.042 131.001 157.887 131.001 158.901C131.001 159.915 131.339 160.76 132.015 161.436ZM134.55 161.098C133.939 161.098 133.432 160.89 133.016 160.474C132.613 160.045 132.405 159.525 132.405 158.901C132.405 158.277 132.613 157.757 133.016 157.341C133.432 156.912 133.939 156.704 134.55 156.704C135.161 156.704 135.681 156.912 136.084 157.341C136.5 157.757 136.708 158.277 136.708 158.901C136.708 159.525 136.5 160.045 136.084 160.474C135.681 160.89 135.161 161.098 134.55 161.098ZM141.037 155.521H139.685V162.281H141.037V158.511C141.037 158.004 141.206 157.588 141.557 157.263C141.908 156.925 142.35 156.756 142.857 156.756C143.104 156.756 143.299 156.795 143.442 156.86V155.352C142.337 155.352 141.544 155.742 141.037 156.509V155.521ZM149.389 157.068C149.194 156.015 148.284 155.352 146.893 155.352C145.424 155.352 144.371 156.028 144.371 157.367C144.371 158.251 144.826 158.797 145.879 159.161L147.387 159.668C147.933 159.863 148.206 160.123 148.206 160.448C148.206 160.955 147.66 161.267 146.932 161.267C146.113 161.267 145.58 160.903 145.463 160.37L144.189 160.565C144.384 161.722 145.359 162.45 146.906 162.45C148.414 162.45 149.506 161.748 149.506 160.409C149.506 159.486 148.999 158.888 147.842 158.459L146.321 157.939C145.892 157.783 145.671 157.562 145.671 157.263C145.671 156.808 146.152 156.535 146.789 156.535C147.504 156.535 147.972 156.834 148.115 157.289L149.389 157.068Z" fill="#6E7177"/>
<path d="M188 30.2812H202V32.2812H188V30.2812Z" fill="#F4F6F8"/>
<rect x="24" y="64.4018" width="178" height="65.7589" rx="8" fill="#FFF3EB"/>
<g clip-path="url(#clip0_524_3186)">
<path d="M51 103.541L43.947 107.489L45.522 99.5613L39.587 94.0733L47.614 93.1213L51 85.7813L54.386 93.1213L62.413 94.0733L56.478 99.5613L58.053 107.489L51 103.541Z" fill="#FA8231"/>
</g>
<g clip-path="url(#clip1_524_3186)">
<path d="M82 103.541L74.947 107.489L76.522 99.5613L70.587 94.0733L78.614 93.1213L82 85.7813L85.386 93.1213L93.413 94.0733L87.478 99.5613L89.053 107.489L82 103.541Z" fill="#FA8231"/>
</g>
<g clip-path="url(#clip2_524_3186)">
<path d="M113 103.541L105.947 107.489L107.522 99.5613L101.587 94.0733L109.614 93.1213L113 85.7813L116.386 93.1213L124.413 94.0733L118.478 99.5613L120.053 107.489L113 103.541Z" fill="#FA8231"/>
</g>
<g clip-path="url(#clip3_524_3186)">
<path d="M144 103.541L136.947 107.489L138.522 99.5613L132.587 94.0733L140.614 93.1213L144 85.7813L147.386 93.1213L155.413 94.0733L149.478 99.5613L151.053 107.489L144 103.541Z" fill="#FA8231"/>
</g>
<g clip-path="url(#clip4_524_3186)">
<path d="M175 103.541L167.947 107.489L169.522 99.5613L163.587 94.0733L171.614 93.1213L175 85.7813L178.386 93.1213L186.413 94.0733L180.478 99.5613L182.053 107.489L175 103.541Z" fill="#FA8231"/>
</g>
<defs>
<clipPath id="clip0_524_3186">
<rect width="24" height="24" fill="white" transform="translate(39 85.2813)"/>
</clipPath>
<clipPath id="clip1_524_3186">
<rect width="24" height="24" fill="white" transform="translate(70 85.2813)"/>
</clipPath>
<clipPath id="clip2_524_3186">
<rect width="24" height="24" fill="white" transform="translate(101 85.2813)"/>
</clipPath>
<clipPath id="clip3_524_3186">
<rect width="24" height="24" fill="white" transform="translate(132 85.2813)"/>
</clipPath>
<clipPath id="clip4_524_3186">
<rect width="24" height="24" fill="white" transform="translate(163 85.2813)"/>
</clipPath>
</defs>
</svg>
