<svg width="65" height="64" viewBox="0 0 65 64" fill="none" xmlns="http://www.w3.org/2000/svg">
<path d="M53.8333 54.2213V58.6667H48.5V55.112L28.7187 58.408C28.5277 58.4397 28.3322 58.4295 28.1456 58.3781C27.959 58.3267 27.7859 58.2352 27.6382 58.1101C27.4905 57.985 27.3718 57.8293 27.2904 57.6537C27.209 57.4781 27.1668 57.2869 27.1667 57.0933V53.3333H16.5V58.6667H11.1667V53.3333H8.49999C7.79275 53.3333 7.11447 53.0524 6.61438 52.5523C6.11428 52.0522 5.83333 51.3739 5.83333 50.6667V10.6667C5.83333 9.95943 6.11428 9.28115 6.61438 8.78106C7.11447 8.28096 7.79275 8.00001 8.49999 8.00001H27.1667V4.24001C27.1668 4.04646 27.209 3.85526 27.2904 3.67967C27.3718 3.50409 27.4905 3.34834 27.6382 3.22324C27.7859 3.09814 27.959 3.00669 28.1456 2.95525C28.3322 2.9038 28.5277 2.8936 28.7187 2.92534L56.9373 7.62934C57.56 7.73286 58.1258 8.0539 58.534 8.53536C58.9422 9.01681 59.1664 9.62746 59.1667 10.2587V16H61.8333V21.3333H59.1667V40H61.8333V45.3333H59.1667V51.0747C59.1664 51.7059 58.9422 52.3165 58.534 52.798C58.1258 53.2794 57.56 53.6005 56.9373 53.704L53.8333 54.2213ZM11.1667 13.3333V48H27.1667V13.3333H11.1667ZM32.5 52.3733L53.8333 48.816V12.5173L32.5 8.96267V52.3707V52.3733ZM44.5 37.3333C42.292 37.3333 40.5 34.3467 40.5 30.6667C40.5 26.9867 42.292 24 44.5 24C46.708 24 48.5 26.9867 48.5 30.6667C48.5 34.3467 46.708 37.3333 44.5 37.3333Z" fill="#663AF5"/>
</svg>
