<svg width="104" height="78" viewBox="0 0 104 78" fill="none" xmlns="http://www.w3.org/2000/svg">
<rect x="1" y="0.291458" width="64" height="64" rx="32" fill="#EFECFF"/>
<g filter="url(#filter0_d_652_2543)">
<g clip-path="url(#clip0_652_2543)">
<rect x="41" y="38.2915" width="41" height="15" rx="4" fill="white"/>
<path d="M49.3333 44.4008V48.4581H48.6667V44.4008L46.8787 46.1888L46.4073 45.7175L49 43.1248L51.5927 45.7175L51.1213 46.1888L49.3333 44.4008Z" fill="#2ED573"/>
<path d="M59.376 44.8155C59.376 45.0615 59.184 45.3675 58.8 45.7395L57.258 47.2095V47.7915H60.216V47.0475H58.458L59.28 46.2675C59.904 45.6675 60.18 45.2235 60.18 44.7915C60.18 44.4375 60.036 44.1315 59.748 43.8795C59.466 43.6275 59.112 43.5015 58.698 43.5015C58.02 43.5015 57.444 43.8915 57.174 44.5155L57.894 44.8575C58.038 44.4795 58.338 44.2455 58.698 44.2455C58.884 44.2455 59.04 44.2995 59.172 44.4135C59.31 44.5275 59.376 44.6595 59.376 44.8155ZM63.9845 46.4535C63.9845 46.0455 63.8285 45.7035 63.5105 45.4335C63.1985 45.1635 62.8085 45.0255 62.3345 45.0255H61.9145L61.9805 44.3055H63.6245V43.5915H61.3385L61.1225 45.7335H62.2925C62.5445 45.7335 62.7545 45.7995 62.9225 45.9375C63.0965 46.0755 63.1805 46.2435 63.1805 46.4535C63.1805 46.6455 63.1025 46.8075 62.9465 46.9395C62.7965 47.0715 62.6045 47.1375 62.3825 47.1375C62.0165 47.1375 61.7165 46.9275 61.5785 46.5975L60.8045 46.8075C61.0385 47.4555 61.6325 47.8815 62.3765 47.8815C62.8385 47.8815 63.2165 47.7435 63.5225 47.4735C63.8285 47.1975 63.9845 46.8555 63.9845 46.4535ZM64.5397 47.4075C64.5397 47.6775 64.7377 47.8815 65.0077 47.8815C65.2777 47.8815 65.4757 47.6775 65.4757 47.4075C65.4757 47.1435 65.2777 46.9395 65.0077 46.9395C64.7377 46.9395 64.5397 47.1435 64.5397 47.4075ZM66.0315 47.0355C66.2955 47.5575 66.8655 47.8815 67.5375 47.8815C68.0115 47.8815 68.4015 47.7375 68.7195 47.4555C69.0375 47.1675 69.1935 46.8135 69.1935 46.3875V44.9295C69.1935 44.5275 69.0435 44.1855 68.7435 43.9155C68.4495 43.6395 68.0775 43.5015 67.6275 43.5015C67.1835 43.5015 66.8115 43.6395 66.5115 43.9095C66.2115 44.1795 66.0615 44.5215 66.0615 44.9235C66.0615 45.3315 66.2115 45.6735 66.5115 45.9495C66.8115 46.2195 67.1835 46.3575 67.6215 46.3575C67.9095 46.3575 68.1735 46.2915 68.4195 46.1655V46.3935C68.4195 46.6035 68.3355 46.7835 68.1675 46.9275C67.9995 47.0655 67.7895 47.1375 67.5375 47.1375C67.1775 47.1375 66.8835 46.9635 66.7455 46.6935L66.0315 47.0355ZM68.3895 44.9355C68.3895 45.3195 68.0595 45.6135 67.6275 45.6135C67.1955 45.6135 66.8715 45.3195 66.8715 44.9175C66.8715 44.5395 67.1955 44.2455 67.6275 44.2455C68.0595 44.2455 68.3895 44.5455 68.3895 44.9355ZM70.6297 47.7915L73.8817 43.9155L73.4917 43.5915L70.2457 47.4735L70.6297 47.7915ZM69.7477 44.5635C69.7477 44.8695 69.8497 45.1215 70.0537 45.3255C70.2577 45.5235 70.5097 45.6255 70.8097 45.6255C71.1157 45.6255 71.3677 45.5235 71.5657 45.3255C71.7697 45.1215 71.8717 44.8695 71.8717 44.5635C71.8717 44.2635 71.7697 44.0115 71.5657 43.8075C71.3677 43.6035 71.1157 43.5015 70.8097 43.5015C70.5097 43.5015 70.2577 43.6035 70.0537 43.8075C69.8497 44.0115 69.7477 44.2635 69.7477 44.5635ZM70.5217 44.2755C70.6837 44.1135 70.9357 44.1135 71.0977 44.2755C71.2597 44.4375 71.2597 44.6895 71.0977 44.8515C70.9357 45.0135 70.6837 45.0135 70.5217 44.8515C70.3597 44.6895 70.3597 44.4375 70.5217 44.2755ZM73.3057 45.7515C73.0057 45.7515 72.7537 45.8535 72.5497 46.0575C72.3457 46.2615 72.2437 46.5135 72.2437 46.8195C72.2437 47.1255 72.3457 47.3775 72.5497 47.5815C72.7537 47.7795 73.0057 47.8815 73.3057 47.8815C73.6117 47.8815 73.8637 47.7795 74.0617 47.5815C74.2657 47.3775 74.3677 47.1255 74.3677 46.8195C74.3677 46.5135 74.2657 46.2615 74.0617 46.0575C73.8637 45.8535 73.6117 45.7515 73.3057 45.7515ZM72.8977 46.8195C72.8977 46.5855 73.0717 46.4055 73.3057 46.4055C73.5397 46.4055 73.7137 46.5855 73.7137 46.8195C73.7137 47.0415 73.5277 47.2275 73.3057 47.2275C73.0837 47.2275 72.8977 47.0415 72.8977 46.8195Z" fill="#2ED573"/>
</g>
</g>
<path d="M1 46.35L1.88889 46.1326C2.77778 45.9152 4.55556 45.4805 6.33333 44.5285C8.11111 43.5765 9.88889 42.1073 11.6667 40.0459C13.4444 37.9845 15.2222 35.3308 17 33.2868C18.7778 31.2428 20.5556 29.8084 22.3333 29.869C24.1111 29.9297 25.8889 31.4854 27.6667 32.4168C29.4444 33.3482 31.2222 33.6553 33 32.8547C34.7778 32.0541 36.5556 30.1457 38.3333 28.0697C40.1111 25.9937 41.8889 23.7501 43.6667 22.3547C45.4444 20.9594 47.2222 20.4123 49 20.8781C50.7778 21.344 52.5556 22.8227 54.3333 24.3146C56.1111 25.8065 57.8889 27.3115 59.6667 26.2343C61.4444 25.1571 63.2222 21.4977 64.1111 19.6679L65 17.8382" stroke="#663AF5" stroke-width="1.5" stroke-linecap="round"/>
<defs>
<filter id="filter0_d_652_2543" x="19" y="18.2915" width="85" height="59" filterUnits="userSpaceOnUse" color-interpolation-filters="sRGB">
<feFlood flood-opacity="0" result="BackgroundImageFix"/>
<feColorMatrix in="SourceAlpha" type="matrix" values="0 0 0 0 0 0 0 0 0 0 0 0 0 0 0 0 0 0 127 0" result="hardAlpha"/>
<feMorphology radius="4" operator="erode" in="SourceAlpha" result="effect1_dropShadow_652_2543"/>
<feOffset dy="2"/>
<feGaussianBlur stdDeviation="13"/>
<feComposite in2="hardAlpha" operator="out"/>
<feColorMatrix type="matrix" values="0 0 0 0 0 0 0 0 0 0 0 0 0 0 0 0 0 0 0.28 0"/>
<feBlend mode="normal" in2="BackgroundImageFix" result="effect1_dropShadow_652_2543"/>
<feBlend mode="normal" in="SourceGraphic" in2="effect1_dropShadow_652_2543" result="shape"/>
</filter>
<clipPath id="clip0_652_2543">
<rect x="41" y="38.2915" width="41" height="15" rx="4" fill="white"/>
</clipPath>
</defs>
</svg>
