<svg width="12" height="12" viewBox="0 0 12 12" fill="none" xmlns="http://www.w3.org/2000/svg">
<path d="M5.65706 0.780643C5.8007 0.472862 6.23836 0.472862 6.382 0.780643L7.86721 3.963C7.90694 4.04814 7.97538 4.11657 8.06051 4.1563L11.2429 5.64151C11.5507 5.78516 11.5507 6.22281 11.2429 6.36645L8.06051 7.85166C7.97538 7.8914 7.90694 7.95983 7.86721 8.04497L6.382 11.2273C6.23836 11.5351 5.8007 11.5351 5.65706 11.2273L4.17185 8.04497C4.13212 7.95983 4.06368 7.8914 3.97855 7.85166L0.796192 6.36645C0.488411 6.22281 0.488411 5.78516 0.796191 5.64151L3.97855 4.1563C4.06368 4.11657 4.13212 4.04814 4.17185 3.963L5.65706 0.780643Z" fill="#FDD5B9"/>
</svg>
