<svg width="230" height="221" viewBox="0 0 230 221" fill="none" xmlns="http://www.w3.org/2000/svg">
<rect y="0.28125" width="230" height="220" rx="16" fill="white"/>
<path d="M27.56 33.2812L29.03 28.6012L30.5 33.2812H31.59L33.96 26.2812H32.59L31.07 31.1312L29.58 26.2812H28.48L27 31.1312L25.47 26.2812H24.09L26.46 33.2812H27.56ZM39.1983 31.1412C39.2283 30.9412 39.2383 30.7912 39.2383 30.6812C39.2383 29.9012 38.9783 29.2512 38.4483 28.7212C37.9283 28.1912 37.2783 27.9312 36.5083 27.9312C35.7383 27.9312 35.0883 28.1912 34.5583 28.7212C34.0383 29.2412 33.7783 29.8912 33.7783 30.6812C33.7783 31.4712 34.0483 32.1212 34.5783 32.6512C35.1183 33.1712 35.7883 33.4313 36.5883 33.4313C37.6383 33.4313 38.5383 32.9112 39.0183 32.0812L37.8083 31.7312C37.5083 32.1012 37.0983 32.2812 36.5883 32.2812C35.8583 32.2812 35.2583 31.8212 35.0683 31.1412H39.1983ZM35.0783 30.1712C35.2683 29.5212 35.8383 29.0812 36.4883 29.0812C37.1683 29.0812 37.7483 29.5212 37.9483 30.1712H35.0783ZM41.4534 33.2812V25.7812H40.2034V33.2812H41.4534ZM47.8479 29.6512C47.4479 28.6112 46.4679 27.9312 45.2779 27.9312C44.4879 27.9312 43.8379 28.1912 43.3079 28.7212C42.7879 29.2412 42.5279 29.8912 42.5279 30.6812C42.5279 31.4712 42.7879 32.1212 43.3079 32.6512C43.8379 33.1712 44.4879 33.4313 45.2779 33.4313C46.4679 33.4313 47.4479 32.7512 47.8479 31.7112L46.5979 31.3412C46.3679 31.8612 45.8679 32.1812 45.2779 32.1812C44.8679 32.1812 44.5179 32.0412 44.2379 31.7512C43.9579 31.4612 43.8179 31.1112 43.8179 30.6812C43.8179 30.2512 43.9579 29.9012 44.2379 29.6112C44.5179 29.3212 44.8679 29.1812 45.2779 29.1812C45.8679 29.1812 46.3679 29.5012 46.5979 30.0212L47.8479 29.6512ZM49.4063 32.6512C49.9363 33.1712 50.5863 33.4313 51.3763 33.4313C52.1663 33.4313 52.8163 33.1712 53.3463 32.6512C53.8763 32.1212 54.1363 31.4712 54.1363 30.6812C54.1363 29.8912 53.8763 29.2412 53.3463 28.7212C52.8163 28.1912 52.1663 27.9312 51.3763 27.9312C50.5863 27.9312 49.9363 28.1912 49.4063 28.7212C48.8863 29.2412 48.6263 29.8912 48.6263 30.6812C48.6263 31.4712 48.8863 32.1212 49.4063 32.6512ZM50.3363 29.6112C50.6163 29.3212 50.9663 29.1812 51.3763 29.1812C51.7863 29.1812 52.1363 29.3212 52.4163 29.6112C52.6963 29.9012 52.8363 30.2512 52.8363 30.6812C52.8363 31.1112 52.6963 31.4612 52.4163 31.7512C52.1363 32.0412 51.7863 32.1812 51.3763 32.1812C50.9663 32.1812 50.6163 32.0412 50.3363 31.7512C50.0563 31.4612 49.9163 31.1112 49.9163 30.6812C49.9163 30.2512 50.0563 29.9012 50.3363 29.6112ZM56.448 33.2812V30.2212C56.448 29.5912 56.928 29.1212 57.538 29.1212C58.148 29.1212 58.618 29.5912 58.618 30.2212V33.2812H59.868V30.2212C59.868 29.5912 60.348 29.1212 60.958 29.1212C61.568 29.1212 62.038 29.5912 62.038 30.2212V33.2812H63.278V29.8612C63.278 29.3112 63.078 28.8512 62.688 28.4812C62.298 28.1112 61.808 27.9312 61.208 27.9312C60.478 27.9312 59.918 28.2112 59.548 28.7812C59.178 28.2112 58.628 27.9312 57.908 27.9312C57.298 27.9312 56.808 28.1612 56.448 28.6312V28.0812H55.198V33.2812H56.448ZM69.7686 31.1412C69.7986 30.9412 69.8086 30.7912 69.8086 30.6812C69.8086 29.9012 69.5486 29.2512 69.0186 28.7212C68.4986 28.1912 67.8486 27.9312 67.0786 27.9312C66.3086 27.9312 65.6586 28.1912 65.1286 28.7212C64.6086 29.2412 64.3486 29.8912 64.3486 30.6812C64.3486 31.4712 64.6186 32.1212 65.1486 32.6512C65.6886 33.1712 66.3586 33.4313 67.1586 33.4313C68.2086 33.4313 69.1086 32.9112 69.5886 32.0812L68.3786 31.7312C68.0786 32.1012 67.6686 32.2812 67.1586 32.2812C66.4286 32.2812 65.8286 31.8212 65.6386 31.1412H69.7686ZM65.6486 30.1712C65.8386 29.5212 66.4086 29.0812 67.0586 29.0812C67.7386 29.0812 68.3186 29.5212 68.5186 30.1712H65.6486ZM73.5519 33.2812H74.8019V32.8712C75.2619 33.2412 75.7819 33.4313 76.3719 33.4313C77.0919 33.4313 77.6919 33.1712 78.1819 32.6512C78.6719 32.1212 78.9119 31.4712 78.9119 30.6812C78.9119 29.8912 78.6719 29.2412 78.1819 28.7212C77.6919 28.1912 77.0919 27.9312 76.3719 27.9312C75.7819 27.9312 75.2619 28.1212 74.8019 28.4912V25.7812H73.5519V33.2812ZM77.2019 29.6112C77.4719 29.9012 77.6119 30.2512 77.6119 30.6812C77.6119 31.1112 77.4719 31.4612 77.2019 31.7512C76.9319 32.0412 76.6019 32.1812 76.2119 32.1812C75.8219 32.1812 75.4919 32.0412 75.2219 31.7512C74.9519 31.4612 74.8219 31.1112 74.8219 30.6812C74.8219 30.2512 74.9519 29.9012 75.2219 29.6112C75.4919 29.3212 75.8219 29.1812 76.2119 29.1812C76.6019 29.1812 76.9319 29.3212 77.2019 29.6112ZM82.3126 27.9312C81.5926 27.9312 80.9926 28.1912 80.5026 28.7212C80.0226 29.2412 79.7826 29.8912 79.7826 30.6812C79.7826 31.4712 80.0226 32.1212 80.5026 32.6512C80.9926 33.1712 81.5926 33.4313 82.3126 33.4313C82.9026 33.4313 83.4326 33.2412 83.8926 32.8712V33.2812H85.1326V28.0812H83.8926V28.4912C83.4326 28.1212 82.9026 27.9312 82.3126 27.9312ZM83.4626 29.6112C83.7326 29.9012 83.8726 30.2512 83.8726 30.6812C83.8726 31.1112 83.7326 31.4612 83.4626 31.7512C83.1926 32.0412 82.8626 32.1812 82.4726 32.1812C82.0826 32.1812 81.7426 32.0412 81.4726 31.7512C81.2026 31.4612 81.0726 31.1112 81.0726 30.6812C81.0726 30.2512 81.2026 29.9012 81.4726 29.6112C81.7426 29.3212 82.0826 29.1812 82.4726 29.1812C82.8626 29.1812 83.1926 29.3212 83.4626 29.6112ZM91.5233 29.6512C91.1233 28.6112 90.1433 27.9312 88.9533 27.9312C88.1633 27.9312 87.5133 28.1912 86.9833 28.7212C86.4633 29.2412 86.2033 29.8912 86.2033 30.6812C86.2033 31.4712 86.4633 32.1212 86.9833 32.6512C87.5133 33.1712 88.1633 33.4313 88.9533 33.4313C90.1433 33.4313 91.1233 32.7512 91.5233 31.7112L90.2733 31.3412C90.0433 31.8612 89.5433 32.1812 88.9533 32.1812C88.5433 32.1812 88.1933 32.0412 87.9133 31.7512C87.6333 31.4612 87.4933 31.1112 87.4933 30.6812C87.4933 30.2512 87.6333 29.9012 87.9133 29.6112C88.1933 29.3212 88.5433 29.1812 88.9533 29.1812C89.5433 29.1812 90.0433 29.5012 90.2733 30.0212L91.5233 29.6512ZM92.4917 33.2812H93.7417V30.8712L95.6717 33.2812H97.2017L95.0417 30.5912L96.9917 28.0812H95.4817L93.7417 30.3112V25.7812H92.4917V33.2812ZM99.4738 32.9212C99.4738 32.3112 99.1238 31.8712 98.6138 31.8712C98.1638 31.8712 97.8338 32.2012 97.8338 32.6312C97.8338 33.0212 98.1138 33.3513 98.4738 33.4213C98.4738 33.6112 98.2838 33.8913 97.9038 34.2813L98.3038 34.6913C99.0838 34.1713 99.4738 33.5813 99.4738 32.9212Z" fill="#A4A7B0"/>
<path d="M31.462 42.4812H29.656V48.6972C29.656 49.2712 29.46 49.7612 29.054 50.1672C28.648 50.5592 28.158 50.7552 27.556 50.7552C26.772 50.7552 26.1 50.3772 25.764 49.7612L24.196 50.7692C24.882 51.8332 26.114 52.4913 27.528 52.4913C28.662 52.4913 29.6 52.1272 30.342 51.4132C31.084 50.6852 31.462 49.7752 31.462 48.6972V42.4812ZM33.9964 51.3992C34.7384 52.1272 35.6484 52.4913 36.7544 52.4913C37.8604 52.4913 38.7704 52.1272 39.5124 51.3992C40.2544 50.6572 40.6184 49.7472 40.6184 48.6412C40.6184 47.5352 40.2544 46.6252 39.5124 45.8972C38.7704 45.1552 37.8604 44.7912 36.7544 44.7912C35.6484 44.7912 34.7384 45.1552 33.9964 45.8972C33.2684 46.6252 32.9044 47.5352 32.9044 48.6412C32.9044 49.7472 33.2684 50.6572 33.9964 51.3992ZM35.2984 47.1432C35.6904 46.7372 36.1804 46.5412 36.7544 46.5412C37.3284 46.5412 37.8184 46.7372 38.2104 47.1432C38.6024 47.5492 38.7984 48.0392 38.7984 48.6412C38.7984 49.2432 38.6024 49.7332 38.2104 50.1392C37.8184 50.5452 37.3284 50.7412 36.7544 50.7412C36.1804 50.7412 35.6904 50.5452 35.2984 50.1392C34.9064 49.7332 34.7104 49.2432 34.7104 48.6412C34.7104 48.0392 34.9064 47.5492 35.2984 47.1432ZM47.4947 46.7512C47.3127 45.5332 46.2907 44.7912 44.7087 44.7912C43.0427 44.7912 41.8947 45.5332 41.8947 47.0592C41.8947 48.0812 42.3987 48.6833 43.6307 49.0892L45.1287 49.5652C45.6747 49.7472 45.9407 49.9852 45.9407 50.2652C45.9407 50.7132 45.4367 50.9792 44.7647 50.9792C43.9667 50.9792 43.4627 50.6292 43.3367 50.1112L41.6987 50.3492C41.9087 51.6792 42.9727 52.4913 44.7227 52.4913C46.4027 52.4913 47.6067 51.7212 47.6067 50.2092C47.6067 49.1592 47.0467 48.4872 45.7027 48.0252L44.2047 47.5212C43.7707 47.3672 43.5607 47.1712 43.5607 46.9332C43.5607 46.5272 44.0087 46.3032 44.5827 46.3032C45.2827 46.3032 45.7027 46.5412 45.8567 47.0172L47.4947 46.7512ZM56.3513 49.2852C56.3933 49.0052 56.4073 48.7952 56.4073 48.6412C56.4073 47.5492 56.0433 46.6392 55.3013 45.8972C54.5733 45.1552 53.6633 44.7912 52.5853 44.7912C51.5073 44.7912 50.5973 45.1552 49.8553 45.8972C49.1273 46.6252 48.7633 47.5352 48.7633 48.6412C48.7633 49.7472 49.1413 50.6572 49.8833 51.3992C50.6393 52.1272 51.5773 52.4913 52.6973 52.4913C54.1673 52.4913 55.4273 51.7632 56.0993 50.6012L54.4053 50.1112C53.9853 50.6292 53.4113 50.8812 52.6973 50.8812C51.6753 50.8812 50.8353 50.2372 50.5693 49.2852H56.3513ZM50.5833 47.9272C50.8493 47.0172 51.6473 46.4012 52.5573 46.4012C53.5093 46.4012 54.3213 47.0172 54.6013 47.9272H50.5833ZM59.5085 55.4313V51.7072C60.1525 52.2252 60.8805 52.4913 61.7065 52.4913C62.7145 52.4913 63.5545 52.1272 64.2405 51.3992C64.9265 50.6572 65.2625 49.7472 65.2625 48.6412C65.2625 47.5352 64.9265 46.6252 64.2405 45.8972C63.5545 45.1552 62.7145 44.7912 61.7065 44.7912C60.8805 44.7912 60.1525 45.0572 59.5085 45.5752V45.0012H57.7585V55.4313H59.5085ZM62.8685 47.1432C63.2465 47.5492 63.4425 48.0392 63.4425 48.6412C63.4425 49.2432 63.2465 49.7332 62.8685 50.1392C62.4905 50.5452 62.0285 50.7412 61.4825 50.7412C60.9365 50.7412 60.4745 50.5452 60.0965 50.1392C59.7185 49.7332 59.5365 49.2432 59.5365 48.6412C59.5365 48.0392 59.7185 47.5492 60.0965 47.1432C60.4745 46.7372 60.9365 46.5412 61.4825 46.5412C62.0285 46.5412 62.4905 46.7372 62.8685 47.1432ZM66.7475 52.2812H68.4975V48.1232C68.4975 47.1712 69.2255 46.4572 70.2195 46.4572C71.2135 46.4572 71.9415 47.1712 71.9415 48.1232V52.2812H73.6775V47.6332C73.6775 46.8212 73.3975 46.1492 72.8375 45.6032C72.2915 45.0572 71.5915 44.7912 70.7515 44.7912C69.7855 44.7912 69.0435 45.1552 68.4975 45.8832V41.7812H66.7475V52.2812ZM77.1857 52.2812V45.0012H75.4357V52.2812H77.1857ZM76.3037 44.3572C76.9617 44.3572 77.4237 43.8672 77.4237 43.2372C77.4237 42.6072 76.9337 42.1312 76.3037 42.1312C75.6737 42.1312 75.1977 42.6072 75.1977 43.2372C75.1977 43.8672 75.6737 44.3572 76.3037 44.3572ZM78.9559 52.2812H80.7059V48.1232C80.7059 47.1712 81.4199 46.4572 82.3719 46.4572C83.3099 46.4572 84.0099 47.1712 84.0099 48.1232V52.2812H85.7599V47.6332C85.7599 46.8212 85.4799 46.1492 84.9339 45.6032C84.3879 45.0572 83.7159 44.7912 82.8899 44.7912C81.9659 44.7912 81.2379 45.1552 80.7059 45.8832V45.0012H78.9559V52.2812ZM94.8431 49.2852C94.8851 49.0052 94.8991 48.7952 94.8991 48.6412C94.8991 47.5492 94.5351 46.6392 93.7931 45.8972C93.0651 45.1552 92.1551 44.7912 91.0771 44.7912C89.9991 44.7912 89.0891 45.1552 88.3471 45.8972C87.6191 46.6252 87.2551 47.5352 87.2551 48.6412C87.2551 49.7472 87.6331 50.6572 88.3751 51.3992C89.1311 52.1272 90.0691 52.4913 91.1891 52.4913C92.6591 52.4913 93.9191 51.7632 94.5911 50.6012L92.8971 50.1112C92.4771 50.6292 91.9031 50.8812 91.1891 50.8812C90.1671 50.8812 89.3271 50.2372 89.0611 49.2852H94.8431ZM89.0751 47.9272C89.3411 47.0172 90.1391 46.4012 91.0491 46.4012C92.0011 46.4012 92.8131 47.0172 93.0931 47.9272H89.0751ZM105.236 52.2812C106.132 52.2812 106.888 52.0152 107.49 51.4832C108.092 50.9372 108.4 50.2792 108.4 49.4812C108.4 48.4592 107.938 47.6752 107.028 47.1292C107.658 46.6112 107.98 45.9532 107.98 45.1552C107.98 44.3852 107.686 43.7552 107.112 43.2512C106.538 42.7332 105.824 42.4812 104.956 42.4812H100.21V52.2812H105.236ZM105.236 48.1092C105.922 48.1092 106.44 48.6412 106.44 49.3272C106.44 50.0132 105.922 50.5452 105.236 50.5452H102.086V48.1092H105.236ZM104.956 44.2172C105.572 44.2172 106.034 44.6792 106.034 45.2952C106.034 45.9252 105.572 46.3872 104.956 46.3872H102.086V44.2172H104.956ZM109.437 51.3852C109.437 52.0152 109.899 52.4913 110.529 52.4913C111.159 52.4913 111.621 52.0152 111.621 51.3852C111.621 50.7692 111.159 50.2932 110.529 50.2932C109.899 50.2932 109.437 50.7692 109.437 51.3852Z" fill="#6E7177"/>
<path d="M188 30.2812H202V32.2812H188V30.2812Z" fill="#F4F6F8"/>
<rect x="24" y="71" width="182" height="126" rx="12" fill="#EFECFF"/>
<path d="M55.8718 150V140.9H54.4158V150H55.8718ZM57.1724 144.423H58.1994V147.933C58.1994 148.518 58.4074 149.012 58.8234 149.415C59.2394 149.805 59.7464 150 60.3574 150H61.3454V148.7H60.4614C59.9414 148.7 59.5514 148.284 59.5514 147.751V144.423H61.3454V143.24H59.5514V141.901H58.1994V143.24H57.1724V144.423ZM63.9104 144.007L64.0144 140.9H62.7144L62.8314 144.007H63.9104ZM70.3631 144.787C70.1681 143.734 69.2581 143.071 67.8671 143.071C66.3981 143.071 65.3451 143.747 65.3451 145.086C65.3451 145.97 65.8001 146.516 66.8531 146.88L68.3611 147.387C68.9071 147.582 69.1801 147.842 69.1801 148.167C69.1801 148.674 68.6341 148.986 67.9061 148.986C67.0871 148.986 66.5541 148.622 66.4371 148.089L65.1631 148.284C65.3581 149.441 66.3331 150.169 67.8801 150.169C69.3881 150.169 70.4801 149.467 70.4801 148.128C70.4801 147.205 69.9731 146.607 68.8161 146.178L67.2951 145.658C66.8661 145.502 66.6451 145.281 66.6451 144.982C66.6451 144.527 67.1261 144.254 67.7631 144.254C68.4781 144.254 68.9461 144.553 69.0891 145.008L70.3631 144.787ZM77.3991 150.572C77.1001 151.313 76.6451 151.625 75.8521 151.625H75.5661V152.925H75.8521C77.2041 152.925 78.0361 152.34 78.5691 151.027L81.7541 143.24H80.3631L78.3741 148.154L76.4501 143.24H75.0591L77.6981 149.831L77.3991 150.572ZM83.4507 149.155C84.1267 149.831 84.9717 150.169 85.9857 150.169C86.9997 150.169 87.8447 149.831 88.5207 149.155C89.2097 148.479 89.5477 147.634 89.5477 146.62C89.5477 145.606 89.2097 144.761 88.5207 144.085C87.8447 143.409 86.9997 143.071 85.9857 143.071C84.9717 143.071 84.1267 143.409 83.4507 144.085C82.7747 144.761 82.4367 145.606 82.4367 146.62C82.4367 147.634 82.7747 148.479 83.4507 149.155ZM85.9857 148.817C85.3747 148.817 84.8677 148.609 84.4517 148.193C84.0487 147.764 83.8407 147.244 83.8407 146.62C83.8407 145.996 84.0487 145.476 84.4517 145.06C84.8677 144.631 85.3747 144.423 85.9857 144.423C86.5967 144.423 87.1167 144.631 87.5197 145.06C87.9357 145.476 88.1437 145.996 88.1437 146.62C88.1437 147.244 87.9357 147.764 87.5197 148.193C87.1167 148.609 86.5967 148.817 85.9857 148.817ZM91.1077 147.504C91.1077 148.271 91.3677 148.908 91.8747 149.415C92.3817 149.922 93.0317 150.169 93.8117 150.169C94.7607 150.169 95.5017 149.792 96.0217 149.038V150H97.3737V143.24H96.0217V147.114C96.0217 147.621 95.8527 148.037 95.5017 148.375C95.1507 148.713 94.7217 148.882 94.2017 148.882C93.7077 148.882 93.2917 148.713 92.9537 148.388C92.6287 148.05 92.4597 147.634 92.4597 147.127V143.24H91.1077V147.504ZM100.604 143.24H99.2518V150H100.604V146.23C100.604 145.723 100.773 145.307 101.124 144.982C101.475 144.644 101.917 144.475 102.424 144.475C102.671 144.475 102.866 144.514 103.009 144.579V143.071C101.904 143.071 101.111 143.461 100.604 144.228V143.24ZM111.053 143.071C110.104 143.071 109.311 143.409 108.674 144.085C108.037 144.761 107.725 145.606 107.725 146.62C107.725 147.634 108.037 148.479 108.674 149.155C109.311 149.831 110.104 150.169 111.053 150.169C111.924 150.169 112.678 149.87 113.302 149.272V150H114.654V140.25H113.302V143.968C112.678 143.37 111.924 143.071 111.053 143.071ZM111.196 144.423C111.781 144.423 112.275 144.631 112.678 145.06C113.081 145.476 113.276 145.996 113.276 146.62C113.276 147.244 113.081 147.764 112.678 148.193C112.275 148.609 111.781 148.817 111.196 148.817C110.611 148.817 110.13 148.609 109.727 148.193C109.324 147.764 109.129 147.244 109.129 146.62C109.129 145.996 109.324 145.476 109.727 145.06C110.13 144.631 110.611 144.423 111.196 144.423ZM119.552 143.071C118.603 143.071 117.81 143.409 117.173 144.085C116.536 144.761 116.224 145.606 116.224 146.62C116.224 147.634 116.536 148.479 117.173 149.155C117.81 149.831 118.603 150.169 119.552 150.169C120.423 150.169 121.177 149.87 121.801 149.272V150H123.153V143.24H121.801V143.968C121.177 143.37 120.423 143.071 119.552 143.071ZM119.695 144.423C120.28 144.423 120.774 144.631 121.177 145.06C121.58 145.476 121.775 145.996 121.775 146.62C121.775 147.244 121.58 147.764 121.177 148.193C120.774 148.609 120.28 148.817 119.695 148.817C119.11 148.817 118.629 148.609 118.226 148.193C117.823 147.764 117.628 147.244 117.628 146.62C117.628 145.996 117.823 145.476 118.226 145.06C118.629 144.631 119.11 144.423 119.695 144.423ZM125.009 147.504C125.009 148.271 125.269 148.908 125.776 149.415C126.283 149.922 126.933 150.169 127.713 150.169C128.662 150.169 129.403 149.792 129.923 149.038V150H131.275V143.24H129.923V147.114C129.923 147.621 129.754 148.037 129.403 148.375C129.052 148.713 128.623 148.882 128.103 148.882C127.609 148.882 127.193 148.713 126.855 148.388C126.53 148.05 126.361 147.634 126.361 147.127V143.24H125.009V147.504ZM136.182 143.071C135.233 143.071 134.44 143.409 133.803 144.085C133.166 144.761 132.854 145.606 132.854 146.62C132.854 147.634 133.166 148.479 133.803 149.155C134.44 149.831 135.233 150.169 136.182 150.169C137.053 150.169 137.807 149.87 138.431 149.272V149.766C138.431 150.325 138.236 150.793 137.833 151.17C137.43 151.547 136.936 151.742 136.351 151.742C135.571 151.742 134.856 151.352 134.557 150.793L133.192 151.196C133.439 151.755 133.855 152.21 134.453 152.561C135.051 152.912 135.701 153.094 136.403 153.094C137.352 153.094 138.145 152.769 138.795 152.132C139.458 151.495 139.783 150.715 139.783 149.766V143.24H138.431V143.968C137.807 143.37 137.053 143.071 136.182 143.071ZM136.325 144.423C136.91 144.423 137.404 144.631 137.807 145.06C138.21 145.476 138.405 145.996 138.405 146.62C138.405 147.244 138.21 147.764 137.807 148.193C137.404 148.609 136.91 148.817 136.325 148.817C135.74 148.817 135.259 148.609 134.856 148.193C134.453 147.764 134.258 147.244 134.258 146.62C134.258 145.996 134.453 145.476 134.856 145.06C135.259 144.631 135.74 144.423 136.325 144.423ZM141.653 150H143.005V146.126C143.005 145.619 143.187 145.203 143.538 144.865C143.902 144.527 144.344 144.358 144.877 144.358C145.384 144.358 145.813 144.527 146.151 144.865C146.489 145.19 146.658 145.606 146.658 146.113V150H148.01V145.723C148.01 144.956 147.75 144.332 147.23 143.825C146.71 143.318 146.06 143.071 145.267 143.071C144.266 143.071 143.512 143.461 143.005 144.228V140.25H141.653V150ZM149.223 144.423H150.25V147.933C150.25 148.518 150.458 149.012 150.874 149.415C151.29 149.805 151.797 150 152.408 150H153.396V148.7H152.512C151.992 148.7 151.602 148.284 151.602 147.751V144.423H153.396V143.24H151.602V141.901H150.25V143.24H149.223V144.423ZM161.525 147.114C161.538 146.893 161.551 146.724 161.551 146.62C161.551 145.606 161.213 144.761 160.537 144.085C159.874 143.409 159.042 143.071 158.041 143.071C157.04 143.071 156.195 143.409 155.519 144.085C154.856 144.761 154.518 145.606 154.518 146.62C154.518 147.634 154.869 148.479 155.558 149.155C156.247 149.831 157.118 150.169 158.145 150.169C159.497 150.169 160.641 149.519 161.265 148.466L159.939 148.063C159.51 148.622 158.912 148.908 158.145 148.908C157.014 148.908 156.117 148.167 155.909 147.114H161.525ZM155.922 146.035C156.169 145.034 157.014 144.332 158.002 144.332C159.055 144.332 159.913 145.034 160.16 146.035H155.922ZM164.364 143.24H163.012V150H164.364V146.23C164.364 145.723 164.533 145.307 164.884 144.982C165.235 144.644 165.677 144.475 166.184 144.475C166.431 144.475 166.626 144.514 166.769 144.579V143.071C165.664 143.071 164.871 143.461 164.364 144.228V143.24ZM169.189 144.007L169.293 140.9H167.993L168.11 144.007H169.189ZM175.641 144.787C175.446 143.734 174.536 143.071 173.145 143.071C171.676 143.071 170.623 143.747 170.623 145.086C170.623 145.97 171.078 146.516 172.131 146.88L173.639 147.387C174.185 147.582 174.458 147.842 174.458 148.167C174.458 148.674 173.912 148.986 173.184 148.986C172.365 148.986 171.832 148.622 171.715 148.089L170.441 148.284C170.636 149.441 171.611 150.169 173.158 150.169C174.666 150.169 175.758 149.467 175.758 148.128C175.758 147.205 175.251 146.607 174.094 146.178L172.573 145.658C172.144 145.502 171.923 145.281 171.923 144.982C171.923 144.527 172.404 144.254 173.041 144.254C173.756 144.254 174.224 144.553 174.367 145.008L175.641 144.787ZM42.5853 165H43.9373V164.272C44.5613 164.87 45.3153 165.169 46.1863 165.169C47.1353 165.169 47.9283 164.831 48.5653 164.155C49.2023 163.479 49.5143 162.634 49.5143 161.62C49.5143 160.606 49.2023 159.761 48.5653 159.085C47.9283 158.409 47.1353 158.071 46.1863 158.071C45.3153 158.071 44.5613 158.37 43.9373 158.968V155.25H42.5853V165ZM46.0303 159.423C46.6153 159.423 47.1093 159.631 47.5123 160.06C47.9153 160.476 48.1103 160.996 48.1103 161.62C48.1103 162.244 47.9153 162.764 47.5123 163.193C47.1093 163.609 46.6153 163.817 46.0303 163.817C45.4453 163.817 44.9643 163.609 44.5613 163.193C44.1583 162.764 43.9633 162.244 43.9633 161.62C43.9633 160.996 44.1583 160.476 44.5613 160.06C44.9643 159.631 45.4453 159.423 46.0303 159.423ZM52.4365 165V158.24H51.0845V165H52.4365ZM51.1235 157.239C51.4745 157.59 52.0465 157.59 52.3975 157.239C52.7485 156.888 52.7485 156.316 52.3975 155.965C52.0465 155.614 51.4745 155.614 51.1235 155.965C50.7985 156.316 50.7985 156.888 51.1235 157.239ZM55.6545 158.24H54.3025V165H55.6545V161.23C55.6545 160.723 55.8235 160.307 56.1745 159.982C56.5255 159.644 56.9675 159.475 57.4745 159.475C57.7215 159.475 57.9165 159.514 58.0595 159.579V158.071C56.9545 158.071 56.1615 158.461 55.6545 159.228V158.24ZM58.7113 159.423H59.7383V162.933C59.7383 163.518 59.9463 164.012 60.3623 164.415C60.7783 164.805 61.2853 165 61.8963 165H62.8843V163.7H62.0003C61.4803 163.7 61.0903 163.284 61.0903 162.751V159.423H62.8843V158.24H61.0903V156.901H59.7383V158.24H58.7113V159.423ZM64.3313 165H65.6833V161.126C65.6833 160.619 65.8653 160.203 66.2163 159.865C66.5803 159.527 67.0223 159.358 67.5553 159.358C68.0623 159.358 68.4913 159.527 68.8293 159.865C69.1673 160.19 69.3363 160.606 69.3363 161.113V165H70.6883V160.723C70.6883 159.956 70.4283 159.332 69.9083 158.825C69.3883 158.318 68.7383 158.071 67.9453 158.071C66.9443 158.071 66.1903 158.461 65.6833 159.228V155.25H64.3313V165ZM75.5803 158.071C74.6313 158.071 73.8383 158.409 73.2013 159.085C72.5643 159.761 72.2523 160.606 72.2523 161.62C72.2523 162.634 72.5643 163.479 73.2013 164.155C73.8383 164.831 74.6313 165.169 75.5803 165.169C76.4513 165.169 77.2053 164.87 77.8293 164.272V165H79.1813V155.25H77.8293V158.968C77.2053 158.37 76.4513 158.071 75.5803 158.071ZM75.7233 159.423C76.3083 159.423 76.8023 159.631 77.2053 160.06C77.6083 160.476 77.8033 160.996 77.8033 161.62C77.8033 162.244 77.6083 162.764 77.2053 163.193C76.8023 163.609 76.3083 163.817 75.7233 163.817C75.1383 163.817 74.6573 163.609 74.2543 163.193C73.8513 162.764 73.6563 162.244 73.6563 161.62C73.6563 160.996 73.8513 160.476 74.2543 160.06C74.6573 159.631 75.1383 159.423 75.7233 159.423ZM84.0795 158.071C83.1305 158.071 82.3375 158.409 81.7005 159.085C81.0635 159.761 80.7515 160.606 80.7515 161.62C80.7515 162.634 81.0635 163.479 81.7005 164.155C82.3375 164.831 83.1305 165.169 84.0795 165.169C84.9505 165.169 85.7045 164.87 86.3285 164.272V165H87.6805V158.24H86.3285V158.968C85.7045 158.37 84.9505 158.071 84.0795 158.071ZM84.2225 159.423C84.8075 159.423 85.3015 159.631 85.7045 160.06C86.1075 160.476 86.3025 160.996 86.3025 161.62C86.3025 162.244 86.1075 162.764 85.7045 163.193C85.3015 163.609 84.8075 163.817 84.2225 163.817C83.6375 163.817 83.1565 163.609 82.7535 163.193C82.3505 162.764 82.1555 162.244 82.1555 161.62C82.1555 160.996 82.3505 160.476 82.7535 160.06C83.1565 159.631 83.6375 159.423 84.2225 159.423ZM91.2398 165.572C90.9408 166.313 90.4858 166.625 89.6928 166.625H89.4068V167.925H89.6928C91.0448 167.925 91.8768 167.34 92.4098 166.027L95.5948 158.24H94.2038L92.2148 163.154L90.2908 158.24H88.8998L91.5388 164.831L91.2398 165.572ZM99.8807 159.423H100.908V162.933C100.908 163.518 101.116 164.012 101.532 164.415C101.948 164.805 102.455 165 103.066 165H104.054V163.7H103.17C102.65 163.7 102.26 163.284 102.26 162.751V159.423H104.054V158.24H102.26V156.901H100.908V158.24H99.8807V159.423ZM106.19 164.155C106.866 164.831 107.711 165.169 108.725 165.169C109.739 165.169 110.584 164.831 111.26 164.155C111.949 163.479 112.287 162.634 112.287 161.62C112.287 160.606 111.949 159.761 111.26 159.085C110.584 158.409 109.739 158.071 108.725 158.071C107.711 158.071 106.866 158.409 106.19 159.085C105.514 159.761 105.176 160.606 105.176 161.62C105.176 162.634 105.514 163.479 106.19 164.155ZM108.725 163.817C108.114 163.817 107.607 163.609 107.191 163.193C106.788 162.764 106.58 162.244 106.58 161.62C106.58 160.996 106.788 160.476 107.191 160.06C107.607 159.631 108.114 159.423 108.725 159.423C109.336 159.423 109.856 159.631 110.259 160.06C110.675 160.476 110.883 160.996 110.883 161.62C110.883 162.244 110.675 162.764 110.259 163.193C109.856 163.609 109.336 163.817 108.725 163.817ZM116.889 158.071C115.94 158.071 115.147 158.409 114.51 159.085C113.873 159.761 113.561 160.606 113.561 161.62C113.561 162.634 113.873 163.479 114.51 164.155C115.147 164.831 115.94 165.169 116.889 165.169C117.76 165.169 118.514 164.87 119.138 164.272V165H120.49V155.25H119.138V158.968C118.514 158.37 117.76 158.071 116.889 158.071ZM117.032 159.423C117.617 159.423 118.111 159.631 118.514 160.06C118.917 160.476 119.112 160.996 119.112 161.62C119.112 162.244 118.917 162.764 118.514 163.193C118.111 163.609 117.617 163.817 117.032 163.817C116.447 163.817 115.966 163.609 115.563 163.193C115.16 162.764 114.965 162.244 114.965 161.62C114.965 160.996 115.16 160.476 115.563 160.06C115.966 159.631 116.447 159.423 117.032 159.423ZM125.389 158.071C124.44 158.071 123.647 158.409 123.01 159.085C122.373 159.761 122.061 160.606 122.061 161.62C122.061 162.634 122.373 163.479 123.01 164.155C123.647 164.831 124.44 165.169 125.389 165.169C126.26 165.169 127.014 164.87 127.638 164.272V165H128.99V158.24H127.638V158.968C127.014 158.37 126.26 158.071 125.389 158.071ZM125.532 159.423C126.117 159.423 126.611 159.631 127.014 160.06C127.417 160.476 127.612 160.996 127.612 161.62C127.612 162.244 127.417 162.764 127.014 163.193C126.611 163.609 126.117 163.817 125.532 163.817C124.947 163.817 124.466 163.609 124.063 163.193C123.66 162.764 123.465 162.244 123.465 161.62C123.465 160.996 123.66 160.476 124.063 160.06C124.466 159.631 124.947 159.423 125.532 159.423ZM132.549 165.572C132.25 166.313 131.795 166.625 131.002 166.625H130.716V167.925H131.002C132.354 167.925 133.186 167.34 133.719 166.027L136.904 158.24H135.513L133.524 163.154L131.6 158.24H130.209L132.848 164.831L132.549 165.572ZM144.869 158.071C143.92 158.071 143.127 158.409 142.49 159.085C141.853 159.761 141.541 160.606 141.541 161.62C141.541 162.634 141.853 163.479 142.49 164.155C143.127 164.831 143.92 165.169 144.869 165.169C145.74 165.169 146.494 164.87 147.118 164.272V165H148.47V158.24H147.118V158.968C146.494 158.37 145.74 158.071 144.869 158.071ZM145.012 159.423C145.597 159.423 146.091 159.631 146.494 160.06C146.897 160.476 147.092 160.996 147.092 161.62C147.092 162.244 146.897 162.764 146.494 163.193C146.091 163.609 145.597 163.817 145.012 163.817C144.427 163.817 143.946 163.609 143.543 163.193C143.14 162.764 142.945 162.244 142.945 161.62C142.945 160.996 143.14 160.476 143.543 160.06C143.946 159.631 144.427 159.423 145.012 159.423ZM150.339 165H151.691V161.126C151.691 160.619 151.86 160.203 152.211 159.865C152.562 159.527 153.004 159.358 153.511 159.358C154.512 159.358 155.253 160.112 155.253 161.113V165H156.605V160.723C156.605 159.956 156.345 159.332 155.838 158.825C155.331 158.318 154.681 158.071 153.914 158.071C152.926 158.071 152.185 158.461 151.691 159.228V158.24H150.339V165ZM161.499 158.071C160.55 158.071 159.757 158.409 159.12 159.085C158.483 159.761 158.171 160.606 158.171 161.62C158.171 162.634 158.483 163.479 159.12 164.155C159.757 164.831 160.55 165.169 161.499 165.169C162.37 165.169 163.124 164.87 163.748 164.272V165H165.1V155.25H163.748V158.968C163.124 158.37 162.37 158.071 161.499 158.071ZM161.642 159.423C162.227 159.423 162.721 159.631 163.124 160.06C163.527 160.476 163.722 160.996 163.722 161.62C163.722 162.244 163.527 162.764 163.124 163.193C162.721 163.609 162.227 163.817 161.642 163.817C161.057 163.817 160.576 163.609 160.173 163.193C159.77 162.764 159.575 162.244 159.575 161.62C159.575 160.996 159.77 160.476 160.173 160.06C160.576 159.631 161.057 159.423 161.642 159.423ZM173.477 165L174.946 160.489L176.402 165H177.611L179.86 158.24H178.495L177.013 162.907L175.557 158.24H174.335L172.866 162.907L171.397 158.24H170.032L172.281 165H173.477ZM187.54 162.114C187.553 161.893 187.566 161.724 187.566 161.62C187.566 160.606 187.228 159.761 186.552 159.085C185.889 158.409 185.057 158.071 184.056 158.071C183.055 158.071 182.21 158.409 181.534 159.085C180.871 159.761 180.533 160.606 180.533 161.62C180.533 162.634 180.884 163.479 181.573 164.155C182.262 164.831 183.133 165.169 184.16 165.169C185.512 165.169 186.656 164.519 187.28 163.466L185.954 163.063C185.525 163.622 184.927 163.908 184.16 163.908C183.029 163.908 182.132 163.167 181.924 162.114H187.54ZM181.937 161.035C182.184 160.034 183.029 159.332 184.017 159.332C185.07 159.332 185.928 160.034 186.175 161.035H181.937ZM56.5562 180H57.9082V176.126C57.9082 175.619 58.0902 175.203 58.4412 174.865C58.8052 174.527 59.2472 174.358 59.7802 174.358C60.2872 174.358 60.7162 174.527 61.0542 174.865C61.3922 175.19 61.5612 175.606 61.5612 176.113V180H62.9132V175.723C62.9132 174.956 62.6532 174.332 62.1332 173.825C61.6132 173.318 60.9632 173.071 60.1702 173.071C59.1692 173.071 58.4152 173.461 57.9082 174.228V170.25H56.5562V180ZM67.8052 173.071C66.8562 173.071 66.0632 173.409 65.4262 174.085C64.7892 174.761 64.4772 175.606 64.4772 176.62C64.4772 177.634 64.7892 178.479 65.4262 179.155C66.0632 179.831 66.8562 180.169 67.8052 180.169C68.6762 180.169 69.4302 179.87 70.0542 179.272V180H71.4062V173.24H70.0542V173.968C69.4302 173.37 68.6762 173.071 67.8052 173.071ZM67.9482 174.423C68.5332 174.423 69.0272 174.631 69.4302 175.06C69.8332 175.476 70.0282 175.996 70.0282 176.62C70.0282 177.244 69.8332 177.764 69.4302 178.193C69.0272 178.609 68.5332 178.817 67.9482 178.817C67.3632 178.817 66.8822 178.609 66.4792 178.193C66.0762 177.764 65.8812 177.244 65.8812 176.62C65.8812 175.996 66.0762 175.476 66.4792 175.06C66.8822 174.631 67.3632 174.423 67.9482 174.423ZM75.4724 180H76.7334L79.5804 173.24H78.1894L76.1094 178.271L74.0164 173.24H72.6254L75.4724 180ZM87.2639 177.114C87.2769 176.893 87.2899 176.724 87.2899 176.62C87.2899 175.606 86.9519 174.761 86.2759 174.085C85.6129 173.409 84.7809 173.071 83.7799 173.071C82.7789 173.071 81.9339 173.409 81.2579 174.085C80.5949 174.761 80.2569 175.606 80.2569 176.62C80.2569 177.634 80.6079 178.479 81.2969 179.155C81.9859 179.831 82.8569 180.169 83.8839 180.169C85.2359 180.169 86.3799 179.519 87.0039 178.466L85.6779 178.063C85.2489 178.622 84.6509 178.908 83.8839 178.908C82.7529 178.908 81.8559 178.167 81.6479 177.114H87.2639ZM81.6609 176.035C81.9079 175.034 82.7529 174.332 83.7409 174.332C84.7939 174.332 85.6519 175.034 85.8989 176.035H81.6609ZM95.4926 173.071C94.5436 173.071 93.7506 173.409 93.1136 174.085C92.4766 174.761 92.1646 175.606 92.1646 176.62C92.1646 177.634 92.4766 178.479 93.1136 179.155C93.7506 179.831 94.5436 180.169 95.4926 180.169C96.3636 180.169 97.1176 179.87 97.7416 179.272V180H99.0936V173.24H97.7416V173.968C97.1176 173.37 96.3636 173.071 95.4926 173.071ZM95.6356 174.423C96.2206 174.423 96.7146 174.631 97.1176 175.06C97.5206 175.476 97.7156 175.996 97.7156 176.62C97.7156 177.244 97.5206 177.764 97.1176 178.193C96.7146 178.609 96.2206 178.817 95.6356 178.817C95.0506 178.817 94.5696 178.609 94.1666 178.193C93.7636 177.764 93.5686 177.244 93.5686 176.62C93.5686 175.996 93.7636 175.476 94.1666 175.06C94.5696 174.631 95.0506 174.423 95.6356 174.423ZM107.705 173.071C106.756 173.071 105.963 173.409 105.326 174.085C104.689 174.761 104.377 175.606 104.377 176.62C104.377 177.634 104.689 178.479 105.326 179.155C105.963 179.831 106.756 180.169 107.705 180.169C108.576 180.169 109.33 179.87 109.954 179.272V179.766C109.954 180.325 109.759 180.793 109.356 181.17C108.953 181.547 108.459 181.742 107.874 181.742C107.094 181.742 106.379 181.352 106.08 180.793L104.715 181.196C104.962 181.755 105.378 182.21 105.976 182.561C106.574 182.912 107.224 183.094 107.926 183.094C108.875 183.094 109.668 182.769 110.318 182.132C110.981 181.495 111.306 180.715 111.306 179.766V173.24H109.954V173.968C109.33 173.37 108.576 173.071 107.705 173.071ZM107.848 174.423C108.433 174.423 108.927 174.631 109.33 175.06C109.733 175.476 109.928 175.996 109.928 176.62C109.928 177.244 109.733 177.764 109.33 178.193C108.927 178.609 108.433 178.817 107.848 178.817C107.263 178.817 106.782 178.609 106.379 178.193C105.976 177.764 105.781 177.244 105.781 176.62C105.781 175.996 105.976 175.476 106.379 175.06C106.782 174.631 107.263 174.423 107.848 174.423ZM114.527 180V173.24H113.175V180H114.527ZM113.214 172.239C113.565 172.59 114.137 172.59 114.488 172.239C114.839 171.888 114.839 171.316 114.488 170.965C114.137 170.614 113.565 170.614 113.214 170.965C112.889 171.316 112.889 171.888 113.214 172.239ZM118.187 172.499C118.187 171.966 118.577 171.55 119.097 171.55H119.903V170.25H118.993C118.382 170.25 117.875 170.445 117.459 170.848C117.043 171.238 116.835 171.732 116.835 172.317V173.24H115.756V174.423H116.835V180H118.187V174.423H119.903V173.24H118.187V172.499ZM120.485 174.423H121.512V177.933C121.512 178.518 121.72 179.012 122.136 179.415C122.552 179.805 123.059 180 123.67 180H124.658V178.7H123.774C123.254 178.7 122.864 178.284 122.864 177.751V174.423H124.658V173.24H122.864V171.901H121.512V173.24H120.485V174.423ZM131.612 172.499C131.612 171.966 132.002 171.55 132.522 171.55H133.328V170.25H132.418C131.807 170.25 131.3 170.445 130.884 170.848C130.468 171.238 130.26 171.732 130.26 172.317V173.24H129.181V174.423H130.26V180H131.612V174.423H133.328V173.24H131.612V172.499ZM135.109 179.155C135.785 179.831 136.63 180.169 137.644 180.169C138.658 180.169 139.503 179.831 140.179 179.155C140.868 178.479 141.206 177.634 141.206 176.62C141.206 175.606 140.868 174.761 140.179 174.085C139.503 173.409 138.658 173.071 137.644 173.071C136.63 173.071 135.785 173.409 135.109 174.085C134.433 174.761 134.095 175.606 134.095 176.62C134.095 177.634 134.433 178.479 135.109 179.155ZM137.644 178.817C137.033 178.817 136.526 178.609 136.11 178.193C135.707 177.764 135.499 177.244 135.499 176.62C135.499 175.996 135.707 175.476 136.11 175.06C136.526 174.631 137.033 174.423 137.644 174.423C138.255 174.423 138.775 174.631 139.178 175.06C139.594 175.476 139.802 175.996 139.802 176.62C139.802 177.244 139.594 177.764 139.178 178.193C138.775 178.609 138.255 178.817 137.644 178.817ZM144.131 173.24H142.779V180H144.131V176.23C144.131 175.723 144.3 175.307 144.651 174.982C145.002 174.644 145.444 174.475 145.951 174.475C146.198 174.475 146.393 174.514 146.536 174.579V173.071C145.431 173.071 144.638 173.461 144.131 174.228V173.24ZM151.551 180H152.903V176.126C152.903 175.619 153.085 175.203 153.436 174.865C153.8 174.527 154.242 174.358 154.775 174.358C155.282 174.358 155.711 174.527 156.049 174.865C156.387 175.19 156.556 175.606 156.556 176.113V180H157.908V175.723C157.908 174.956 157.648 174.332 157.128 173.825C156.608 173.318 155.958 173.071 155.165 173.071C154.164 173.071 153.41 173.461 152.903 174.228V170.25H151.551V180ZM166.479 177.114C166.492 176.893 166.505 176.724 166.505 176.62C166.505 175.606 166.167 174.761 165.491 174.085C164.828 173.409 163.996 173.071 162.995 173.071C161.994 173.071 161.149 173.409 160.473 174.085C159.81 174.761 159.472 175.606 159.472 176.62C159.472 177.634 159.823 178.479 160.512 179.155C161.201 179.831 162.072 180.169 163.099 180.169C164.451 180.169 165.595 179.519 166.219 178.466L164.893 178.063C164.464 178.622 163.866 178.908 163.099 178.908C161.968 178.908 161.071 178.167 160.863 177.114H166.479ZM160.876 176.035C161.123 175.034 161.968 174.332 162.956 174.332C164.009 174.332 164.867 175.034 165.114 176.035H160.876ZM169.318 173.24H167.966V180H169.318V176.23C169.318 175.723 169.487 175.307 169.838 174.982C170.189 174.644 170.631 174.475 171.138 174.475C171.385 174.475 171.58 174.514 171.723 174.579V173.071C170.618 173.071 169.825 173.461 169.318 174.228V173.24ZM172.173 179.922C172.524 180.247 173.122 180.247 173.473 179.922C173.824 179.571 173.824 178.973 173.473 178.622C173.122 178.271 172.524 178.271 172.173 178.622C171.848 178.973 171.848 179.571 172.173 179.922Z" fill="#7D5FFF"/>
<g clip-path="url(#clip0_715_2539)">
<path d="M108.626 92.488C108.514 92.6 108.429 92.735 108.358 92.883L108.35 92.875L97.134 118.141L97.145 118.152C96.937 118.555 97.285 119.375 97.998 120.089C98.711 120.802 99.531 121.15 99.934 120.942L99.944 120.952L125.21 109.735L125.202 109.726C125.349 109.656 125.484 109.571 125.597 109.457C127.159 107.895 124.626 102.83 119.941 98.144C115.254 93.458 110.189 90.926 108.626 92.488Z" fill="#DD2E44"/>
<path d="M110 97L97.416 117.506L97.134 118.141L97.145 118.152C96.937 118.555 97.285 119.375 97.998 120.089C98.23 120.321 98.471 120.497 98.707 120.646L114 102L110 97Z" fill="#EA596E"/>
<path d="M120.012 98.066C124.682 102.738 127.275 107.718 125.801 109.19C124.328 110.664 119.348 108.072 114.675 103.402C110.004 98.73 107.412 93.748 108.885 92.275C110.359 90.802 115.339 93.394 120.012 98.066Z" fill="#A0041E"/>
<path d="M115.59 98.609C115.391 98.77 115.131 98.854 114.856 98.824C113.988 98.73 113.258 98.428 112.747 97.951C112.206 97.446 111.939 96.768 112.012 96.089C112.14 94.897 113.336 93.803 115.375 94.023C116.168 94.108 116.522 93.853 116.534 93.731C116.548 93.61 116.257 93.285 115.464 93.199C114.596 93.105 113.866 92.803 113.354 92.326C112.813 91.821 112.545 91.143 112.619 90.464C112.749 89.272 113.944 88.178 115.981 88.399C116.559 88.461 116.864 88.342 116.993 88.265C117.096 88.202 117.137 88.142 117.141 88.107C117.153 87.986 116.866 87.661 116.071 87.575C115.522 87.515 115.124 87.023 115.185 86.473C115.244 85.924 115.735 85.527 116.286 85.587C118.323 85.806 119.259 87.129 119.13 88.322C119 89.516 117.805 90.608 115.766 90.389C115.188 90.326 114.886 90.446 114.756 90.523C114.653 90.585 114.611 90.646 114.607 90.68C114.594 90.802 114.883 91.126 115.678 91.212C117.715 91.432 118.651 92.754 118.522 93.947C118.393 95.139 117.198 96.233 115.16 96.012C114.582 95.95 114.278 96.07 114.148 96.146C114.044 96.21 114.004 96.27 114 96.304C113.987 96.425 114.276 96.75 115.07 96.836C115.618 96.896 116.017 97.389 115.956 97.938C115.928 98.212 115.789 98.449 115.59 98.609Z" fill="#AA8DD8"/>
<path d="M127.661 107.857C129.634 107.3 130.995 108.18 131.319 109.335C131.643 110.489 130.941 111.95 128.969 112.505C128.199 112.721 127.968 113.089 127.999 113.206C128.033 113.324 128.424 113.518 129.192 113.301C131.164 112.746 132.525 113.626 132.849 114.78C133.175 115.935 132.471 117.394 130.498 117.95C129.729 118.166 129.497 118.535 129.531 118.652C129.564 118.769 129.954 118.963 130.723 118.747C131.253 118.598 131.807 118.907 131.956 119.438C132.104 119.97 131.795 120.522 131.263 120.672C129.292 121.227 127.93 120.349 127.604 119.193C127.28 118.039 127.983 116.58 129.957 116.024C130.727 115.807 130.958 115.44 130.924 115.322C130.892 115.205 130.502 115.01 129.734 115.226C127.76 115.782 126.4 114.904 126.075 113.747C125.75 112.593 126.453 111.134 128.426 110.577C129.194 110.362 129.425 109.992 129.393 109.876C129.359 109.758 128.97 109.564 128.201 109.78C127.669 109.93 127.118 109.62 126.968 109.089C126.819 108.559 127.129 108.007 127.661 107.857Z" fill="#77B255"/>
<path d="M120.001 105.16C119.707 105.16 119.417 105.031 119.219 104.785C118.874 104.353 118.945 103.724 119.375 103.379C119.593 103.204 124.793 99.12 132.142 100.171C132.689 100.249 133.069 100.755 132.991 101.302C132.913 101.848 132.411 102.232 131.859 102.15C125.366 101.228 120.672 104.904 120.626 104.941C120.44 105.089 120.22 105.16 120.001 105.16Z" fill="#AA8DD8"/>
<path d="M102.754 101C102.659 101 102.562 100.986 102.466 100.958C101.937 100.799 101.637 100.242 101.796 99.713C102.929 95.94 103.956 89.919 102.694 88.349C102.553 88.171 102.34 87.996 101.852 88.033C100.914 88.105 101.003 90.084 101.004 90.104C101.046 90.655 100.632 91.135 100.082 91.176C99.523 91.21 99.051 90.804 99.01 90.253C98.907 88.874 99.336 86.218 101.702 86.039C102.758 85.959 103.635 86.326 104.254 87.096C106.625 90.047 104.218 98.602 103.712 100.288C103.582 100.721 103.184 101 102.754 101Z" fill="#77B255"/>
<path d="M122.5 96C123.328 96 124 95.3284 124 94.5C124 93.6716 123.328 93 122.5 93C121.672 93 121 93.6716 121 94.5C121 95.3284 121.672 96 122.5 96Z" fill="#5C913B"/>
<path d="M99 105C100.105 105 101 104.105 101 103C101 101.895 100.105 101 99 101C97.8954 101 97 101.895 97 103C97 104.105 97.8954 105 99 105Z" fill="#9266CC"/>
<path d="M129.5 106C130.328 106 131 105.328 131 104.5C131 103.672 130.328 103 129.5 103C128.672 103 128 103.672 128 104.5C128 105.328 128.672 106 129.5 106Z" fill="#5C913B"/>
<path d="M120.5 118C121.328 118 122 117.328 122 116.5C122 115.672 121.328 115 120.5 115C119.672 115 119 115.672 119 116.5C119 117.328 119.672 118 120.5 118Z" fill="#5C913B"/>
<path d="M125 91C126.105 91 127 90.1046 127 89C127 87.8954 126.105 87 125 87C123.895 87 123 87.8954 123 89C123 90.1046 123.895 91 125 91Z" fill="#FFCC4D"/>
<path d="M129.5 95C130.328 95 131 94.3284 131 93.5C131 92.6716 130.328 92 129.5 92C128.672 92 128 92.6716 128 93.5C128 94.3284 128.672 95 129.5 95Z" fill="#FFCC4D"/>
<path d="M126.5 99C127.328 99 128 98.3284 128 97.5C128 96.6716 127.328 96 126.5 96C125.672 96 125 96.6716 125 97.5C125 98.3284 125.672 99 126.5 99Z" fill="#FFCC4D"/>
<path d="M104.5 110C105.328 110 106 109.328 106 108.5C106 107.672 105.328 107 104.5 107C103.672 107 103 107.672 103 108.5C103 109.328 103.672 110 104.5 110Z" fill="#FFCC4D"/>
</g>
<defs>
<clipPath id="clip0_715_2539">
<rect width="36" height="36" fill="white" transform="translate(97 85)"/>
</clipPath>
</defs>
</svg>
